/* XPM */
static char *_035b135bdfa4e53feffc6bd6e50cf08JL6JYBCfY18TlO9H[] = {
/* columns rows colors chars-per-pixel */
"74 58 5 1 ",
"  c None",
". c #25131A",
"X c #2E4641",
"o c #337B5C",
"O c #6EA958",
/* pixels */
"                                 .                                        ",
"                               ..O.                                       ",
"                              .OOX.                                       ",
"                             .OOXXX.                                      ",
"                            .OOXXXX.                                      ",
"                            .OXXXXXX.                                     ",
"                           .OOXXXXXX.                                     ",
"                           .OOoXXXXXX.                                    ",
"                          .OOOooXXXXX.                                    ",
"                          .OOOoooXXXXX.                                   ",
"                         .OOOooooXXXXX.                                   ",
"                        .OOOOooooXXXXXX.                                  ",
"                        .OOOOooooXXXXXX.                                  ",
"                       .OOOOOoooooXXXXXX.                                 ",
"                       .OOOOOoooooXXXXXX.                                 ",
"                      .OOOOOooooooXXXXXXX.                                ",
"                      .OOOOOooooooXXXXXXX.                                ",
"                     .OOOOOOooooooXXXXXXXX.            .                  ",
"                    .oOOOOOOooooooXXXXXXXX.           .X.                 ",
"                     .OOOOOOooooooXXXXXXXXX.         .OXX.                ",
"                     .oOOOOOooooooXXXXXXXXX.        .OOXXX.               ",
"                     .oOOOOOoooooooXXXXXXXXX.      .OOXXXXX.              ",
"     ................oooOOOooooooooXXXXXXXXX.     .OOOXXXXXX.             ",
"     .XOOOOOOOOOOOOOOOoooOOooooooooXXXXXXXXXX.   .OOOXXXXXXXX.            ",
"     .XXOOOOOOOOOOOOOOOoooOooooooooXXXXXXXXXX.  .OOOOXXXXXXXXX.           ",
"     .XXXOOOOOOOOOOOOOOOoooooooooooXXXXXXXXXXX..OOOOXXXXXXXXXX.           ",
"     .XXXXOOOOOOOOOOOOOOOooooooooooXXXXXXXXXXOOOOOOOXXXXXXXXXX.           ",
"     .XXXXXXOOOOOOOOOOOOOooooooooooXXXXXXXXXOOOOOOOoXXXXXXXXXX.           ",
"     .XXXXXXXOOOOOOOOOOOOOoooooooooXXXOXXXXOOOOOOOoXXXXXXXXXXXX.          ",
"     .XXXXXXXXOOOOOOOOOOOOOooooooooXXOXXXXXOOOOOoooXXXXXXXXXXXX.          ",
"     .XXXXXXXXXOOOOOOOOOOooooooooooXOXXXXoOOOOoooooXXXXXXXXXXXX.          ",
"      .XXXXXXXXXOOOoooooooooooooooOOXXXXoOOOooooooXXXXXXXXXXXXXX.         ",
"       .XXXXXXXXXooXoooooooooooooOOXXXXoOoooooooooXXXXXXXXXXXXXXX.        ",
"        .XXXXXXXooXXXoooooooooooOOXXXXXoooooooooooXXXXXXXXXXXXXXXX.       ",
"         .XXXXXXoXXXXXoooooooooOOXXXXXXooooooooooXXXXXXXXXXXXXXXXX.       ",
"          .XXXXoXXXXXXXoooooooOOXXXXXXXooooooooooXXXXXXXXXXXXXXXXXX.      ",
"           .XXoXXXXXXXXoooooOOOXXXXXXXXooooooooooXXXXXXXXXXXXXXXXXXX.     ",
"            .XXXXXXXXXXXoooOOOXXXXXXXXXoooooooooXXXXXXXXXXXXXXXXXXXXX.    ",
"           .XXXXXXXXXXXXXOOOOOXXXXXXXXXoooooooooXXXXXXXXXXXXXXXXXXXXXX.   ",
"          .XXXXXXXXXXXXXOOOOOXXXXXXXXXXoooooooooXXXXXXXXXXXXXXXXXXXXXXX.  ",
"           .XXXXXXXXXXXOOOOOXXXXXXXXXXXoooooOOOOXXXXXXXXXXXXXXXXXXXXXXXX. ",
"            .XXXXXXXXXOOOOXXXXXXXXXXXXoOOOOOOOOooXXXXXXXXXXXXXXXXXXXXXXXX.",
"            .XXXXXXXXOOOOXXXXXXXXXXXXoOOOOOOOOooooXXXXXXXXXXXXXXXXoXXXXX. ",
"             .XXXXXOOOOOXXXXXXXXXXXXXOOOOOOOOoXXXooXXXXXXXXXXXXXooXXXXX.  ",
".............oXXXXOOOOOXXXXXXXXXXXXXOOOOOOOOOXXXXXXoXXXXXXXXXXXooXXXXX.   ",
".OOOOOOOOOOOOOooXOOOOXXXXXXXXXXXXXXOOOOOOOOOXXXXXXXXXXXXXXXXXooXXXXXX.    ",
".oOOOOOOOOOOOOOoooooXXXXXXXXXXXXXOOOOOOOOOOXXXXXXXXXXXXXXXXoooXXXXXX.     ",
" .XOOOOOOOOOOOOOOoooooXXXXXXXXXXOOOOOOOOOOOXXXXXXXXXXXXXXXooXXXXXXX.      ",
" .XXXooOOOOOOOOOOOooooooXXXXXXXOOOOOOOOOOOXXXXXXXXXXXXXXoooooXXXXXXX..    ",
" .XXXXooooOOOOOOOOOoooooooXXXXOOOOOOOOOOOXXXXXXXXXXXXXoooooooooXXXXX.     ",
"  .XXXXooooooOOOOOOOooooooooXOOOOOOOOOOOOXXXXXXXXXXXXoooooooooooXXXX.     ",
"  .XXXXXXooooooooOOOOOoooooooOOOOOOOOOOOXXXXXXXXXXXoooooooooooXXXXX.      ",
"   .XXXXXXooooooooooooOoooooooOOOOOOOOOXXXXXXXXXXXoooooooooXXXXXXX.       ",
"    .XXXXXXXoooooooooooooooooooOOOOOOOOXXXXXXXXXoooooooooXXXXXXXXX.       ",
"     .XXXXXXXooooooooooooooooooOOOOOOOXXXXXXXXXooooooooXXXXXXXXXX.        ",
"      .XXXXXXXooooooooooooooooooOOOOOXXXXXXXXooooooooXXXXXXXXXXX.         ",
"       .XXXXXXXXoooooooooooooooooOOOOXXXXXXXoooooooXXXXXXXXXXXXX.         ",
"        ........................................................          "
};
