/* XPM */
static char *de35a78902dd4d06f06c33f08bd5152b75CFNffX8WPQqq1R[] = {
/* columns rows colors chars-per-pixel */
"64 64 153 2 ",
"   c None",
".  c #010101",
"X  c #06070A",
"o  c #0C0D0D",
"O  c #0D0E12",
"+  c #0D051A",
"@  c #0C0517",
"#  c #0F1014",
"$  c #111213",
"%  c #2F2A00",
"&  c #2B240D",
"*  c #322E01",
"=  c #363103",
"-  c #383302",
";  c #3B370C",
":  c #3D390B",
">  c #3D3A07",
",  c #190933",
"<  c #261A32",
"1  c #423D0D",
"2  c #48353E",
"3  c #574B0E",
"4  c #5E5503",
"5  c #270F51",
"6  c #291054",
"7  c #2F125E",
"8  c #37117B",
"9  c #39127E",
"0  c #62397F",
"q  c #836B25",
"w  c #8C7135",
"e  c #946D59",
"r  c #9B735C",
"t  c #A37B59",
"y  c #A27C53",
"u  c #855B74",
"i  c #946777",
"p  c #92657A",
"a  c #958500",
"s  c #9A8A01",
"d  c #A39202",
"f  c #A6950C",
"g  c #AA9B0E",
"h  c #B09E00",
"j  c #A99910",
"k  c #B6A400",
"l  c #BFA70A",
"z  c #998026",
"x  c #9E852F",
"c  c #A7872E",
"v  c #A7882F",
"b  c #AB8C2E",
"n  c #B49625",
"m  c #B99B28",
"M  c #A78830",
"N  c #AA8A34",
"B  c #B59436",
"V  c #BB9A33",
"C  c #B89739",
"Z  c #BC9B3A",
"A  c #C7B200",
"S  c #C9B400",
"D  c #CDB50A",
"F  c #D2BC01",
"G  c #D2B817",
"H  c #C2A429",
"J  c #C7A935",
"K  c #D7C109",
"L  c #D9C30D",
"P  c #BD9C43",
"I  c #A98163",
"U  c #C09F40",
"Y  c #C3A243",
"T  c #3A1281",
"R  c #3E1389",
"E  c #41168C",
"W  c #421591",
"Q  c #471A92",
"!  c #491C96",
"~  c #47179D",
"^  c #471899",
"/  c #49199B",
"(  c #482182",
")  c #5F3B84",
"_  c #743F9F",
"`  c #4E1CA3",
"'  c #4F1BAA",
"]  c #501DA5",
"[  c #521EAA",
"{  c #561EB4",
"}  c #571FB9",
"|  c #581EBB",
" . c #5621AE",
".. c #5C2AAB",
"X. c #5721B2",
"o. c #5921B5",
"O. c #5B21BD",
"+. c #6E39A2",
"@. c #733DA3",
"#. c #743DAA",
"$. c #642ABB",
"%. c #642AB7",
"&. c #793FB4",
"*. c #763DB4",
"=. c #694685",
"-. c #6F4A8E",
";. c #754294",
":. c #7A4696",
">. c #7C4995",
",. c #774398",
"<. c #79459B",
"1. c #7D4A9B",
"2. c #7640A5",
"3. c #7C47A2",
"4. c #7E48A4",
"5. c #7B45A8",
"6. c #7D52A0",
"7. c #7A41B3",
"8. c #7B46BC",
"9. c #7745B4",
"0. c #571AC5",
"q. c #5A1EC5",
"w. c #5719CC",
"e. c #5B1ECA",
"r. c #5D21C3",
"t. c #5E22CA",
"y. c #6124CC",
"u. c #6C2ECB",
"i. c #652BC1",
"p. c #6526D4",
"a. c #6728D7",
"s. c #6A2AD5",
"d. c #6524DB",
"f. c #6827DA",
"g. c #6828D8",
"h. c #6624E0",
"j. c #6C2AE0",
"k. c #844DA5",
"l. c #8A5FA7",
"z. c #A67CB1",
"x. c #B793A8",
"c. c #BC99A8",
"v. c #BC97AB",
"b. c #C4A992",
"n. c #CFB693",
"m. c #D0B693",
"M. c #D4BA95",
"N. c #DBC09B",
"B. c #E2C89D",
"V. c #FFEB9C",
"C. c #F8E19A",
"Z. c #FFF19A",
"A. c #E9CEA1",
/* pixels */
"                                                                                                                                ",
"                                                                                                                                ",
"                                r.r.q.$.i.q.i.q.q.i.i.e.p.g.g.g.g.s.g.g.                                                        ",
"                                r.q.q.q.q.q.q.q.q.| q.y.y.p.g.p.p.g.p.g.                                                        ",
"                        r.r.r.r.i.q.q.y.q.q.q.q.r.r.r.r.y.y.p.p.y.y.p.f.g.g.                                                    ",
"                        r.r.r.r.O.O.| O.| i.| i.i.| r.r.| y.p.p.y.y.y.y.p.p.                                                    ",
"                            r.O.o.X.o.{ X.o.O.r.| { q.r.i.y.p.p.r.q.y.y.y.y.p.g.                                                ",
"                            r.O.o.o.X.X.X.o.r.| | { | t.e.e.d.d.y.t.t.y.q.e.p.f.                                                ",
"                                O.O.O.O.O.O.O.r.| 0.q.e.p.d.d.f.d.d.d.e.e.e.d.d.y.r.                                            ",
"                                O.r.r.r.O.q.q.%.@.:.>.1.k.k.k.k.k.k.k.k.:.:.3.#.$.q.                                            ",
"                                X.o.r.O.o.} q._ t V V C Z Z Z Z Z Z N N M b M e +.e.                                            ",
"                                X.X.O.O.o.} q.:.V S h d d d d f f d s a a d k M ,.e.                                            ",
"                                O.O.X.o.O.q.q.>.V h 4 * * = 1 1 1 1 1 ; ; 4 d N 3.d.                                            ",
"                                y.O. .X.O.q.e.>.Z d * . . . X o o $ # O @ ; s N 4.d.                                            ",
"                                     .X.O.q.e.1.U f * . . . . X $ $ $ # O : a N 4.h.                                            ",
"                                    X.X.O.q.q.1.Y j = . . . . . o $ $ $ O : s N k.h.                                            ",
"                                    r.O.o.} q.1.Y j = . . . . X $ $ $ $ # ; a N 4.h.                                            ",
"                                    r.O.X.{ | 1.Y f = . . . . . o $ $ $ # ; a N 4.d.                                            ",
"                                         .{ q.1.Y g = . . . . . . X $ $ # ; a N 4.h.                                            ",
"                                        X.} q.1.Y f = . . . . . . X O # # ; a N 3.d.                                            ",
"                                        O.q.q.>.Z d = . . . . . . . o $ O : a N ,.e.                                            ",
"                                        O.r.q.>.V d * . . . . . . X $ $ $ : a N <.e.                                            ",
"                                        X.} q.>.V d * . . . . . . X o $ O > s N 3.d.                                            ",
"                                        X.} 0.>.V d * . . . . . . . X o O > s N 3.d.                                            ",
"                                        O.q.q.>.V d * . . . . . . . . . o > s b :.e.                                            ",
"                                        r.q.q._ t z 3 * * = * * % * * & < 2 w r #.e.                                            ",
"                                        r.r.q.$.@.u c g j f f s a q s q 0 ..#.7.u.p.                                            ",
"                                        r.r.r.e.0.#.I Y Y J G F A l m y 7.h.d.d.f.g.                                            ",
"                                            r.r.q.$.2.1.1.i H F A n p *.u.f.f.f.                                                ",
"                                            O.O.r.r.q.w.w.,.B F A N 5.h.h.g.a.a.                                                ",
"                                            X.X.r.r.q.e.w.<.B F A N 5.h.d.p.y.r.                                                ",
"                                             .O.O.r.r.q.q.:.C F A N 3.p.a.p.t.r.                                                ",
"                                        8 W [ r.r.r.r.r.q.1.P L A M ;.t.t.r.r.r.                                                ",
"                                        E ~ } r.r.r.r.q.e.3.P L A M ;.q.e.r.r.O.                                                ",
"                                    8 E ' { r.r.r.r.r.q.q.<.P L S M ;.e.q.O.o.[ E 9                                             ",
"                                    E ^ } r.O.r.r.r.r.q.e.1.U L S M ,.e.e.O.X.` E 9                                             ",
"                                9 E /  .o.r.O.o.r.r.r.q.q.<.P L S M <.p.t.O.X.` E 9                                             ",
"                                9 E ] X.O.o.` [ O.r.r.q.q.1.P F S N 3.d.t.r.O.[ R 9                                             ",
"                                9 E ]  .o. .Q ~ { r.r.q.q.:.C F A N 3.d.t.r.y.O.Q 8 9 T                                         ",
"                                9 E ]  .X.] R R [ r.r.r.q.:.C F S N 3.d.t.y.p.y.] E R 9                                         ",
"                                9 E ` X.X.] R E ] O.O.q.e.:.C F S b 3.d.t.t.a.a.y. .E 9                                         ",
"                                9 E ^ ` ` ~ E W ] o.O.q.w.>.m D m r *.d.t.t.a.a.a.r.^ 9                                         ",
"                                9 T R R R E ~ [ } r.i.q.q.>.m H i *.u.a.a.p.a.p.y.r.                                            ",
"                                9 ( ) =.=.-.6.9.$.q.q.q.q._ t t 7.h.d.a.g.g.g.p.t.r.                                            ",
"                                    b.n.n.M.M.v.8.q.q.r.q.%._ 2.u.f.g.g.g.g.a.p.y.r.                                            ",
"                                    Z.Z.V.V.A.v.8.q.r.r.r.r.q.e.y.p.a.g.g.g.a.p.r.r.                                            ",
"                                    V.Z.Z.A.z.8.i.q.r.r.r.r.q.r.O.r.p.g.g.g.g.p.t.O.                                            ",
"                                    Z.C.B.x.8.e.q.r.r.r.r.r.r.O.X.o.y.s.g.g.g.a.y.y.                                            ",
"                                        l.9.$.q.q.r.r.r.r.r.r.O.X.o.y.g.g.a.a.a.p.p.                                            ",
"                                        [ { O.r.r.r.r.r.r.r.r.O.X.O.u.g.a.a.a.a.a.a.                                            ",
"                                    q.| { { O.r.r.r.r.r.r.r.r.O.X.o.y.a.y.y.p.p.y.y.                                            ",
"                                    r.O.} { r.r.r.O.r.r.r.r.r.O.o.O.y.p.y.y.p.p.r.O.                                            ",
"                                    r.r.O.O.r.O.o.o.O.r.r.r.r.O.r.y.a.a.y.y.p.s.y.O.                                            ",
"                                    O.r.r.r.O.O.X.X.O.r.r.r.r.r.r.o.]  .o.r.y.y.y.y.                                            ",
"                                    X.o.O.r.o.X. .o.O.r.r.r.r.r.O.! 5 5 ! O.r.y.p.p.                                            ",
"                                    X.o.O.r.o. . .X.O.O.r.r.r.{ Q 7 @ @ 7 ! O.y.a.g.                                            ",
"                                    O.r.r.r.r.O.X. .X.X.X.O.    , + . . + 6  .f.                                                ",
"                                    r.r.r.r.r.O.X. . . . .X.    . . . . . , ` j.                                                ",
"                                                                                                                                ",
"                                                                                                                                ",
"                                                                                                                                ",
"                                                                                                                                ",
"                                                                                                                                ",
"                                                                                                                                "
};
