/* XPM */
static char *_1fb283e3ffd450fd60b4c82f2cfa8d2UYKIfaDfTBDYKGJU[] = {
/* columns rows colors chars-per-pixel */
"64 64 250 2 ",
"   c None",
".  c black",
"X  c #040109",
"o  c #100621",
"O  c #15082D",
"+  c #16082D",
"@  c #170931",
"#  c #180933",
"$  c #1A0A37",
"%  c #280E54",
"&  c #37117B",
"*  c #38117C",
"=  c #38117D",
"-  c #39117E",
";  c #39127F",
":  c #3A127F",
">  c #381080",
",  c #3A1280",
"<  c #3A1282",
"1  c #3C1384",
"2  c #3C1188",
"3  c #3C108A",
"4  c #3E1488",
"5  c #3F1588",
"6  c #3F1589",
"7  c #401787",
"8  c #401589",
"9  c #40158A",
"0  c #41168B",
"q  c #40158C",
"w  c #41158D",
"e  c #41168C",
"r  c #42168E",
"t  c #42168F",
"y  c #401290",
"u  c #411490",
"i  c #431690",
"p  c #431791",
"a  c #441694",
"s  c #461893",
"d  c #481A97",
"f  c #47179D",
"g  c #471898",
"h  c #471899",
"j  c #48189A",
"k  c #4A1B9B",
"l  c #49189C",
"z  c #4C1B9F",
"x  c #4D1D9F",
"c  c #482182",
"v  c #5F3B84",
"b  c #4C1BA0",
"n  c #4D1DA0",
"m  c #4E1DA1",
"M  c #4E1CA2",
"N  c #4F1DA2",
"B  c #4E1CA3",
"V  c #4F1DA3",
"C  c #4D1AA4",
"Z  c #4E1BA7",
"A  c #4E1CA7",
"S  c #4F1BAA",
"D  c #501DA5",
"F  c #501FA6",
"G  c #511DA8",
"H  c #521EA8",
"J  c #521EA9",
"K  c #521EAA",
"L  c #531EAB",
"P  c #511BAF",
"I  c #521DAD",
"U  c #541EB0",
"Y  c #541EB1",
"T  c #551DB3",
"R  c #541EB2",
"E  c #561FB2",
"W  c #561EB5",
"Q  c #571EB6",
"!  c #561EB7",
"~  c #571EB7",
"^  c #581FB8",
"/  c #581DBD",
"(  c #5521AC",
")  c #5621AD",
"_  c #5520AE",
"`  c #5621AE",
"'  c #5621AF",
"]  c #5721B0",
"[  c #5721B1",
"{  c #5722B0",
"}  c #5722B1",
"|  c #5721B2",
" . c #5822B1",
".. c #5821B2",
"X. c #5821B3",
"o. c #5821B4",
"O. c #5821B5",
"+. c #5822B4",
"@. c #5922B4",
"#. c #5922B5",
"$. c #5821B6",
"%. c #5921B6",
"&. c #5820B7",
"*. c #5921B7",
"=. c #5922B6",
"-. c #5A22B7",
";. c #5A23B7",
":. c #5921B8",
">. c #5920B9",
",. c #5A21B8",
"<. c #5A21B9",
"1. c #5A22B8",
"2. c #5A23B8",
"3. c #5A22B9",
"4. c #5B22B9",
"5. c #5B23B9",
"6. c #5921BB",
"7. c #5A21BA",
"8. c #5A20BB",
"9. c #5A21BB",
"0. c #5B21BB",
"q. c #5B22BA",
"w. c #5B23BA",
"e. c #5B21BC",
"r. c #5A20BD",
"t. c #5B21BD",
"y. c #5A20BE",
"u. c #5B20BE",
"i. c #5B21BE",
"p. c #5B21BF",
"a. c #5C23BC",
"s. c #5C21BE",
"d. c #5C21BF",
"f. c #5D23BF",
"g. c #632ABD",
"h. c #662EBE",
"j. c #694684",
"k. c #694685",
"l. c #6F4A8E",
"z. c #7D52A0",
"x. c #7544B0",
"c. c #7A49B1",
"v. c #7742BB",
"b. c #7C47BB",
"n. c #7A44BC",
"m. c #7B46BC",
"M. c #571AC5",
"N. c #5B1FC3",
"B. c #5A1DC4",
"V. c #5A1DC5",
"C. c #5A1EC4",
"Z. c #5B1FC4",
"A. c #5B20C0",
"S. c #5C21C0",
"D. c #5C21C1",
"F. c #5D21C1",
"G. c #5D22C1",
"H. c #5C21C2",
"J. c #5D21C2",
"K. c #5C20C3",
"L. c #5D21C3",
"P. c #5D22C2",
"I. c #5D22C3",
"U. c #5E22C2",
"Y. c #5E24C0",
"T. c #5C20C4",
"R. c #5D21C4",
"E. c #5E21C4",
"W. c #5E21C5",
"Q. c #5D23C4",
"!. c #5E23C4",
"~. c #5E22C5",
"^. c #5F22C5",
"/. c #5E21C6",
"(. c #5E22C6",
"). c #5F22C6",
"_. c #5F22C7",
"`. c #5F22C8",
"'. c #5F23C8",
"]. c #6025C6",
"[. c #6025C7",
"{. c #6125C7",
"}. c #652BC1",
"|. c #6023C8",
" X c #6023C9",
".X c #6023CA",
"XX c #6123CA",
"oX c #6123CB",
"OX c #6124C9",
"+X c #6024CA",
"@X c #6125CA",
"#X c #6124CB",
"$X c #6225CA",
"%X c #6225CB",
"&X c #6223CD",
"*X c #6124CC",
"=X c #6224CC",
"-X c #6224CD",
";X c #6325CD",
":X c #6326CD",
">X c #6324CE",
",X c #6325CE",
"<X c #6325CF",
"1X c #6426CE",
"2X c #6427CF",
"3X c #6425D0",
"4X c #6527D0",
"5X c #6526D1",
"6X c #6527D1",
"7X c #6526D2",
"8X c #6526D3",
"9X c #6626D3",
"0X c #6627D3",
"qX c #6626D4",
"wX c #6627D4",
"eX c #6627D5",
"rX c #6727D5",
"tX c #6727D7",
"yX c #6827D7",
"uX c #6728D5",
"iX c #6728D6",
"pX c #6728D7",
"aX c #6828D7",
"sX c #6827D8",
"dX c #6828D8",
"fX c #6828D9",
"gX c #6928D9",
"hX c #6928DA",
"jX c #6C29DF",
"kX c #8A5FA7",
"lX c #A67CB1",
"zX c #B793A8",
"xX c #BC97AB",
"cX c #BC99A8",
"vX c #C4A992",
"bX c #CFB693",
"nX c #D0B693",
"mX c #D4BA95",
"MX c #DBC09B",
"NX c #E2C89D",
"BX c #F8E19A",
"VX c #FFEE9B",
"CX c #FEE89C",
"ZX c #FFF099",
"AX c #FFF09A",
"SX c #FFF19B",
"DX c #FFF29A",
"FX c #FFF499",
"GX c #E8CDA1",
"HX c #E9CEA0",
/* pixels */
"                                                                                                                                ",
"                                                                                                                                ",
"                                L.L.L.L.L.L.L.L.L.R.L.{.7XhXpXpXhXpXhXpX                                                        ",
"                                L.L.L.L.L.L.L.L.L.R.R.R.3XqXaXpX4XpXpXdX                                                        ",
"                        L.L.L.L.L.L.L.L.L.L.L.L.L.L.L.L.|.$XqXpX-X-XqXhXhXhX                                                    ",
"                        L.L.L.L.i.i.i.i.i.s.L.L.L.s.L.L.L.|.qX7X'.R.-X7X7X7X                                                    ",
"                            L.s.9.[ [ o.[ %.s.s.%.%.s.L.A.'.qX7X'.L.R.$XR.-X7XhX                                                ",
"                            R.i.%.o.[ [ [ %.s.s.%.%.s.R.'.-XqXpX-X'.'.|.R.|.7XaX                                                ",
"                                i.i.i.i.i.s.L.L.i.i.L.|.2XpXaXpX4XqX7X-XR.|.qXqX'.L.                                            ",
"                                i.A.L.L.s.s.L.L.L.L.L.!.$X4XpXhXhXhXhXpX'.'.qXqX'.L.                                            ",
"                                [ %.L.A.9.%.L.L.L.L.L.s.9.f.4XhXdXhXpX7X'.'.qXqXR.L.                                            ",
"                                [ %.9.9.[ %.i.L.L.L.L.s.%.9.{.4XpXpXpXpX|.$XpX4X-X'.                                            ",
"                                s.9.%.%.i.s.L.L.L.L.L.L.s.i.9.f.2XhXhXpX4XpXpXpXpX7X                                            ",
"                                R.i.[ [ i.L.L.L.L.L.L.L.L.i.' ;.-XdXaXpXpX7XpXhXaXhX                                            ",
"                                    ' [ i.L.L.L.L.L.L.L.R.i.[ 2.-XhXaXpX$X&XqXaXhXhX                                            ",
"                                    X.%.9.i.L.L.L.L.L.L.R.i.[ 2.2XhXhX4XR.'.7XhXpXaX                                            ",
"                                    s.9.%.9.i.L.L.L.L.L.L.i.[ 2.-XaXhXqX'.R.qXdXdXdX                                            ",
"                                    R.i.[ [ i.L.L.L.L.L.L.i.[ 2.2XhXhXqX'.'.qXdXdXhX                                            ",
"                                        ' [ i.L.L.L.L.L.L.9.X.2.2XhXsXqX'.'.qXdXdXdX                                            ",
"                                        X.%.s.L.L.L.L.L.L.i.[ ;.2XaXsX7X'.'.7XhXqXqX                                            ",
"                                        i.L.L.L.L.L.L.L.L.i.o.2.2XsXsX9X|.|.qXqX-X'.                                            ",
"                                        i.s.L.L.L.L.L.L.L.i.[ 2.2XyXhX9X-X|.7X-X$X'.                                            ",
"                                        [ %.i.L.R.L.L.L.L.i.[ 2.2XpXhXaXqX7X&X|.7XqX                                            ",
"                                        [ %.9.i.i.i.L.L.L.i.[ 2.2XhXhXaXsXqX|.|.2X7X                                            ",
"                                        i.i.o.[ [ 9.i.L.L.9.[ 2.2XyXhXhXaXpX7X2X$X|.                                            ",
"                                        R.s.%.[ ' [ 9.A.L.i.[ 2.2XsXsXsXhXhXhXqX-XR.                                            ",
"                                        L.L.s.9.[ ' [ %.L.i.[ ;.2XsXsXsXhXhXhXaX4XqX                                            ",
"                                        L.R.R.s.9.[ [ %.s.s.%.9.{.2X2X2X$X$X2X7XpXhX                                            ",
"                                            R.L.i.i.i.s.L.L.s.i.9.;.;.;.;.;.;.w.                                                ",
"                                            i.i.L.L.R.L.L.L.L.i.[ ' ;.2.2.%.X.X.                                                ",
"                                            X.%.s.R.R.L.L.L.L.i.[ ;.!.4X-X$XY.i.                                                ",
"                                            ' %.s.L.L.L.L.L.s.9.[ %.$XpXpX3X'.L.                                                ",
"                                        = i I L.L.L.L.L.L.s.%.[ ' [ L.$XR.|.R.R.                                                ",
"                                        t l ~ R.L.L.L.L.L.i.9.[ ' X.i.R.R.L.s.9.                                                ",
"                                    = t Z T s.R.L.L.L.L.L.L.s.9.[ [ i.R.R.s.%.J t =                                             ",
"                                    1 j ^ R.L.s.L.L.L.L.L.L.i.9.[ X.Y.'.R.s.X.m 0 =                                             ",
"                                = 7 j ( i.L.%.9.s.L.L.L.L.s.9.[ ' ;.$X7X|.i.X.m 6 ,                                             ",
"                                , t D X.s.%.D J 9.L.L.L.R.i.[ ( ( w.-XqX|.L.s.J 0 =                                             ",
"                                = 0 D { X.J d a T L.L.L.L.i.X.( ( w.7X7X$XR.-X9.s & = ,                                         ",
"                                = 0 D { { D 1 t I L.L.L.L.s.%.X.' ;.2XqX'.'.qX$XA t 1 ,                                         ",
"                                : 7 m [ X.D 6 0 D 9.s.L.L.L.L.%.{ ;.2X7X'.'.qXpX$XY t =                                         ",
"                                , 6 h Z C j t p D %.L.L.L.L.R.s.5.f.2XyX-X'.qXdXpXL.h =                                         ",
"                                , , 3 3 3 3 f S ^ L.L.L.L.L.L.L.$X7XaXaXqXpXpXpX-XL.                                            ",
"                                , c v k.k.l.z.c.h.R.N.L.L.L.L.|.4XhXhXaXdXdXdX7X'.L.                                            ",
"                                    vXnXnXmXMXcXb.C.Z.L.L.L.L.|.pXhXhXpXaXhXhX7X'.L.                                            ",
"                                    SXSXSXCXHXxXn.C.N.L.L.L.L.R.$X7XpXaXhXpXpX7X!.L.                                            ",
"                                    VXSXDXHXlXn.}.L.L.L.L.L.L.s.9.f.2XaXpXaXhX7X'.A.                                            ",
"                                    SXBXNXzXv.M.C.L.L.L.L.L.L.i.[ ;.2XhXhXpXpXpX-X$X                                            ",
"                                        kXx.g.C.R.L.L.L.L.L.R.i.[ ;.-XhXdXpXdXpXpX7X                                            ",
"                                        Y T / R.R.R.L.L.L.L.L.i.[ ;.2XaXqXpXpXhXqXqX                                            ",
"                                    C./ Y Y i.R.R.L.L.L.L.L.R.s.[ 2.-XpX-X$X7X4X$X|.                                            ",
"                                    R.s.o.9.i.L.s.s.L.L.L.L.L.s.9.f.qXtX&X'.pXqX'.L.                                            ",
"                                    R.L.s.s.L.s.9.%.s.R.L.L.R.L.L.{.qXhX&X|.qXqX'.R.                                            ",
"                                    i.s.L.L.s.9.[ [ i.L.R.R.R.^ x d x x j m !.7X-XR.                                            ",
"                                    [ 9.s.L.9.' ' X.i.L.R.R.|.m % + @ @ + % m -XqX7X                                            ",
"                                    [ %.s.i.%.[ ' [ 9.i.i.L.R.7 o . . . . + d 7XaXhX                                            ",
"                                    i.s.L.L.s.9.X.' [ X.X.;.    X . . . . # m dX                                                ",
"                                    R.L.L.L.R.i.X.( ' ' '  .    . . . . . $ A jX                                                ",
"                                                                                                                                ",
"                                                                                                                                ",
"                                                                                                                                ",
"                                                                                                                                ",
"                                                                                                                                ",
"                                                                                                                                "
};
