/* XPM */
static char *_622036365ff487fb544364161b97640MUtmzdRIzuZ2cvlz[] = {
/* columns rows colors chars-per-pixel */
"64 64 161 2 ",
"   c None",
".  c #000001",
"X  c #06040A",
"o  c #0C0D0D",
"O  c #0D0D12",
"+  c #0F051F",
"@  c #0F1013",
"#  c #121213",
"$  c #2F2A00",
"%  c #2B240D",
"&  c #322D00",
"*  c #363103",
"=  c #3B360B",
"-  c #3D380B",
";  c #3D3A07",
":  c #100622",
">  c #15072B",
",  c #16082F",
"<  c #170931",
"1  c #180933",
"2  c #1C0B3B",
"3  c #261A32",
"4  c #48353F",
"5  c #5E5503",
"6  c #55490A",
"7  c #290E54",
"8  c #34126D",
"9  c #38117C",
"0  c #5F3C62",
"q  c #663E6D",
"w  c #62397F",
"e  c #674073",
"r  c #836B25",
"t  c #997F25",
"y  c #8C7135",
"u  c #966F58",
"i  c #9B735B",
"p  c #A37B59",
"a  c #A37C55",
"s  c #845971",
"d  c #93657B",
"f  c #926574",
"g  c #958500",
"h  c #978800",
"j  c #9B8B02",
"k  c #A08E05",
"l  c #A39201",
"z  c #A7970C",
"x  c #B09E00",
"c  c #A99910",
"v  c #BCA705",
"b  c #A7882F",
"n  c #AB8B2F",
"m  c #A6872E",
"M  c #AF9327",
"N  c #B39525",
"B  c #B69929",
"V  c #AB8B34",
"C  c #A78830",
"Z  c #BB9A33",
"A  c #B89738",
"S  c #BC9B3B",
"D  c #B69637",
"F  c #CAB400",
"G  c #CEB50B",
"H  c #D3BD02",
"J  c #D0B613",
"K  c #C1A22A",
"L  c #C3A525",
"P  c #D7C109",
"I  c #D9C30D",
"U  c #BD9D42",
"Y  c #C09F40",
"T  c #C2A144",
"R  c #3F138C",
"E  c #3B1281",
"W  c #3E1191",
"Q  c #41158D",
"!  c #451696",
"~  c #461994",
"^  c #44149C",
"/  c #4A1A9C",
"(  c #48189A",
")  c #4B218A",
"_  c #603C85",
"`  c #653D93",
"'  c #4E1CA3",
"]  c #4E1AAA",
"[  c #531EAB",
"{  c #551DB4",
"}  c #561DB9",
"|  c #5A1FBE",
" . c #5621AD",
".. c #5C2AAB",
"X. c #5721B2",
"o. c #5921B5",
"O. c #5B21BE",
"+. c #5F2AB1",
"@. c #6F39A1",
"#. c #733EA3",
"$. c #753EAD",
"%. c #612BB5",
"&. c #642ABA",
"*. c #6930BF",
"=. c #773DB3",
"-. c #75468B",
";. c #754295",
":. c #7A4796",
">. c #724B91",
",. c #7C4996",
"<. c #774498",
"1. c #79459A",
"2. c #7D4A9A",
"3. c #7C46A2",
"4. c #7F49A4",
"5. c #7847AB",
"6. c #7F50AD",
"7. c #7A42B4",
"8. c #7A46B9",
"9. c #7A46B9",
"0. c #5A1EC4",
"q. c #5C1ECB",
"w. c #571ACC",
"e. c #5D21C3",
"r. c #5E21C9",
"t. c #6124CC",
"y. c #6B2FC9",
"u. c #652AC1",
"i. c #6526D4",
"p. c #6728D7",
"a. c #6929D6",
"s. c #6524DB",
"d. c #6827DA",
"f. c #6828D9",
"g. c #6624E1",
"h. c #804AA5",
"j. c #8253AC",
"k. c #8653BA",
"l. c #8654B9",
"z. c #A77CB2",
"x. c #814AC9",
"c. c #8E58CA",
"v. c #8B57C5",
"b. c #9663C6",
"n. c #B4939C",
"m. c #BC96AB",
"M. c #B893A6",
"N. c #BE97B3",
"B. c #D6BC96",
"V. c #D9BD9F",
"C. c #DCBEA4",
"Z. c #DCBEA8",
"A. c #D0B0A5",
"S. c #F7DF9E",
"D. c #FFEC9A",
"F. c #FFF298",
"G. c #FFF898",
"H. c #FFF297",
"J. c #DDC0A4",
"K. c #E9CEA1",
"L. c #E5C8A5",
/* pixels */
"                                                                                                                                ",
"                                                                                                                                ",
"                                        f.f.f.f.f.f.f.f.f.i.t.e.e.e.e.e.e.e.e.e.        e.e.e.e.                                ",
"                                        f.p.i.i.p.f.a.p.a.t.e.e.e.e.e.e.e.e.e.e.        e.e.O.O.                                ",
"                                    f.a.f.p.t.t.p.p.f.i.t.t.e.e.e.e.e.e.e.e.e.e.e.e.e.e.e.O.o.X.                                ",
"                                    f.p.p.t.r.r.i.f.d.i.e.O.e.e.O.O.e.e.O.O.O.O.O.O.e.e.O.O.X. .                                ",
"                                    f.p.t.e.e.r.i.p.f.i.t.e.e.O.o.o.O.O.o.X.X.X.X.o.O.O.o.o.                                    ",
"                                    s.f.r.r.r.r.p.s.s.p.t.q.0.0.} } O.e.o.X.X.X.X.o.e.e.o.X.                                    ",
"                                e.r.s.s.s.s.s.s.s.s.d.d.s.i.q.0.0.0.e.e.O.O.O.O.O.O.e.e.O.O.                                    ",
"                                r.&.#.4.4.4.4.4.h.h.h.h.4.h.,.,.,.#.%.0.e.O.e.e.e.e.O.O.e.e.                                    ",
"                                0.@.u V V C V V V V V V V D D Z Z a #.| o.o.O.t.e.O.o.o.e.e.                                    ",
"                                r.<.b v l g g g g g g g g g j x F Z :.0.} X.O.O.O.O.o.o.O.e.                                    ",
"                                s.3.V l 5 = = - - - - = & $ $ 5 x Z :.0.0.| X.X.X.o.O.O.e.e.                                    ",
"                                g.h.V j = O O @ # O O o . . . & l D :.0.0.O.o. . .o.O.e.e.e.                                    ",
"                                g.h.V g = O @ # # o X . . . . & l Z :.| } o.O.O.X.X.O.e.                                        ",
"                                g.h.V g - @ # # # o X . . . . * l S h.| { X.O.O.o.o.e.e.                                        ",
"                                s.4.V g = @ @ @ # o X . . . . * z T ,.0.o.X.O.e.O.O.e.e.                                        ",
"                                g.4.V g = @ # # # # X . . . . * c T 2.0.{ X.O.e.e.e.e.e.                                        ",
"                                g.3.V g - # @ # # o X . . . . ; c T 2.0.o.X.O.e.e.e.                                            ",
"                                s.3.V g - # # # o o . . . . . * c T 2.0.} o.o.e.e.e.                                            ",
"                                q.<.C g - @ @ # o . . . . . . * c T 2.0.0.O.e.e.e.e.                                            ",
"                                q.1.C g - @ # @ . . . . . . . * z Y 2.0.0.e.e.e.e.e.                                            ",
"                                g.3.V g - # # O X . . . . . . * l S ,.0.o.o.O.e.                                                ",
"                                s.3.V h - O O X . . . . . . . & l Z ,.0.} o.e.e.                                                ",
"                                q.1.V h ; o . . . . . . . . . & l Z ,.0.e.e.e.e.                                                ",
"                                q.#.i y 4 3 % & $ $ & & & * & 6 m p #.0.0.e.e.e.                                                ",
"                                i.y.7.#.%._ r g g t j k j l l m s @.&.e.e.e.e.e.                                                ",
"                                i.p.s.s.g.=.i N v F H J K Z Z p @.w.0.e.e.O.e.e.                                                ",
"                                t.t.p.s.d.a.=.d N F H K f 1.2.#.&.0.0.e.e.e.e.e.e.e.                                            ",
"                                e.e.t.p.f.d.g.5.C F H A 1.w.w.0.e.e.O.e.e.e.e.e.e.e.                                            ",
"                                    e.t.a.d.g.4.C F J U 1.w.0.0.0.e.o.o.O.e.e.e.e.e.                                            ",
"                                    e.t.i.s.s.1.C F I T 2.0.0.e.e.O.o.o.O.e.O.e.e.e.                                            ",
"                                    e.t.i.i.t.<.C F I U 3.0.0.e.e.e.O.O.e.e.e.O.e.O.{ ..                                        ",
"                                    e.r.i.s.r.@.m F P U 1.0.r.e.e.e.e.e.e.e.e.e.e.O.o.[                                         ",
"                                    e.e.i.s.q.;.m F H A 1.e.0.e.e.e.e.e.e.e.e.e.e.O.%. .                                        ",
"                                    e.e.i.i.t.<.C F H A <.0.0.e.e.e.e.e.e.e.e.e.e.O.{  .                                        ",
"                                    e.r.i.s.i.3.C F I U 2.0.0.e.e.e.| t.e.t.| e.e.O.o.[ [ [                                     ",
"                                    u.e.p.g.s.3.C F I U 3.0.r.e.e.e.O.| { } } t.e.O.o.o.o.%.                                    ",
"                                F.A.k.q.i.s.s.4.C F I U 1.q.0.e.e.e.e.} ( ! } t.e.e.e.O.O.O.                                    ",
"                                F.Z.k.q.t.s.s.5.V F I U -.} 0.e.e.e.t.[ Q Q ' { O.O.e.e.e.e.                                    ",
"                            D.D.D.Z.v.q.q.q.s.3.V F I A e ^ } 0.e.e.e.{ Q 9 Q ( [ o.O.e.e.e.e.O.                                ",
"                            D.D.F.Z.v.s.t.i.s.3.V F I B 0 W { e.e.e.e.{ Q 9 9 Q ' o.O.e.e.e.e.e.                                ",
"                            D.D.H.Z.c.s.i.p.s.4.V F H M 0 R { r.e.e.e.{ Q 9 9 Q ' o.O.e.e.e.e.e.                                ",
"                            D.S.L.N.x.i.p.s.s.$.u B G N e ^ ] } e.e.e.{ ( Q Q ! ' [ O.e.e.e.e.e.                                ",
"                                b.x.y.t.i.p.r.u.$.d L B -.] ^ / { e.e.| } { { ] ~ ~ o.e.e.e.e.e.t.0.                            ",
"                                s.i.0.e.i.i.e.q.s.7.p a <.} W Q { e.e.e.e.e.e.{ Q Q { e.O.O.O.e.&.0.                            ",
"                                s.s.t.u.i.i.t.q.s.y.5.#.&.{ R Q { e.e.e.e.e.r.{ Q Q { O.O.o.O.e.t.O.                            ",
"                                p.i.t.t.i.i.t.t.t.i.0.0.0.} ! ~ [ { { } e.0.} ] ! / O.O.O.X.O.e.| t.                            ",
"                                f.p.i.p.p.p.i.i.t.e.r.e.o.X.} ] ! R W ^ } } ' W ] o.t.t.e.O.e.e.| t.| O.                        ",
"                                f.f.a.f.p.f.a.i.e.e.e.o.X.o.e.} / ) _ >.5.5.>.` %.r.i.t.e.e.e.e.t.| | t.                        ",
"                            f.f.a.f.f.a.f.f.f.i.e.O.o.o.O.e.e.O.} 5.n.B.C.C.B.n.8.0.O.O.e.e.e.e.| t.| t.                        ",
"                            a.p.i.i.p.a.i.i.a.p.r.O.X.X.O.e.e.e.0.8.M.K.D.H.G.J.l.0.o.o.o.O.e.e.t.| t.|                         ",
"                            f.p.t.t.p.i.t.t.i.i.t.O.X.X.O.e.e.O.} +.8.z.K.G.G.J.l.0.0.} o.o.e.t.t.| e.e.                        ",
"                            f.i.e.t.i.p.t.t.i.p.t.e.o.o.O.e.e.O.X.{ } 7.M.V.C.M.8.| 0.O.o.[ / ~ ~ ( { t.                        ",
"                            f.i.t.e.i.f.i.a.a.f.i.t.e.O.e.e.e.O.X. .{ +.5.6.l.8.%.o.O.e.e.' 7 > > 2                             ",
"                            e.p.t.t.i.f.f.f.f.f.f.p.t.t.e.e.O.O.X. .X.} { { | 0.O.o.e.O.' 8 + . . .                             ",
"                        . 2 ' i.a.p.t.i.f.d.f.f.p.d.p.t.t.O.o.X.X.X.o.e.| 0.0.0.e.t.t.' 7 + X .                                 ",
"                        . : 8 / ' / ~ ~ /  .t.d.d.a.d.p.t.O.X. . .X.O.e.e.e.e.{ / ~ ~ 8 + . . .                                 ",
"                        . X + , 1 1 , , 1 2                                     2 > , : X .                                     ",
"                        . . . . . . . . . .                                     . . . . . .                                     ",
"                                                                                                                                ",
"                                                                                                                                ",
"                                                                                                                                ",
"                                                                                                                                "
};
