/* XPM */
static char *_383a33c0f4342c99060dfedc3abd0a1EthEBhJUGvje8hOb[] = {
/* columns rows colors chars-per-pixel */
"64 64 161 2 ",
"   c None",
".  c #000001",
"X  c #06040A",
"o  c #0C0D0D",
"O  c #0D0D12",
"+  c #0F051F",
"@  c #0F1013",
"#  c #121213",
"$  c #2F2A00",
"%  c #2B240D",
"&  c #322D00",
"*  c #363103",
"=  c #3B360B",
"-  c #3D380B",
";  c #3D3A07",
":  c #100622",
">  c #15072B",
",  c #16082F",
"<  c #170931",
"1  c #180933",
"2  c #1C0B3B",
"3  c #261A32",
"4  c #48353F",
"5  c #5E5503",
"6  c #55490A",
"7  c #290E54",
"8  c #34126D",
"9  c #38117C",
"0  c #5F3C62",
"q  c #663E6D",
"w  c #62397F",
"e  c #674073",
"r  c #836B25",
"t  c #997F25",
"y  c #8C7135",
"u  c #966F58",
"i  c #9B735B",
"p  c #A37B59",
"a  c #A37C55",
"s  c #845971",
"d  c #93657B",
"f  c #926574",
"g  c #958500",
"h  c #978800",
"j  c #9B8B02",
"k  c #A08E05",
"l  c #A39201",
"z  c #A7970C",
"x  c #B09E00",
"c  c #A99910",
"v  c #BCA705",
"b  c #A7882F",
"n  c #AB8B2F",
"m  c #A6872E",
"M  c #AF9327",
"N  c #B39525",
"B  c #B69929",
"V  c #AB8B34",
"C  c #A78830",
"Z  c #BB9A33",
"A  c #B89738",
"S  c #BC9B3B",
"D  c #B69637",
"F  c #CAB400",
"G  c #CEB50B",
"H  c #D3BD02",
"J  c #D0B613",
"K  c #C1A22A",
"L  c #C3A525",
"P  c #D7C109",
"I  c #D9C30D",
"U  c #BD9D42",
"Y  c #C09F40",
"T  c #C2A144",
"R  c #3F138C",
"E  c #3B1281",
"W  c #3E1191",
"Q  c #41158D",
"!  c #451696",
"~  c #461994",
"^  c #44149C",
"/  c #4A1A9C",
"(  c #48189A",
")  c #4B218A",
"_  c #603C85",
"`  c #653D93",
"'  c #4E1CA3",
"]  c #4E1AAA",
"[  c #531EAB",
"{  c #551DB4",
"}  c #561DB9",
"|  c #5A1FBE",
" . c #5621AD",
".. c #5C2AAB",
"X. c #5721B2",
"o. c #5921B5",
"O. c #5B21BE",
"+. c #5F2AB1",
"@. c #6F39A1",
"#. c #733EA3",
"$. c #753EAD",
"%. c #612BB5",
"&. c #642ABA",
"*. c #6930BF",
"=. c #773DB3",
"-. c #75468B",
";. c #754295",
":. c #7A4796",
">. c #724B91",
",. c #7C4996",
"<. c #774498",
"1. c #79459A",
"2. c #7D4A9A",
"3. c #7C46A2",
"4. c #7F49A4",
"5. c #7847AB",
"6. c #7F50AD",
"7. c #7A42B4",
"8. c #7A46B9",
"9. c #7A46B9",
"0. c #5A1EC4",
"q. c #5C1ECB",
"w. c #571ACC",
"e. c #5D21C3",
"r. c #5E21C9",
"t. c #6124CC",
"y. c #6B2FC9",
"u. c #652AC1",
"i. c #6526D4",
"p. c #6728D7",
"a. c #6929D6",
"s. c #6524DB",
"d. c #6827DA",
"f. c #6828D9",
"g. c #6624E1",
"h. c #804AA5",
"j. c #8253AC",
"k. c #8653BA",
"l. c #8654B9",
"z. c #A77CB2",
"x. c #814AC9",
"c. c #8E58CA",
"v. c #8B57C5",
"b. c #9663C6",
"n. c #B4939C",
"m. c #BC96AB",
"M. c #B893A6",
"N. c #BE97B3",
"B. c #D6BC96",
"V. c #D9BD9F",
"C. c #DCBEA4",
"Z. c #DCBEA8",
"A. c #D0B0A5",
"S. c #F7DF9E",
"D. c #FFEC9A",
"F. c #FFF298",
"G. c #FFF898",
"H. c #FFF297",
"J. c #DDC0A4",
"K. c #E9CEA1",
"L. c #E5C8A5",
/* pixels */
"                                                                                                                                ",
"                                                                                                                                ",
"                                e.e.e.e.        e.e.e.e.e.e.e.e.e.t.t.f.f.f.f.f.f.a.f.f.                                        ",
"                                O.O.O.e.        e.e.e.e.e.e.O.e.e.t.t.a.p.f.f.a.i.p.p.f.                                        ",
"                                X.o.e.e.e.e.e.e.e.e.e.e.e.e.O.e.e.e.t.t.i.f.f.i.t.t.p.f.a.f.                                    ",
"                                 .X.O.O.e.e.e.O.O.O.O.e.O.e.t.O.e.e.0.e.i.f.f.i.e.e.t.p.s.f.                                    ",
"                                    X.O.O.O.o.X.X.X.X.o.O.O.o.o.O.e.e.t.p.f.f.i.r.e.e.t.i.f.                                    ",
"                                    X.o.O.O.o.X.X.X.X.o.O.e.} } 0.0.r.q.i.f.s.p.i.r.q.t.p.f.                                    ",
"                                    O.e.e.e.O.O.O.O.| &.0.0.| 0.0.q.i.s.d.s.g.d.s.s.s.s.s.p.r.e.                                ",
"                                    e.e.O.O.e.e.t.0.0.O.e.%.#.:.,.2.3.h.h.h.h.h.4.4.3.3.3.$.&.0.                                ",
"                                    e.O.o.o.O.e.O.O.o.} 0.#.p Z Z Z D V V V V V V V V V V u @.0.                                ",
"                                    e.O.o.o.O.O.O.O.} } | ,.Z F x j g g h h h g g g g l v C <.q.                                ",
"                                    e.e.O.O.o.X. .o.o.0.0.:.Z x 5 $ $ & = - - - - = = 5 l V 3.s.                                ",
"                                    e.e.e.O.o. .X.o.O.0.0.,.Z k & . . . X o @ # @ @ O = h V 4.g.                                ",
"                                        e.O.o.X.o.O.o.} 0.:.Z k & . . . . X o # @ @ @ = h V j.g.                                ",
"                                        e.O.o.o.e.O.X.o.0.:.S z & . . . . X o # # @ @ = h V 4.g.                                ",
"                                        e.e.O.O.O.O.X.X.0.2.Y c * . . . . X # # # # # - g V h.g.                                ",
"                                        e.e.e.e.e.O.X.} } h.T c * . . . . X # # # # # - g V h.s.                                ",
"                                            e.e.e.O.X.} | h.K c * . . . . X o # # # o ; g V 5.g.                                ",
"                                            e.e.t.O.o.o.0.2.T c * . . . . X o o # # o * t V 3.s.                                ",
"                                            e.e.e.O.O.0.0.h.T c * . . . . . . X # # # - g V <.q.                                ",
"                                            e.e.e.e.O.0.0.h.K z * . . . . . . X o # O - g C <.q.                                ",
"                                                e.O.o.} 0.2.S l * . . . . . . . o # @ - g V 3.s.                                ",
"                                                O.t.o.} 0.,.Z l & . . . . . . . o O O - g V 3.s.                                ",
"                                                e.e.O.0.0.h.Z l & . . . . . . . . X o = h n :.q.                                ",
"                                                e.e.e.0.0.#.a t 6 & & * & & $ $ $ % 3 4 y i #.q.                                ",
"                                                e.e.e.e.e.&.@.s t l l l k j g g g r w +.#.7.y.i.                                ",
"                                                e.e.e.e.0.0.w.#.p Z Z K J G F v N p 7.g.g.s.i.i.                                ",
"                                            e.e.e.e.e.e.e.e.0.&.3.1.1.f K H F M d =.y.d.d.s.t.e.                                ",
"                                            e.e.e.e.e.e.O.O.t.e.0.q.w.1.A H F V 5.g.g.f.p.t.t.e.                                ",
"                                            e.e.e.e.O.O.o.o.e.0.0.w.w.1.U P F V 5.g.s.i.t.e.                                    ",
"                                            e.e.e.e.e.O.o.o.O.e.e.0.0.2.Y J F V 1.s.d.i.t.e.                                    ",
"                                        [ o.O.e.e.e.e.e.O.O.O.e.e.0.q.2.U I F m ;.t.f.i.t.|                                     ",
"                                         .{ O.e.e.e.e.e.e.e.e.e.e.0.0.1.U P F m @.t.i.i.t.|                                     ",
"                                         .%.O.e.e.e.e.e.e.e.e.e.e.r.0.:.D H F m ` t.i.i.t.O.                                    ",
"                                        [ { O.e.e.e.e.e.e.e.e.e.e.0.q.:.D H F C <.r.s.i.t.|                                     ",
"                                     . . .%.} e.e.e.e.e.e.e.e.e.e.r.w.2.U P F V 3.s.s.i.t.e.                                    ",
"                                    { %.{ } O.e.e.| } { O.e.e.e.e.0.0.2.U I F C 4.g.s.i.e.u.                                    ",
"                                    O.O.O.O.e.e.e.{ / ( { e.e.e.e.0.0.1.U I F V 4.s.s.i.r.9.A.F.                                ",
"                                    e.e.e.e.e.O.} ' Q Q { e.e.e.e.0.} ;.U I F V 4.s.s.i.t.l.Z.D.                                ",
"                                t.O.O.e.e.t.{ [ ( R 9 Q { t.t.O.e.} ' q A I F V 3.s.r.r.q.v.Z.F.D.D.                            ",
"                                e.e.e.e.e.|  .' R 9 9 Q { O.O.| e.{ W 0 B P F V 3.s.t.r.s.v.Z.D.D.D.                            ",
"                                e.e.e.e.0.| o.' Q 9 9 Q [ e.t.t.w.} W 0 M H F n 3.s.s.s.s.v.Z.H.D.D.                            ",
"                                e.e.e.e.t.&.[ ' ! Q ~ / } t.| | } ] ^ 0 N G B i 5.s.s.p.i.x.N.L.S.D.                            ",
"                            e.e.e.e.e.e.O.{ ( ~ ] { { } O.e.e.{ ^ ^ ] -.B L d $.u.r.i.p.t.y.x.b.                                ",
"                            e.e.e.e.0.&.O.{ Q Q { e.e.e.e.e.e.{ Q W { #.a p 7.s.r.r.i.i.r.e.i.s.                                ",
"                            e.e.e.| o.o.| [ Q Q { 0.e.e.e.r.r.X.Q R { &.#.$.y.s.r.r.i.i.t.r.t.s.                                ",
"                            e.e.e.O.{ o.t.| / ! ] { 0.0.{ { X.] ~ / X.e.0.r.i.t.r.t.i.i.t.t.a.a.                                ",
"                        t.e.e.e.e.e.O.e.i.t.| ] ! ^ } } ^ R R / ] { X.O.e.e.e.t.t.p.p.p.i.p.p.f.                                ",
"                        O.e.t.0.e.e.e.e.t.t.r.+.` >.6.5.>._ ) ^ { O.O.X.O.O.O.t.p.f.f.p.a.f.f.a.                                ",
"                        0.&.O.O.e.e.e.e.O.o.e.8.n.B.C.V.B.n.5.{ 0.e.e.o.X.X.O.t.i.a.a.d.p.f.a.a.a.f.                            ",
"                        0.0.e.t.e.e.O.O.o.o.0.l.C.F.H.D.L.M.8.0.e.e.e.e.X.X.o.t.p.a.i.p.p.p.i.i.s.f.                            ",
"                        e.t.t.e.e.e.o.o.} | 0.l.C.G.G.L.z.8.+.O.O.e.e.O.X.X.O.t.i.i.t.t.i.i.t.t.i.a.                            ",
"                        e.} / Q ~ /  .o.e.0.| 8.M.C.C.M.8.} X.X.O.e.e.O.o.o.e.t.p.i.t.t.p.i.r.r.p.f.                            ",
"                            2 > , 7 / e.e.e.o.%.8.6.6.5...{ [ X.O.e.e.e.e.e.t.p.f.a.i.i.a.i.r.t.i.a.                            ",
"                            . . . : 8 ' O.e.O.o.0.0.o.{ { X.X.X.O.O.e.e.e.t.p.f.f.f.f.f.a.i.t.t.i.r.                            ",
"                                . . : 7 ' t.e.e.0.0.0.| e.o.X. .X.X.O.e.i.p.p.p.f.f.f.f.i.t.p.a.i.' 2 .                         ",
"                                . . . + 8 ~ ~ / X.e.e.e.e.O.o. . .X.O.t.p.f.f.f.f.t. ./ ~ ~ / ' ( 8 : .                         ",
"                                    . X : < , 2                                     2 < 1 , 1 1 , : X .                         ",
"                                    . . . . . .                                     . . . . . . . . . .                         ",
"                                                                                                                                ",
"                                                                                                                                ",
"                                                                                                                                ",
"                                                                                                                                "
};
