/* XPM */
static char *afcccbc9101f4850b7258b741ece8cb3fjWpASnWRKeAFuFQ[] = {
/* columns rows colors chars-per-pixel */
"64 64 150 2 ",
"   c None",
".  c #673E3A",
"X  c #693F3A",
"o  c #6C4437",
"O  c #6E4834",
"+  c #694138",
"@  c #724B33",
"#  c #7A5136",
"$  c #3D0757",
"%  c #3E0A56",
"&  c #34005D",
"*  c #3B0559",
"=  c #3F0859",
"-  c #2F0060",
";  c #320062",
":  c #390065",
">  c #3F0075",
",  c #4E1D4B",
"<  c #501E4D",
"1  c #400B55",
"2  c #440A5E",
"3  c #552646",
"4  c #562845",
"5  c #592B44",
"6  c #512149",
"7  c #5A274C",
"8  c #5A294B",
"9  c #623345",
"0  c #6E394D",
"q  c #612858",
"w  c #430860",
"e  c #420073",
"r  c #46007A",
"t  c #611E69",
"y  c #6E1F7C",
"u  c #622067",
"i  c #712B6D",
"p  c #7C3B61",
"a  c #7E366E",
"s  c #7F386D",
"d  c #6B2175",
"f  c #6F217B",
"g  c #732777",
"h  c #762A75",
"j  c #782D73",
"k  c #722578",
"l  c #7C3370",
"z  c #7E4356",
"x  c #8E701F",
"c  c #997E17",
"v  c #91741D",
"b  c #856425",
"n  c #8A6B22",
"m  c #8B652E",
"M  c #95712A",
"N  c #94653B",
"B  c #80376D",
"V  c #813A6B",
"C  c #9A5B57",
"Z  c #94545B",
"A  c #975858",
"S  c #985958",
"D  c #9F6352",
"F  c #A3684F",
"G  c #A16650",
"H  c #9C8215",
"J  c #9F8811",
"K  c #A68F0F",
"L  c #A7900E",
"P  c #A08713",
"I  c #A28A12",
"U  c #AA8F15",
"Y  c #AA8A1E",
"T  c #B6A303",
"R  c #B8A700",
"E  c #BDAC00",
"W  c #AA8527",
"Q  c #AA8428",
"!  c #B28534",
"~  c #B6833E",
"^  c #B8863C",
"/  c #BB893A",
"(  c #C0B100",
")  c #CDBA00",
"_  c #D1BD04",
"`  c #C4A615",
"'  c #C5A912",
"]  c #D3B512",
"[  c #D4B319",
"{  c #DBB51F",
"}  c #DEBA1C",
"|  c #E1BE1A",
" . c #C89C2F",
".. c #C49632",
"X. c #C69831",
"o. c #D6AE24",
"O. c #D7B122",
"+. c #D9B221",
"@. c #D2C100",
"#. c #DAC700",
"$. c #EED800",
"%. c #F4DD02",
"&. c #F8DE06",
"*. c #F7DB08",
"=. c #E6C416",
"-. c #E8C714",
";. c #E9C913",
":. c #E4C119",
">. c #F5E000",
",. c #FCE402",
"<. c #FFEC00",
"1. c #FFF300",
"2. c #4E0089",
"3. c #540484",
"4. c #5E0B87",
"5. c #55008E",
"6. c #5A058C",
"7. c #5F0C88",
"8. c #5E0A89",
"9. c #4F0095",
"0. c #4D0097",
"q. c #4E0096",
"w. c #4F0096",
"e. c #4E0097",
"r. c #4E0096",
"t. c #4D0098",
"y. c #520092",
"u. c #530092",
"i. c #520093",
"p. c #530093",
"a. c #550090",
"s. c #540091",
"d. c #550091",
"f. c #560090",
"g. c #570090",
"h. c #560091",
"j. c #570091",
"k. c #540092",
"l. c #560092",
"z. c #570092",
"x. c #560093",
"c. c #510094",
"v. c #500095",
"b. c #520094",
"n. c #520093",
"m. c #580091",
"M. c #610E86",
"N. c #620E86",
"B. c #610E86",
"V. c #600C88",
/* pixels */
"                                                                                                                                ",
"                                                                                                                                ",
"                                                                                                                                ",
"                                                                                                                                ",
"                                                                                                                                ",
"                                                                                                                                ",
"                                                            <.$.) R                                                             ",
"                                                            <.%.#._                                                             ",
"                                                    <.<.1.<.<.,.>.>.<.%.) R                                                     ",
"                                                    { O.o.o.o.o.o.o.o.[ ) )                                                     ",
"                                            1.1.1.} C s V B a l l a a D } $.@.E                                                 ",
"                                            { +.+.^ g 9.c.8.g a a g 6.g ! ' U I                                                 ",
"                                    <.1.1.} C B V j 8.c.c.h ^ } { ^ g 3.q 9 5 # ] ,.@.E                                         ",
"                                    +.+.+.~ k 9.c.y.6.k.k.h / } } / j 2.> : ; 8 W ` U J                                         ",
"                            <.1.1.} C s s k 6.c.k.k.k.5.6.B.j V V j N.5.2.r : % 8 9 8 # ] ,.@.E                                 ",
"                            +.o.+.~ g 6.k B V j B.5.k.k.k.5.k.k.5.k.5.k.g.3.e w < , * 8 W ` U H                                 ",
"                    <.<.1.{ A l l k 6.g ^ } } / j c.c.k.y.k.k.k.k.k.5.5.5.9.2.t m b , 1 7 9 4 + I ( E E                         ",
"                    ,.&.| ..Z a a k 6.g ^ } } / j 6.h V V j B.k.m.k.6.4.d i h z M b , * , 4 3 . n K R E                         ",
"                    <.} G Z ..+.{ ^ k 6.k V V h 8.j ^ :.| / l y.k.5.k.d N Y Y M X , & , b H J n + @ U E                         ",
"                    <.o.j y ~ } | ..A B B g 6.9.9.j ^ } } / j c.k.5.2.u m J J n . 6 4 o n P I b , 3 H E                         ",
"                    <.o.l 5.h s B A X.} } ^ k t.9.8.j V V j B.k.m.3.e w , 4 4 . n P I n + 5 5 , ; 4 H (                         ",
"                    <.:.F h 6.9.9.k / } } ..A B B j 8.9.c.y.k.5.3.r : $ , 4 3 . x I I b , & & & ; 5 H (                         ",
"                    <.&.-.^ h 9.9.6.j B V A ..| } / g 9.9.c.c.2.> : ; , b I I n + 4 5 3 1 & & & & 5 H (                         ",
"                    <.&.-.^ h 8.h h 6.9.t.k / } } X.A B B V V p 0 9 5 . n I I b , & ; & & & & & & 5 H (                         ",
"                    <.:.F g 8.j ^ ^ g t.t.8.j V B A X.{ } +.{ { [ ` U n + 5 5 < * & & & & & & & ; 5 H E                         ",
"                    <.o.a t.9.V } ;.F s s j 6.t.9.h ^ } +.+.+.-.>.>.@.H 4 ; - $ 6 6 % & & 1 6 6 $ 5 H (                         ",
"                    <.O.s 9.9.V +.,.-.{ } ^ k 9.9.B.j V B a a G :.>.@.H 3 - - < b n 6 & & 6 n b < 5 H (                         ",
"                    1.O.V c.y.s O.>.-.{ { X.C j 8.c.c.8.k f 6.l O.>.@.H 3 * , o v n 6 & & 3 n b , 4 H (                         ",
"                    <.O.V c.c.V +.:.F a s C  ./ h 9.9.h ~ ~ k l O.%.@.c 3 , b x O < % & & 1 6 6 $ 5 H (                         ",
"                    1.O.V c.y.V +.+.s t.t.h / X.A k 8.V } } B l o.%.@.H 3 < b n < & & * & & & & & 5 H (                         ",
"                    <.O.V c.c.V } +.V c.c.8.h C X.~ k B } } s l o.%.@.H 3 $ 6 6 1 & & * * & & & & 5 H (                         ",
"                    <.O.V c.c.V +.{ V k.c.c.9.a } } V h ^ ^ g a O.%.@.H 4 & & & & & * & & & & & & 5 H (                         ",
"                    1.O.V c.c.V { { V y.c.c.t.l } } V 8.g h 8.B O.%.@.H 3 - & & & & * & & & * & & 5 J E                         ",
"                    <.O.V c.c.V { +.V 8.h V B C ..^ j k.c.c.p.B O.>.@.H 3 - & & & & & 1 < 6 % & & 4 H E                         ",
"                    <.O.V c.c.V { O.s g ^ | | ..Z k 8.5.k.k.c.V O.>.@.H 4 & & * & & & 6 n b < & & 5 H (                         ",
"                    1.+.V c.y.V { +.B k ^ } } ..A k 8.k.m.k.k.V O.>.@.H 4 & & % 6 , $ 5 K P 5 & & 5 H (                         ",
"                    <.O.V c.c.V { +.V 8.h B B C X./ h 9.k.k.k.B O.>.@.c 4 & & 6 b b , 5 I K 5 ; ; 5 J (                         ",
"                    1.O.V c.c.V { { V y.c.c.c.j / X.C g 8.p.c.V O.>.@.H 4 - & 5 I I 4 , b b 6 & & 5 H (                         ",
"                    <.O.V c.y.V { { V y.k.k.y.8.h C X.^ l c.c.B O.>.@.H 4 - - 5 I I 5 * , , 1 & & 5 J (                         ",
"                    <.O.s 9.c.V { +.s c.k.5.m.y.t.a } | V c.c.V O.>.@.H 4 & & 6 b n 6 & & & & & & 4 H E                         ",
"                    <.o.a 9.9.V { +.s 9.y.6.k.k.t.a } | V c.c.V O.>.@.H 4 & & % 6 6 % & & & & & & 5 H (                         ",
"                    <.:.F k 6.a O.;.F h 8.c.p.8.h C X./ j c.c.B O.>.@.H 3 & & & & & & * & % 6 6 = 8 H (                         ",
"                    <.&.-.~ k a O.,.;.^ k 9.t.h /  .C g 8.k.c.V O.>.@.c 4 & & & & & & & & 6 n b < 4 H E                         ",
"                    <.&.:.~ g a O.,.;...C a B C  ./ h c.c.k.y.B O.%.@.H 3 $ < 6 1 & & & & 3 b b , 3 H (                         ",
"                    <.| G f 6.V +.-.G Z ..} } ..C h 8.k.c.c.y.B O.>.@.c 3 , b n 6 & & & & 1 6 6 * 3 H E                         ",
"                    <.| D f 6.h ^ ~ k k ~ | | ^ g c.y.B.j h 8.B O.>.@.c 3 , b v o , $ & & & & * , @ K E                         ",
"                    <.*.:.~ k 6.k k 8.8.j V V j B.y.p.j ^ ^ h l o.>.@.H 3 * , o v n 6 & & & & , b L T E                         ",
"                    ,.<.1.{ C B l g B.k.c.c.p.k.k.k.k.V | } B l o.>.@.c 3 ; - , b b 6 * < 5 4 o I ( E E                         ",
"                            { +.+.~ g 9.9.c.g.g.g.g.c.V } } B l o.>.@.c 4 & ; $ < < * < b H H J                                 ",
"                            <.1.1.} C B B j 8.y.c.c.y.l / ~ h l o.>.@.H 3 - & $ , 4 4 o J ) ( (                                 ",
"                                    { +.{ ~ h c.c.y.k.N.j h 8.B o.>.@.H 3 - - < # J H P                                         ",
"                                    <.1.1.} C B V j 7.y.c.t.c.a O.%.@.I O 3 4 o J ) ( (                                         ",
"                                            { +.{ ~ h 9.9.t.9.l O.>.@.T K H H J                                                 ",
"                                            1.1.1.} C a B B a D :.$.) R E E E (                                                 ",
"                                                    { O.+.O.o.| *.$.) R E E                                                     ",
"                                                    1.<.<.<.<.<.<.$.) E E E                                                     ",
"                                                            ,.<.<.$.) R                                                         ",
"                                                            ,.<.,.$.) E                                                         ",
"                                                                                                                                ",
"                                                                                                                                ",
"                                                                                                                                ",
"                                                                                                                                ",
"                                                                                                                                ",
"                                                                                                                                "
};
