/* XPM */
static char *bbac998dc69245e0c11960d06db3bd79W85Mqy2RIYDpLs8F[] = {
/* columns rows colors chars-per-pixel */
"64 64 153 2 ",
"   c None",
".  c #000001",
"X  c #050409",
"o  c #0C0D0D",
"O  c #0D0E12",
"+  c #0E051C",
"@  c #0F1014",
"#  c #111213",
"$  c #2F2A00",
"%  c #2B240D",
"&  c #322E01",
"*  c #363103",
"=  c #3B370C",
"-  c #3D390B",
";  c #3B3705",
":  c #100621",
">  c #15082B",
",  c #1B0A39",
"<  c #261A32",
"1  c #423D0D",
"2  c #48353E",
"3  c #574B0E",
"4  c #5E5503",
"5  c #250D4C",
"6  c #270E51",
"7  c #33126C",
"8  c #3A1675",
"9  c #603D5E",
"0  c #5E3B62",
"q  c #583369",
"w  c #62397F",
"e  c #674073",
"r  c #836B25",
"t  c #8C7135",
"y  c #997842",
"u  c #946D59",
"i  c #9B735C",
"p  c #A37B5A",
"a  c #855B74",
"s  c #946777",
"d  c #93657B",
"f  c #958500",
"g  c #9A8A01",
"h  c #A39202",
"j  c #A6950C",
"k  c #AA9B0E",
"l  c #B09E00",
"z  c #A99910",
"x  c #B1971D",
"c  c #B6A400",
"v  c #BFA70A",
"b  c #9C832B",
"n  c #A7872E",
"m  c #A7882F",
"M  c #AB8C2E",
"N  c #AE9224",
"B  c #B49625",
"V  c #B59929",
"C  c #A78830",
"Z  c #AA8A34",
"A  c #B49336",
"S  c #B79B37",
"D  c #BB9A34",
"F  c #B89739",
"G  c #BC9B3A",
"H  c #C7B200",
"J  c #C9B400",
"K  c #CEB60B",
"L  c #D3BC01",
"P  c #D2B817",
"I  c #C3A42A",
"U  c #C7A935",
"Y  c #D7C109",
"T  c #D9C30D",
"R  c #BD9D43",
"E  c #A98163",
"W  c #C09F40",
"Q  c #C3A243",
"!  c #3A1280",
"~  c #3E138B",
"^  c #3F1292",
"/  c #401983",
"(  c #481E81",
")  c #41158E",
"_  c #43198B",
"`  c #471A91",
"'  c #44149B",
"]  c #48179D",
"[  c #4A199D",
"{  c #4C228C",
"}  c #663B8A",
"|  c #4D1AA4",
" . c #4D18AB",
".. c #541DB4",
"X. c #561DB9",
"o. c #591EBE",
"O. c #5621AE",
"+. c #5C2AAB",
"@. c #5721B2",
"#. c #5921B6",
"$. c #5B21BE",
"%. c #6E39A2",
"&. c #733DA4",
"*. c #743DAA",
"=. c #642ABA",
"-. c #602AB5",
";. c #793FB4",
":. c #763DB4",
">. c #6A4883",
",. c #75468E",
"<. c #754294",
"1. c #7A4696",
"2. c #7D4996",
"3. c #774398",
"4. c #79459B",
"5. c #7E4A9B",
"6. c #704992",
"7. c #7640A5",
"8. c #7C47A2",
"9. c #7E48A4",
"0. c #7744A9",
"q. c #7F50AD",
"w. c #7A41B3",
"e. c #7B46BC",
"r. c #7642B8",
"t. c #5A1EC4",
"y. c #5B1DCB",
"u. c #571AC7",
"i. c #5D21C3",
"p. c #5E22CA",
"a. c #6022C7",
"s. c #662CC2",
"d. c #6124CB",
"f. c #6C2ECB",
"g. c #6526D3",
"h. c #6728D7",
"j. c #6929D6",
"k. c #6524DB",
"l. c #6827DB",
"z. c #6828D9",
"x. c #6624E0",
"c. c #844DA5",
"v. c #8653B9",
"b. c #A77CB2",
"n. c #B49599",
"m. c #BB95AC",
"M. c #D3BA93",
"N. c #DCBEA2",
"B. c #FEE89C",
"V. c #FFF997",
"C. c #FFF799",
"Z. c #FFF998",
"A. c #E9CEA1",
/* pixels */
"                                                                                                                                ",
"                                                                                                                                ",
"                                            i.i.i.i.i.i.i.i.i.i.i.a.g.z.z.z.z.z.z.z.                                            ",
"                                            i.i.i.i.i.i.i.i.i.i.i.a.d.h.j.j.g.h.h.z.                                            ",
"                            i.$.@.@.$.i.i.i.i.i.i.i.i.i.i.i.i.i.i.i.p.d.g.g.d.d.h.z.z.z.                                        ",
"                            i.$.#.@.$.$.i.i.$.$.$.$.$.i.$.i.$.$.i.i.i.i.g.g.a.p.d.g.g.g.                                        ",
"                            i.i.$.$.@.#.$.$.$.O.@.@.@.#.$.$.#.#.$.i.i.p.g.g.p.i.i.d.d.d.g.z.                                    ",
"                            i.i.i.$.#.$.$.$.#.@.@.@.@.#.$.i.X.X.t.i.p.d.k.k.d.p.p.p.t.p.k.k.                                    ",
"                                    $.i.i.i.$.$.$.t.$.$.i.i.o.t.t.y.g.k.k.k.k.k.k.g.y.y.k.g.p.i.                                ",
"                                    i.i.$.$.$.i.i.t.=.$.i.-.%.1.2.5.c.c.c.c.c.c.c.8.3.3.8.*.=.i.                                ",
"                                    i.$.#.@.@.#.$.$.#.X.t.&.p D D D F G G G G F A Z M M C u %.y.                                ",
"                                    i.$.#.@.@.#.$.$...X.o.2.D J l h h h h l j h g f f g c C 3.y.                                ",
"                                    i.i.$.$.$.$.@.#.$.o.t.2.D l 4 $ & * 1 1 1 1 1 = = 4 h Z 9.k.                                ",
"                                    i.i.i.i.i.$.@.@.$.t.y.2.G h & . . . X o O # @ O O = f Z 9.x.                                ",
"                                        i.i.i.$.@.@.$.y.u.2.W j & . . . . X o # # O O - g Z c.x.                                ",
"                                        i.i.i.$.#.@.$.i.t.c.Q z * . . . . X @ # # # O - f Z 9.x.                                ",
"                                        i.i.i.i.$.$.@.X.t.c.Q z * . . . . . # # # @ @ - f Z 9.x.                                ",
"                                        i.i.i.i.a.$.@...o.2.Q z ; . . . . . o o # @ @ = f Z 9.x.                                ",
"                                            i.i.i.o.@...o.5.Q k * . . . . . X o # # @ = f Z 9.x.                                ",
"                                            i.i.t.=.#.X.t.5.W j * . . . . . . . @ # @ = f Z 8.k.                                ",
"                                            i.i.i.i.$.t.t.,.G h & . . . . . . . @ # @ - f Z 3.y.                                ",
"                                            i.i.i.i.$.t.t.c.D h * . . . . . . X o # @ - g C 3.y.                                ",
"                                                t.$...X.t.2.D h & . . . . . . X o @ @ 1 f Z 8.k.                                ",
"                                                t.=.#...X.c.D h & . . . . . . . o o O - g Z 8.k.                                ",
"                                                i.i.$.t.t.c.V l & . . . . . . . . . O - f M 4.y.                                ",
"                                                i.i.i.t.t.&.p t 3 & * * & & $ $ & % < 2 t i &.y.                                ",
"                                                i.i.i.i.t.=.&.a b k k k j g f f f r } +.7.w.f.g.                                ",
"                                                i.i.i.i.i.t.u.*.E Q Q U P L H v B i w.x.k.l.h.h.                                ",
"                                            i.i.i.i.i.i.i.i.t.=.*.9.5.s D L J B d :.j.l.l.k.                                    ",
"                                            i.i.i.i.i.i.$.$.i.i.t.u.y.4.A L H Z 0.x.l.j.g.g.                                    ",
"                                            i.i.i.i.i.$.#.#.$.t.i.y.u.4.A L H Z 8.x.k.g.d.d.                                    ",
"                                            i.i.i.i.i.$.#.#.i.i.i.t.u.4.F L H C 8.k.g.g.i.i.                                    ",
"                                        i.i.i.i.i.i.i.i.$.$.i.i.i.t.y.4.G Y J C 3.p.p.p.i.i.                                    ",
"                                        $.i.i.i.i.i.i.i.i.i.i.i.i.t.t.5.R T J C <.t.t.i.p.p.                                    ",
"                                        t.a.i.i.i.i.i.i.i.i.i.i.i.t.t.5.R T J m <.t.i.p.d.g.                                    ",
"                                        a.$.i.i.i.i.i.i.i.i.i.i.i.t.X.<.R T J C 3.y.i.p.g.z.                                    ",
"                                        i.i.i.i.i.i.a.i.i.i.i.i.p.X.| e S T J Z 8.g.y.p.g.z.                                    ",
"                                        i.i.i.i.i.o.X...$.i.i.i.t. .^ 0 V T J Z 8.k.y.p.g.z.                                    ",
"                                    i.i.a.$.t.a.t...[ [ ..a.i.a.i...^ 0 N L H Z 8.k.p.d.g.z.                                    ",
"                                    i.i.$.a.$.$.$...) _ ..i.i.i.y...^ 0 N L J Z 8.g.p.p.g.z.                                    ",
"                                    i.i.i.$.#.$.$...~ ) ..i.a.i.i...^ 0 N L J M c.k.y.a.g.h.h.h.                                ",
"                                    i.i.i.$.@.@.$...) ) ..p.i.i.i...^ 0 x K V i *.k.d.d.h.j.h.g.                                ",
"                                    i.i.i.$.@.@.$...) ) ..i.i.i.t...^ 0 B I d :.f.z.g.g.j.g.d.p.                                ",
"                                    i.i.i.$.#.#.i.@.) ~ | #.i.i.p...^ q y p w.x.k.z.z.z.j.g.p.i.                                ",
"                                    i.i.i.i.$.i.i...) ! ~ ] #.i.p...^ / } *.f.l.l.z.z.z.z.g.p.$.                                ",
"                                    $.i.i.i.i.i.i...] ~ 8 ~  ..... .' ' X.d.d.g.z.z.j.z.z.g.p.i.                                ",
"                                i.$.#.#.$.i.i.i.i.i.X.| ~ ! ~ ~ ~ ^  .X.u.t.$.=.g.z.z.z.z.g.i.i.                                ",
"                                i.$.#.#.$.i.i.i.i.i.i.X.| { } >.>.6.q.e.s.o.O.#.d.z.z.z.z.h.d.d.                                ",
"                                i.$.$.$.i.i.i.i.i.i.i.o.X.0.n.M.M.M.N.m.e.o.#.#.d.z.z.j.j.h.g.g.                                ",
"                                i.i.i.i.$.$.$.$.i.i.i.i.t.e.m.A.B.C.C.N.v.o.@.#.g.z.g.h.h.h.j.g.                                ",
"                                i.i.i.$.#.@.@.$.$.i.i.i.t.=.e.b.A.C.V.N.v.t.@.#.d.h.d.d.g.g.d.a.                                ",
"                                i.i.i.$.#.@.O.@.$.i.i.i.t.t.t.e.m.N.N.m.e.o.#.#.g.g.a.p.g.g.a.i.                                ",
"                                i.$.#.#.$.$.@.@.$.i.i.i.i.i...-.r.v.v.e.s.i.$.p.g.g.p.a.g.g.a.i.                                ",
"                                i.$.@.@.$.$.@.@.$.i.$.$.$.$.@...o.u.t.t.i.i.i.p.g.g.d.a.g.d.d.a.                                ",
"                            O.#.$.$.@.@.$.$.@.@.$.$.#...O.@.O.@.$.t.t.t.d.a.i.a.h.j.g.g.d.d.g.g.                                ",
"                            O.@.#.$.#.#.$.$.#.$.i.$.#.#.#.@.@.@.$.i.i.X.[ [ @.p.d.g.j.g.d.d.g.z.                                ",
"                            O.O.@.#.$.$.i.i.$.$.i.i.$.$.i.i.#.#.#.$.d.[ 6 5 ` $.i.d.j.z.g.g.                                    ",
"                            O.O.O.#.$.i.i.i.i.i.i.i.i.#.[ _ _ 8 / / ` 7 + + 8 #.$.d.g.z.z.z.                                    ",
"                                                        , > > > > > > : X X                                                     ",
"                                                        . . . . . . . . . .                                                     ",
"                                                                                                                                ",
"                                                                                                                                ",
"                                                                                                                                ",
"                                                                                                                                "
};
