/* XPM */
static char *pixel_soil_green1676886650[] = {
/* columns rows colors chars-per-pixel */
"64 64 36 1 ",
"  c #7E9665",
". c #7F9965",
"X c #7F9568",
"o c #809665",
"O c #819A67",
"+ c #819668",
"@ c #849D6A",
"# c #86A26B",
"$ c #89A56D",
"% c #8BAA6E",
"& c #8EB06F",
"* c #8BA670",
"= c #8DAC72",
"- c #90AF75",
"; c #92AF79",
": c #8FB172",
"> c #92B475",
", c #94BB76",
"< c #94B579",
"1 c #96BC7A",
"2 c #99BD7D",
"3 c #96C07A",
"4 c #99C27D",
"5 c #9ABD81",
"6 c #9DC582",
"7 c #9EC984",
"8 c #A0C686",
"9 c #A0C986",
"0 c #A1C788",
"q c #A3CC8A",
"w c #A8CF8F",
"e c #A6D08E",
"r c #A8D08F",
"t c #A9CF91",
"y c #A7D091",
"u c #AAD292",
/* pixels */
"$26=2<$<5@q93#1946$%3$=6<12*;5$5q2==q36=*4*=42;4=*5-=t62@q671$2>",
"#$,4$@=90-#>,#13:,#@&$#>4=#@q6<#>,%>3,&$@:##=12$@206#=1>=63==$%%",
"<@#:=$6442$X@#43@O$$$1@@%2@2446=..@,4%.#=#<=@$1@>446>#@#=6>+@=$*",
"u5*#@<6<-62=%##$%60q9eq=@@=62=46:$%@$#>eqq0u>$@$26-162*=@*$<qqq9",
"60<*=<<8q41%%2-$=6444685-$=6;w86%%<<#$766464q$=*5<y661=-5=*58664",
"666%=$-262#%89q-@>616638--$<>52=#17u,$$6264662=$:*56>$<9t8**2426",
"42>-t=@*=@104446#@=06461*q<@@<+=q4646:.#60452-28$+:@@086845@@<96",
"2@-00q<@@<411364*%4244$$86q8*+*841434;#6246-@2700<@@682166<*5446",
"=>064661-=4>4,$@#@114>-2q1444==4311=O#@>222$4q2644-:24<4<@$@-622",
"$174>=>@=$%#XO%%7%@O%=%q11>-$%%#$  #%21#+$$$q32>-=#=@=++@==q*@@$",
"%=1,=@$>$19><1%-3471$$#11,@$-=%r1:1%#4370$#$,11##=-#08>1<%<36q<$",
"<#=@@6rr8%14444@,,44%,$%$O>urr=,4436%%339=<>#=X$ruw,=48461@418<%",
"u6==<6474%#41&.#@$,#1qq<%$96441#33,@@.#>$=qu1%$64444#>43$#@#=>#8",
"439-$11344#&##>48%O%44345#,1344=%%@:,e:.@41646*=13441#<@=106#@>3",
"<46<**1444%#%9w888=$22188$$1244>%#<u6771%;2<46=*>4442$*-uq6q6-=2",
"=<>**$2624$$>444441-@<*2$**-8<4>%$3334332$==1-*=@8>82*$2166424-$",
"@@@$>$@#%>#@##,>3,,,%#.#@>$@$%=%##$&,,3&4=%OO$=%##@-=#@#-,,311>>",
"1510q4#@@>>q&O#3,,#$%>7:4rq=@@%141#.13,$%%=q<,qr<#O$14q%O-41<$%%",
"561316>%r74343#%$.$1=<67131,&2q8444%$%O#>>=442326%>q9889<@=#O>2$",
"$>41<q$#,44334@###437$%14-q<#-18333&O##,4q$$14<28$$144331##$=67<",
"$>4131<$@>>3,$%<>$O,3:#44312@O><,,&#:2%O>4<#23334#$$>,,1@>1<@$34",
"@14=3,@==@943@1942#%3#=6>11$=<@273%$934%@4%$4,>1%$>==q21@q36>@,>",
"$$,1$*%q0%%,,#13,,@#1$@,4$=@0q-$,3%,4,>%#,##<2<-#>u2@<1,#63<:$>&",
"$$=1<@6641@%$%44%##+$*$$<4@<444*#%.34>$@$@**@-2*%946-@-$<62*$*@#",
"q<$@@<82<q1#$@>=@=606r2@@$*82<08$##%>@#5w8q0-@$@26<4q>$$#1@*<q6t",
"0q;=--12261-$>$$1q4678w2--$6<544&$:%#=qq484qq*-*1<6242$-<@*qt665",
"488$$<>848%$1u9-@,634668-@*22242#>ru:@:4244882$@2<482*-0u5=*4626",
"451=w@@-<$-4744>@@=66262*0=$*2*@44441%@$1q244<>5*@2-@2q466-#@<q4",
"2@=8q0$@@-481348=*6344*=2qq-@@$8633642@7442-*-0q5$@@2402488$2662",
"<=04400-$;41,4-$#$6262*2q6805*$83;3<$##2428-<w4888**28<22-@*=866",
"@508<22--$>=$@@=<$$%>*=q4<12<$*-<##@$==$*<*@q42221*-*2@*@*-5*==>",
"->441@@---<@$-%<671*@==628@@*--5##=%%766<@--246*@@--<;$---<6q<**",
"=$,%O1uq1,7777,%,330$>#>>@%0u2=6q774%,,3q>%%:>##6u7=609q0>=3166$",
"u=#$=7067$&44,@##>4%=q6$##69491$443%##:,>$0q*#@16666#144>#@>>3$1",
"466%=13463#3:#$:>O@#744q<@61464$,,##$1#.@24463=<13661=1=#%1-@#=6",
"1341@$1331$@#2eeq4#%11134@@,33,>#.=e6e7%#11134=@>331,$@$qq0e1$=3",
":11$:@1313$#$443333%#1=3>%#>414>.#133333=$,>31$=$4144@$>444341#=",
"@@#$$##$1,#.#:3,43,,%@X%@%#@$-,%##=,333,4%@X##$$@=#1>@#=,414131$",
"==>2q<#X #&1$@#433$&$=1%>w6$O+@-,%#.,33:>#%<$>00%@X@$><#@>431=%%",
"677477=*7q767%@1&@O:%24883q1%1qq671.:,#.$:<776377%:qq907$#1%@#>%",
"$131>1=$143334#.O#743#>31><-#114334:..#477$=331=1#:144436@@@>70=",
"%=4466<%$1,1,:#=%.#,4>#34488$@,23,,##&..,3>#,3467=#>1131=$=%@=33",
"@,6:3,@$$+63,#,q41#%3#%8>41$#%@<4,%&e44##3%$61>1:#$#$013@06q>@1,",
"#>,>>=#86%,43@>3,3#%1#$,1%,O2q$>33%#433&#1$#,3:,#=e<=41,@631,@,>",
"#@>2=#167,@%%#43$&#@$#O%>1@=q72@&&#,3:$##%#@#>6@$680#$:%>41$$$@$",
"6#@#$%4417%.##1>@@:,,q%@@=#1318>..#>3#.%5:6<$+=@,3344#@#$6%@$1>1",
"qq$##>3==43>##O@&eq44qr%@$=6>$26,$#..$6e677u2$$#41=>64$$@O@2r686",
"605*$<1904,#:r4%#4444488-$$62962%%7q%@364464q=**42666-=5u>%-7644",
"642%<*@26<@>669>@#,26466=<@*=51*=3471#@>>q284<==*#55*=56q8*@<<06",
"1>-2u1@@**6q3348%@1662>>-u5-+=@2q44461@>q44,>-0q-@*@-q74666$-546",
"1O10496#@<3,,31>#$4334#=q489=@=43>33>%O3414-$83771@#63116,=#>442",
"@283113<=@1>&%@###%:1$=73,314%%>,:%#O###&1%@q41114===3*>$@@=#%>1",
"$>331@*#%%##O#%&73$..%$132#@#$%%#.O%%46>#o$$134=@$#%%$@@#%10<=@@",
"%%1>@$21=1q440:=3367%$$,1$#>5=-qq,q>$333w>#%,,=#=5<%qq106=>4304$",
"q#%@#6qqq#,33,%#:,4%$e=$$O1w9u=-333>O$33,@65@$O=q0e1$3441=@214$=",
"891$<13441#4,%#%#.%@74q7%=61444#33&@%%+@#<709-#53347=:41##%#@%$0",
"1381#,,341##.%7ee1#%4,34q#=>443:@@#3qe7##61147>$,343,@#@<qre:#<3",
"131<$@3434$#%47443:#:7:41@@1313>##37334,$%1133=#$4141#$>q9363:#,",
"#@%#%#>=11%#$13333,,##.:#%%#,<4=##,333334$#@$$$=@,=31##=,43434=#",
"$$#-8%O@@$#%#.%,33:,$$$$$6=@@@$$$$.#:43%1%%$#%2<#@+$#%%$@>13<1>=",
"8q889q%#<49e3$#3,%O#%2w4q8w,$=1qq7=.,,&#@%<w4q898$$1qqq1#$4>=@%%",
"%331>1>$733374##OO>q1$131,>1#534346%@#.%00#>43,>4$<144742@$+#5u$",
"$>348w<#:343,,##%%>,1%$348q8##1733,%#%#>13-#13890-@,6341<$$==13>",
"$,4442$$#->,>#>q8=@,4-=4441>$$%:,::%4e:#-4>$44421*$$-1<2$5q8$$44"
};
