/* XPM */
static char *satoshi_front21676886651[] = {
/* columns rows colors chars-per-pixel */
"64 64 223 2 ",
"   c #010101",
".  c #06070A",
"X  c #0C0D0D",
"o  c #090413",
"O  c #0D0E12",
"+  c #0F1014",
"@  c #111213",
"#  c #161B12",
"$  c #2E2804",
"%  c #322E01",
"&  c #363103",
"*  c #3B3709",
"=  c #3F3A0D",
"-  c #272F1F",
";  c #241C2F",
":  c #413C0D",
">  c #47353E",
",  c #5A4F07",
"<  c #605808",
"1  c #4B5B3D",
"2  c #240E49",
"3  c #2B0D5F",
"4  c #37245A",
"5  c #331071",
"6  c #3B157B",
"7  c #3E2964",
"8  c #432C69",
"9  c #513A6A",
"0  c #513D6E",
"q  c #452A77",
"w  c #4C337C",
"e  c #4E5250",
"r  c #545D53",
"t  c #545857",
"y  c #536445",
"u  c #596C46",
"i  c #5A6D4A",
"p  c #5E734C",
"a  c #5C695B",
"s  c #61754D",
"d  c #627A4E",
"f  c #656B5A",
"g  c #637655",
"h  c #657D52",
"j  c #524C68",
"k  c #564E70",
"l  c #69587C",
"z  c #5D6662",
"x  c #626B64",
"c  c #6D716E",
"v  c #777B7C",
"b  c #8C732A",
"n  c #9B745B",
"m  c #A27B57",
"M  c #916C70",
"N  c #906B75",
"B  c #6A8355",
"V  c #6A8757",
"C  c #6C8459",
"Z  c #738958",
"A  c #738C5C",
"S  c #73915E",
"D  c #778B6A",
"F  c #7B9765",
"G  c #7D9564",
"H  c #7B8978",
"J  c #7F9376",
"K  c #7FA167",
"L  c #968604",
"P  c #9A8A06",
"I  c #A39203",
"U  c #A7960C",
"Y  c #B09E00",
"T  c #A99910",
"R  c #BCA80B",
"E  c #B0922B",
"W  c #A78830",
"Q  c #AA8A34",
"!  c #B79735",
"~  c #BC9B3A",
"^  c #C9B303",
"/  c #D2BC01",
"(  c #D2B817",
")  c #C4A52D",
"_  c #D8C20C",
"`  c #AE9142",
"'  c #B79842",
"]  c #819A67",
"[  c #819668",
"{  c #849D6A",
"}  c #889175",
"|  c #85987A",
" . c #A88E6F",
".. c #80A066",
"X. c #86A26B",
"o. c #89A56D",
"O. c #8BAA6E",
"+. c #8DB06F",
"@. c #8BA671",
"#. c #8DAC72",
"$. c #8AA579",
"%. c #90AF75",
"&. c #91AE79",
"*. c #8EB273",
"=. c #8EB278",
"-. c #92B475",
";. c #94BB76",
":. c #94B579",
">. c #96BB7A",
",. c #99BD7D",
"<. c #ACA66D",
"1. c #C09F43",
"2. c #C2A143",
"3. c #C6BC77",
"4. c #96C07A",
"5. c #99C27D",
"6. c #3E1585",
"7. c #411887",
"8. c #451A8C",
"9. c #461994",
"0. c #491B95",
"q. c #4A1B9C",
"w. c #4B2B85",
"e. c #4D2E89",
"r. c #523688",
"t. c #522899",
"y. c #59349B",
"u. c #6A3B9A",
"i. c #4D1CA2",
"p. c #4F1AAD",
"a. c #511EA5",
"s. c #521DAB",
"d. c #551DB4",
"f. c #561DBB",
"g. c #581FBB",
"h. c #5521AC",
"j. c #5728A8",
"k. c #5D34A9",
"l. c #5721B2",
"z. c #5A22B6",
"x. c #5B21BC",
"c. c #5F29BA",
"v. c #743EA4",
"b. c #703CAC",
"n. c #632ABA",
"m. c #6637B8",
"M. c #5D458D",
"N. c #764395",
"B. c #7A4795",
"V. c #7B4895",
"C. c #7D4A9B",
"Z. c #6D5091",
"A. c #726D8C",
"S. c #6946AA",
"D. c #7C46A4",
"F. c #6D45B6",
"G. c #7847B6",
"H. c #7756B8",
"J. c #7B64AF",
"K. c #5A1EC5",
"L. c #5A1CC9",
"P. c #5D21C3",
"I. c #5E21CB",
"U. c #6125C4",
"Y. c #652DC4",
"T. c #6124CB",
"R. c #672CCC",
"E. c #6A35C7",
"W. c #6B34CC",
"Q. c #733ECB",
"!. c #6526D3",
"~. c #6728D6",
"^. c #692BD5",
"/. c #6525D9",
"(. c #692AD9",
"). c #6E33D5",
"_. c #6E31D9",
"`. c #7238D6",
"'. c #6625E1",
"]. c #7647CA",
"[. c #7C59C6",
"{. c #7B47D5",
"}. c #82529E",
"|. c #907D93",
" X c #844DA5",
".X c #8556A4",
"XX c #8A5AAC",
"oX c #895BB6",
"OX c #896FB4",
"+X c #8C74BC",
"@X c #815CC8",
"#X c #814DDF",
"$X c #8152D0",
"%X c #8858DC",
"&X c #8F6CCF",
"*X c #9379C9",
"=X c #8A59E0",
"-X c #7D8085",
";X c #828986",
":X c #8A9789",
">X c #8C9B91",
",X c #909C93",
"<X c #8BA485",
"1X c #93A88D",
"2X c #9ABD80",
"3X c #98B48A",
"4X c #97AB98",
"5X c #9DB39A",
"6X c #ADA39C",
"7X c #928DAF",
"8X c #CCB38F",
"9X c #9DC582",
"0X c #9FC884",
"qX c #A0C686",
"wX c #A0C986",
"eX c #A1C788",
"rX c #A3CC8A",
"tX c #A8D08F",
"yX c #A9CF91",
"uX c #A7D091",
"iX c #ABD293",
"pX c #D9C68C",
"aX c #E4D08C",
/* pixels */
"o.,.9X#.,.:.o.:.:.@.rXwX4.X.>.wX5.9XX.O.5.o.%.9X:.>.>.o.%.2X{ 9XrX,.#.@.tX4.5.-.o.9Xo.@.9X>.:.5.@.@.9X#.#.yX9X>.X.rX5.qX>.X.>.:.",
"X.o.;.5.o.{ #.wXeX%.X.;.;.X.>.5.*.;.X.{ +.o.{ ;.5.#.{ X.rXqX,.{ -.>.o.;.4.;.+.O.X.*.X.X.*.;.>.{ { 2XeX9X{ -.>.-.%.5.5.#.%.o.O.#.",
"-.{ X.*.%.o.9X5.5.,.X.[ { X.4.5.{ ] o.X.o.>.{ { O.,.{ ,.,.,.9X@.] ] ] :.4.O.[ X.@.X.-.+.{ @.>.{ *.9X5.9X-.{ { o.o.wX:.] { %.X.o.",
"yXqX@.{ { :.9X:.%.9X,.@.O.X.X.o.O.9XrXrXwXtXrX$.| ;X,X5X4X:X5X5X:X:X:X} :X;X1X5X5X5X5X5X&.o.{ @.,.4.&.>.qX,.o.O.{ @.X.:.rXrXrXeX",
"9XeX:.@.@.:.:.qXrX5.>.O.O.,.%.o.&.0X4.9X5.0XwX5X7X&X&X*X*X*X*X*X+X+X+X+XOX+X+X+X*XOXJ.OX5Xo.O.O.9X:.tXqX5.>.#.%.2X@.@.qXqX5.5.qX",
"9X9X5.O.%.@.%.,.9X,.X.O.0XwXrX%.{ :.4.>.9X0X3X7X&X=X%X%X=X=X%X%X$X$X$X$X$X$X$X$X[.{.`.[.7X>X:X-X&.@.5.5.-.o.-.wXyXeX@.{ >.5.5.5.",
"5.,.:.-.iX@.{ o.@.{ >.eX5.5.5.9XX.F @.0X9X3X7X&X=X%X#X$X#X`.$XQ.Q.Q.Q.Q.Q.].].Q.].E.Y.E.S.F.F.J.H [ *.| { rXqXqXqX5.2X{ { :.eX5.",
",.[ %.wXqXrX:.{ { >.5.>.>.5.5.5.O.O.9X9X3X7X*X=X%X$XW.R.)._.R.Y.Y.E.Y.Y.Y.Y.Y.Y.P.P.z.z.l.h.k.A.1X&.{ { qX5.,.>.qX5.,.@.,.5.5.qX",
"%.:.rX5.5.5.qX>.%.#.5.-.5.>.X.{ { X.>.1X7X&X%X{.{.W.Y.T.~.~.T.U.U.n.g.n.P.P.n.z.h.a.t.q.q.e.A.<X,.5.%.-.,.5.-.5.-.{ o.{ @.5.,.5.",
"o.,.5.4.:.O.-.{ @.o.O.X.G ] O.#.0Xo.} |.&X=X{.].W.R.T.!.~./.I.L.L.K.f.d.P.x.d.d.s.a.0.8.q k D X.{ X.] +.{ #.{ [ { -.#.rX%.[ { @.",
"O.O.>.>.@.{ o.-.O.>.wX:.-.>.O.%.4.3X7X&X=X=X{.).^././././././.!.L.K.K.g.P.P.x.x.g.s.q.q j f h h s Z { o.eXqX;.:.:.#.:.5.wXeX-.o.",
":.X.-.{ { 9XuXtXwXO.>.4.5.5.,.{ ;.>XH.[.@XXXC.C. X X X X X X X}.}.}.B.v.n.P.x.x.g.s.i.w t i y i F $.qX-.%.,.qX5.5.>.{ 5.;.qX:.#.",
"iX5.%.#.-.qX5.9X5.O.o.5.5.+.] X.X.;XH.oXM ` Q Q Q ! ! ~ ~ ~ ~ ~ ! ! ! m v.g.f.d.d.s.0.w t p i C K ;.4.5.X.;.,.>.o.X.{ o.#.;.{ qX",
"5.5.wX%.o.>.;.5.5.5.X.+.X...-.5.0X-XH.XX' R U L L P I I U I I I I Y / ! B.K.f.s.s.q.8.w z C s A +.>.5.4.,.o.-.{ %.>.eX5.{ { -.4.",
":.5.9X:.o.@.,.5.5.5.O.{ O.eXtXqX0X4X[.XX' U < * = : : : : : & % $ , Y ! V.K.f.s.0.0.8.w z A [ ] *.4.5.9X,.o.@.%.iXrXqXeXqX#.#.,.",
"%.:.:.o.%.o.,.,.,.5.O.o.-.5.5.5.5.4X[.XX` P = O O O + + O .       % I ~ }.f.f.p.0.6 q 9 a h [ O.{ 9X:.9X,.o.o.,.,.5.5.5.5.5.%.o.",
"[ ] { o.;.X.{ X.O.-.X.{ ..X.;.-.4.>X[.XX' P = + @ @ @ X .         & T ' C.L.f.a.7.q j e y h F #.o.X.{ *.O.X.X.X.%.>.;.5.;.>.:.+.",
">.2X:.wXrX,.o.] X.-.;.wX-.{ X.5.4.>X[.XX` P = + @ @ @ X .         & T 2.C.f.s.q.8.q r C p V 2XtX:.{ F o.>.5.eX#.] %.5.,.-.o.O.O.",
"2X9X4.4.>.,.:.O.tX5.5.4.5.>.X.O.X.-X[.XX` P = + @ @ @ @ .         & T 1.V.d.q.8.7.q r B B V *.;.9X#.:.rXrXwX5.wX-.{ #.X.{ #.2XO.",
"o.:.5.>.>.rXO.X.>.5.5.4.4.4.{ X.X.;X[.XX` P = + @ @ @ X           & T 2.N.p.9.7.q k r i V F @.5.0X@.X.>.5.5.4.;.>.X.X.o.#.wX5.:.",
"o.-.5.5.>.,.-.o.X.-.-.>.;.o.O.:.;.-X[.XX` P = + @ X .             & T 2.N.s.9.q j a g p ..*.4.>.5.X.X.o.-.>.>.,.X.-.:.:.{ o.4.5.",
"X.>.5.@.5.;.X.O.#.{ wX5.4.{ ;.qX5.>X[.XX` P = + @ @ .             & T ~ N.p.0.q e h i d -.;.-.4.O.o.:.o.@.rX5.>.{ eX5.9X-.{ >.;.",
"X.o.;.>.o.o.O.eXeXO.O.;.;.X.>.5.;.>XF..X` P = + @ X               & I ~ N.s.q.w.t d u s X.>.:.@.X.;.yX,.o.;.>.>.X.0X>.;.*.O.-.O.",
"@.X.#.>.:.{ 9X0X5.>.{ o.O.O.5.5.+.-X].oX` L = + @ X .             % I ! N.d.i.w.t u s C G -.9X@.@.wX5.0X@.o.@.O.:.5.,.@.o.o.{ X.",
"rX:.o.{ { ,.qX,.:.rX>.o.o.{ ;.%...>X[.oX` P : O + O .             % I ! V.s.0.w.z S =.2Xo.{ @.{ ,.9X:.5.rX-.o.o.X.>.{ @.:.rX0XrX",
"rXrX:.@.@.%.,.,.,.5.>.%.o.-.X.o.>.4X[..X! P : O O .               % I ! V.a.q.w z S =.rXrX@.#.@.>.:.9X,.5.,.o.%.&.@.@.rXyX9X9X9X",
"5.qXqXo.o.-.-.qX,.qXO.o.5.iXeX#...,X[.}.! L : @                   % I ! N.p.q.r.z A *.9X0X>.@.{ ,.:.5.qX,.@.-.eXiX2Xo.@.5.9X,.9X",
",.5.>.@.yX{ { %.:.o.%.5.5.5.5.:.o.A.F.D.n b > ; $ $ $ % % & & & % , b n u.i.9.w.z F *.9X9X:.:.2X@.{ ,.%.{ ,.eX5.9X9X-.{ { :.rX5.",
",.o.#.qXrXeX@.{ { %.5.qX5.5.5.qX-.;X].E.v.v.j.r.b b b L P I T T T W l u.t.9.9.w.z A #.-.O.%.eXrX2Xo.{ } ,.qXqX5.qX5.qX@.,.9X,.9X",
":.@.eXqX5.eXqX%.o.:.5.>.:.5.#.o.X.;XJ.F.I./.'.G.m T R ^ / ( ) ~ 2.m v.p.i.8.q 0 x A :.@.%.yX5.qXqXqXo.O.,.qX-.,.,.%.o.@.%.qX9X9X",
"{ 2XeX5.-.,.,.%.%.o.-.@.o.] { #.:.o.| A.E./.(.).b.N E ^ / ) N  X}.v.c.s.i.w.j r i C ] { rXqX,.,.>.>.%.%.@.,.{ @.{ o.%.:.o.%.@.:.",
"%.-.5.5.,.{ { %.%.%.:.{ o.#.#.;.5.wX:.A.F.)._.(.'. XQ ^ / ! v.L.L.K.f.d.q.r.z g s s ] %.>.5.,.%.{ { O.%.:.&.{ %.%.%.:.qXrX:.o.o.",
"#.o.;.O.{ :.tXtX;.>.5.wXwXwX>.O.;.>.2X>XS.`._.(.~.V.Q ^ / ! N.L.L.P.P.s.a.w f d V B F #.=.-.X.X.9XuX0X#.9XwXwXrXeX:.#.5.>.0X9XX.",
"uX#.X.o.O.wXrX5.rXO.+.5.5.;...X.X.*.>.H H.W.).~.!.}.m ^ / ! B.L.K.P.g.d.s.t.j f B V 2X0Xo.X.X.>.0X9X0X2Xo.>.5.5.-.X.] -.-.4.o.>.",
"5.9X0XO.O.4.>.5.5.5.X.4.-.X.o.*.:.F { | J.Q.W.R.I.N.! ^ _ ' C.L.K.P.P.g.x.h.w.9 g =.4.9X9X>.@.:.>.4.9X9X>.@.>.#.X.O.>.%.[ X.%.5.",
";.4.5.>.{ o.>.4.4.>.X.{ X.>.tXrXeX9X} ;XH.Q.E.U.L.N.b ^ _ 1.C.L.K.P.P.P.U.z.j.e.l $.:.:.5.5.*.{ -.4.4.>.;.o.{ o.eXrXwXtX>.O.#.4.",
"-.>.>.O.*.X.>.5.;.5.X.X.o.4.5.4.4.&.A.J.G.].Y.T.K.v.b / _ 1.D.L.P.P.P.P.P.n.c.j.r.Z.K =.>.>.O.@.X.5.>.5.5.{ O.-.5.5.5.4.5.>.X.*.",
"[ { X.o.o.X.X.X.>.;...{ X.*.4.>.5.<XA.S.G.m.Y.U.I.B.Q / _ 1.B.L.I.P.P.P.U.U.Y.n.t.r.c H F X.O.X.{ +.X.,.-.{ X.@.:.5.5.4.>.5.>.X.",
"#.#.-.,.rX-.X.[ [ ..+.>.X.{ X.9X4.$.Z.y.b.n.U.T.!. XQ / _ 1.V.L.K.P.P.x.z.z.P.Y.j.t.w.l H -.0XrX#...[ [ o.:.:.X.{ -.5.5.;.*.O.O.",
"qX0X0X5.0XeX#.o.eXrX0X0XwXO.{ >.| H Z.y.b.n.U.T./. Xb ^ _ ~ C.K.P.P.P.x.h.h.x.c.c.i.6.w | 9X4.0X9XO.*.rXrXwXwX0Xo.X.>.#.[ { -.O.",
"X.>.4.5.-.,.@.O.>.5.5.4.4.5.X.D A.Z.M.k.Y.R.I.I./.D.m ^ / ~ B.L.L.P.I.d.9.9.p.g.l.q.6 8 H 4.>.=.>.O.+.>.5.4.4.5.5.X.[ X.-.0XeX#.",
"O.#.4.5.5.9X:.o.o.>.;.>.4.+...H M.e.y.k.R.^.I.I./.D.E ^ / ! B.L.P.P.P.s.9.7.i.s.s.0.6 4 C =.4.9X9X#.X.-.4.>.4.>.#.o.#.O.[ *.4.5.",
"{ ;.5.#.5.;.X.o.X.] 9X5.;.X.;.:XM.t.l.R.^.^.I.P./.D.b ^ / ! B.L.K.P.x.i.7.7.i.d.s.9.5 4 z F #.4.#.X.o.X.o.qX>.4.{ eX9XwX%.{ >.;.",
"X.-.>.;.-.O.o.qXqXO.-.5.4.] ;.$.k r.c.(.(.^.R.I.'. Xm E ^ ~ B.L.K.x.x.a.9.7.q.q.9.6 5 4 y A F ;.o.@.yX>.@.5.4.-.{ 9X5.>.;.X.;.*.",
"X.X.-.,.@.X.>.wX0X:.{ +.O.o.5.>.D A.k.!.^.(.^.~./.^.b.|.) ! V.K.K.P.K.g.a.q.7.6 5 5 3 4 y B *.{ O.5.9XrXX.X.-.O.-.5.>.o.o.O.{ o.",
"9XX.{ X.o.O.4.5.>.9XO.F X...>.:.F v S.W.).(.(.~.(./.'. Xm m v.K.K.P.U.Y.G.C.B.0 9 8 4 7 y i { { ;.5.4.5.5.o.{ o.X.9XO.{ o.>.-.>.",
"rXrXo.o.X.-.5.#.#.5.4.-...X.F { *.>XS.W.`.(.(.~.~.(.(.R.C.v.n.P.P.K.K.G.6X8X8X6X .n f g p g G X.5.>.@.-.9X5.o.o.X.] { 5.tXwX9X9X",
"5.wX2Xo.o.:.>.9XrX5.;.o.#.iX>.*...:XH.W.).(.(.(.~.~.!.T.K.K.K.P.P.K.K.G.6XpXaXpX3. .Z B C h G @.5.,.9X0X9X@.%.2XiX-.@.%.9X5.5.9X",
"9X9X,.o.,.{ o.,.2X:.X.-.5.5.wX:...;XH.W.`.(.(.~.(.!.x.x.P.K.P.P.P.K.K.n. XOX8X3.3.<.A B B C [ #.o.{ 2X,.@.#.>.0XrX0X@.{ :.&.qX9X",
">.-.%.,.iX>.{ { @.@.9XwX5.5.5.qXO.;XH.Q.`._.(.(.(.I.z.l.g.P.P.P.P.P.P.P.K.v.|. . .X.Z s h A 2XrX:.{ @.{ #.tXeX5.9X9X9Xo.#.qX5.9X",
">.] >.eX5.eX5.o.{ :.5.;.;.4.>.-...;X[.{._._.(.(./.R.x.l.x.P.P.P.P.P.P.K.f.d.u.l c Z B h A 2X4.0XwX>.{ X.0X4.>.;.5.;.@.o.%.5.5.5.",
"X.,.wX>.>.>.5.:.O.X.,.%.+.o.{ X.O.-XH.`._._.^.~.(.T.z.l.x.P.P.P.P.P.P.x.P.d.i.e.j s i p 2X4.;.4.>.5.#.#.@.5.@.-.o.{ X.#.X.#.-.;.",
"o.-.4.4.:.{ o.X.O.O.X.X.] X.O.+.rX,XH.`.`.^.R.R.~.T.z.z.x.P.P.P.P.P.P.P.K.g.s.a.j.w a s +.4.4.@.[ o.X.O.O.o.X.[ O.O.>.eX:.@.] X.",
"o.O.>.:.X.o.,.,.#.>.rX5.5.wX-.#.;.<XH.Q.).^.I.I.^.!.x.z.x.P.P.P.P.P.P.P.P.g.z.z.d.y.z Z O.>.*.{ -.2X:.O.rXrX>.eX9X@.-.5.5.wX5.o.",
"rXX.O.{ { wXwXrXrXX.;.4.4.4.O.X.*.>XH.W.).!.I.P.~.!.x.d.d.g.g.P.P.P.z.z.x.U.x.z.h.t.v :.{ O.[ @.rXeXrX>.o.4.5.5.>.O.X.>.>.5.o.@.",
"wXwX>.o.-.4.4.4.5.>.X.4.;.o.X.O.X.v H.R.T.I.P.l.i.i.a.s.a.s.d.g.x.x.s.s.z.g.x.d.a.e.H 9X0X*.X.9X4.4.5.0X-.#.5.>.X.o.O.o.[ O.o.rX",
";.5.9X>.X.:.;.5.5.5.....] O.5.tXuX>XF.I.P.l.l.7.2 2 6 0.0.q.p.d.d.s.a.a.a.a.d.a.0.w x F ;.9X-.X.;.5.5.>.;.{ X.{ :.rXiXtX#.X.:.4.",
">.5.5.-.o.X.>.5.>.5.O.X.O.wXwX5.5.1XJ.k.l.i.6.2 o o 2 3 q e.q.i.a.q.0.0.0.0.q.0.8.q z V *.4.@.X.o.5.4.5.>.{ O.-.wXwX4.5.4.*.X.;.",
"X.{ O.X.O.X.-.*.>.,.X...X.>.5.4.4.>.<XA.y.6.2 o   . o ; e j w.8.7.6 6 6 7.7.7.8.6.q t p F X.O.#.{ ;.O.5.>.o.X.#.>.5.5.5.4.5.#.X.",
"o.X.o.%.9XO.[ [ { O.X.O.X.] O.;.4.4.*.J M.7 ; # # # # - 1 e j 8 8 8 8 8 8 q q 8 q 0 r g F X.>.>.X.] [ o.X.O.O.o.{ -.>.4.>.>.-.#.",
"qXwXqXwXwXeXO.X.-.5.wXrX5.O.X.5.;.+.{ D z a y 1 y y y 1 y i a x a a r e r a r e e r g F -.rXwXwXqXo.o.>.rXyXwX>.o.o.5.;.O.[ O.O.",
"O.5.>.>.-.;.;.o.qX5.5.4.5.5.{ X.[ F *.9XF p B B d d p p u B V V B B B u y u y i B B u B *.>.;.-.5.o.-.5.5.5.9X5.,.{ o.[ o.,.uXo.",
"X.*.4.5.qXyX-.X.+.5.>.,.;.;...o.O.O.*.;.+.A p B B B V V i p K O.B p d i u u u s d h p s O.4.wXwXrX@.{ -.5.5.5.>.:.o.o.#.%.>.5.;.",
"O.:.0X5.5.>.%.o.o.O.;.;.;.o.-.rX0X=.F ;.9XX.C S V S A V d V K O.S V C h A [ h s h S C V *.5.5.5.>.@.o.o.%.>.:.9X{ ,.eXqXo.{ 5.5."
};
