/* XPM */
static char *satoshi_static_right1676886651[] = {
/* columns rows colors chars-per-pixel */
"64 64 226 2 ",
"   c #010101",
".  c #06070A",
"X  c #0C0D0D",
"o  c #0D0D13",
"O  c #0D051B",
"+  c #0F1014",
"@  c #121213",
"#  c #161C12",
"$  c #1A2016",
"%  c #2E2804",
"&  c #322E01",
"*  c #3A3508",
"=  c #130727",
"-  c #231931",
";  c #273020",
":  c #423D0D",
">  c #45333B",
",  c #5B5106",
"<  c #404E33",
"1  c #485839",
"2  c #4C613E",
"3  c #28144D",
"4  c #35156C",
"5  c #3A1676",
"6  c #603D5E",
"7  c #422A6E",
"8  c #5D3A63",
"9  c #452B76",
"0  c #4E3773",
"q  c #63397E",
"w  c #42404C",
"e  c #545758",
"r  c #4D6341",
"t  c #576946",
"y  c #5E744C",
"u  c #5A655A",
"i  c #61754E",
"p  c #627A4E",
"a  c #647853",
"s  c #657C52",
"d  c #585B62",
"f  c #554A72",
"g  c #674073",
"h  c #5C6362",
"j  c #5F666B",
"k  c #636B6C",
"l  c #69746A",
"z  c #747A77",
"x  c #826A25",
"c  c #9A7D2D",
"v  c #9B7E31",
"b  c #936E53",
"n  c #A37B5A",
"m  c #855B74",
"M  c #936579",
"N  c #6A8356",
"B  c #6B855A",
"V  c #6E8B59",
"C  c #728E5C",
"Z  c #72905D",
"A  c #778E62",
"S  c #7B9765",
"D  c #7C9564",
"F  c #7A8679",
"G  c #8F8100",
"H  c #938300",
"J  c #9D8C01",
"K  c #A39203",
"L  c #A7970C",
"P  c #B09C0A",
"I  c #A99910",
"U  c #B9A405",
"Y  c #9C832B",
"T  c #AE9224",
"R  c #B09229",
"E  c #A78830",
"W  c #AA8A33",
"Q  c #BA9937",
"!  c #C9B400",
"~  c #C9B304",
"^  c #D3BC01",
"/  c #D2B817",
"(  c #C4A52D",
")  c #D9C30C",
"_  c #BD9D43",
"`  c #819B66",
"'  c #819668",
"]  c #849D6A",
"[  c #818B7C",
"{  c #84957B",
"}  c #A98163",
"|  c #86A26B",
" . c #85A76B",
".. c #89A56D",
"X. c #8BAA6E",
"o. c #8EB06F",
"O. c #8AA571",
"+. c #89A473",
"@. c #8DAC72",
"#. c #90AF75",
"$. c #92AF78",
"%. c #8EB173",
"&. c #8FB578",
"*. c #92B475",
"=. c #94BB76",
"-. c #94B579",
";. c #96BB7A",
":. c #99BD7D",
">. c #C09F40",
",. c #C3A243",
"<. c #97C07A",
"1. c #99C27D",
"2. c #3D1288",
"3. c #3F1292",
"4. c #451C84",
"5. c #41158E",
"6. c #43198B",
"7. c #461897",
"8. c #4A1B9B",
"9. c #4C2C88",
"0. c #512E88",
"q. c #533489",
"w. c #522D97",
"e. c #543393",
"r. c #573699",
"t. c #673B88",
"y. c #633392",
"u. c #4E1CA4",
"i. c #4D18AB",
"p. c #511EA5",
"a. c #521EAB",
"s. c #541DB4",
"d. c #561DBA",
"f. c #581EBD",
"g. c #4D21A0",
"h. c #5628A7",
"j. c #5520AD",
"k. c #5D35A7",
"l. c #5621B2",
"z. c #5923B5",
"x. c #5D28B7",
"c. c #5B21BC",
"v. c #623CAA",
"b. c #743DA6",
"n. c #612AB9",
"m. c #6837BC",
"M. c #773EB3",
"N. c #6A528E",
"B. c #794696",
"V. c #7D4A9B",
"C. c #6D638A",
"Z. c #6E4CAB",
"A. c #7A47A5",
"S. c #7A45BB",
"D. c #7A5AB7",
"F. c #7F61B9",
"G. c #571AC7",
"H. c #5A1EC4",
"J. c #5A1DC9",
"K. c #5D21C3",
"L. c #5D21CA",
"P. c #6026C4",
"I. c #652CC4",
"U. c #6225CC",
"Y. c #672CCB",
"T. c #6932C6",
"R. c #6C37C6",
"E. c #6A33C9",
"W. c #703CC7",
"Q. c #723ECA",
"!. c #6425D3",
"~. c #6728D5",
"^. c #6828D7",
"/. c #6525DA",
"(. c #6828D8",
"). c #6D32D5",
"_. c #743DD5",
"`. c #6523E0",
"'. c #7545C8",
"]. c #7541CC",
"[. c #7C4DCE",
"{. c #7D52C9",
"}. c #7A44D9",
"|. c #81779C",
" X c #844DA5",
".X c #8653B9",
"XX c #877BA9",
"oX c #8467BB",
"OX c #8975B9",
"+X c #8B72BC",
"@X c #A77CB2",
"#X c #8253D1",
"$X c #8656DA",
"%X c #8768C4",
"&X c #9176C8",
"*X c #8957E0",
"=X c #7D8680",
"-X c #808781",
";X c #838C82",
":X c #8A9786",
">X c #898D95",
",X c #8EA288",
"<X c #93A78D",
"1X c #9ABD81",
"2X c #96AA94",
"3X c #9AB296",
"4X c #A8AE9B",
"5X c #8B85A8",
"6X c #928EAE",
"7X c #BB95AC",
"8X c #D3BA93",
"9X c #DCBEA2",
"0X c #9DC582",
"qX c #9EC884",
"wX c #9FC689",
"eX c #A0C686",
"rX c #A0C987",
"tX c #A1C788",
"yX c #A3CC8A",
"uX c #A8D08F",
"iX c #A9CF91",
"pX c #A7D091",
"aX c #ABD293",
"sX c #FEE89C",
"dX c #FFF898",
"fX c #E9CEA1",
/* pixels */
"..:.0X@.:.;...-.-.] rXrX<.| ;.rX1.1...X.1.X.@.0X;.-.1...*.:...1XyX:.@.#.rX1.1.#.+.1.@.@.0X;.#.:.@.@.1X@.@.iX0X:.] yX1.wX-...:.*.",
"| ..=.1...] #.eXyX$.| =.*. .;.1.#.=.| ` X...| -.:.@.] | uX1.;.] *.=...*.1.=.o...| &.| | %.-.:...] :.tXwX| %.=.*.@.0X1.@.*...X.X.",
"#.] | *.#.] eX:.:.;...' ] ] 1.;.] ] ..] X.-.] { :X<X;X2X3X2X2X,X[ [ ;X<X3X:X;X:X>X:X<X,XS X.=.] *.1.1.0X*.] ] ..O.0X*.] ] @.] @.",
"pXwXO.] ] ;.:.;.#.eX:.@.X.......X.1.rXaXrXuX4X5X+X+X&XOX+X+X+X+X+X+X+X&X&X&X&X&X&X%X6X3X-...] +.:.0X@.=.tX:...@.] @...*.yXyXyXrX",
"0XrX:.] #.-.;.eXwX0X;.X.X.:.#.{ :X3X<X2X3X3X6X%X#X#X#X#X#X#X#X#X#X#X#X$X$X$X*X$X}.}.{.5X3X+.O. .0X*.yXeX0X*.@.@.1XO.O.eXeX0X1.1.",
"eX1.1.X.@.O.$.:.0X;.| X.1.yX4XXXoXoXXX+X+XOX&X%X#X[.].].Q.Q.].Q.Q.Q.Q.Q.}.}.}._.Q._.}.[.OX<X%.| *.O.:.wX*.X.*.tXiXeX@.] :.:.:.eX",
"1.:.*.#.iX@.] ] @.] ;.qX0X0X<X{.W.m.m.W.[.[.[.'.W.R.m.n.T.Y.I.I.T.Y.T.I.T.).).Y.E.).).).'.C.1XwX+.' *.] ] tXeX0XeX1.1X] ] :.rX1.",
":.] #.rXtXyX-.] ] ;.<.<.&.1X,XZ.f.z.z.x.m.W.].m.m.n.z.z.c.n.P.z.n.P.P.P.U.^.^.U.K.L.Y.).Q.[.F.3XtX#.] ] eX0X:.:.0X1.:.O.-.1.0X0X",
"@.*.tX0X1.0X0X:.@.@.1.*.0X=.F N.r.r.r.h.x.T.I.n.x.z.s.z.z.c.K.z.d.f.J.L.U././.U.L.U.U.P.Y.).'.5X,XwX#.*.;.1.#.eX-.] ..] @.eX:.:.",
"X.;.qX1.*.X.*.] @.| X.| D ' O.{ =Xl j h.K.I.I.K.c.K.c.c.c.K.K.c.H.H.J.!./.(././././.!.U.~.(.).R.C.{ ` X.] X.] ' ] #.@.yX@.' ] X.",
"..@.;.=.@.] O.%.X.-.qX*.-.=.X.@.X.Z k k.I.I.K.c.c.K.K.c.c.K.n.b.B.B. X X X X X X X X XB.B.A.b.x.v.=X#...tXeX*.:.-.X.-.1.eXrX$...",
"-.| @.] ] 0XpXuXtX@.<.1.1.1.:.|  .B k Z.T.x.z.l.z.K.K.z.d.H.b.n R Q Q Q Q >.Q Q Q W W W W E b y.r.>XyX;.#.1.1.1.1.;.] 1.=.eX;.X.",
"pX0X@.@.*.0X0XqX1.@...1.1.@.S | C V l M.P.z.z.s.z.c.z.z.f.H.B.R ^ P J K K K L L K J J H J U c t.r.F -.<...*.1.1.@.] ] ..@.*...eX",
"1.1.qX*.O.=.=.<.1.<.| o.| | *.0XwX` z v.f.z.z.z.z.z.z.f.f.H. XR U , & & & : : : : : * * , J c t.r.k S %.;...#.] @.=.eX0X] ` *.1.",
"$.1.0X-...O.:.1.1.1.X.] X.tXyXrXwX0X{ V.k.c.K.K.c.a.s.K.H.J. XQ K &       . o @ o o + o * G Y B.e.j Z %.:...O.O.aXyX1.yX0X@.O.1.",
"#.-.=...@...:.1X:.1.X...*.1.1.1.1.1.:.{ C.k.K.K.c.z.s.c.H.s. X>.K &         . X o @ + O * H Y y.w.j V &.:.X.O.:.:.0XeX1.:.:.#.X.",
"] ] ] X.*...] ] X.%.| | | | =.*.<.=.=.=.F k.K.K.c.s.z.c.H.H. XQ I *           X @ @ @ + * G E t.w.d y S X...| ..@.=.-.;.;.<.-.%.",
"=.1X*.rXyX0X..] | *.*.yX%.` | 1.;.=.| ..z k.z.c.c.c.c.z.d.H. X>.I &         . @ @ @ + + * c v t.e.d i S -.0XrXX.] *.1.;.*.X.X.X.",
"1X0X1.;.;.:.*.X.uX1.qX1.qX;.| X. .S X.=.F N.k.z.c.K.c.z.s.f. X,.I &           X @ @ @ + * H v t.w.d B 1XwXqX0XqX*.] @.] ] @.1X| ",
"] -.1.;.=.yX....=.<.1.<.=.1.` | | | 1.<.:.F C.k.K.K.c.s.s.f. XQ I *             . @ @ @ * G v t.r.d a X.1.1.1.:.:.| ] X.@.qX0X=.",
"X.@.1.:.:.:.*...] *.*.=.=...X.-.*...S =.;.%.z k.K.c.c.s.s.d. X,.L &             . @ @ @ : x Y t.e.d a S &.<.=.;.| *.-.-.] ..<.1.",
"| =.1.@.<.=.] @.@.] qX0X:.] =.eX1.1.| X.;.| =Xk.f.c.c.c.f.s. XQ K &               X @ @ : H Y 8 9.d B S @.yX1.=.] tX1.0X*.] ;.=.",
"| ..=.:.O...X.yXeXX.X.=.=.| =.1.=.=.] | -.O.F N.k.f.c.c.H.H. XR K &             . X @ + : x c q 9.d S O.| -.;.=.| qX<.=.%...%.@.",
"O...*.=.*.] 0X0X1.:.] ..X.X.1.1.X.| | ] ..@.D F C.k.K.n.c.H.B.Q K &             . X @ + : H v t.w.j Z 1X@.| @.O.-.1.:.O...O.] | ",
"tX*.+.] ] :.1.:.;.yX;.....] #.#.] @.tXtXrXpX;...z v.P.n.n.J.B.( K &               X X o * H c q w.k V #.yX#.O...| :.....-.tXrXyX",
"tXyX*.@.@.#.:.:.1X:.;.#.X.*.....=.yX0X1.1.rXuX:.-XZ.E.I.P.H. XR K &                   X * H c q 0.d C #.1.:.X.#.*.] +.yXyXwX0X0X",
"1.eXrXO.] -.-.eX:.eX@...:.aXyX#.] =.1.1.1.eXeXrX-XZ.R.T.P.H.b.n Y , & & & & & % % % % - > x b 0.0.d C *.:.O.#.tXaX:.X.O.0X0X:.1.",
"1.1X;.O.iX] ] $.-...#.1.1.1.1.-.] ' X.wX0X:.1.1.;XoXQ.T.P.K.n.b.m Y I I I K J H c c x q w.y.0.8.9.d V ] ..:.yX1.wX0X*.] ] *.yX0X",
":...#.eXyXrXO.] ] $.1.eX1.1.rX1.*.O.0X1.1.1.+.:X6XoXQ.E.P.P.J.J.b.} ,.,.( / ^ ~ U T n M.L.s.g.e.f e a A :.1.tX:.eX1.eXO.:.:.1.1.",
";.O.tX1.1.eXeX@...*.1.-.*.1.X...| ..0X:.0X:.:X5X%X#XQ.E.P.P.H.J.n.b.V.V.M ( ^ ~ T |.M.I.L.s.e.f k a s ' :.eX-.:.1.#.] O.#.wX0XeX",
"] :.tXeX;.;.:.@.#...*.@.X.] ] @.-.....X.*.O.:X%X[.[.Q.T.P.P.f.K.J.H.G.G.b.Q ^ ~ W A.`.!.K.a.q.h p i s | O.1X] O.] ..#.-.O.O.#.*.",
"#.*.:.:.:.] ] #.@.#.-.] ..@.%.*.1.rX=.O.] @.:XoX].Q.E.I.P.s.d.n.H.P.H.G.B.Q ! ~ W Z./.!.c.a.q.e t t N | -.@...#.#.#.;.0XiX:.] ..",
"@...=.X.] *.uXuX-.=.qXrXrXyX;.X.<.=.<.tXO.:X|.oX].R.I.P.K.z.z.c.H.P.H.L.B.Q ^ ~ W V./.U.f.u.9.e N S S O.tXeXtXtXtX*.@.1.;.qX1...",
"pX@.| ..X.qXyX1.yX .o.1.1.=.` | | *.1.X.:X6X%X#X].E.I.K.K.c.H.H.P.H.H.J. XQ ^ ~ W V.J.H.s.u.9.h C  .;.0X..=.1.1.*. .] *.*.<.| :.",
"1.qXwXX.@.;.;.1.1.1.| =.%.| | *.*.' ] | 2XoX#X].Q.E.P.P.K.K.K.K.H.K.J.J.V._ ) ~ E t.J.f.s.p.0.d V o.0X1.=.@.;.@...@.*.@.' | @.0X",
"*.1.1.=.] X.;.<.<.;.X.`  .;.uXrXyX1.] O.,XoXQ.W.E.I.K.K.K.K.K.K.H.P.H.H.V.,.) ! Y B.J.f.s.a.e.e N %.:.:.;.| ] ..tXyXyXuX=.X.@.<.",
"*.;.;.X.%.] ;.1.=.1.X.|  .1.1.1.<.1.<.X.;XoXR.E.I.U.K.K.K.K.K.K.K.H.G.s.B.Q ) ! E b.H.f.z.j.e.d p %.=.0X1.] ..*.1.1.1.<.0X-.| %.",
"' ] .. ...| | ..:.*.| ` | *.1.=.1.<.=.=.:XD.W.T.P.P.K.K.K.K.K.K.K.K.s.i.q Q ) ! W A.U.f.s.l.r.e i S  .=.*.] | @.=.1.;.1.;.1.;.| ",
"@.@.*.:.uX*...D D | X.;.| ` | 0X<.<.| ,X>X.XQ.E.P.K.K.z.d.H.K.L.K.K.i.3.g R ) ! W A.!.H.z.s.v.k N Z ] ] ..-.*.| ` *.1.1.-.%.X.X.",
"eXqX0X1.0XtX@.X.tXrXqXqXqXX.| =.o.| F XX.X#X].T.U.K.z.7.8.z.K.K.K.K.s.2.6 T ) ! W A.!.K.c.c.y.k A S %.yXyXeXtXqX....:.X.] | *.X.",
"..=.1.=.*.:.@.X.;.1.<.<.<.1.| ' ` | 3XoX[.].Q.I.P.P.s.5.5.a.K.K.J.K.d.3.6 R ^ ~ v  X/.G.K.K.n.N.z S %.;.1.1.<.1.1.| ] ] @.qXyX@.",
"X.@.1.1.1.0X-.....;.=.<.<.o.| @.X.` -XD.].Q.T.n.z.K.s.5.5.s.K.K.K.K.s.3.6 T ^ ~ R  X/.H.K.U.Y.m.N.F | *.<.=.;.<.@...%.X.] @.<.<.",
"] *.1.@.1.=.| ..| ' 0X<.=. .=.rX1.:.[ D.W.E.I.z.z.n.s.5.5.s.K.K.K.J.s.3.8 R ^ T n M./.L.U.!.!.U.k.z ..| O.wX;.;.] tXqXrX*.] ;.=.",
"..*.:.=.*.X.| wXwXX.=.1.=.` *.1.=.<.F D.R.E.n.z.s.c.s.5.5.s.H.K.K.J.s.3.6 P ( |.M.Y.^.^.~.!.U.z.w.F uX*.@.1.<.=.] 1X1.;.*.] =.*.",
"| ] *.:.X.| ;.eXqX*.] o.X.| 1.1.X.%.F D.R.Y.K.x.d.K.s.5.2.u.d.f.K.L.s.3.8 b n  X`.`.^.^.^.^.K.a.0.F =.qX| | *.X.*.1.;.....X.] ..",
"wX| ] | ..X.1.1.<.1.X.' | | ;.-.| S ,XF.Q.T.I.K.K.K.s.5.5 5.8.d.K.L.s.3.5 t.b.Y.`./.^.^.^.~.K.a.q.k S &.1...] | ..0XX.] X.;.*.-.",
"yXyX..| ..*.<.@.%.1.<.*.| | S ] @.3X6XoX].E.K.K.H.P.d.7.3.2.2.i.s.s.i.7.u.d.J.U.!.^.^.^.^.!.c.u.q.h N S 0X1.....| ' ] :.uXrXeX1.",
"1.rX1X....-.=.qXyX1.*...@.uX:.@.{ 6XF.'.S.T.I.K.K.K.f.d.u.2.5 2.3.3.3.i.d.H.H.f.K.U.^.^.~.U.K.p.9.j C =.1.#.@.1XaX*.X.@.rX1.1.0X",
"1.0X:.X.-.] O.:.1X-...*.1.1.rX-.=XF.[.'.m.R.P.P.K.K.K.L.s.8.7.q N.q B.D.S.I.c.l.x.!.(.(.~.!.K.p.q.e V @.@.@.:.0XyX0X@.] -.-.eX:.",
":.*.#.:.aX;.] ] O.O.0XrX1.1.1.eX;XD.].W.T.I.P.K.K.K.K.K.H.s.A.7X8X8X8X9X7XS.f.j.x.L.(.(.~.!.K.l.e.e a A @.uXwX1.1.wXeX] O.eX1.0X",
":.] ;.tX1.yX1...] *.1.=.*.<.=.*.=XD.W.E.I.P.c.c.f.P.K.H.H.H..X7XfXsXdXdX9X.XG.s.z.L.(.~.!.L.K.l.r.j p S 0X<.-.-.1.=.@...#.1.1.1.",
"] :.1.:.=.;.1.-.@...=.#.*.X.] | =XD.E.Y.n.c.z.j.f.c.H.P.H.H.P.S.@XfXdXdX9X.Xf.s.x.!.).L.L.Y.K.a.q.h N S X.1.@.-.X.] ] @.| #.*.=.",
"..*.;.<.=.] ..| X.X.| | S |  .o.3XD.Q.I.n.z.z.j.z.c.K.K.K.K.J.G.S.7X9X9X7XS.f.s.c.U.!.L.K.L.c.p.9.e p S X.X.| ] ..X.=.tX-.@.' ] ",
"..X.=.*.| ..1X=.X.;.uX1.1.yXo.#.,XF.W.m.x.c.z.l.z.f.H.P.K.K.n.d.h.S..X.XS.I.K.c.L.Y.~.K.K.L.x.u.9.h V S uXyX=.tXwX@.*.1.1.rX1...",
"rX| X.] ] wXrXyXyX..=.<.<.=.@.{ >XD.'.n.z.c.c.j.a.c.c.c.f.n.f.s.s.f.H.H.H.K.K.L.K.~.~.L.K.z.a.8.q.j S X.| <.1.1.=.X.] :.;.1...@.",
"rXrX:.X.-.1.<.1.1.=.| 1.=.X.[ |.D.'.I.z.j.s.l.g.p.s.s.j.p.a.a.a.s.f.H.f.K.K.z.z.c.K.K.c.z.a.8.7.9.h Z =.@.%.1.=.....X.| ] X...tX",
"=.<.0X:.] =.=.1.1.:. .| ` X.<XD.m.c.l.g.g.8.8.7.8.8.8.8.8.p.p.j.s.z.n.K.a.5.6.7.g.a.l.j.g.8.3.9.f h Z X.=.] | ] *.yXuXuX@.| -.1.",
"=.1.1.#...] :.1.=.1.| |  .rX:XZ.p.g.7.6.6.6.4.2.4.6.6.7.8.p.a.j.j.a.a.d.5.3 - 4 4.4.3.g.7.6.9 f u s V %.:.| ..*.rXrX<.0X1.@.| =.",
"| ] X...X...@.%.;.=...| ..:.O.C.f 0 0 7 7 7 7 7 7 7 9 9 9 4.5 5 4 4 4 4 3 O O 3 7 7 9 9 9 9 f e r p s @.=.| | @.=.0X<.1.<.1.@.| ",
"....| *.0XX.] ] ....| X. .S  .:XF l u u e e e e e h e e w - = O O O = = O . @ < u e e e e u u y t t y D ..X.X...] *.=.1.=.;.*.X.",
"tXtXrXrXrXtXX.| *.qXtXtX;.| | <.X.p t t t N B p B N B p 1 ; # # $ $ # # @ # ; 1 r y y B N N N B N i N @.tXyXuX=.....1.*.@.] ..X.",
"X.;.<.;.*.=.=.| 0X1.<.<.qX0X| | C y y V p t y N p p y p t t 1 2 1 2 r < < < < t N N t y N N y y B C @.:.1.1.0X0X:.] X.' | 1XpXX.",
"..*.1.1.wXuX*...%.1.1.<.=.=.| | S V N V V N s Z Z Z S A p s N N N y p y t t t i N V N y N V A A  .| ] *.0X1.<.:.*.....@.@.*.<.=.",
"X.=.1.1.1.:.O.....@.=.=.*...%.rX0X .A X.&.S S &.%.%.@. .S S Z p N y y t N B i t N S  .S %.%.%.%.@.| ....#.=.-.:...1XtXwXX...:.0X"
};
