/* XPM */
static char *f4f80148f53340a6de00eed7b3fda281pBZ7ywnHSKm2KeSc[] = {
/* columns rows colors chars-per-pixel */
"64 64 170 2 ",
"   c None",
".  c #000001",
"X  c #05030A",
"o  c #0C0C0D",
"O  c #0E0E13",
"+  c #0F051F",
"@  c #0F1014",
"#  c #121213",
"$  c #2F2900",
"%  c #332E01",
"&  c #353002",
"*  c #3B360B",
"=  c #3E390B",
"-  c #3C3807",
";  c #373019",
":  c #100622",
">  c #16082F",
",  c #15072B",
"<  c #170931",
"1  c #180933",
"2  c #1C0A3B",
"3  c #2A1E36",
"4  c #48343E",
"5  c #5D5503",
"6  c #574B0E",
"7  c #290E54",
"8  c #34126D",
"9  c #59365E",
"0  c #401A74",
"q  c #532E67",
"w  c #5C337B",
"e  c #5D3475",
"r  c #7C5D4C",
"t  c #674070",
"y  c #8C7035",
"u  c #876D2D",
"i  c #997743",
"p  c #977547",
"a  c #9C735C",
"s  c #966F58",
"d  c #A37B5A",
"f  c #855B74",
"g  c #90696A",
"h  c #926479",
"j  c #958600",
"k  c #978800",
"l  c #998900",
"z  c #A18F03",
"x  c #A39102",
"c  c #A8970D",
"v  c #A9990D",
"b  c #B09E00",
"n  c #A28918",
"m  c #AB9213",
"M  c #BCA605",
"N  c #9C832B",
"B  c #A7882E",
"V  c #AB8B2F",
"C  c #B29428",
"Z  c #A78830",
"A  c #AC8B34",
"S  c #B49335",
"D  c #B79A32",
"F  c #BB9A34",
"G  c #BD9B39",
"H  c #B89737",
"J  c #BBA221",
"K  c #C0AA06",
"L  c #CAB400",
"P  c #D3BD01",
"I  c #D5BD08",
"U  c #D2B817",
"Y  c #C2A72E",
"T  c #C3A733",
"R  c #C9AD3A",
"E  c #D9C40C",
"W  c #D7C109",
"Q  c #BD9C43",
"!  c #A98163",
"~  c #C09F40",
"^  c #C2A241",
"/  c #C3A44C",
"(  c #CFB14C",
")  c #EDD842",
"_  c #E6D05C",
"`  c #EBD560",
"'  c #FDE97F",
"]  c #3E138A",
"[  c #3A1280",
"{  c #3B0E94",
"}  c #3E1095",
"|  c #360D86",
" . c #41158E",
".. c #471B8B",
"X. c #431594",
"o. c #461994",
"O. c #45159C",
"+. c #4A1A9C",
"@. c #633B80",
"#. c #6C3A95",
"$. c #713E9A",
"%. c #4E1CA3",
"&. c #4F1AAB",
"*. c #4B17A9",
"=. c #511DAA",
"-. c #551DB4",
";. c #561EB9",
":. c #5621AE",
">. c #5B25AA",
",. c #5927A6",
"<. c #5721B2",
"1. c #5921B6",
"2. c #5B21BE",
"3. c #6F39A1",
"4. c #733DA3",
"5. c #753DAB",
"6. c #6429BB",
"7. c #793FB5",
"8. c #754295",
"9. c #7A4696",
"0. c #7C4996",
"q. c #7A459A",
"w. c #7E4A9A",
"e. c #774498",
"r. c #744489",
"t. c #7C46A1",
"y. c #7F49A4",
"u. c #7942A7",
"i. c #7A41B2",
"p. c #7B46BC",
"a. c #7E4ABB",
"s. c #5A1EC4",
"d. c #5B1ECB",
"f. c #571AC8",
"g. c #5D21C3",
"h. c #5F21C9",
"j. c #6123CB",
"k. c #6D2FCB",
"l. c #662CC1",
"z. c #6A31C0",
"x. c #6526D4",
"c. c #6728D7",
"v. c #6929D6",
"b. c #6525DB",
"n. c #6827DA",
"m. c #6828D9",
"M. c #7133D6",
"N. c #6624E1",
"B. c #804C9A",
"V. c #8049A3",
"C. c #8553B5",
"Z. c #A376A1",
"A. c #A074B2",
"S. c #844CCD",
"D. c #8E59C9",
"F. c #8955C3",
"G. c #8249D1",
"H. c #BC97AB",
"J. c #BF98B6",
"K. c #D3B489",
"L. c #DCBDA9",
"P. c #D9BAA4",
"I. c #F3DC82",
"U. c #E5C99C",
"Y. c #FFEE93",
"T. c #FFF797",
"R. c #FFF49B",
"E. c #FFF997",
"W. c #DFC1A7",
"Q. c #E0C3A2",
/* pixels */
"                                                                                                                                ",
"                                                                                                                                ",
"                                        m.c.c.c.m.m.m.m.m.x.j.g.g.g.g.g.g.g.g.g.        g.g.g.g.                                ",
"                                        m.v.c.c.c.c.v.c.c.j.g.g.g.g.g.g.g.g.g.g.        g.g.2.2.                                ",
"                                    m.m.c.x.j.h.c.c.m.c.j.j.g.g.g.g.g.g.g.g.g.g.g.g.g.g.g.g.1.1.                                ",
"                                    m.m.x.x.h.g.x.m.v.x.g.2.g.g.2.2.g.g.2.2.2.2.2.2.g.g.2.1.<.:.                                ",
"                                    c.c.h.h.g.h.x.m.m.x.j.g.g.2.1.1.2.2.1.<.<.<.<.1.2.2.1.<.                                    ",
"                                    b.c.h.h.h.h.x.b.b.b.j.h.s.s.1.;.2.g.1.<.<.<.<.1.g.g.1.<.                                    ",
"                                g.h.b.b.b.b.b.b.b.b.b.b.b.x.d.s.s.s.g.g.2.2.2.2.2.2.g.g.g.2.                                    ",
"                                g.6.5.y.y.t.y.y.V.V.V.V.t.y.w.0.9.4.6.s.2.g.g.g.g.2.2.2.g.g.                                    ",
"                                s.3.s V A A A A A S A A A S F F D d $.s.;.1.2.g.1.<.<.1.2.g.                                    ",
"                                d.e.V M x j j j k k l l j l l b L D 0.s.;.1.1.1.1.<.<.1.2.g.                                    ",
"                                b.t.A x 5 * = = = = = = = * % 5 b F 0.f.s.1.1.1.2.2.2.g.g.g.                                    ",
"                                N.y.A k * O O @ O @ @ @ O X . $ z F 0.d.s.2.1.:.2.g.g.g.g.g.                                    ",
"                                N.y.A k * + @ # # # @ O o . . % z F B.s.h.2.1.1.2.g.g.g.                                        ",
"                                N.y.A k = @ # # # # O o . . . & x G 0.s.s.1.1.1.2.g.g.g.                                        ",
"                                b.y.A l = @ @ # # # o . . . . & v Q w.s.1.<.1.g.g.g.g.g.                                        ",
"                                N.y.A k = @ # # # o . . . . . & v Q w.;.-.<.g.g.g.g.g.g.                                        ",
"                                N.y.A l = @ # # # # . . . . . & x G q.g.-.<.2.g.g.g.                                            ",
"                                b.t.A j = @ # # # o o . . . . & x G 9.s.2.1.2.g.g.g.                                            ",
"                                d.q.A j = @ # # # # X . . . . % x F 9.s.s.1.g.g.g.g.                                            ",
"                                d.$.Z j = @ # # o o . . . . . & x G w.s.s.g.g.g.g.g.                                            ",
"                                b.t.A j = @ # @ o . . . . . . & c ^ w.s.1.1.2.g.                                                ",
"                                b.t.A k - O @ O . . . . . . . & v ^ w.s.;.1.g.g.                                                ",
"                                d.q.V l - o o o . . . . . . . % v ^ w.s.s.2.g.g.                                                ",
"                                d.5.a y 9 3 ; - % $ $ & % % % 6 N ! u.s.s.g.g.g.                                                ",
"                                x.k.5.5.>.@.u k j j l x z x x N f 5.6.g.g.g.g.g.                                                ",
"                                x.n.b.b.N.i.a C M L I U Y F F d 4.d.s.g.g.g.g.g.                                                ",
"                                j.j.x.b.n.M.7.h C L E R h q.9.4.6.s.g.g.g.g.g.g.g.g.                                            ",
"                                ;.j.j.x.v.b.N.u.A L E Q u.f.d.s.s.g.2.2.g.g.g.g.g.g.                                            ",
"                                    j.j.x.b.N.t.A L E Q q.d.f.s.g.g.1.1.2.g.g.g.g.g.                                            ",
"                                    g.j.x.n.b.t.Z L I Q q.d.g.g.g.2.1.1.2.g.g.g.g.g.                                            ",
"                                    g.j.x.x.h.8.Z L P H 9.s.s.g.g.g.2.2.g.g.g.g.g.g.g.g.                                        ",
"                                    2.g.x.b.d.8.B L P S 9.d.g.g.g.g.g.g.g.g.g.2.g.g.g.g.                                        ",
"                                    g.j.x.x.d.$.B L P F 9.d.s.g.g.g.g.g.g.g.g.g.g.g.g.s.                                        ",
"                                    2.j.x.b.x.e.Z L P F #.;.s.g.g.g.g.g.g.g.g.g.g.g.s.6.                                        ",
"                                    g.j.x.m.b.q.Z L I F t O.;.s.g.g.2.j.g.j.g.g.2.s.s.C.P.E.                                    ",
"                                    2.j.x.b.b.y.A K J p e +.;.g.g.g.g.;.-.-.;.g.j.s.s.a.H.Q.                                    ",
"                                    g.g.x.b.n.V.A m r w %.;.g.g.g.g.g.;.+.o.;.j.g.s.g.6.p.A.Q.Y.                                ",
"                                    j.j.x.x.b.V.A n 9 } ;.h.g.g.g.g.s.-. . .-.2.g.2.g.f.f.p.H.W.                                ",
"                                m.v.x.j.j.x.b.y.A n 9  .-.s.g.g.g.g.g.-. . .-.2.;.1.2.s.s.6.p.C.                                ",
"                                x.x.c.c.j.j.b.5.p u q { -.s.g.g.g.g.j.-. . .-.2.-.>.2.g.g.g.s.s.                                ",
"                                j.j.c.m.x.b.b.6.@.q 0 X.-.g.g.g.g.g.g.-... .-.2.<.-.2.g.g.g.g.g.                                ",
"                                g.g.x.c.b.k.i.$...| ] O.;.s.g.g.g.2.;.%.O.+.;.2.1.1.g.g.g.g.g.g.                                ",
"                                g.g.x.b.b.i.d p e { *.;.;.g.2.j.h.;.O.o.&.;.g.g.2.2.g.g.g.g.g.g.g.g.                            ",
"                                g.h.x.M.G.Z.( T r w =.s.j.2.;.-.-.%. . .-.g.g.g.g.g.g.g.2.2.g.g.g.g.                            ",
"                                g.d.x.G.J.U.I._ J p #.;.s.;.O. . . .8 X.-.g.g.g.g.g.g.2.1.1.2.g.g.g.                            ",
"                                j.h.x.D.W.E.R.' ) R g #.>.=.X. . . .X.+.-.g.g.g.g.g.g.2.1.1.g.g.g.g.                            ",
"                            m.x.x.x.b.D.W.T.R.Y.I.` R i e O.&.-.-.-.-.<.2.g.g.g.g.g.g.g.2.g.g.g.g.g.g.g.                        ",
"                            m.m.m.b.x.S.J.L.L.L.L.K./ i e O.-.j.g.g.g.g.g.g.g.g.2.2.2.2.g.g.g.g.g.g.g.g.                        ",
"                            m.m.v.m.v.M.S.D.D.F.C.C.B.e.>.;.s.g.g.g.g.g.g.g.g.2.1.1.<.1.2.g.g.g.g.g.g.g.                        ",
"                            m.v.x.c.c.b.x.x.b.x.d.f.s.d.g.g.g.g.g.g.g.g.g.g.g.2.1.:.1.1.1.g.g.g.g.g.g.g.                        ",
"                            m.x.j.j.v.x.j.h.x.x.h.s.s.s.g.j.g.2.1.1.2.g.g.g.g.2.:.:.1.2.1.1.g.j.j.g.g.g.                        ",
"                            m.x.g.j.x.x.j.h.x.x.j.g.g.g.g.g.g.2.<.<.1.2.2.g.g.2.<.1.2.g.1.=.+.o.o.+.-.g.                        ",
"                            m.c.j.g.c.m.c.x.m.c.h.g.g.g.g.g.g.g.<.:.1.<.<.1.g.2.<.1.2.g.g.%.7 , , 2                             ",
"                            j.x.j.j.x.m.n.n.v.j.g.g.g.g.g.2.2.1.<.:.<.1.<.1.2.g.1.1.g.2.%.8 + . . .                             ",
"                        . 2 %.x.v.x.x.x.m.m.x.g.g.g.g.g.g.2.1.<.:.<.1.g.2.g.g.g.g.g.j.%.7 : X .                                 ",
"                        . : 8 +.%.+.o.o.+.=.1.g.g.g.g.g.g.2.1.:.:.1.2.g.g.g.g.<.+.o.o.8 + . . .                                 ",
"                        . X + > 1 1 > > < 2                                     2 > < : X .                                     ",
"                        . . . . . . . . . .                                     . . . . . .                                     ",
"                                                                                                                                ",
"                                                                                                                                ",
"                                                                                                                                ",
"                                                                                                                                "
};
