/* XPM */
static char *_5b9f222cee24f26c822fea07cffdfeftVLzfqQBsKRgMcTW[] = {
/* columns rows colors chars-per-pixel */
"64 64 153 2 ",
"   c None",
".  c #010101",
"X  c #06070A",
"o  c #0C0D0D",
"O  c #0D0E12",
"+  c #0D051A",
"@  c #0C0517",
"#  c #0F1014",
"$  c #111213",
"%  c #2F2A00",
"&  c #2B240D",
"*  c #322E01",
"=  c #363103",
"-  c #383302",
";  c #3B370C",
":  c #3D390B",
">  c #3D3A07",
",  c #190933",
"<  c #261A32",
"1  c #423D0D",
"2  c #48353E",
"3  c #574B0E",
"4  c #5E5503",
"5  c #270F51",
"6  c #291054",
"7  c #2F125E",
"8  c #37117B",
"9  c #39127E",
"0  c #62397F",
"q  c #836B25",
"w  c #8C7135",
"e  c #946D59",
"r  c #9B735C",
"t  c #A37B59",
"y  c #A27C53",
"u  c #855B74",
"i  c #946777",
"p  c #92657A",
"a  c #958500",
"s  c #9A8A01",
"d  c #A39202",
"f  c #A6950C",
"g  c #AA9B0E",
"h  c #B09E00",
"j  c #A99910",
"k  c #B6A400",
"l  c #BFA70A",
"z  c #998026",
"x  c #9E852F",
"c  c #A7872E",
"v  c #A7882F",
"b  c #AB8C2E",
"n  c #B49625",
"m  c #B99B28",
"M  c #A78830",
"N  c #AA8A34",
"B  c #B59436",
"V  c #BB9A33",
"C  c #B89739",
"Z  c #BC9B3A",
"A  c #C7B200",
"S  c #C9B400",
"D  c #CDB50A",
"F  c #D2BC01",
"G  c #D2B817",
"H  c #C2A429",
"J  c #C7A935",
"K  c #D7C109",
"L  c #D9C30D",
"P  c #BD9C43",
"I  c #A98163",
"U  c #C09F40",
"Y  c #C3A243",
"T  c #3A1281",
"R  c #3E1389",
"E  c #41168C",
"W  c #421591",
"Q  c #471A92",
"!  c #491C96",
"~  c #47179D",
"^  c #471899",
"/  c #49199B",
"(  c #482182",
")  c #5F3B84",
"_  c #743F9F",
"`  c #4E1CA3",
"'  c #4F1BAA",
"]  c #501DA5",
"[  c #521EAA",
"{  c #561EB4",
"}  c #571FB9",
"|  c #581EBB",
" . c #5621AE",
".. c #5C2AAB",
"X. c #5721B2",
"o. c #5921B5",
"O. c #5B21BD",
"+. c #6E39A2",
"@. c #733DA3",
"#. c #743DAA",
"$. c #642ABB",
"%. c #642AB7",
"&. c #793FB4",
"*. c #763DB4",
"=. c #694685",
"-. c #6F4A8E",
";. c #754294",
":. c #7A4696",
">. c #7C4995",
",. c #774398",
"<. c #79459B",
"1. c #7D4A9B",
"2. c #7640A5",
"3. c #7C47A2",
"4. c #7E48A4",
"5. c #7B45A8",
"6. c #7D52A0",
"7. c #7A41B3",
"8. c #7B46BC",
"9. c #7745B4",
"0. c #571AC5",
"q. c #5A1EC5",
"w. c #5719CC",
"e. c #5B1ECA",
"r. c #5D21C3",
"t. c #5E22CA",
"y. c #6124CC",
"u. c #6C2ECB",
"i. c #652BC1",
"p. c #6526D4",
"a. c #6728D7",
"s. c #6A2AD5",
"d. c #6524DB",
"f. c #6827DA",
"g. c #6828D8",
"h. c #6624E0",
"j. c #6C2AE0",
"k. c #844DA5",
"l. c #8A5FA7",
"z. c #A67CB1",
"x. c #B793A8",
"c. c #BC99A8",
"v. c #BC97AB",
"b. c #C4A992",
"n. c #CFB693",
"m. c #D0B693",
"M. c #D4BA95",
"N. c #DBC09B",
"B. c #E2C89D",
"V. c #FFEB9C",
"C. c #F8E19A",
"Z. c #FFF19A",
"A. c #E9CEA1",
/* pixels */
"                                                                                                                                ",
"                                                                                                                                ",
"                                                        g.g.g.g.g.g.g.p.y.r.r.r.r.r.r.r.r.r.r.r.                                ",
"                                                        g.a.p.p.a.a.p.p.y.r.r.r.r.r.r.r.r.r.r.r.                                ",
"                                                    a.a.g.p.y.y.p.p.y.y.| r.r.r.r.r.r.r.r.r.r.r.y.| r.r.                        ",
"                                                    p.p.p.y.t.r.p.y.y.O.y.O.| O.r.r.O.O.O.O.O.r.O.y.r.r.                        ",
"                                                g.a.y.y.y.y.q.t.p.p.y.q.y.O.o.o.r.O.O.X.X.X.X.o.O.y.                            ",
"                                                d.a.e.q.r.t.t.y.f.p.y.q.q.r.| | | O.o.X.X.X.o.o.O.q.                            ",
"                                            r.y.p.d.t.e.e.d.p.d.d.d.d.d.e.q.q.q.q.r.O.O.O.O.O.O.                                ",
"                                            r.$.#.3.<.:.3.k.k.k.k.k.k.k.1.:.:._ %.r.O.O.r.r.O.O.                                ",
"                                            e.+.e M v M N B Z Z Z Z Z Z V V V r _ q.} o.O.O.O.X.                                ",
"                                            e.,.M k d a a s d f f d d d d k S V :.q.} o.O.O.o.X.                                ",
"                                            d.3.N d 4 ; ; : 1 1 1 1 - * * 4 h V :.q.q.O.X.o.O.o.                                ",
"                                            d.k.N s ; O O # # O o X . . . * d Z :.q.q.O.X.X.| y.                                ",
"                                            h.5.N a ; O $ $ $ $ X . . . . * f Y k.q.q.O.X. .                                    ",
"                                            h.k.N s ; O $ $ $ o . . . . . = j Y >.q.q.O.o.X.                                    ",
"                                            d.4.N a ; # # $ $ $ . . . . . = g Y >.q.O.o.o.|                                     ",
"                                            h.5.N a ; # $ $ o o X . . . . = j Y 1.q.{ X.O.y.                                    ",
"                                            h.k.N a : # $ $ X . . . . . . = g Y 1.q.{  .                                        ",
"                                            d.3.N a : # $ O X . . . . . . = f U >.q.| o.                                        ",
"                                            e.<.N a : # $ o . . . . . . . * d Z >.q.q.O.                                        ",
"                                            e.<.M a : # $ o X . . . . . . = d Z >.q.r.O.                                        ",
"                                            d.3.N s : $ $ $ X . . . . . . * d V >.q.} X.                                        ",
"                                            d.3.N s > O o X . . . . . . . * d V >.0.} X.                                        ",
"                                            e.:.b s > o X . . . . . . . . * d V k.| | O.                                        ",
"                                            e.#.r w 2 < & * % % * * = * * 3 z t @.q.q.r.                                        ",
"                                            p.u.7.@...0 q a a a s f f j g x u @.$.q.r.r.                                        ",
"                                            a.f.d.h.h.7.r n l A F G J U Y I #.e.q.r.r.r.                                        ",
"                                                f.d.f.s.7.p n A F H i 1.k.@.$.q.q.r.                                            ",
"                                                a.a.g.d.h.5.N A F B ,.w.0.q.r.r.r.O.                                            ",
"                                                r.y.p.d.h.5.N A F B <.e.e.q.r.O.o.X.                                            ",
"                                                r.y.y.a.d.3.M A F B :.q.q.r.r.O.o. .                                            ",
"                                                r.r.t.t.t.,.M S F P 1.q.q.r.r.r.r.{ E 8                                         ",
"                                                O.O.r.r.e.;.c S L U 1.e.q.r.r.r.r.{ ~ E                                         ",
"                                            9 E ` O.r.q.0.;.c S L P 4.q.q.r.r.r.r.r.{ ' E 8                                     ",
"                                            9 R ` X.O.e.t.,.M S L P 3.e.q.r.r.r.r.r.r.{ / E                                     ",
"                                            9 E / X.O.t.p.<.N S K P 1.e.q.r.r.r.o.o.r.|  .! E 9                                 ",
"                                            9 W  .O.r.t.d.3.N A K P 1.0.r.r.r.O. .[ o.O.X.` E 9                                 ",
"                                        T 9 9 W O.y.r.t.p.5.N A F C >.q.q.r.r.{ Q Q  .X.X.] E 9                                 ",
"                                        T T W ` t.a.y.t.d.3.N S F B :.e.q.r.q.[ E R ` X. .` E 9                                 ",
"                                        9 W X.t.a.p.r.e.d.3.b S F B :.0.r.r.o.` R R ` X.{ ` E 9                                 ",
"                                        9 ! r.a.a.p.y.y.d.7.r m D V >.e.q.r.o.' Q W ~ ` ` ~ R 9                                 ",
"                                            r.y.a.a.p.a.a.u.*.i H m >.0.q.r.O.O.' ~ W R R R T 9                                 ",
"                                            r.y.p.g.g.g.f.d.h.7.I r ,.r.r.r.r.$.9.6.-.=.=.) ( T                                 ",
"                                            r.r.p.g.g.g.a.g.d.u.2._ %.r.r.q.q.8.c.N.M.n.n.b.                                    ",
"                                            r.y.a.g.g.a.a.a.p.t.r.q.q.r.r.q.0.8.v.B.V.Z.Z.V.                                    ",
"                                            r.r.p.s.a.g.g.p.i.O.r.q.r.r.r.r.r.i.8.z.A.Z.Z.V.                                    ",
"                                            y.y.p.g.g.g.g.y.o.X.O.r.r.r.r.r.r.q.q.8.x.B.C.Z.                                    ",
"                                            p.p.a.a.g.g.f.y.O.X.o.r.r.r.r.r.y.q.q.$.9.l.                                        ",
"                                            p.a.a.a.a.p.f.u.o.X.| r.r.r.r.r.O.r.q.| { [                                         ",
"                                            y.y.a.p.y.y.p.y.o.X.y.q.r.r.r.r.r.r.r.q.[ { | q.                                    ",
"                                            r.r.p.y.y.y.a.p.O.o.| $.r.r.r.r.O.O.r.O.O.o.r.r.                                    ",
"                                            O.y.p.p.y.y.p.p.y.O.q.| y.| r.r.o.O.O.r.O.O.r.r.                                    ",
"                                            y.y.p.y.y.o.[ [ { q.q.y.| y.r.O.X.X.O.O.r.r.O.O.                                    ",
"                                            p.p.y.y.o.! 5 5 ! $.O.y.y.| r.O.X. .X.o.r.O.o.X.                                    ",
"                                            g.p.y.o.! 7 @ @ 7 Q { | y.O.r.o.X. .X.o.r.O.O.X.                                    ",
"                                                a.[ 6 + . X + ,     o.X.o.X. .X.O.O.r.r.O.O.                                    ",
"                                                j.] , . . . . .     X. . . . .X.O.r.r.r.r.r.                                    ",
"                                                                                                                                ",
"                                                                                                                                ",
"                                                                                                                                ",
"                                                                                                                                ",
"                                                                                                                                ",
"                                                                                                                                "
};
