/* XPM */
static char *_1f67ef790394ff8f0c90edeed8c213cZCnU7DaYsc5xj9MN[] = {
/* columns rows colors chars-per-pixel */
"64 64 176 2 ",
"   c None",
".  c #000001",
"X  c #05030A",
"o  c #0C0C0D",
"O  c #0E0E13",
"+  c #0F051F",
"@  c #0F1014",
"#  c #121213",
"$  c #2F2900",
"%  c #332E01",
"&  c #353002",
"*  c #3B360B",
"=  c #3E390B",
"-  c #3C3807",
";  c #373019",
":  c #100622",
">  c #16082F",
",  c #15072B",
"<  c #170931",
"1  c #180933",
"2  c #1C0A3B",
"3  c #2A1E36",
"4  c #48343E",
"5  c #5D5503",
"6  c #574B0E",
"7  c #290E54",
"8  c #34126D",
"9  c #59365E",
"0  c #401A74",
"q  c #532E67",
"w  c #5C337B",
"e  c #5D3475",
"r  c #7C5D4C",
"t  c #674070",
"y  c #8C7035",
"u  c #876D2D",
"i  c #997743",
"p  c #977547",
"a  c #9C735C",
"s  c #966F58",
"d  c #A37B5A",
"f  c #855B74",
"g  c #926479",
"h  c #90696A",
"j  c #958600",
"k  c #978800",
"l  c #998900",
"z  c #A18F03",
"x  c #A39102",
"c  c #A8970D",
"v  c #A9990D",
"b  c #B09E00",
"n  c #A28918",
"m  c #AB9213",
"M  c #BCA605",
"N  c #9C832B",
"B  c #A7882E",
"V  c #AB8B2F",
"C  c #B29428",
"Z  c #A78830",
"A  c #AC8B34",
"S  c #B49335",
"D  c #B79A32",
"F  c #BB9A34",
"G  c #BD9B39",
"H  c #B89737",
"J  c #BBA221",
"K  c #CAB400",
"L  c #D3BD01",
"P  c #D5BD08",
"I  c #C9B10F",
"U  c #C2A72E",
"Y  c #C3A733",
"T  c #C9AD3A",
"R  c #D9C40C",
"E  c #D7C109",
"W  c #BD9C43",
"Q  c #A98163",
"!  c #C09F40",
"~  c #C2A241",
"^  c #C3A44C",
"/  c #CFB14C",
"(  c #EDD842",
")  c #E6D05C",
"_  c #EBD560",
"`  c #FDE97F",
"'  c #3E138A",
"]  c #3A1280",
"[  c #3B0E94",
"{  c #3E1095",
"}  c #360D86",
"|  c #41158E",
" . c #471B8B",
".. c #431594",
"X. c #461994",
"o. c #45159C",
"O. c #4A1A9C",
"+. c #633B80",
"@. c #6C3A95",
"#. c #713E9A",
"$. c #4E1CA3",
"%. c #4D19AA",
"&. c #511DAA",
"*. c #551DB4",
"=. c #561EB9",
"-. c #5621AE",
";. c #5B25AA",
":. c #5927A6",
">. c #5721B2",
",. c #5921B6",
"<. c #5B21BE",
"1. c #6F39A1",
"2. c #733DA3",
"3. c #753DAB",
"4. c #6429BB",
"5. c #793FB5",
"6. c #754295",
"7. c #7A4696",
"8. c #7C4996",
"9. c #7A459A",
"0. c #7E4A9A",
"q. c #774498",
"w. c #744489",
"e. c #7C46A1",
"r. c #7F49A4",
"t. c #7942A7",
"y. c #7A41B2",
"u. c #7B46BC",
"i. c #7E4ABB",
"p. c #5A1EC4",
"a. c #5B1ECB",
"s. c #571AC8",
"d. c #5D21C3",
"f. c #5F21C9",
"g. c #6123CB",
"h. c #6D2FCB",
"j. c #662CC1",
"k. c #6A31C0",
"l. c #6526D3",
"z. c #6626D5",
"x. c #6526D4",
"c. c #6728D7",
"v. c #6728D7",
"b. c #6929D6",
"n. c #6322D9",
"m. c #6525DA",
"M. c #6625DE",
"N. c #6625DB",
"B. c #6827DA",
"V. c #6828D8",
"C. c #6828D9",
"Z. c #7133D6",
"A. c #6624E1",
"S. c #804C9A",
"D. c #8049A4",
"F. c #804AA2",
"G. c #8553B5",
"H. c #A074B2",
"J. c #A376A1",
"K. c #844CCD",
"L. c #8E59C9",
"P. c #8955C3",
"I. c #8249D1",
"U. c #BC97AB",
"Y. c #BF98B6",
"T. c #D3B489",
"R. c #DCBDA9",
"E. c #D9BAA4",
"W. c #F3DC82",
"Q. c #E5C99C",
"!. c #FFEE93",
"~. c #FFF797",
"^. c #FFF49B",
"/. c #FFF997",
"(. c #DFC1A7",
"). c #E0C3A2",
/* pixels */
"                                                                                                                                ",
"                                                                                                                                ",
"                                d.d.d.d.        d.d.d.d.d.d.d.d.d.g.l.C.C.v.C.C.C.v.C.C.                                        ",
"                                <.<.d.d.        d.d.d.d.d.d.d.d.d.d.g.v.v.C.v.v.l.v.v.C.                                        ",
"                                ,.,.<.d.d.d.d.d.d.d.d.d.d.d.d.d.d.d.g.g.b.C.C.l.g.g.v.C.v.C.                                    ",
"                                -.>.,.d.d.d.d.<.<.<.<.d.d.d.d.<.d.d.d.d.l.C.C.l.d.f.g.v.v.C.                                    ",
"                                    >.,.<.<.,.>.>.>.>.,.<.<.,.,.<.d.d.d.l.C.C.l.f.d.f.g.v.v.                                    ",
"                                    >.,.<.<.,.>.>.>.>.,.<.<.=.=.p.p.a.x.z.N.M.z.g.f.f.g.z.N.                                    ",
"                                    <.<.d.d.<.<.<.<.<.<.d.d.p.<.p.a.x.n.M.M.M.M.N.n.n.N.N.m.f.d.                                ",
"                                    d.d.<.<.<.d.d.d.<.d.d.4.#.8.8.0.r.r.F.F.F.F.F.r.r.r.r.3.4.d.                                ",
"                                    d.<.,.>.,.,.<.d.,.=.p.#.a D F F S A A A A A A A A A A s 1.a.                                ",
"                                    d.<.,.>.>.,.<.,.,.=.p.7.F K b l l k l l l k j j j x M Z q.a.                                ",
"                                    d.d.d.<.d.,.,.,.,.p.d.0.F b 5 % * = = = = = * * * 5 x A r.n.                                ",
"                                    d.d.d.d.d.<.>.>.d.d.s.8.F z % . X O @ # @ O @ O O * k A r.A.                                ",
"                                        d.d.d.d.>.>.<.p.s.8.G x % . . X O # # # @ @ O * k A D.A.                                ",
"                                        d.d.d.d.,.>.,.p.p.0.G x % . . . o O # # # @ @ = k A D.A.                                ",
"                                        d.d.d.d.d.,.,.=.p.0.! c & . . . X o # # # @ @ = l A r.A.                                ",
"                                        d.d.d.d.d.<.>.>.p.0.! c & . . . . X o # # @ @ = k A r.A.                                ",
"                                            d.d.d.<.>.*.p.8.G x & . . . . X o # # # @ = k A r.A.                                ",
"                                            d.d.d.<.,.=.p.7.D x & . . . . X # # # # @ = l A t.A.                                ",
"                                            d.d.d.d.<.d.p.8.F x % . . . . X # # # # @ = j A q.a.                                ",
"                                            d.d.d.d.<.p.p.0.G x & . . . . . o # # # @ = j Z q.a.                                ",
"                                                d.<.,.=.s.0.! c & . . . . . . X @ @ @ = k A e.n.                                ",
"                                                d.d.,.,.p.0.~ v & . . . . . . X o @ @ = k A e.n.                                ",
"                                                d.d.<.p.p.S.~ v % . . . . . . . o O O = l V 7.f.                                ",
"                                                d.d.d.d.p.t.Q Z 6 % % % % % $ % - ; 3 4 y a 2.s.                                ",
"                                                d.d.d.p.p.4.3.f N x x z z l j j l u t ;.2.y.h.m.                                ",
"                                                d.d.d.d.p.p.s.#.d F F U I P K M C a u.A.M.N.z.l.                                ",
"                                            d.d.d.d.d.d.d.d.p.4.2.7.7.g ~ R P C g u.b.M.B.N.g.g.                                ",
"                                            d.d.d.d.d.d.<.<.g.p.p.a.s.e.! R K A t.A.B.v.v.g.d.d.                                ",
"                                            d.d.d.d.d.<.,.,.<.d.d.s.s.e.W R K A t.A.M.v.g.g.                                    ",
"                                            d.d.d.d.d.<.,.,.<.d.d.f.a.9.W P K Z 9.m.V.l.d.d.                                    ",
"                                        d.d.d.d.d.d.d.d.<.<.d.d.d.p.f.q.H L K Z 6.g.N.l.g.=.                                    ",
"                                        p.d.d.d.d.d.d.d.d.d.d.d.d.s.s.7.H L K B 6.a.m.l.g.d.                                    ",
"                                        d.<.d.d.d.d.d.d.d.d.d.d.d.d.s.7.S L K Z @.g.z.z.g.<.                                    ",
"                                        4.d.d.d.d.d.d.d.d.d.d.d.d.d.=.w.S L K Z 6.x.N.l.g.<.                                    ",
"                                    /.E.5.a.p.d.d.d.d.d.d.d.d.d.p.=.o.t D R K A e.n.N.l.g.d.                                    ",
"                                    ).U.G.p.p.p.d.<.*.=.<.d.d.d.p.=.o.e p J M A e.M.M.l.g.d.                                    ",
"                                ~.).H.u.4.d.d.d.d.*.O.O.=.d.d.d.p.<.=.:.w r v A F.M.M.g.g.<.                                    ",
"                                E.U.u.s.p.d.d.<.d.*.| | *.d.d.d.d.d.p.*.[ 9 n S F.B.v.g.g.g.                                    ",
"                                G.G.4.p.d.g.,.,.<.*.| | *.d.d.d.d.d.d.=.[ 9 n A F.n.x.g.g.v.v.v.                                ",
"                                s.s.d.=.d.=.>.>.<.*.| | *.d.d.d.d.d.p.*.| q u p 3.N.f.g.b.v.v.l.                                ",
"                                p.p.p.g.g.=.>.>.<.*.| | *.d.d.d.d.d.d.*.| 0 q +.j.M.m.l.v.z.g.g.                                ",
"                                d.d.g.<.<.g.,.,.<.*.O.o.&.*.p.d.g.d.d.=.o.[ }  .#.y.h.n.B.g.g.<.                                ",
"                            d.d.d.d.d.p.<.<.<.<.d.p.=.&.X.o.*.p.d.p.g.=.*.&.} 0 i d u.N.N.m.g.<.                                ",
"                            d.d.d.d.=.4.d.d.d.d.d.d.d.*.| | $.*.*.*.p.p.s.;.w s Y / J.I.Z.l.g.d.                                ",
"                            d.d.d.<.*.*.d.d.d.d.d.d.d.*.| 8 | | | O.=.p.=.@.p J ) W.Q.Y.K.x.p.p.                                ",
"                            d.d.d.<.4.=.<.d.d.d.d.d.d.=.$.X.| | | X.&.;.@.h T ( W././.).L.n.a.g.                                ",
"                        g.p.d.d.d.d.<.<.d.d.d.d.d.d.d.<.*.*.*.&.*.%...e i T _ W.!.~.~.R.L.m.l.b.v.v.                            ",
"                        4.p.d.d.d.d.d.d.<.<.<.<.d.d.d.d.d.d.g.d.d.=.O.e i ^ T.R.R.R.R.Y.K.N.B.C.v.B.                            ",
"                        d.d.d.d.<.d.d.<.,.>.>.<.<.d.d.d.d.g.d.d.a.p.*.;.9.S.G.G.P.L.L.K.Z.z.v.C.v.C.                            ",
"                        d.d.d.d.d.g.d.<.,.-.-.>.<.d.d.d.d.d.<.d.<.g.p.g.a.p.p.a.x.n.x.m.z.v.v.g.v.C.                            ",
"                        d.g.g.d.g.<.,.>.,.<.>.>.<.d.d.d.d.d.,.,.<.=.g.<.p.p.p.d.x.l.a.g.l.l.g.g.v.v.                            ",
"                        d.*.O. .X.O.&.<.d.<.>.>.<.d.<.<.<.,.>.>.<.g.d.d.d.d.d.g.m.l.g.g.v.l.g.g.z.C.                            ",
"                            2 , , 7 O.g.g.,.>.>.<.d.,.>.>.>.-.>.<.d.d.d.<.d.<.g.z.v.z.z.v.l.g.g.z.b.                            ",
"                            . . . + 8 $.<.d.<.,.<.<.,.>.,.>.-.>.=.<.<.d.g.=.g.g.g.v.B.B.v.l.g.g.z.g.                            ",
"                                . . : 7 $.g.g.<.d.d.<.<.<.<.>.-.>.,.<.g.=.g.d.d.g.g.B.C.l.g.v.C.l.$.2 .                         ",
"                                . . . : 8 ..X.O.*.d.d.d.g.<.>.-.;.>.<.g.g.=.d.d.d.,.&.O.X.X.O.$.O.8 : .                         ",
"                                    . X : > > 2                                     2 < < < < < > : X .                         ",
"                                    . . . . . .                                     . . . . . . . . . .                         ",
"                                                                                                                                ",
"                                                                                                                                ",
"                                                                                                                                ",
"                                                                                                                                "
};
