/* XPM */
static char *satoshi_back11676886649[] = {
/* columns rows colors chars-per-pixel */
"64 64 209 2 ",
"   c black",
".  c #110B1E",
"X  c #161C13",
"o  c #130729",
"O  c #211F2C",
"+  c #293322",
"@  c #404E34",
"#  c #49593B",
"$  c #4F623E",
"%  c #230C49",
"&  c #34146C",
"*  c #381476",
"=  c #3C167C",
"-  c #3C2667",
";  c #3E2964",
":  c #3F2573",
">  c #412B6C",
",  c #473D60",
"<  c #462B77",
"1  c #563A7C",
"2  c #4B504D",
"3  c #535955",
"4  c #565A5C",
"5  c #556644",
"6  c #596A46",
"7  c #5A6D4A",
"8  c #5E734B",
"9  c #5A655B",
"0  c #61754E",
"q  c #617A4E",
"w  c #606D5F",
"e  c #647752",
"r  c #657C52",
"t  c #677957",
"y  c #514A69",
"u  c #595D61",
"i  c #565469",
"p  c #564C75",
"a  c #5E6465",
"s  c #5E6960",
"d  c #626A69",
"f  c #697668",
"g  c #697070",
"h  c #757C76",
"j  c #698255",
"k  c #688455",
"l  c #6B8459",
"z  c #6E8C5A",
"x  c #728D5D",
"c  c #73915D",
"v  c #768B63",
"b  c #7B9666",
"n  c #7C9465",
"m  c #7C9B65",
"M  c #7B8878",
"N  c #7E9278",
"B  c #809665",
"V  c #819A67",
"C  c #819668",
"Z  c #849D6A",
"A  c #818B7F",
"S  c #859973",
"D  c #84987A",
"F  c #94977C",
"G  c #86A26B",
"H  c #89A56D",
"J  c #87A96D",
"K  c #8BAA6E",
"L  c #91A76C",
"P  c #8EB06F",
"I  c #8BA670",
"U  c #8DAC72",
"Y  c #8AA578",
"T  c #90AF75",
"R  c #92AF78",
"E  c #8EB172",
"W  c #8FB47A",
"Q  c #92B475",
"!  c #94BB76",
"~  c #94B579",
"^  c #96BB7A",
"/  c #99BD7D",
"(  c #A2BE7C",
")  c #97C07A",
"_  c #99C27D",
"`  c #A7C27D",
"'  c #3D1384",
"]  c #3D1389",
"[  c #411886",
"{  c #40158B",
"}  c #441A8C",
"|  c #441696",
" . c #461992",
".. c #481B93",
"X. c #4A1B9B",
"o. c #492885",
"O. c #4C2D84",
"+. c #4F3187",
"@. c #51338B",
"#. c #4C2395",
"$. c #562F9A",
"%. c #553693",
"&. c #5B369C",
"*. c #4E1CA3",
"=. c #4F1BAA",
"-. c #501EA5",
";. c #521EAC",
":. c #561FB4",
">. c #581FB8",
",. c #5626A7",
"<. c #5521AD",
"1. c #5C35A4",
"2. c #5721B2",
"3. c #5922B5",
"4. c #5E2AB5",
"5. c #5B22BC",
"6. c #623AA8",
"7. c #622DBC",
"8. c #6534B8",
"9. c #6B3BBD",
"0. c #5C4A87",
"q. c #6A4786",
"w. c #65568B",
"e. c #63469A",
"r. c #6B5895",
"t. c #735D9D",
"y. c #6D6785",
"u. c #72698F",
"i. c #7A7888",
"p. c #6B4CA5",
"a. c #6A48A9",
"s. c #7559A6",
"d. c #6D45B3",
"f. c #7648B8",
"g. c #7957B7",
"h. c #7A66A5",
"j. c #7F72A4",
"k. c #7E61B8",
"l. c #5A1EC4",
"z. c #5D22C3",
"x. c #5F23C8",
"c. c #6126C5",
"v. c #652CC4",
"b. c #6225CC",
"n. c #652ACA",
"m. c #682ECB",
"M. c #6731C2",
"N. c #6A34C5",
"B. c #6E3BC4",
"V. c #6A33C9",
"C. c #713EC7",
"Z. c #733FCB",
"A. c #6527D3",
"S. c #6827D7",
"D. c #6728D6",
"F. c #692AD5",
"G. c #6828D9",
"H. c #6D32D4",
"J. c #743CD5",
"K. c #7649C6",
"L. c #7541CC",
"P. c #7748C9",
"I. c #7D54CE",
"U. c #7A44D9",
"Y. c #8A6D9D",
"T. c #896FBA",
"R. c #8B76BB",
"E. c #A47BAF",
"W. c #8253D1",
"Q. c #8151D4",
"!. c #8656DA",
"~. c #896BC5",
"^. c #8F76C2",
"/. c #9178C5",
"(. c #8957E0",
"). c #7E8781",
"_. c #858E86",
"`. c #869483",
"'. c #8C9B82",
"]. c #8A958A",
"[. c #8D9B8B",
"{. c #889195",
"}. c #909898",
"|. c #8EA686",
" X c #93A98E",
".X c #97B885",
"XX c #9ABD81",
"oX c #96AA94",
"OX c #9DB499",
"+X c #B2A287",
"@X c #8884A6",
"#X c #928CAF",
"$X c #B995A8",
"%X c #CFB693",
"&X c #D6BD96",
"*X c #9DC582",
"=X c #9EC884",
"-X c #A0C686",
";X c #A0C986",
":X c #A1C689",
">X c #A3CC8A",
",X c #A6D08D",
"<X c #A8D08F",
"1X c #A5CA90",
"2X c #A7D091",
"3X c #ABD293",
"4X c #DBD38B",
"5X c #E4CA9E",
"6X c #F9EA97",
/* pixels */
"H / *XU / ~ H ~ .XZ ;X;X/ G ^ ;X_ _ G K _ K T -XQ ^ / H T / H XX>X/ U U >X) *XU H _ I I *X^ R _ U I XXT U 3X*X^ Z >X_ -X^ H / Q ",
"G H ! _ I Z U ;X>XT G ! ! G ^ _ Q ! G V Q H Z Q _ U H Z >X-X~ H Q ! K Q _ ! P K Z E G H E ^ ^ H Z / ;X*XG U ^ Q U *X_ U U H K U ",
"T Z G E U H *X_ / / H V G V _ ^ Z V G H H ~ H Z L / Z ^ _ _ / T V V Z Q _ U b G I G Q U Z H ^ Z Q _ *X*XQ Z V H I *XQ C Z U Z U ",
"2X-XK S Z ~ _ ~ T _ / U K H H H K *X>X>XOXOXOX]._._.[.oXoX].oXOX[.].'.`.]._. XOX1X>X>X3XQ H Z H / XXU ^ *X/ K U Z U H ~ >X>X>X;X",
"*X;X/ Z T ~ ~ :X;X_ ^ K K / T G T ;X_ oX#X#X/.^.R.T.T.^.R./.^.^././././.~.~.~.R.oX_ =X_ >XI I I *X~ >X=X*X! T T XXU H -X-X*X_ *X",
"-X_ _ K L I T / *X/ G I =X;X>XR A [. X}.~.!.W.W.W.W.W.W.W.W.W.W.(.(.(.(.!.Q.U.W.@X X) =X*X/ E G E I / *XQ H Q ;X3X*XL S / / / *X",
"_ / Q T 3XU Z I U Z ^ ;X_ *X*X Xh.g.g.~.W.P.P.L.Z.Z.Z.Z.Z.L.Z.Z.J.U.U.U.L.J.J.U.P.R. X*X/ U *X-XH C ~ S Z :X-X_ *X*XXXZ Z / ;X-X",
"/ Z T ;X:X>X~ Z Z ~ _ ^ ! / *X|.h.9.V.V.B.B.N.M.7.M.m.M.v.v.M.M.v.m.H.H.m.m.F.H.H.K.@X'.S / _ >X;XR Z Z -X-X/ / *X*X/ I ~ _ _ _ ",
"U Q >X_ _ *X*X^ T U _ Q *X! H S M u.1.z.5.4.4.4.3.3.z.z.7.3.z.c.x.b.D.D.b.z.n.m.m.V.K.h. X>X) _ _ -XQ Q ~ -XQ *X~ Z I Z T *X/ XX",
"K / *X_ ~ K Q Z U H K G n V G K =XN w.,.,.2.2.3.3.3.5.>.:.3.5.l.z.b.A.D.b.x.b.c.v.m.H.P.@X|..XW K U G K G K C C Z U U ;XI Z Z H ",
"H U ^ ^ U Z K T K ^ -XQ Q ^ K T ) W v w.1.5.v.5.5.z.z.z.z.z.z.x.A.D.D.D.D.A.D.n.c.n.F.H.9.h.'.G G U U G ;X*XQ / ~ K ~ ) -X>XQ G ",
"~ G K Z Z *X2X<X-XK ^ _ _ _ / G ! E m g 6.v.v.z.z.5.z.z.z.z.z.x.b.A.D.G.G.G.G.A.c.b.F.D.5.1.h H ,X3X<X~ T _ _ _ *X~ G _ ! *X/ K ",
"2X*XU U Q *X_ *X_ P G _ _ P m V Z G K g e.7.7.z.3.3.5.z.z.z.z.z.3.z.A.G.G.G.G.A.c.b.A.x.3.%.h *X_ _ _ _ H Q _ / H G Z H U Q G -X",
"_ _ ;XT H ^ ^ _ _ _ G K G G Q *X>XI Z M 6.7.5.3.3.3.5.z.z.z.z.>.3.3.c.A.D.G.G.D.b.b.n.z.2.%.g G ! / _ _ ^ H Q Z U ~ :X*XZ Z Q _ ",
"~ *X*X~ I I / _ _ _ K H H ;X<X;X*X=XL h d.3.3.<.>.z.z.z.z.l.z.z.z.3.5.z.A.G.G.D.A.A.n.z.2.%.a l H _ _ _ / H I U 3X>X*X;X*XU U / ",
"T ~ Q H U H / XX/ _ K G Q _ _ _ _ _ XXF r.6.-.:.>.z.z.z.z.z.z.z.z.5.2.3.b.G.G.D.D.A.A.z.2.%.u r n *X~ =X/ I H / / *X*X*X_ _ T H ",
"Z C Z K Q H Z Z K P G Z G G ! Q ) ! ! W D y.$.:.5.z.z.z.z.z.z.z.z.5.3.3.b.G.G.A.n.b.x.x.3.%.u t n G Z E K H Z H U ^ ~ ) ^ ) ~ P ",
"^ XX~ ;X>X_ H Z Z Q ! >XK Z G ) ^ ! G G K M &.2.>.5.z.l.z.z.z.z.z.5.3.3.A.G.G.A.x.x.x.x.3.%.d b G Z Z H ^ *X;XK Z T _ ^ Q K K K ",
"XX*X) ) ^ / Q K >X=X=X) _ ) G K J n K ^ U ).1.3.;.:.5.z.z.>.c.z.l.5.3.3.b.G.G.A.x.z.x.x.:.%.a z E U ~ ;X>X_ *X=XQ Z U G Z E XXH ",
"H Q _ ! ~ >XH H ! _ _ ) ) _ Z G G G _ ) =XM 0.1.,.:.5.z.c.l.l.z.z.5.3.3.b.G.G.A.x.z.x.x.3.%.a x ~ K G ^ _ _ _ / ^ G G H I =X*X~ ",
"G E _ / _ / Q H G E Q ^ ! G K ~ Q H V ! _ Y M y.&.3.c.c.z.l.z.z.z.l.2.3.A.G.G.A.x.x.x.x.3.%.a z W G H H Q ^ ^ ^ Z Q ^ ~ G J ) _ ",
"H ^ _ U ) ! Z U U Z ;X*X) Z ^ =X_ / G K / G K `.e.7.7.c.z.z.z.z.z.5.3.3.b.G.G.A.x.z.x.x.;.%.a z m G Q H U >X_ ^ Z ;X) =XE Z ^ Q ",
"G K ! ^ H H K >X;XH K ! ! G ^ ) ! ! Z G ! K Z A d.N.M.c.z.z.z.z.z.5.2.3.n.G.F.A.x.x.n.z.;.@.9 j n Q <X/ H Q _ Q H *X) ~ Q G Q P ",
"I H U ^ ~ Z *X*X_ / Z K G P / *XK G H Z Z I I M p.V.M.c.c.z.z.z.z.5.2.5.A.G.G.F.x.x.x.5.=.@.a e m ;X_ ;XK Z L U ~ *X/ I G I Z G ",
">XR I Z Z ~ -X/ ~ >X^ H G Z Q T Z U =X;X*X2X/ _.p.N.v.c.x.z.z.z.z.5.2.3.n.G.G.D.A.x.x.3.2.@.i 0 E *X~ *X>XT K H G ^ Z I / >X-X>X",
";X>X~ I T T / ^ XX_ / T H Q H K ~ >X_ *X*X=X>X[.s.8.7.c.5.5.z.z.z.5.2.3.A.G.G.G.G.A.z.2.;.@.u r I ~ XX^ _ / H T Q S I >X>X*X*X*X",
"*X-X-XH H R Q -X_ -XK G / 3X>XU Z ^ *X^ _ *X*XoXg.7.7.2.2.3.5.x.z.l.2.5.b.G.G.G.G.A.x.3.;.+.4 e U ^ _ -X/ I T -X3XXXK I *X*X/ *X",
"/ _ ~ U <XZ Z T ~ H T _ _ _ _ ~ G Z I *X*X/ _ }.d.v.3.<.<.2.5.5.z.5.2.3.b.G.G.G.G.x.x.2.*.O.a z b Z / T Z / -X*X*X*XQ Z Z T >X*X",
"/ H T -X>X:XH Z Z R -X_ _ _ *X*XU I *X) *X_ U _.d.5.3.3.2.<.2.3.z.5.2.5.A.G.G.G.A.x.4.;.#.+.a b U I S Z / -X-X_ *X*X*XL / *XXX_ ",
"~ I ;X_ _ -X-XT K Q _ Q Q _ P H G H *X/ *X/ I [.h.6.3.5.3.2.2.5.z.5.3.3.x.b.b.n.x.3.;.#.o.0.w v ~ =XH I / *XQ / / U I H T *X_ -X",
"Z / :X-X~ / / T T H Q T K Z Z T ~ K H K Q I U :X Xu.8.x.z.5.5.5.z.z.z.5.3.5.3.3.2.*.X.< i f e z I ^ U U I XXZ Y Z I T / H T T Q ",
"T Q _ / / Z Z T I R ~ Z G T K Q _ ;X^ H Z U U / _ `.a.4.M.x.x.z.z.z.z.5.2.<.3.5.2.*. .< 9 j r t n Z U Q ~ T I L T T ~ -X:X/ S H ",
"U H ^ K Z ~ <X<X^ ! _ ;X=X>X^ K ! ^ _ ;XH E G ! L g p.9.N.c.z.z.z.l.z.5.2.3.c.b.x.3.*.O.9 8 5 0 E 3X=XU *X;X;X>X;XQ U _ ^ *X*XG ",
",XU G H K ;X;X_ ;XK P _ _ ! Z G G Q _ J U 2XXXG C Y.Y.9.7.n.z.z.z.z.l.3.2.3.b.D.b.5.=.@.4 6 8 b / *X*X*XH ^ _ _ Q Z V Q Q ) H / ",
"_ =X=XK I ) ^ _ _ _ G ^ E G G E Q Z V G =X_ _ .XY.t.W.C.V.n.z.z.z.5.>.2.<.3.z.c.z.3.=.%.d z c K ~ ) *X_ ^ I / U H K ~ T C G T _ ",
"! ) _ ~ Z K ^ ) ) ^ J Z G ^ ,X>X>X_ G K / ^ |.].h.s.f.Z.m.c.z.z.z.5.3.2.<.2.5.l.l.>.:.$.p f Z V Q ) ) ) ! H Z H >X>X>X,X^ K U ) ",
"Q ^ ^ H U G ^ _ ! _ K G J _ _ _ ) ) _ G G Y i.h.g.K.Z.V.7.c.z.z.z.5.7.5.2.2.5.c.z.5.3.,.o.y v U G _ ^ _ _ Z H T _ _ _ ) _ ^ G E ",
"Z Z G G H H G H ^ Q G Z G E ) ! ) ) ! ^ S i.h.d.K.Z.N.v.z.z.z.z.z.l.l.5.2.2.l.x.z.5.3.X.' : g H Z E H ^ Q Z G U ! _ ^ _ / ) ^ G ",
"U U Q / >XQ G n b G K ! G G G _ ) ) G S i.t.f.f.C.N.7.3.z.z.z.z.z.>.3.2.<.3.b.b.x.5.3.#.' : ).=XE Z b Z H Q Q G V Q _ / ^ E K K ",
"-X=X=X_ *X;XT H ;X,X*X=X=XK Z ^ P Z V D w.p.d.f.N.7.<.;.>.z.l.z.x.z.2.<.<.3.A.A.x.z.5.*.' : d Y XXJ U >X>X;X;X;XH H / K Z G T K ",
"H ^ _ ^ E / U K ^ _ ) ) ) _ G V m G =X|.w.&.6.8.7.;...X.:.l.z.z.l.5.:.:.<.3.A.A.b.z.b.:.] * : y N K U ) _ _ _ _ / G Z Z U =X;XU ",
"K K _ _ _ *X~ H H ^ ^ ^ ) P G K K V G S w.$.1.4.3.*.[ { ;.z.z.z.z.5.3.:.:.3.n.A.x.x.A.z.X.' * : M U G Q ^ ^ ) ^ U H E I Z E ) _ ",
"Z Q _ U _ ! G G H C *X^ ! G ! >X_ / G N w.#.,.3.:.*.{ { *.3.z.z.z.z.7.>.:.3.A.A.x.x.b.c.3.| & - f G K Z H *X^ ) Z ;X*X;XP V ^ ~ ",
"H Q / ! Q U G ;X*XK ! _ ! G W ) ^ ) Z M 0.} X.*.=.| { | ;.>.z.z.z.l.x.>.>.7.A.S.b.x.b.c.:. .- 2 e G >X~ U _ ) Q Z *X_ ^ ^ G ! W ",
"Z Z Q _ K G ^ *X;X! V P K G _ _ J E G f < ' ' ' { | | =.>.z.z.z.z.l.z.z.b.A.F.S.A.A.A.5.=.o.i 2 8 m / >XH G Q K Q _ / H K K Z Z ",
"*XH Z G H K _ _ ^ *XK V G G ^ Q Z m W N p 1 1 q.q.q.Y.9.7.z.l.z.z.z.z.x.S.S.S.S.S.S.A.5.-.< 3 5 0 z P _ / H Z G H _ K Z H ^ Q ^ ",
"<X;XH G G Q ) U U _ ) Q G G m Z E ,X=X*XY F +X%X%X%X5X$Xf.l.l.z.z.z.l.x.S.S.S.S.S.S.b.5.;.O.4 6 r k m ! *X_ H H G V Z / <X_ -X*X",
"*X;XXXH H ~ ^ -X;X_ ! G E <XXXU G _ *X) *X` 4X6X6X6X5X$Xf.l.l.z.z.z.z.x.b.A.S.S.S.S.A.5.*.O.4 7 z b ^ *X_ U T XX3XQ K T ;X-X_ _ ",
"*X_ / K ~ S H ~ *X~ H T *X_ ;X~ Z G ! / _ ` 4X6X6X5XE.9.7.z.z.z.z.z.z.z.5.x.A.G.G.A.A.5.=.+.4 r v b *XXXU U ^ *X;X-XU Z ~ ~ -X_ ",
"^ Q T / 3X^ H Z I H *X;X) _ _ ;XK Z ^ -X_ ( ( 4X&X$Xf.l.l.l.z.z.z.z.z.5.2.3.b.G.G.G.n.5.;.@.a b G m H S U ,X;X*X*X*X*XZ Y -X_ -X",
"/ V ~ ;X_ ;X*XH Z Q _ ^ ! _ ^ Q G G _ ) _ / L F Y.W.7.x.z.z.z.z.z.z.z.5.2.3.x.F.G.A.A.x.2.%.a b ~ / Z G *X) ~ ^ *XQ U H Q _ _ / ",
"Z / -X/ ! ^ _ ~ K H ! T P G Z G G G K P ^ I `.{.e.8.v.c.z.z.z.z.z.z.z.5.2.3.A.G.G.A.x.z.2.%.s z P _ U K K _ I W H Z G U H K Q ! ",
"G Q ^ ) ^ V H G G K G G m G J P >X/ J m Z `.j.g.f.9.N.c.z.z.z.z.z.z.z.5.2.3.A.A.x.x.n.z.;.@.a t v J G K K H G Z G K ^ ;X~ K C G ",
"K K ^ Q G H / ^ P / ,X_ _ >XP T ! ) _ >XK _.k.I.f.9.v.7.z.z.z.z.z.z.l.5.3.z.A.A.x.x.x.z.*.+.4 0 m / W U ,X>X^ ;X-XU Q _ _ -X_ G ",
">XZ K Z Z *X>X>X>XH ! ) _ ^ K Z E ^ *XU G oXg.L.C.N.v.z.3.3.5.z.5.5.2.>.5.x.G.G.x.x.x.5.*.O.3 t XX=X>X^ H ) _ _ ! U Z / / _ H U ",
";X;X/ K ~ ) ) _ _ ^ G _ ! K V P G b H m *XoXk.B.m.v.z.:.<.<.>.>.:.=.=.*.X.] #.*.] #.<.<.*.O.4 x E ) *X*XU U _ ! G H H G Z K I ;X",
"^ _ *X/ G ! ! _ _ / G G V K ;X,X,X) G K _ '.s.7.z.3.;.-.*.,.;.;.*.X.X.' % o o o o % ' X.X.+.4 e J _ _ / ^ Z H Z Q >X<X,XU G ~ ) ",
"^ ) _ T H Z / _ ^ _ G G J _ _ _ _ ) E G U  Xp.3.;.-.X...} ..X.#. .[ < ; .         o * #.o.p 9 0 m _ ^ _ _ Z H T ;X;X) *X_ U G ! ",
"G Z K H K H E E ! / K G J ^ _ _ ) ) ! ! G ).6.*.X.} } [ ' = = = * < y 2 X         . & [ y 3 7 j x ! K _ ! H H U ^ _ _ _ _ _ U G ",
"G G H T *XH V Z Z H G J G m K ^ ) ^ E ! J M r.@.< < > > ; ; ; ; ; , 3 # + X X X X O ; y 3 7 r l B V C G G K K G Z Q ^ ) ^ ^ Q U ",
";X;X-X;X;X>XK G ~ _ =X,X) J G _ ! K Z G I ~ oXM f s d 9 3 3 9 9 9 w 7 $ 5 # # @ @ 2 3 f e k k b Q H H ~ >X>X>X! Z H *XQ K Z G K ",
"K ) ^ / Q ~ Q H *X_ ) ) ` _ Z G V m Q >X~ J ) E x 0 8 0 6 r 8 k j r j 0 7 8 5 7 k k 6 8 j k k v Q K ~ ) _ _ *X*X/ Z K C G / 2XK ",
"H Q _ _ -X<XQ H E _ _ ! ) ^ G G K K W ! ) K J U z k z j 6 6 8 j 8 k 0 q x c 8 8 q j 8 5 8 k J XX=XU Z ! *X_ _ / Q H H U I ! _ Q ",
"H ! _ _ _ ^ K H H U ! ! Q G P >X=XK Z ! *XE I ^ m z z k q 0 j j z k r z ^ *Xc 0 r c k j z m Q XX^ H H H T ^ Q _ H XX:X-XK H _ *X"
};
