/* XPM */
static char *satoshi_walk_left11676886651[] = {
/* columns rows colors chars-per-pixel */
"64 64 229 2 ",
"   c #010101",
".  c #05040A",
"X  c #0C0C0D",
"o  c #0E120B",
"O  c #0E0E13",
"+  c #0C041A",
"@  c #0F1014",
"#  c #121213",
"$  c #161A12",
"%  c #1D2417",
"&  c #332E01",
"*  c #373305",
"=  c #3E3A0C",
"-  c #110624",
";  c #261C34",
":  c #2E3826",
">  c #403B0D",
",  c #37452E",
"<  c #5C5207",
"1  c #414D33",
"2  c #465639",
"3  c #4E603E",
"4  c #260D4F",
"5  c #36146F",
"6  c #3B177A",
"7  c #3F2967",
"8  c #533654",
"9  c #422B6D",
"0  c #4F2F70",
"q  c #462B79",
"w  c #522B7A",
"e  c #5C3379",
"r  c #4B4F4F",
"t  c #535955",
"y  c #4F6244",
"u  c #536543",
"i  c #586A46",
"p  c #576A48",
"a  c #5B6D4A",
"s  c #5D734B",
"d  c #5E784C",
"f  c #5A635B",
"g  c #61754D",
"h  c #617A4E",
"j  c #616F5F",
"k  c #637755",
"l  c #647D52",
"z  c #4F4469",
"x  c #574F70",
"c  c #654E77",
"v  c #5E6862",
"b  c #6C7A6D",
"n  c #6C7570",
"m  c #8A6F31",
"M  c #987646",
"N  c #9D745E",
"B  c #A37B5A",
"V  c #936B6B",
"C  c #916674",
"Z  c #668154",
"A  c #698256",
"S  c #6B865A",
"D  c #6E8B59",
"F  c #738B5D",
"G  c #73905F",
"H  c #768E64",
"J  c #7B9464",
"K  c #7A9664",
"L  c #7C887B",
"P  c #968702",
"I  c #9A8A05",
"U  c #A39203",
"Y  c #A7920A",
"T  c #A8980C",
"R  c #BDA612",
"E  c #AE8F2A",
"W  c #A98A33",
"Q  c #AC8B34",
"!  c #B99835",
"~  c #CAB400",
"^  c #C9B10F",
"/  c #D3BD02",
"(  c #C5A934",
")  c #D9C30B",
"_  c #AE9041",
"`  c #B29342",
"'  c #BD9C43",
"]  c #809A66",
"[  c #819668",
"{  c #849D6A",
"}  c #818D7D",
"|  c #859779",
" . c #A68168",
".. c #86A26B",
"X. c #89A56D",
"o. c #87AA6D",
"O. c #8BAA6E",
"+. c #90AF6F",
"@. c #8BA671",
"#. c #8DAC72",
"$. c #8BAA76",
"%. c #90AF75",
"&. c #92AF78",
"*. c #8EB272",
"=. c #8DB178",
"-. c #92B475",
";. c #94BB76",
":. c #94B579",
">. c #96BB7A",
",. c #99BD7D",
"<. c #A0BD77",
"1. c #C09F40",
"2. c #C2A243",
"3. c #CFB14C",
"4. c #97C07A",
"5. c #99C27D",
"6. c #BEC47E",
"7. c #EAD455",
"8. c #FDE97F",
"9. c #3C118C",
"0. c #401885",
"q. c #41158E",
"w. c #43198C",
"e. c #461797",
"r. c #461993",
"t. c #4A1A9C",
"y. c #4B2C83",
"u. c #4E3286",
"i. c #523688",
"p. c #563397",
"a. c #6D3B96",
"s. c #4E1CA2",
"d. c #4E19AA",
"f. c #511EA5",
"g. c #521EAB",
"h. c #551EB4",
"j. c #561EB9",
"k. c #581FBB",
"l. c #5520AE",
"z. c #5A29A8",
"x. c #5D35A5",
"c. c #5721B2",
"v. c #5922B6",
"b. c #5D2AB5",
"n. c #5B21BD",
"m. c #733DA5",
"M. c #703EAE",
"N. c #632ABB",
"B. c #6435B7",
"V. c #7C4996",
"C. c #7B4798",
"Z. c #6A5092",
"A. c #736D8F",
"S. c #6C4AAC",
"D. c #7B45A4",
"F. c #7C45B4",
"G. c #7857B8",
"H. c #7E61BB",
"J. c #5A1EC4",
"K. c #5719CB",
"L. c #5A1DC9",
"P. c #5D21C3",
"I. c #5E21CB",
"U. c #662EC5",
"Y. c #6225CC",
"T. c #6429C9",
"R. c #6B33CA",
"E. c #6F39CC",
"W. c #723DCC",
"Q. c #6425D4",
"!. c #682AD5",
"~. c #6626DC",
"^. c #6A2BDA",
"/. c #6E33D6",
"(. c #6E32DB",
"). c #7238D8",
"_. c #6625E1",
"`. c #7745CB",
"'. c #7D5AC5",
"]. c #7944D5",
"[. c #7A43DC",
"{. c #7B45E1",
"}. c #804C9A",
"|. c #804AA5",
" X c #8657A6",
".X c #8A5AAC",
"XX c #8452BA",
"oX c #8A7BAF",
"OX c #8469BA",
"+X c #8B74BA",
"@X c #A378AA",
"#X c #8559C7",
"$X c #8D58CC",
"%X c #814CDB",
"&X c #8555D8",
"*X c #8666C7",
"=X c #8F70CB",
"-X c #937AC9",
";X c #8958E1",
":X c #7E8B81",
">X c #828A84",
",X c #899688",
"<X c #8C9493",
"1X c #8EA28C",
"2X c #9ABD81",
"3X c #97B28D",
"4X c #94A795",
"5X c #94A990",
"6X c #A9B48D",
"7X c #918CAD",
"8X c #BB97AE",
"9X c #CCB394",
"0X c #C099B6",
"qX c #DCBDA9",
"wX c #9DC582",
"eX c #9EC884",
"rX c #9EC388",
"tX c #A0C686",
"yX c #A0C986",
"uX c #A4C889",
"iX c #A3CC8A",
"pX c #A8D08F",
"aX c #B0CA92",
"sX c #A7D091",
"dX c #ABD293",
"fX c #D2D094",
"gX c #ECD38F",
"hX c #FFF398",
"jX c #DFC1A8",
/* pixels */
"X.,.wX#.,.:.X.:.:.@.iXuX4...>.yX5.wX..O.5.X.%.tX;.:.4.X.-.,.@.2XuX5.%.@.uX5.5.+.@.2X@.@.wX,.=.5.#.@.2X*.#.pXwX;...iX5.tX>.X.,.-.",
"..X.;.5.@...#.uXuX#...-.;...4.4.*.;...] *.X.{ ;.,.#.X.{ uXuX:...-.;.X.;.5.;.+.O.{ -.....*.;.>...J wXuXwX..%.;.:.@.wX5.#.#.X.O.@.",
"-.{ ..*.@.X.wX5.5.,...] { ..4.4.{ ] o.1X,X4X,X<X,X5X,X4X4X4X3X,X} } >X1X5X,X>X} $.{ =.@.} >X1X,X$.5.5.wX:.{ { X.@.wX;.[ ..#.X.X.",
"sXtX@.{ { >.5.:.#.wX5.$.O.....X.$.wXeX6X7X-X-X-X-X=X=X-X-X+X-X=X+X+X+XOX+XOXOXoX3XiXiXaX7XOXG.V.1XwX*.>.tX,.X.@.X.@.X.-.iXiXiXuX",
"wXuX:.X.@.:.:.tXiX5.>.O.O.,.%.X.@.yX3X7X-X;X;X&X&X;X;X;X%X&X&X#X`.&X'.&X`.`.`.G.7X3X3X7X*XW.U.x.,X-.sXrX5.;.-.#.2X@.X.rXtXwX5.5.",
"wXwXwXO.@.@.%.,.wX,.{ O.yXyXiX%.{ 1X7X=X;X;X].].[.%X[.%X%X).W.W.`.W.W.W.W.W.R.`.G.+X+X*X`.n.s.i.L $.,.5.-.X.-.yXsXtX@.{ ,.5.,.wX",
"5.,.-.-.dX@.{ @.#.{ >.uX5.5.5.wXX.:X=X;X;X].E.R./.(.)./.U.U.U.U.U.U.U.U.U.N.U.R.`.`.`.E.v.z.u.c H H $.{ { uXtX5.yX5.2X{ { :.uXwX",
",.[ %.uXuXiX>.{ { :.5.4.>.5.5.,.o.,X=X[.].E.T.T.!.^.^.!.T.P.T.n.b.v.U.n.v.b.b.B.B.B.R.T.s.u.n b H F J | tXtX,.,.5.wX,.@.2X5.5.wX",
"#.-.uXwX5.wXwX>.%.#.4.:.5.;.X.{ } oX*X{.`.R.Q.Y.~.~.~.!.I.I.K.k.j.j.k.N.k.h.N.v.N.N.N.j.t.i.j l l G ..-.:.tX%.5.:.{ X.X.@.wX,.,.",
"@.,.wX5.:.O.:.{ #...O...J ] O.,X7X*X].{.(.^.!.!.~.~.~.~.~.Q.I.k.J.J.J.J.k.N.k.N.n.n.k.h.s.i.v g a Z G O.{ O.{ [ { -.%.uX%.[ { X.",
"X.#.,.;.O.{ X.-.O.>.uX:.-.>.O.,XOX#X.XOX.XXXD.D.|.|.|.|.|.|.V.V.V.a.N.P.n.n.n.P.n.n.v.g.s.u.f a g F ..X.yXwX-.,.:.O.:.4.wXuX-.X.",
">...*.] ] wXsXpXtXO.;.5.5.4.,.>XG.XX .! Q Q Q Q Q Q Q Q Q Q ! ( ! B m.J.k.n.n.n.v.l.f.s.t.u.t k #.uXuX,.%.5.tX5.wX>.{ 4.;.wX,.O.",
"sXwX@.*.-.wX5.eX5.#...5.,.+.J >XG. X` R U P m P P P P P P P U T ~ ! V.n.j.h.k.v.c.g.s.t.r.u.t H *.wX5.5.{ -.5.4.$.{ ] X.#.-...tX",
"5.4.uX-.X.>.;.5.5.5...*.....:.4X'..X` T < > > > > > > > = * & < T ! }.L.P.j.h.N.v.g.s.e.w.y.t l #.4.5.4.,.X.-.{ O.>.uXwX..{ -.5.",
"-.5.wX>.@.@.>.5.5.5.O.{ O.rXiX4X*XXX` I > X O O O O # O O .   & U ! }.L.L.n.h.c.v.g.s.w.q z f k ..5.5.wX,.X.%.@.dXiXwXiXwX#.#.,.",
"#.:.-.X.@.@.,.wX>.5.O...-.2XwX4X#X.X` I = # O # # # # X .     & U ! }.n.L.n.g.l.j.g.t.y.x f p l K wX:.wX5.X.X.,.,.5.5.wX5.wX@.@.",
"{ { { O.:...K X.O.#...{ ....>.<X'.OX` I > @ @ # # # # X       & Y ! V.J.J.v.c.g.l.s.e.q r i s Z H ....#.O.X.....#.;.:.4.;.4.:.*.",
">.2X:.uXiX5.X.] ..*.;.iX*.K ..<X#X.X` I > @ @ # # # X         * T ' V.J.j.v.v.h.s.t.w.y.t h S K ....{ ..:.5.uXO.] -.wX;.:.X.O.O.",
"2XwX5.5.;.wX:.O.iXeXwX5.eX;...,X'..X` I > @ @ # # o           * T 2.V.J.h.c.c.g.s.w.q z b h D K :.#.:.eXiXyXwXeX-.{ #...{ #.2XX.",
"{ :.>.;.:.iXX...;.5.5.4.4.5.{ >X'..X` I > @ # # # o .         & Y ! V.J.c.l.c.d.t.y.z t d D K :.wXO...5.5.5.4.,.,.....X.#.wXwX;.",
"O.#.5.5.5.4.-.X.{ *.;.;.;.$.@.<X'..X_ I > @ # # # # .         * U ! V.P.j.l.g.s.t.y.f i l D O.;.5.....$.-.;.,.;...*.:.:...X.4.5.",
"{ >.5.#.5.:...@.#.{ uXwX4.J >.4XG.XX_ I > @ # # # X .         & U ! V.J.n.g.g.t.w.q t i d D O.4.O...-.O.@.uX5.;.{ iX4.wX*.{ ;.;.",
"..O.;.,...X.O.iXeXX.#.;.;...>.1X'. X_ I > @ # # o X           & Y ! V.J.j.g.t.w.q z t s l J $.@...:.pX,.X.-.,.;...wX5.:.*.X.-.#.",
"@.X.#.>.:.{ wXwXwX>.{ ..o.#.2X4X'. X_ I > @ # # X             * T ' V.n.h.z.t.y.0 t a d F O.,.@.$.eX5.wX#.X.O.@.:.wX,.@.X.@.{ ..",
"uX-.X.{ { :.tX,.:.uX>...X.{ :.,X'. X_ P > @ O X .             * T 2.V.J.c.s.t.u.n l S G K ..X.{ wXwX>.wXuX-.X.X...>.X.@.:.iXtXiX",
"iXiX-.$.#.#.,.,.2X5.5.#.X.-.{ >XG. XQ I = @ O X               & T 2.V.J.h.g.s.i.v Z Z K 5.$.$.@.:.:.2X,.5.,.X.%.%.X.X.iXiXwXwXwX",
"5.yXrXX.X.:.:.wXwXwX@.X.5.sXuX>XG.F.N M 1 ; = * & & & & * & * < W  .m.J.k.h.d.i.v Z H J 2X,.X.X.,.:.,.wX5.X.%.tXdX2X@.@.5.wX,.wX",
"5.5.,.@.dX{ { %.>.X.#.wXwX5.wX<XG.`.F.D.b.e m U m P I I U U U m C M.b.n.k.v.g.p.v H ..*.>.=.:.2X@.{ ,.-.{ ,.tXtXwXwX-.{ X.&.iXwX",
",.{ %.wXuXuX@.{ { -.wXwX>.4.wX4X`./.~.~.~.F.B E ~ ~ / ^ ( 1.! B m.L.J.P.J.j.j.x.Z.S $.:.@.%.uXyX2X@.{ { ,.5.uX,.tX5.tX@.:.wX5.5.",
",.@.uX5.wXuXtX%.X.%.5.>.:.5.#.:XS.P.Y.Q.!.!.D.}.E ~ ) ( C }.}.m.N.J.J.P.n.n.P.v.z.Z.,X$.-.pX5.tXwXrX@.@.,.tX:.,.,.%.{ X.%.rXwXwX",
"{ ,.uXwX:.,.,.#.%.X.-.@.X.] { ,XS.x.P.!.!._._.D.W ~ ) ' D.K.K.P.J.P.n.n.P.P.P.P.k.x.b { uXtX,.,.>.,.#.#.@.,.{ @.{ X.%.,.@.@.%.-.",
"%.-.,.5.>.{ { %.@.-.:.X.X.-.O.%.3XA.B.U.!.^._.D.W ~ ) ' C.K.K.P.J.P.v.v.n.P.P.n.j.x.} %.,.4.,.$.{ { %.%.,.&.{ %.%.%.,.tXuX2X{ X.",
"#.X.;.O.] ;.sXuX:.;.5.iXuXiX>.O.>.>XS.T.^.^.Q.C.M ~ / 1.V.L.J.P.P.n.v.v.P.P.n.k.k.z.A.} #.:.....rXsXuX#.5.uXuXpXeX:.#.4.4.eXwX..",
"sX-...X.$.uXiX5.uXo.+.5.4.;.] ..{ L S.E./._.I.C.E ~ / ! V.L.P.P.P.P.n.n.P.P.P.P.k.N.z.Z.L { ..>.wXwXwXwXX.,.5.5.-.] { -.:.;...,.",
"5.wXwXO.O.,.;.wX5.5...4.*...o.*.-.n D.E./.^.I.C.M / / Q C.L.J.P.P.P.P.P.k.Y.P.P.P.n.k.x.>X,.O.:.;.4.wX5.>.@.,.#...O.;.#.] ..*.wX",
">.>.5.>.] O.>.5.5.;.o.{ ..;.pXiXuX4XF.E./.!.I.a.M / / ! C.L.J.P.P.P.P.P.N.J.n.Y.P.n.h.x.:X5.#.] :.4.4.4.;...{ X.iXiXiXpX>.X.#.4.",
"-.>.,.X.*...;.5.>.5.....o.5.5.4.5.1XG.E./.^.Q.C.E ~ / ! V.g.k.P.P.P.P.P.J.P.P.P.P.k.k.x.| <.O.O...5.,.4.5.{ X.-.5.5.5.5.5.>...*.",
"] ] ..X.......X.>.;...] ..*.4.:.5.<XH.E.).^.Q.D.E / ) ! e t.k.J.P.P.P.P.P.P.P.P.P.k.J.XX9X6.+.o.{ +.X.;.-.{ ..O.;.5.;.5.,.4.>...",
"#.#.-.,.pX*...K { K +.>...{ ..wX4.1XG.W./.^._.}.E ~ ^ M e e.k.P.P.P.P.k.h.j.J.P.P.P.L.XX0X9X9XpX-.{ [ ] ..-.-...{ -.5.4.:.*.O.O.",
"yXeXeX5.wXuX%.o.iXiXeXwXeX#.{ >.+.} G.E./.^._.|.E m V w f.k.J.P.P.P.P.j.e.t.j.P.P.P.T.U.#X@XfXfXuX+.O.pXpXyXyXuXX...,.O.{ ..-.X.",
"..,.5.;.-.,.#.O.;.5.5.4.4.5...{ | >X*X`./.!.~.D.E Y 8 e.k.J.P.P.P.P.P.h.q.q.g.P.P.n.P.P.J.F.8X6X,.O.*.4.5.wX5.4.wX{ ] { *.uXuX#.",
"O.O.5.5.5.wX:.X.X.;.;.4.;.+...,XoX$X&X].R.!.!.|.E m 8 t.h.L.I.P.P.I.P.h.q.q.h.n.k.k.P.P.n.N.m.V.,X@...+.4.;.;.5.#.X.+.$.] *.4.4.",
"..-.5.#.5.;.{ O.X.] rX4.;.o.;.4X=X{.{.[.R.!.~.F.M m 0 q.h.P.P.P.P.P.P.h.q.q.h.k.c.c.n.P.P.h.d.i.b [ ....@.wX,.;.{ uXwXiX#...;.>.",
"..-.,.;.-.#...wXtXO.*.5.4.] :.1XH.].].[./.!.~.n.e 0 5 q.h.J.P.P.P.P.P.h.q.q.h.P.c.c.n.P.k.h.g.p.t F rX:.$.wX4.-.{ wX4.;.>.{ ;.*.",
"....*.,.@...;.uXeX>.] +.O.X.5.1XG.W.).(.~.R.F.a.q.q.q.e.k.P.P.P.P.P.j.d.e.t.j.P.v.v.k.P.k.k.v.z.c b =.iX..X.*.O.-.5.;.X.X.X.....",
"wX..{ ..X.O.5.5.;.eXO.] ..{ ,.,XG.E./.^.~.F.B M w q.d.h.k.P.P.P.P.k.e.e.d.j.n.P.P.N.P.P.P.n.n.n.b.Z.L wX5...] X.X.wXO.{ X.,.-.>.",
"uXiXO.....:.4.#.#.5.5.-.{ ..{ } G.R./.).%X@X3.( m y.h.L.Y.k.h.h.j.s.0.q.j.I.P.P.P.P.P.P.n.n.P.P.n.x.L ;.wX5.X.X...] ..,.pXyXwXwX",
"wXuX,.X.X.:.:.eXiX5.+.O.O.dX,.| G.W.^.$X0XgXgX7.! M a.j.P.j.t.q.q.q.6 q.h.J.P.P.P.P.P.P.v.v.n.n.v.x.:XeXwX-.@.2XdX-.@.%.wX5.5.wX",
"wXwX,.X.:.@.{ ,.wX:...-.wXwX3X7X#X`.(.$XjXhXhXhX7.( V a.g.d.e.q.q.q.q.t.j.P.P.P.J.P.P.n.v.v.n.n.n.x.A.,X@.$.>.eXiXwX@...:.:.eX5.",
";.-.-.,.dX>.{ { #.{ wXuX4.5X7X=X&X[.(.*XjXhXhXhX8.7.( m e e.g.h.h.h.h.j.P.P.P.P.P.P.P.P.P.n.P.k.n.v.z.Z.L sXeX5.wXeXwX..#.rX5.wX",
";.{ ,.rXwXiXwX..{ -.4.;.-.4X*X;X[.[./.&X8XjXqXjXqX9X3.m e t.k.P.J.J.P.P.P.P.P.P.P.n.n.P.P.P.P.P.P.P.j.p.:XwX:.>.wX:.#...-.5.5.,.",
"X.,.eX;.;.;.5.:.@.X.,.-.*.,X'.{.[.).(.).&X$X$X#XXX.X}.m.z.h.P.P.J.Y.P.P.P.P.P.n.v.c.c.v.n.P.P.P.n.h.d.p.n wXo.;...{ ..#.X.O.-.>.",
"X.-.4.4.:.{ ....o.#.....[ >X'.{.)./.!.!.Q.Q.Q.Q.L.J.J.J.J.P.P.P.n.n.Y.k.P.P.P.n.c.l.c.c.v.n.J.n.h.f.f.u.n J K ....O.:.uX:.$.J X.",
"O.X.;.:.....2X>.@.;.pX,.wX4X#X)./.R.!.!.I.I.Q.Q.J.Y.Y.L.P.P.P.P.v.v.n.P.P.P.J.P.c.c.n.v.v.v.v.h.f.t.9.y.L J $.eXwX#.-.5.5.uX5.X.",
"uX..$.] ..wXiXuXiXX.;.4.4.5X'.].R.I.!.Q.I.I.!.Q.P.k.k.n.P.P.P.k.l.l.k.k.c.v.n.v.c.c.n.n.v.s.w.6 5 5 7 z t D =.wX;.#.{ ,.;.5.X.O.",
"eXeX>.O.:.4.5.5.5.;...5.;.,X'.[.E.P.Q.!.!.I.I.P.k.h.k.k.h.h.h.g.z.f.f.f.l.g.j.h.l.c.v.P.v.q.4 + + ; r v s Z =.;...X.#.@.K O.X.uX",
",.4.wX,...-.;.5.5.5...] F n *X%X/.T.Y.I.I.n.v.c.f.t.t.t.e.z.t.r.r.w.w.r.r.t.z.z.g.v.n.c.r.4 +   o : i h h g J { :.iXpXpX*...:.4.",
">.5.4.-.X...4.5.;.5.X.F a x S./.^.T.P.v.c.l.t.9.w.w.w.q.w.0.9.6 6 6 0.9.0.w.r.t.g.b.v.r.4 +   o : i d h h g J *.eXuX4.wX5.#...;.",
"..{ O...O...-.#.>.>.O.A : ; 5 e.r.9.6 6 6 5 7 7 9 9 9 9 9 9 9 7 9 9 9 9 0 q q q 6 6 9.4 + . o : 2 h a l A A ] #.4.4.4.5.4.5.#...",
"X.....%.yXO.J { ..@...Z % . - - - - + + + ; r t t v t t r t t t t r r t t f f r ; - + +   o , y i i u g F ..X...{ :.;.5.:.;.:.#.",
"tXyXtXyXeXuXO...:.wXyXo.2 % % % % $ # $ $ : p Z A A S l i s h S S Z a u d h s 2 % % $ % % : i S Z i g K wXiXiX>.{ O.5.;.O.] O.O.",
"O.4.5.,.:.>.;...wX5.4.*.{ F u 2 2 , 2 u 2 2 d Z l g g g i Z l l Z Z Z a u i u i i y , 2 3 3 s s l g K *.4.5.wXwX,.{ X.[ ..5.sXX.",
"{ -.5.4.eXpX:...*.4.5.4.;.O.g i p s d d d s i Z D K J H h h D G D D D l h h h S F D s i d Z S S J F K ;.wX5.5.,.:...X.#.@.>.5.;.",
"X.;.5.5.4.,.$.X...#.-.;.:.[ l S Z s u d Z s s H K ;.=.K ] K J ..*.J X.K #.,.X.J K o.Z i Z d Z D J K X.X.#.>.:.5.{ wXuXtXX.X.,.wX"
};
