/* XPM */
static char *satoshi_back21676886650[] = {
/* columns rows colors chars-per-pixel */
"64 64 216 2 ",
"   c black",
".  c #100A1B",
"X  c #151912",
"o  c #272F1F",
"O  c #130729",
"+  c #221F2D",
"@  c #4B5B3D",
"#  c #230C49",
"$  c #2B0D5F",
"%  c #37245B",
"&  c #300F6B",
"*  c #350F7B",
"=  c #3B157B",
"-  c #3E2964",
";  c #403A55",
":  c #432C69",
">  c #4C3D6C",
",  c #442C72",
"<  c #46297A",
"1  c #4A3675",
"2  c #4C327D",
"3  c #5A3C72",
"4  c #4D544C",
"5  c #4C4E50",
"6  c #4F5353",
"7  c #545D53",
"8  c #545857",
"9  c #536443",
"0  c #596C46",
"q  c #556649",
"w  c #566C4A",
"e  c #5A6D4A",
"r  c #5E734C",
"t  c #5D6D54",
"y  c #5B655C",
"u  c #5E6B5C",
"i  c #61754D",
"p  c #627A4E",
"a  c #656B5A",
"s  c #627551",
"d  c #657D52",
"f  c #66775C",
"g  c #524C68",
"h  c #595767",
"j  c #554B73",
"k  c #69587C",
"l  c #5D6562",
"z  c #5E6960",
"x  c #626B64",
"c  c #6D716E",
"v  c #767B7B",
"b  c #877C67",
"n  c #668154",
"m  c #6A8355",
"M  c #6A8855",
"N  c #6C8459",
"B  c #6E8A5A",
"V  c #738958",
"C  c #738C5C",
"Z  c #73915E",
"A  c #778B6A",
"S  c #7A9565",
"D  c #7D9564",
"F  c #7D9964",
"G  c #7B8978",
"H  c #7F9376",
"J  c #7FA167",
"K  c #819A67",
"L  c #819668",
"P  c #849D6A",
"I  c #959A63",
"U  c #818C7E",
"Y  c #85987A",
"T  c #A89576",
"R  c #80A066",
"E  c #86A26B",
"W  c #89A56D",
"Q  c #8BAA6E",
"!  c #8DB06F",
"~  c #8BA671",
"^  c #8DAC72",
"/  c #8AA579",
"(  c #90AF75",
")  c #91AE79",
"_  c #8EB273",
"`  c #8EB278",
"'  c #92B475",
"]  c #94BB76",
"[  c #94B579",
"{  c #96BB7A",
"}  c #99BD7D",
"|  c #A6A26B",
" . c #C6BC77",
".. c #96C07A",
"X. c #99C27D",
"o. c #3E1586",
"O. c #401785",
"+. c #411B84",
"@. c #41168B",
"#. c #441A8C",
"$. c #461797",
"%. c #471A92",
"&. c #491B96",
"*. c #4B1B9C",
"=. c #4B2C84",
"-. c #4B2989",
";. c #4D3282",
":. c #533886",
">. c #51348A",
",. c #4F2795",
"<. c #522A98",
"1. c #5A359B",
"2. c #633C9B",
"3. c #4E1CA1",
"4. c #4F1BAA",
"5. c #511EA5",
"6. c #531EAC",
"7. c #561EB3",
"8. c #571DBA",
"9. c #581FB9",
"0. c #5521AD",
"q. c #5728A8",
"w. c #5D34A8",
"e. c #5721B2",
"r. c #5922B6",
"t. c #5B21BC",
"y. c #5E28BA",
"u. c #693CAC",
"i. c #612DB7",
"p. c #622BBD",
"a. c #6638B7",
"s. c #5D458C",
"d. c #67508D",
"f. c #716B89",
"g. c #726994",
"h. c #6846A8",
"j. c #6E46B6",
"k. c #7749B6",
"l. c #7554B3",
"z. c #7858B9",
"x. c #7B5BBC",
"c. c #7865A9",
"v. c #7F61B9",
"b. c #5A1EC3",
"n. c #5D21C3",
"m. c #5F23C8",
"M. c #6125C5",
"N. c #642CC4",
"B. c #6225CC",
"V. c #662ACC",
"C. c #692FCD",
"Z. c #6731C1",
"A. c #6932C5",
"S. c #6C34CC",
"D. c #6E39CD",
"F. c #733ECB",
"G. c #6627D3",
"H. c #6728D5",
"J. c #692BD5",
"K. c #6929D9",
"L. c #6E33D5",
"P. c #7035D7",
"I. c #723AD3",
"U. c #7135DA",
"Y. c #753BDA",
"T. c #7646CA",
"R. c #7D58C1",
"E. c #7A45D5",
"W. c #997B8C",
"Q. c #8F76A7",
"!. c #856ABD",
"~. c #8B73BC",
"^. c #8E78BF",
"/. c #805FC3",
"(. c #804ED7",
"). c #8152D0",
"_. c #8555DB",
"`. c #8A5BDD",
"'. c #8160C4",
"]. c #8D6ACC",
"[. c #9379C9",
"{. c #916FD0",
"}. c #8A5AE0",
"|. c #7E8182",
" X c #838B84",
".X c #818588",
"XX c #889484",
"oX c #899389",
"OX c #8C9C8C",
"+X c #8D9394",
"@X c #8C9C91",
"#X c #8BA485",
"$X c #93A88D",
"%X c #9ABD80",
"&X c #98B48A",
"*X c #98AB98",
"=X c #9DB39A",
"-X c #A3BB9E",
";X c #8C87A8",
":X c #979AAC",
">X c #9489B6",
",X c #BA97A8",
"<X c #CCB38F",
"1X c #9DC582",
"2X c #9FC884",
"3X c #A0C686",
"4X c #A0C986",
"5X c #A1C788",
"6X c #A3CC8A",
"7X c #A5D08D",
"8X c #A8D08F",
"9X c #A9CF91",
"0X c #A7D091",
"qX c #ABD293",
"wX c #D9C68C",
"eX c #E4D08C",
/* pixels */
"W } 1X^ } [ W [ [ ~ 6X4X..E { 4XX.1XW Q X.W ( X.[ [ X.W ( } W } 6X} ^ Q 6XX.X.( W X.~ ~ 1X{ ' 1X~ ~ %X( ^ 9X1X{ E 6XX.1X{ W } [ ",
"E W ] X.W P ^ 4X5X( E ] ] E { X._ ] P K _ W E ' X.( P P 8XX.[ W ' { Q ' X.] ! W E ` E E _ ] { E P } 5X2XP ' { ' ~ 1XX.' ( E W Q ",
"' P E _ ( W 1XX.X.} E L P E ..X.P K W W W { P E Q } P { X.} } ^ K K P [ X.Q L E / E ` ~ P ~ { P ' X.X.1X' P P W ~ 2X] L P ( E ~ ",
"9X3X~ P P [ 1X[ ( 1X} ~ Q E E W Q 1X6X6X4X8X6X/ XXoXOX=X*X+X=X=XOXY XXXXXXXX$X=X=X=X*X-X) E P ~ } 1X^ { 1X} Q ~ E ~ P [ 6X6X6X6X",
"1X5X[ ~ ~ [ [ 3X6XX.{ Q Q } ( W ^ 4XX.X.1X2X2X=X>X[.[.[.[.[.[.[.~.~.[.~.~.~.~.~.^.^.!.Q.=X~ ~ W 1X` 9X1X1X[ ~ ' %X~ P 3X3XX.X.1X",
"1X1XX.Q ( ~ ( } 1X} E Q 2X4X6X( P ' X.{ %X1X&X:X].`.}.}.}.}.`._.).).).).).).).).E.T.T.z.;X$XoXU / ~ %X1X' W [ 4X8X3X( P { X.} 3X",
"X.} [ ' qX~ P W ~ P { 5XX.X.X.1XE F / 2X1X&X>X{.`._.(.F.(.Y.E.F.F.F.T.F.F.T.T.F.T.A.A.Z.j.h.j.c.U L ' P W 5X3X1X3XX.%XW P [ 5XX.",
"} L ( 4X3X6X[ P P { X.{ { X.X.X.~ W 1X%X&X:X].`._.(.S.C.L.L.C.C.N.N.N.N.N.N.N.p.n.n.9.r.r.e.w.g.$X' P P 1X1X{ } X.3X} ~ [ X.4XX.",
"( ' 6XX.X.1X1X{ ( ^ X.' X.{ E P P P { &X>X].].E.E.S.N.B.J.G.B.M.M.p.9.p.p.n.r.e.e.5.3.&.*.,.f.#X} X.^ ' } X.) X.[ P W P ~ X.} 1X",
"W { 4X..' Q ' P ~ W Q E D K Q ^ 2X~ Y Q.].`.E.T.S.C.B.B.H.H.B.n.n.n.9.7.n.9.9.7.6.5.,.#.< j A E P E K ^ P ^ P K L ( ( 6X( L P W ",
"W ^ { { ~ P W ' Q { 4X[ ' { Q ( ..&X;X].`._.E.S.C.J.H.G.H.H.H.G.n.n.9.n.n.n.n.9.9.6.&.< g t m s i V E Q 5X3X[ } { Q [ X.3X6X' W ",
"{ E _ P P 1X8X8X4XQ { ..X.X.} P ] OX!.E.E.E.D.V.J.J.K.K.K.H.G.B.n.n.n.n.n.n.n.p.9.6.3.2 8 r 9 e S / %X{ ^ X.X.X.X.{ E } { 3X[ Q ",
"8X} ( ( ' 1XX.3XX.Q W X.X.! K E P  Xx.E.E.Y.V.B.G.K.K.K.K.G.9.t.n.n.n.n.n.9.7.7.9.5.%.2 y e 0 N J ] X.X.E [ X.{ W E P E Q ' E 3X",
"X.X.2X( W { { X.X.X.E ! E R ' X.5X Xz.F.U.J.V.B.G.K.K.H.G.M.9.r.n.n.n.n.n.n.9.6.5.3.%.2 y m p C ! ..X.{ { W ' P ~ { 5X1XE P ' X.",
"[ X.1X[ W ~ } X.X.X.Q P Q 5X8X3X1X*Xx.Y.U.J.H.H.G.K.K.G.p.9.9.n.n.n.n.n.n.n.9.6.*.%.#.< x C D P ^ 1XX.X.} W W ( qX6X1X6X1X( W X.",
"( [ [ W ( W } } } X.Q W ' X.X.X.} *X'.Y.U.L.H.G.K.K.K.B.9.7.p.n.n.n.n.n.n.n.9.6.%.= < > y d L ~ E 1X[ 1X} Q ~ { { 4X1XX.} X.( W ",
"L K P Q [ P P E Q ! E P E E ] ' ..OX'.Y.U.L.B.B.G.K.K.B.9.9.b.n.n.n.n.n.n.n.r.5.#., g 6 q s F ^ P E P _ ^ W P E ( { { X.{ { [ ! ",
"{ %X[ 4X6XX.W K E [ ] 6X! K W ....OXR.Y.U.J.B.m.G.K.K.B.9.7.9.n.n.n.b.n.9.9.6.*.@., 7 N r B } 0X[ E L W { X.5X^ K ( X.{ ' W Q Q ",
"1X1XX...{ } ' Q 8XX.X...4X{ E Q W |.R.Y.U.J.m.m.G.K.K.B.r.7.p.n.n.n.n.n.b.7.*.#.@.< 8 n n B ! ] 1XQ [ 5X4XX.X.4X' P ! E L ' } Q ",
"P [ X.] [ 8XQ E ..X.X...] ..P E E  X'.Y.U.J.m.m.G.K.K.G.r.r.9.n.n.n.n.n.r.6.%.+.< j 7 e M F ~ X.1XQ W ..4XX.....{ E E W ^ 1X1X[ ",
"W ' X...X.{ ' W E ' ' { ] W Q [ [ oXR.Y.U.J.M.m.G.K.K.B.r.e.9.M.n.n.n.n.9.6.%.< g u s r R ' ....1XE E Q ' ] { { P ' { [ P W ..X.",
"E { X.~ ..] P ^ ~ P 4XX...P ] 4X{ @Xz.Y.U.J.m.m.G.K.K.B.r.e.t.b.n.n.b.n.9.6.&., 4 p e p _ { _ ..Q E [ W ^ 6XX.{ P 5XX.2X' P { ] ",
"W W ] { W W Q 6X6XQ Q ] ] E { X.] OXl.I.U.J.M.m.G.K.K.G.r.r.9.m.b.m.n.t.9.7.3.< 8 p 0 i E { [ ^ E ] 0X} E [ } ] E 1X{ ' _ Q _ Q ",
"W E ( { [ P 1X1XX.{ K Q W Q X.} Q  Xz.D.L.J.M.B.H.K.K.B.r.r.t.n.n.n.n.n.9.7.3.=.8 0 s V L ' %XP ~ 2X1X1X^ P ~ ~ [ 1X} ~ W W P W ",
"6X[ W P P } 3X} [ 6X{ W W P ' ( P +XR.I.S.B.G.G.H.K.K.B.r.r.t.n.n.n.m.b.9.6.&.2 x B ` %XW P ~ ~ %XX.} X.5X( Q W E { P ~ [ 6X2X6X",
"6X6X[ ~ ~ ( } } } X.{ ( Q ' W W [ *X'.I.S.V.H.K.K.K.K.G.r.e.t.m.n.n.t.r.r.6.&.;.y S [ 6X2X^ ^ ~ } [ %X} X.} Q ( ) W ~ 6X6X3X1X1X",
"X.3X3XW W ' ' 3XX.3XQ W X.qX5X^ E #Xx.D.J.H.K.H.K.K.K.B.r.r.t.b.n.n.9.0.6.3.&.>.l B _ 2X2X%X~ P } [ } 3X} Q ( 5XqX%XQ ~ 1X1X} 1X",
"} X.{ ~ 9XP P ( [ P ( 1XX.X.X.{ E f.l.J.H.H.H.K.K.K.K.B.r.e.t.m.t.r.6.0.*.&.&.=.l S _ X.%X[ ' %XW P } ) P } 5XX.1X1X' P P ( 6X1X",
"} W ^ 3X6X5X~ P P ( X.3XX.X.X.3X(  XT.V.V.H.H.K.K.K.K.G.r.e.n.t.r.0.0.3.*.&.#.;.l S ~ [ ^ ( 6X5X} W P P } X.5X} 3XX.3X~ } 1X1X} ",
"[ ~ 5XX.X.5X3X( ~ ' X.{ [ X.^ W E  Xc.a.N.m.B.G.B.G.G.M.r.r.t.t.r.e.0.3.*.%.< j a C ` ~ ( 8XX.3X5X3X~ ~ } 3X} } } ( W Q ( 1X1X1X",
"P %X5X3X' } } ( ( W ' ~ Q K P ^ [ ~ U f.w.y.y.y.9.r.r.r.t.t.m.n.n.r.9.6.*.-.g 6 e N K P 6X3X} } } } ~ ( ~ } P ( P W ( [ W / ^ ' ",
"( ' X.X.} P P ( ( ( [ P E ^ ^ ' X.5X{ v s.y.y.y.r.r.e.e.b.n.b.n.m.n.9.7.*.>.x d i i K ^ } X.} ~ P P ( ( [ ) P ~ ( ( { 3X6X[ W ~ ",
"^ W ] Q K ] 8X0X{ ' 2X4X6X2X{ Q ] { X.OXh.A.S.J.V.M.r.r.9.n.n.n.b.n.9.7.3.:.u p N M F ~ ^ ] E E 1X0X2X^ 1X6X4X6X4X' ^ X.{ 2XX.W ",
"0X^ E W ~ 4X4XX.5XQ ! ....] E E E ' } G l.D.L.J.J.B.r.e.r.b.n.n.n.n.t.9.6.,.g t d B %X6XQ P P { 2X2X3X%XW { X.X.' P K ( ' ..W } ",
"X.2X1XQ ~ X.{ X.X.X.E .._ E E _ ' K K U v.D.S.V.M.M.r.6.9.r.9.M.n.b.t.9.r.0.-.> f ` ..1X1X} W { { ..1XX.{ ~ { ^ E Q { ( K E ( X.",
"] X.X.{ P Q { ....{ Q K E { 7X6X4X%XH .Xv.F.A.M.M.9.r.0.7.r.n.n.n.n.n.m.M.r.q.>.k / ` { ..X._ L ' ....X.] W P W 6X6X6X8X{ Q ~ ..",
"' { { Q ^ E { X.{ ..Q R W X.X.....) g.g.k.T.p.N.n.9.9.0.9.b.n.n.b.n.n.M.M.p.p.q.>.k J ^ { ] ~ ~ E X.{ X.X.P W ' X.X.X.X.X.{ E ^ ",
"K L E W W W E W { ] E P E _ ..{ ..#Xg.h.k.a.Z.N.M.n.r.e.9.p.n.n.M.n.n.n.n.M.N.p.q.>.f.A H E Q E P Q W { ' P E Q ] X.{ ..} X.] E ",
"^ ^ ' } 6X' E D D E Q { W P E 2XX.#Xd.h.u.i.p.B.B.B.r.0.e.r.9.n.9.M.b.M.r.r.M.y.q.<.=.k A ' 2X6X' P D L W [ [ E P ' X.X.[ _ Q Q ",
"3X2X2XX.1X5X( Q 5X4X2X2X2X^ L [ Y v d.1.a.p.M.B.H.B.p.0.6.7.M.b.n.b.M.t.6.6.r.y.y.3.o.1 Y 2XX.2X1XQ _ 6X6X4X4X2XW E { Q P E ' Q ",
"E { ..{ [ } ^ Q { X.......X.R A f.d.s.w.i.C.m.m.H.B.r.0.0.e.t.M.n.n.n.9.$.$.4.9.e.*.= : H X.] ^ { Q _ { X.....X.1XE K P ( 4X6X^ ",
"Q ^ ..X.X.1X[ W W { { { ..! E G d.>.w.w.C.J.m.m.H.B.t.e.e.r.t.b.n.n.b.6.@.@.3.0.0.&.= % f _ X.1X3X~ E ' ..{ ..{ ~ W _ Q L _ ....",
"P ] X.^ X.{ E W W L 1X..] E { #X:.%.e.C.K.J.m.m.G.B.r.7.r.9.M.m.M.t.9.5.@.@.3.6.6.&.& % z S Q X.^ E Q E W 5X{ ..E 6X1X4X! P { ] ",
"E ' { ] ' Q E 3X2XQ ' X.] R ' / k >.y.J.L.J.m.G.G.G.n.9.n.M.b.n.b.t.9.6.$.@.$.$.&.= & % q B R { W ~ 6X{ ~ X.{ ] P %XX.{ { P ] ' ",
"E E ' X.Q E { 3X2X{ L _ Q E 1X] A f.w.G.K.K.J.G.H.H.G.B.m.n.n.n.n.n.t.9.4.$.O.* * & $ % 4 d ' L Q X.1X6XE W ' Q ' X.X.W W W E W ",
"1XW L E W Q X.X.] 1XQ F E E ] { F v h.C.L.K.K.K.K.K.K.G.m.n.n.n.n.n.b.p.u./.Q.3 3 : ; ; 4 i P P ] X...X.X.W L W W 1XQ L W { ' { ",
"6X6XW E E ' ..^ ^ X...' P R F F ` @Xh.S.L.U.K.K.K.K.K.H.m.b.n.n.n.b.b.).,XwX<XT T b a a i d I P X.{ ~ ' 1XX.W W P K P } 8X3X3XX.",
"1X4X%XW W [ { 1X4X2X' W _ qX%X^ E oXl.D.L.J.K.K.K.H.G.M.m.n.n.n.n.b.b.k.,XwXeX . .| d i d d L P X.} 1X2XX.' ~ %XqX' Q ' X.X.X.3X",
"X.1X} W [ P ~ } %X[ E ' 1XX.4X[ F  Xz.D.L.L.K.K.K.G.n.r.n.n.n.n.b.n.n.p.k.Q.<X . .| V d d N F ) W P %X%X^ ^ %X2X5X2X~ P [ ' 3XX.",
"{ ' ( } qX{ P P ~ ~ 1X4X..X.2X1X_ |.x.D.U.K.K.K.K.B.r.e.n.n.n.b.n.n.n.b.8.u.W.T | I V d n C %X2X' P ~ P ^ 6X2XX.1X2X2XW / 3XX.1X",
"} L { 5XX.4X1XW P [ X.] ] ..{ ' E  XR.Y.U.K.K.K.K.V.r.e.t.n.n.n.b.n.n.n.8.e.2.k c V N d C %X} 1X4X{ P E 1XX.] ] } { ~ W ' X.X.X.",
"E %XX.X.] { X.[ ( P ] ' ! Q K P Q |.x.E.U.L.H.H.K.G.r.e.t.n.n.b.n.n.n.n.n.7.3.-.g a e e { 1X] X.{ X.^ ^ W 1X^ ' W P E ~ E ( ! { ",
"W ' ....{ L W E Q Q E E K E Q ! 6X@Xz.D.P.L.B.B.G.B.r.r.t.n.n.n.n.n.n.n.n.9.6.0.q.:.7 p Q ....^ P W E Q Q W E L Q Q { 6X[ ~ K E ",
"Q Q { ' P Q } { Q { 7XX.X.5XQ ( ] OXx.S.L.J.m.B.H.H.t.r.8.n.n.n.n.n.t.n.n.t.r.9.7.1.h V Q ] _ E ' } ' Q 6X6X{ 5X3X~ ' X.{ 4XX.W ",
"6XE Q P E 2X6X6X6XE ] ....] Q W _ OXz.S.J.H.m.B.H.G.n.r.r.8.8.t.n.n.9.r.n.n.9.9.7.>.G [ P W L ~ 6X5X6X{ W ..X.X.] W P { { X.W ^ ",
"3X4X{ W ' { ..X.X.{ E ..{ Q E Q W v l.V.G.n.3.&.*.&.@.#.3.6.9.9.9.9.0.0.9.9.9.7.3.>.G 1X2X_ W 1X{ ..1X2X' ^ X.{ E W Q W L Q W 6X",
"{ X.X.} E ] { ..X.X.E R K Q 4X7X7X@Xj.m.n.&.# O O O O O = 3.6.e.7.7.5.5.5.6.0.5.&.2 x F ] 1X' E ] X.X.X.] P E L [ 6X8X7X_ E [ X.",
"{ X.X.' E P X.X.{ X.E R Q 4X4X....$Xc.i.r.o.O         . - >.*.*.3.*.%.%.%.&.*.&.#.< y N _ ..~ E W X.{ X.{ E Q ' 4X4X..X.X.^ E ] ",
"E K ^ P ^ E ' Q { { Q E W ] ......{ #Xg.w.= O         X 5 g =.#.@.= = = O.#.#.@.O.< 8 r F E Q ^ K ] Q { { W E ^ { X.X.X.X.X.Q E ",
"Q W W ' X.Q P K E W E Q E K Q ] ..{ _ H s.- + X X + X o @ 4 > , : : : : : , , : , > 8 d S W { { E P L Q E Q Q W P ' { X.] { ' ^ ",
"3X5X3X3X4X4XQ E ' X.4X7XX.W E ..] ! P S z y w 9 9 9 w 9 9 e y x u y 7 4 7 y 7 6 6 7 t F ' 6X3X4X3XW W [ 5X8X6X] P Q X.] Q L Q Q ",
"W X...{ [ { [ E 3X......X.1XE E L F ` 1XS r p r r r r r 0 m B B n n m 0 q 9 9 e n N 0 m _ { { ' } Q ' X.X.X.X.2X} L ~ L W } 0XW ",
"E ' ..X.3X8X' E ' { X...] ] R E Q Q ' ] _ Z r n n n M n 0 i J Q M p p 0 9 e 0 i d p r i Q ..4X4X6X~ P ] 1XX.X.{ [ W W ^ ( { X.] ",
"Q { X.X.} } Q W Q ^ ' ] [ Q ' 5X2XQ P ] X.W N S B Z B B s N E W Z M m d C D V i d C M B _ X.X.X.{ W W W ( { [ X.P 1X5X3XW P X.X."
};
