/* XPM */
static char *satoshi_walk_right21676886652[] = {
/* columns rows colors chars-per-pixel */
"64 64 226 2 ",
"   c #010101",
".  c #060509",
"X  c #0C0D0D",
"o  c #0F130C",
"O  c #11160E",
"+  c #0D0917",
"@  c #0F1013",
"#  c #121213",
"$  c #171C13",
"%  c #192015",
"&  c #2E2902",
"*  c #322D00",
"=  c #3A3507",
"-  c #3B370B",
";  c #252C1E",
":  c #110624",
">  c #1D172A",
",  c #251B37",
"<  c #2C3724",
"1  c #47343E",
"2  c #36442C",
"3  c #5A5105",
"4  c #48593A",
"5  c #4B603D",
"6  c #290E56",
"7  c #34146B",
"8  c #3B147C",
"9  c #3F2967",
"0  c #422C6C",
"q  c #442D71",
"w  c #513573",
"e  c #643B7A",
"r  c #4C4F4F",
"t  c #545859",
"y  c #556745",
"u  c #5A6D49",
"i  c #5C724A",
"p  c #5B655C",
"a  c #62774E",
"s  c #627A4F",
"d  c #647651",
"f  c #647C51",
"g  c #575863",
"h  c #674073",
"j  c #5D6466",
"k  c #676D6B",
"l  c #747977",
"z  c #846C2C",
"x  c #9A7E2B",
"c  c #9B7D31",
"v  c #946E57",
"b  c #A37B58",
"n  c #845971",
"m  c #8E6B7A",
"M  c #688355",
"N  c #698355",
"B  c #6C855A",
"V  c #6E8B59",
"C  c #728955",
"Z  c #738E5E",
"A  c #74925F",
"S  c #798E64",
"D  c #7B9464",
"F  c #7A9764",
"G  c #7A8579",
"H  c #8E8100",
"J  c #938400",
"K  c #9B8B01",
"L  c #A29202",
"P  c #A7970C",
"I  c #AA990A",
"U  c #BAA505",
"Y  c #9C802B",
"T  c #A98B2D",
"R  c #B49727",
"E  c #A78830",
"W  c #AB8B34",
"Q  c #BA9936",
"!  c #CAB400",
"~  c #CEB50B",
"^  c #D3BD02",
"/  c #D0B613",
"(  c #C2A328",
")  c #D8C30C",
"_  c #BD9D42",
"`  c #819B67",
"'  c #819668",
"]  c #849D6A",
"[  c #84947C",
"{  c #AC9E73",
"}  c #81A267",
"|  c #86A26B",
" . c #89A56D",
".. c #8BAA6E",
"X. c #8EB06F",
"o. c #8AA571",
"O. c #89A673",
"+. c #8DAC72",
"@. c #90AF74",
"#. c #95AE76",
"$. c #8EB173",
"%. c #92B475",
"&. c #9CB273",
"*. c #94BA76",
"=. c #94B57A",
"-. c #96BB7A",
";. c #99BD7D",
":. c #C09F40",
">. c #C2A144",
",. c #CCBE7A",
"<. c #96C07A",
"1. c #99C27D",
"2. c #A2C07F",
"3. c #D7CC7F",
"4. c #3E1487",
"5. c #3E1191",
"6. c #41158C",
"7. c #421988",
"8. c #461897",
"9. c #491A9B",
"0. c #4C2A89",
"q. c #502F8D",
"w. c #4E3186",
"e. c #522F94",
"r. c #543397",
"t. c #673B87",
"y. c #683997",
"u. c #4E1CA3",
"i. c #4E1AA9",
"p. c #511EA6",
"a. c #521EAB",
"s. c #551EB4",
"d. c #561DB9",
"f. c #591EBC",
"g. c #5827AA",
"h. c #5D35A7",
"j. c #5721B2",
"k. c #5922B5",
"l. c #5E29B5",
"z. c #5B21BC",
"x. c #643CA7",
"c. c #733EA2",
"v. c #743DAB",
"b. c #612CB6",
"n. c #622BBA",
"m. c #6535BA",
"M. c #763DB2",
"N. c #794796",
"B. c #7D4A9A",
"V. c #6A5090",
"C. c #716890",
"Z. c #6E49AE",
"A. c #7B47A6",
"S. c #7E49A3",
"D. c #7745B7",
"F. c #7957B7",
"G. c #7E64B2",
"H. c #5A1EC4",
"J. c #571ACC",
"K. c #5A1DC9",
"L. c #5D22C3",
"P. c #5E21CB",
"I. c #6126C4",
"U. c #652CC5",
"Y. c #6124CB",
"T. c #692ECB",
"R. c #6932C5",
"E. c #6D38C6",
"W. c #6A33C8",
"Q. c #713FC7",
"!. c #723ECA",
"~. c #6425D3",
"^. c #6728D5",
"/. c #6929D7",
"(. c #6525DB",
"). c #6E33D6",
"_. c #733AD7",
"`. c #7648C2",
"'. c #7543CC",
"]. c #7947CD",
"[. c #7D4DCD",
"{. c #7E52CB",
"}. c #7B45DB",
"|. c #927C9B",
" X c #804AA5",
".X c #8656BC",
"XX c #8576A8",
"oX c #8468BA",
"OX c #8C76BC",
"+X c #A77CB2",
"@X c #8658CB",
"#X c #8354D4",
"$X c #8666C3",
"%X c #8F73C5",
"&X c #947ACC",
"*X c #8957E1",
"=X c #7C8880",
"-X c #838C83",
";X c #818E89",
":X c #899886",
">X c #898F93",
",X c #8DA387",
"<X c #92A98C",
"1X c #97B686",
"2X c #9ABD81",
"3X c #96AA93",
"4X c #9AB394",
"5X c #8A85A7",
"6X c #9190AA",
"7X c #B893A7",
"8X c #C5AA96",
"9X c #D7BC9C",
"0X c #DABDA6",
"qX c #9DC582",
"wX c #9EC884",
"eX c #9FCA88",
"rX c #A0C686",
"tX c #A0C986",
"yX c #A3C688",
"uX c #A3CC8A",
"iX c #A8D08F",
"pX c #A7D091",
"aX c #ABD293",
"sX c #C8C783",
"dX c #E6D19A",
"fX c #FAEF97",
/* pixels */
" .;.qX+.;.=. .=.=.O.uXtX-.| -.tX1.qX..+.<. .+.wX=.-.;. .#.;. .2XuX1.O.O.uX<.1.%. .1.+. .qX;.@.qXO.O.qX#.+.iXrX;.] uX1.rX*. .;.%.",
"|  .*.1. .| +.tXuX+. .%.*.| -.1.$.1.} ] $. .] *.1.+.] ] uXtX=.| X.*.O.#.1.-.X. . .$.| | $.*.;.] ] ;.rXqX] %.*.%.@.1.1.+.%.| ..@.",
"%.] | $.+. .qX1.;.;. .F ] | 1.-.[ =X:XG O.=.| ] :X<X-X3X3X3X3X:X[ -X-X<X3X:X-X:X>X;X,X,X' +.*.| $.qX<.qX%.] ]  ...rX*.] ] O.] ..",
"pXyXO.] ] =.1.=.@.qX;.+...| | -XXXoX$XXX4XuXuX:XXXOXOX%XOXOXOXOXOXOX%X%X%X%X&X&X&X&X%X&X:XO.]  .;.qX+.-.qX;...O.] O.] %.iXuXuXyX",
"qXtX=. .@.#.=.yXuX1.-. ...;.%.-XF.'.E.F.>X3X4X6X%X@X@X#X#X[.#X#X#X#X#X#X#X*X*X*X#X}.}.#X6X-XO. .qX%.uXqXqX=.O.%.1Xo. .yXrX1.1.1.",
"rX1.qX..O.O.#.;.qX;.|  .tXtXiX-XZ.b.l.'.{.oXOX%X@X#X].'.!.!.!.!.!.!.}.}.}.}.#X}.'._._._.'.G.:XO.%.O.qX2X%. .=.tXiXyX+.] ;.1.;.rX",
"1.;.%.%.aXO.] ..+.] -.tX1.1.1.<XV.h.l.U.'.[.[.[.].Q.E.R.R.U.U.U.U.U.U.T.)._.).).T.T.T.).~.Z.>XtX| ' @.O.o.uXrX1.rX1.2X] ] =.rX1.",
";.' @.tXtXuX=.] ] *.qX1.*.-.1.-.F C.h.m.E.'.E.D.m.m.b.l.L.n.z.l.I.I.I.(./././.(.U.L.P.L.P.m.:XtXuX@.] ] 2XqX;.;.1.1.;.+.=.1.qXqX",
"@.%.uX1.1.qXqX*.@.+.1.%.qX*. .] | l Z.m.R.R.m.b.k.b.s.b.n.f.d.s.H.H.Y.^./.(.(.(.~.K.Y.K.Y.m.C.:X=.tX%.%.-.qX#.1.-.] ] ] @.2.;.1.",
"..;.1.1.%.+.%.| O. ...} F ' ..+.uXG x.m.R.L.I.z.n.n.z.L.H.H.H.f.H.K.P.(.(./.(.(./.(.~.~.(.Y.m.V.G ..} ..] ..] ' ] %.@.uX+.' ]  .",
" .O.-.-.O.] O.@...-.tX%.=.*...@.<.:XZ.W.U.I.L.L.H.H.z.z.H.n.c.N.N.N. X X X X X X X X XS.c.v.b.r.l o.O. .uXqX%.-.=.+.=.1.rXuX%. .",
"-.| @.] ] qXiXiXrX..;.1.1.1.;.] -.:XF.R.l.k.z.L.L.L.f.d.H.c.b Q Q Q Q W W W W W W W W W E v y.e.:XaXiX=.%.1.rX1.1.-.] 1.-.rX=...",
"aX;.@.@.%.qXqXqX1.+. .1.1.X.` ] ] =XZ.I.k.k.f.z.f.k.k.f.H.N.Q ^ I K J J J K J J J J J L U Y t.r.G -.1.<.| %.1.1...| ] | ..%.| rX",
"1.1.rX@.o.*.*.1.1.1.} ..] } =.1.tX-XZ.f.k.s.k.s.s.f.z.f.H.N.Q I 3 * * * - - - - - - - 3 K Y t.e.k F %.<.;.] %.] @.*.uXqX| ] %.1.",
"=.qX1.-...O.;.1.1.1.X. ...tXiX2.tX<XV.h.b.f.k.g.k.s.n.H.H.B.Q L *       . X # @ @ + + - H Y V.r.j Z $.qX;. .O. .aXyXrXtXrXO.O.1.",
"O.=.%. . . .;.qX;.1. . .%.1.1.1.1.1X<XC.h.f.j.j.k.f.s.f.H.B.Q L *         . @ @ # @ + - H Y t.e.g V O.qX;.....;.;.qX1.1.1.1.@. .",
"] ] ] ..%.| ] | ..%.} ] } | *.%.1.*.*.=Xh.z.k.j.z.f.k.s.H. XQ P *           o # O @ @ - H c t.e.g d S $...| | | @.-.*.-.*.1.%.X.",
";.;.%.tXuXqX| ] | %.*.uX%.] | <.-.*.} l h.z.k.z.L.f.j.s.s. X>.P =         . o # # @ @ - H c t.h.g d Z | -.1.uX..' @.1.;.%.O.....",
"2XqX1.;.*.;.%...iX1.1.1.1.;.] .. .F | :XV.h.k.z.I.f.j.s.f. X( P =         . @ # # # o = H c t.e.j N  .wXtXtX1.wX%.` $.| ] +.2X .",
"| %.1.*.=.iX..| -.1.1.<.-.1.} | }  .1.*.:XV.h.L.I.z.j.s.f. X>.P =           o # # # o * x c V.r.k f F *.1.1.1.-.;. .]  .+.qXqX*.",
"| %.1.;.1.1.@. .| %.%.-.*.|  .=.*. .F *.<.G h.z.z.f.j.k.f. X>.P *           X o # @ @ - H Y h e.j d F  .$.*.*.;.] %.*.=.|  .1.1.",
"| -.1.+.-.*.| +.+.] tX1.1.} -.uX1.;.| +.<.l h.z.f.f.z.H.H. X>.P =             X # # @ - z x e w.g f  . .+.uX1.-.] uX1.qX%.] -.%.",
"|  .*.-. . . .uXtX ...*.*.| -.1.%.-.} | *.G V.g.l.f.z.f.H. X>.P =               @ # @ - x x t.q.g B 2X2X .%.-.*.| qX<.=.$. .%.$.",
"O. .@.*.=.] 1.wX1.;.`  . ...1.1. .| | F | O.S V.b.z.n.l.f. XQ P *             . @ # # - x c t.e.g Z $.wX+.O.O.O.=.qX;. . . .] | ",
"uX=. .]  .=.qX;.=.rX*. .| ] %.@.| +.wXuXrXuX;.l x.R.n.z.H. XR L *               . X X = J x t.e.j S +.1.uX@. . .| -. . .=.uXqXuX",
"uXuX=.O.O.#.;.;.;.qX;.+. .%. . .*.uX1.qXqXwXuX;XZ.W.U.I.H.B.( L *                   X - J Y e 0.j B @.;.1.1. .@.%.]  .uXuXrXqXqX",
"qXrXyX .o.=.=.qXqXqX+. .;.iXtX+.] *.qX-.qX1.uX>XZ.W.R.I.H.c.b x 3 * * * * * & & & & , 1 z v q.w.j B %.qX1.o.@.yXaX2XO.O.qXqX;.qX",
";.;.-...uX] ] @.=. .+.qXqX1.qX*.] ' +.qXqX1.1.<XG.!.W.I.H.n.c.n x K L L K K J J x z e g.c.y.g.q.g i O.@.] ;.tX1.qXqX=.] ] @.uXqX",
";. .@.qXuXuXo.] ] @.qXqX1.1.tXqX%.O.qX1.1.2X:X>X$X!.W.U.L.H.K.c.b R Q ( / ^ ! ~ P v M.~.K.k.p.r.j f D ] ;.qXtX1.rX;.rX+.;.qXqX;.",
"=. .yXqXqXrXrX#.O.%.1.*.%.1.+. .|  .qX1.1.<XXX$X{.!.R.U.L.H.H.n.c. Xc.m ( ^ ! T |.D.T.~.z.p.8.w.j S D o.;.2.=.;.;.@. .o.#.qXqXqX",
"] ;.tXqX%.;.;.@.+. .%. . .] ] +.=. . .O.%.:XoX[.].!.T.I.L.L.L.H.L.K.J.N.Q ~ ! E A.(.~.L.a.9.0.w p V ] +...;.] o.] ..@.=...O.+.%.",
"@.%.1.;.;.] ] @.O.%.=. . .@...%.1.tX*. .] :X.X].!.W.U.L.k.k.z.L.H.H.J.B._ ^ ~ E A.(.~.z.p.w.g t y d ` %.1X#.] +.@.@.=.rXuX=.o.o.",
"+.| -. .] *.iXiX=.*.wXtXtXuX*...*.-.<.yX[ >X.X'.E.U.I.L.k.k.f.L.L.H.K.B.:.) ^ E A.~.~.L.u.w.t y d F =.@.2.uXtXiXwX%.+.-.-.eX;.| ",
"iX@.|  . .tXtX1.tX .X.1.1.*.] } | %.1.[ XXoX{.!.T.I.I.L.f.L.L.L.L.H.H.N.:./ ! E N.Y.P.f.a.q t f B A =.qX| ;.1.1.%.} ] %.*.-. .;.",
"1.wXwX..O.1.-.1.1.1.| 1.%.}  .%.%.` ` [ XX`.].!.W.I.L.L.L.L.L.L.L.P.H. X_ ^ ! E y.P.Y.z.a.w.t d N F -.<.*.O.-.+.| ..*.@.] | %.1.",
"*.1.1.*.|  .-.1.<.;.| ] | *.iXtXuX1.} [ oX`.!.W.U.I.L.L.L.L.L.L.L.H.K.N.Q ^ ! E N.K.Y.L.a.w.g i F *.-.-.-.| ]  .uXuXuXiX*. .+.<.",
"%.*.-. .$.] -.1.-.1. .} | 1.1.1.<.*.<X;XF.M.E.R.I.L.L.L.L.L.L.H.L.H.H.N.Q ^ ! E c.L.Y.f.a.q.t f F 1.*.1.1.]  .%.1.1.1.1.1.*.| $.",
"` ] |  . . .| | -.*.} ` } $.1.-.1.1X5X.X.X!.R.L.I.I.L.L.H.L.L.L.L.H.K.B._ ^ ! W A.(.~.I.j.e.g f A .. .-.%.] | ..%.1.*.1.;.<.*.| ",
"+.+.%.1.uX%.| ' ` ] X.*. .` ] qX<.<XG.D.D.v.R.I.L.L.f.s.f.L.L.L.L.K.K.B.>.) ! W A.(.^.Y.z.x.m .. .` F '  .%.=.] ] %.1.1.*.+.+.+.",
"rXtXqX1.qXrX+. .uXuXwXtXwX+.] -.$.=XG.`.'.W.I.P.L.s.9.9.f.L.L.L.L.H.K.B._ / ~ E S.(./.Y.z.D.8XsX2...%.uXiXrXtXuX .| 1.O.]  .%.| ",
" .*.1.-.%.;.O...-.1.<.<.<.1.` ] [ |.{.].'.R.L.z.s.i.6.6.s.K.L.L.L.H.d.N._ ) ! W  X(.(.~.Y..X0XdXsX&.%.<.1.1.<.1.1.| ` ] @.tXuX+.",
"..O.1.1.1.1.%...| ;.*.<.<.X.| :XXXF.{.'.R.L.k.g.8.6.8 6.s.H.L.L.L.d.8.e Q ) ! c  X(.Y.P.Y.@X0XfXfXsX&.#.<.-.<.-.+. .$. .] +.<.<.",
"| *.1.%.1.*.] ..| ] qX1.*.| *.4XoX[.[.!.W.n.k.u.6.8 8 6.s.H.L.L.H.s.5.w R ) ^ W  X(.Y.Y.(.@X9XfXdX,.&.]  .qX-.<.] tXrXtXX.] -.*.",
"| %.;.%.%.+.| rXrX .%.1.*.} %.<XG.[.'.T.U.L.k.u.6.8 8 6.s.H.L.L.P.d.6.r R ^ ~ c  X(.~.~.J..X8X3.,.{ yX*.O.1.<.-.] qX1.-.*.] *.%.",
"| | X.1...] -.tXwX=.F $.+.| <X6XF.'.W.R.L.z.g.9.8.6.6.9.f.L.L.f.f.i.9.e R ! R b M.(./.~.Y.M.|.{ {  ...2.| | $. .%.1.-. ... .]  .",
"rX| ] |  ...1.1.-.wX+.F } [ 5X$X{.'.W.U.P.k.8.8.p.d.s.d.f.L.L.d.9.8.s.t.R ( m M.I.P.^.~.L.n.y.N.d C C F $.| ]  . .qX..]  .;.%.=.",
"uXuX..|  .%.-.+.+.qX<.%.` -XG.[.[.!.R.L.L.a.4.5.s.L.Y.L.L.L.L.s.6.6.d.c.b b  X(.P.P.~.Y.L.s.a.q.j a u N %.1. . .] ` ] 1.iXwXrXqX",
"1.rX1X . .=.*.tXtXqX%.O.%.4X$X].'.W.l.l.L.j.8.4.d.L.H.L.L.P.H.s.6.6.s.z.c.c.T.(.P.L.~.~.L.s.s.q.j s N A %.%.O.2XaX%...+.wXqX1.1.",
"1.qX;...=. .] ;.2X=. .@.4X6X$X'.E.U.n.z.I.f.9.8.i.d.J.f.d.s.s.i.8.8.s.H.K.K.~.~.P.~.~.~.L.z.g.r.g y B F F $.2XqXtXwXO.] =.=.rXqX",
";.%.#.;.aX-.] ] O.O.yX4X5X$X{.!.W.I.z.I.Y.Y.f.i.8.8.d.d.8.6.5.8.i.s.j.k.L.L.P.U.~.^.^./.P.L.z.x.j a Z ' +.iXeX1.qXqXyX` @.2X1.qX",
";.] -.rX1.tXqX| ] %.1.:XG.].].!.T.I.L.L.Y.Y.P.b.t.N.A.D.V.e 7.9.d.L.s.k.k.L.L.P.~.)./.^./.T.P.m.V.l S ] qX<.=.<.qX*.+. .%.1.1.1.",
"| ;.1.;.*.-.1.-... .*.:XF.!.!.U.U.I.L.f.n.f.H.D.7X9X9X9X9X7XA.s.f.L.L.k.k.k.z.P.~.(.^.^./.~.^.T.m.V.G @...qXO.=. .`  .+. ...%.*.",
"| %.<.<.*.] O.| ..+...G Z.P.U.P.H.L.H.b.d.s.f..X0XfXfXfXdX7XD.H.L.L.L.z.j.j.k.U.~./.~.^.^.^.^.~.~.h.G O.O.F  .F  ...*.tX=.O.` ] ",
" ...-.%.|  .;.=.+.-.iX>XD.L.z.z.n.z.f.s.f.f.H..X0XfXfXdX+XD.b.z.H.L.L.z.j.j.z.P.~.~.U.P.~.^.P.L.z.x.=X*.pXpX-.wXrXO.%.1.1.rX;. .",
"uX|  .} ] yXtXuXuX| *.,XC.r.7.7.7.8.p.f.f.L.H.D.7XdX9X7XM.s.s.a.z.H.H.z.j.j.z.P.~.^.P.P.^.~.L.k.k.x.=XF ..-.<.1.-...| -.1.1. .+.",
"tXtX;. .%.<.<.qX1.-. .1X,Xj , : : 6 9.L.L.f.a.g.Z.S.A.Z.g.p.u.p.a.k.s.s.j.k.L.L.P.P.U.^.^.~.L.l.z.x.G F F *.qX*.]  . . .]  . .uX",
"*.1.qX;.| *.*.1.1.;.} } ` N 2 O   + 7 9.d.d.g.u.i.9.8.6.8.8.8.0.9.9.u.u.u.p.j.j.j.L.L.~.~.P.P.L.L.h.g i } `  .] %.uXiXiX+.| =.<.",
"*.1.1.%.| ] ;.1.-.1...|  .$.f 2 o . + 6 8.s.u.8.6.6.6.6.7.7.8 8 8 7.7.6.8.9.9.9.u.s.z.L.L.L.L.L.L.9., < A ] ..+.tXtX1.1.<.$.| *.",
" .] ..| ..| +.$.-.-. .} | $.F i < o   + 6 8 7 7 9 q q q 0 0 0 9 0 9 0 q q q w w.w.0.0.4.8 8 7.4.4.6 + $ M | } +.;.1.1.1.1.1.+.| ",
"|  .| @.rX..] ] ` O.| ....F } A i 2 o . + : : > 1 j y t t r r t r y r t j p p p j r , : : : + : : + . $ i  .+. .] %.-.1.*.-.%...",
"rXuXrXtXtXuX..| =.1.tXuX1.| | *.F 5 ; O % % $ < u N B s y u f B N M u y f f i y y y ; # $ % % $ $ + # < V wXeX-. . .1.*. .] | ..",
"..-.<.-.%.=.*.| rX1.<.1.1.1.] } F M y y 5 2 4 y d s i d u f f f s M N i y y y u N f 4 4 y 5 4 4 y 4 4 y N F =.qX;.`  .'  .qXpX..",
"| %.1.1.rXiX%.| X.1.1.<.*.*.| | ..F A M M y y M M B A S f f V F V V V f a f a N Z Z M i i M N N B i y i N V $.;.%. . .+.+.*.1.%.",
"..*.1.1.1.;.+. . ...*.*.%.| %.uXqX$.F F V i y M M Z O.F F F F } +.F | F @.2X} F F $. .Z V f s M s y u i i B  .;. .2XyXrXO. .1.1."
};
