/* XPM */
static char *_c5a6689012c43ee92bfd73a32a873ddfdKkwkv86OEHB5rF[] = {
/* columns rows colors chars-per-pixel */
"64 64 153 2 ",
"   c None",
".  c #000001",
"X  c #050409",
"o  c #0C0D0D",
"O  c #0D0E12",
"+  c #0E051C",
"@  c #0F1014",
"#  c #111213",
"$  c #2F2A00",
"%  c #2B240D",
"&  c #322E01",
"*  c #363103",
"=  c #3B370C",
"-  c #3D390B",
";  c #3B3705",
":  c #100621",
">  c #15082B",
",  c #1B0A39",
"<  c #261A32",
"1  c #423D0D",
"2  c #48353E",
"3  c #574B0E",
"4  c #5E5503",
"5  c #250D4C",
"6  c #270E51",
"7  c #33126C",
"8  c #3A1675",
"9  c #603D5E",
"0  c #5E3B62",
"q  c #583369",
"w  c #62397F",
"e  c #674073",
"r  c #836B25",
"t  c #8C7135",
"y  c #997842",
"u  c #946D59",
"i  c #9B735C",
"p  c #A37B5A",
"a  c #855B74",
"s  c #946777",
"d  c #93657B",
"f  c #958500",
"g  c #9A8A01",
"h  c #A39202",
"j  c #A6950C",
"k  c #AA9B0E",
"l  c #B09E00",
"z  c #A99910",
"x  c #B1971D",
"c  c #B6A400",
"v  c #BFA70A",
"b  c #9C832B",
"n  c #A7872E",
"m  c #A7882F",
"M  c #AB8C2E",
"N  c #AE9224",
"B  c #B49625",
"V  c #B59929",
"C  c #A78830",
"Z  c #AA8A34",
"A  c #B49336",
"S  c #B79B37",
"D  c #BB9A34",
"F  c #B89739",
"G  c #BC9B3A",
"H  c #C7B200",
"J  c #C9B400",
"K  c #CEB60B",
"L  c #D3BC01",
"P  c #D2B817",
"I  c #C3A42A",
"U  c #C7A935",
"Y  c #D7C109",
"T  c #D9C30D",
"R  c #BD9D43",
"E  c #A98163",
"W  c #C09F40",
"Q  c #C3A243",
"!  c #3A1280",
"~  c #3E138B",
"^  c #3F1292",
"/  c #401983",
"(  c #481E81",
")  c #41158E",
"_  c #43198B",
"`  c #471A91",
"'  c #44149B",
"]  c #48179D",
"[  c #4A199D",
"{  c #4C228C",
"}  c #663B8A",
"|  c #4D1AA4",
" . c #4D18AB",
".. c #541DB4",
"X. c #561DB9",
"o. c #591EBE",
"O. c #5621AE",
"+. c #5C2AAB",
"@. c #5721B2",
"#. c #5921B6",
"$. c #5B21BE",
"%. c #6E39A2",
"&. c #733DA4",
"*. c #743DAA",
"=. c #642ABA",
"-. c #602AB5",
";. c #793FB4",
":. c #763DB4",
">. c #6A4883",
",. c #75468E",
"<. c #754294",
"1. c #7A4696",
"2. c #7D4996",
"3. c #774398",
"4. c #79459B",
"5. c #7E4A9B",
"6. c #704992",
"7. c #7640A5",
"8. c #7C47A2",
"9. c #7E48A4",
"0. c #7744A9",
"q. c #7F50AD",
"w. c #7A41B3",
"e. c #7B46BC",
"r. c #7642B8",
"t. c #5A1EC4",
"y. c #5B1DCB",
"u. c #571AC7",
"i. c #5D21C3",
"p. c #5E22CA",
"a. c #6022C7",
"s. c #662CC2",
"d. c #6124CB",
"f. c #6C2ECB",
"g. c #6526D3",
"h. c #6728D7",
"j. c #6929D6",
"k. c #6524DB",
"l. c #6827DB",
"z. c #6828D9",
"x. c #6624E0",
"c. c #844DA5",
"v. c #8653B9",
"b. c #A77CB2",
"n. c #B49599",
"m. c #BB95AC",
"M. c #D3BA93",
"N. c #DCBEA2",
"B. c #FEE89C",
"V. c #FFF997",
"C. c #FFF799",
"Z. c #FFF998",
"A. c #E9CEA1",
/* pixels */
"                                                                                                                                ",
"                                                                                                                                ",
"                                            z.z.z.z.z.z.z.g.a.i.i.i.i.i.i.i.i.i.i.i.                                            ",
"                                            z.h.g.g.h.z.h.d.p.i.i.i.i.i.i.i.i.i.i.i.                                            ",
"                                        z.z.z.g.d.d.g.g.d.p.i.i.i.i.i.i.i.i.i.i.i.i.i.i.i.$.@.@.$.p.                            ",
"                                        g.g.g.d.p.a.g.g.p.i.i.i.$.$.i.i.$.$.$.$.$.$.i.i.$.$.#.#.$.i.                            ",
"                                    l.g.d.a.p.p.i.p.g.g.p.i.i.$.#.#.$.$.#.@.@.@.@.#.$.$.#.#.$.$.i.i.                            ",
"                                    l.g.p.p.p.y.p.d.g.l.d.p.t.t.#.X.$.i.#.@.@.@.@.#.i.i.#.#.#.p.i.i.                            ",
"                                i.p.g.k.y.y.g.k.k.k.l.l.k.p.y.t.t.t.i.i.$.$.$.$.$.$.i.i.$.$.                                    ",
"                                p.=.*.8.1.1.4.c.c.c.c.c.c.c.c.2.1.&.-.t.$.i.i.i.i.$.$.$.i.i.                                    ",
"                                y.%.u C m C Z A F G G G G G D D D p &.o.X.#.i.$.#.@.@.#.$.p.                                    ",
"                                y.3.C c h f f g j h h h h h g l H D 2.t.X.#.#.$.#.@.@.#.$.i.                                    ",
"                                k.9.Z h 4 = = 1 1 1 1 1 * & & 4 l D 2.u.t.#.#.#.$.$.$.$.i.i.                                    ",
"                                x.9.Z g = O O O # # o X . . . & h G 2.u.t.$.@.@.#.p.i.i.i.i.                                    ",
"                                x.9.Z f = O # # # O X . . . . * j W 5.t.p.$.@.@.$.i.i.i.                                        ",
"                                x.c.Z f - O # # # o X . . . . * k Q c.t.t.#.#.#.i.i.i.i.                                        ",
"                                k.9.Z f = @ @ # # # . . . . . * k Q 5.t.X.#.#.$.i.i.i.i.                                        ",
"                                x.9.Z f = @ # # # o . . . . . * z Q 5.t.#.@.$.i.i.i.i.i.                                        ",
"                                x.9.Z f = # # # o . . . . . . * z Q 5.o.X.O.$.p.i.i.                                            ",
"                                k.8.Z f - O # O . . . . . . . * j R 5.t.X.#.$.i.i.i.                                            ",
"                                y.3.C f = @ # O . . . . . . . & h G 2.t.t.$.i.i.i.i.                                            ",
"                                y.3.Z f - # # O X . . . . . . * h D 5.t.i.$.$.i.i.i.                                            ",
"                                k.9.Z g - O # O X . . . . . . & h D 2.t.X.#.$.i.                                                ",
"                                k.9.Z g - o o o . . . . . . . & h D 1.t.X.#.$.p.                                                ",
"                                y.1.M g ; o X . . . . . . . . & h D 2.t.t.$.i.i.                                                ",
"                                y.*.i t 2 < % $ $ $ & & * * & 3 b p &.t.t.i.i.i.                                                ",
"                                g.f.w.&.+.} r f g r g j k k k b a &.=.i.i.i.i.i.                                                ",
"                                z.l.k.k.x.r.i B H H L P U Q Q E &.u.t.t.i.i.$.i.                                                ",
"                                    z.l.z.j.;.d B H L I d 5.c.&.=.t.t.a.i.i.i.i.i.i.                                            ",
"                                    g.g.z.z.x.9.Z H L A 3.u.u.t.t.a.$.$.i.i.i.i.i.i.                                            ",
"                                    p.d.g.k.x.0.Z H L A 3.u.u.t.a.#.#.#.$.i.i.i.i.i.                                            ",
"                                    i.p.d.l.l.4.Z H L F 1.y.p.p.a.$.#.#.$.i.i.i.i.i.                                            ",
"                                    i.a.p.p.y.<.C J Y R 5.t.t.a.t.a.$.$.i.i.i.i.i.i.i.i.                                        ",
"                                    a.d.i.i.y.<.C J T R 5.t.t.o.i.$.i.i.i.i.i.i.i.i.i.i.                                        ",
"                                    g.d.p.t.y.<.n J T R 5.u.t.a.i.i.i.i.i.i.i.i.i.i.i.i.                                        ",
"                                    z.d.p.p.y.3.C J T G <.X.t.$.i.i.i.i.i.i.i.i.i.i.i.i.                                        ",
"                                    z.g.p.p.g.4.Z J T S w ' X.i.a.$.a.a.a.a.$.i.i.i.i.i.                                        ",
"                                    z.g.d.p.g.0.Z J T V 0 ^ ..t.i.a.o.o.....o.i.i.i.i.i.                                        ",
"                                    z.g.p.p.k.9.Z H L N 0 ^ ..t.a.i.i...[ [ X.a.a.i.i.i.i.i.                                    ",
"                                    z.g.p.y.k.9.Z J L N 0 ^ ..a.t.i.t.O.) ) ..$.$.$.i.i.i.i.                                    ",
"                                z.z.z.g.p.p.g.9.M H L N 0 ^ ..t.a.t.a...) ) O.$.#.#.$.p.i.i.                                    ",
"                                g.h.z.g.d.d.k.;.i B K B 0 ^ X.t.=.t.a...) ) ..o.#.@.#.t.i.i.                                    ",
"                                a.d.g.z.h.g.g.f.:.d I x 9 ) ..t.a.a.i...) ) ..$.@.@.$.a.i.i.                                    ",
"                                i.p.g.z.z.z.z.k.x.v.p y q ~ ..y.i.o.X.| ) ) ..$.#.#.$.i.i.i.                                    ",
"                                $.p.g.z.z.z.z.z.z.f.0.} ( ~ ..y.a.X.] ~ 8 ) ..i.a.$.i.i.i.i.                                    ",
"                                i.p.g.z.z.z.z.z.g.d.y.X.] '  .....| ~ ! ~ | X.i.a.i.$.a.$.$.                                    ",
"                                i.p.g.h.z.z.z.g.a.#.t.u.X. .^ ^ ~ ! ! ~ | X.$.i.t.i.i.$.#.#.$.t.                                ",
"                                a.d.h.h.z.z.z.d.#.@.X.s.e.q.6.>.>.} { ] X.p.i.i.i.i.i.$.#.#.$.a.                                ",
"                                g.g.j.z.z.z.z.d.#.@.o.e.m.N.M.M.M.n.0.X.o.i.i.i.i.i.i.i.$.$.$.i.                                ",
"                                g.z.z.z.g.g.h.f.#.#.o.v.N.C.C.B.A.m.e.t.t.i.i.i.$.$.$.i.i.i.i.i.                                ",
"                                a.d.g.g.d.d.g.d.#...o.v.N.Z.Z.A.b.e.s.t.i.i.i.$.#.@.@.#.i.i.i.i.                                ",
"                                i.a.g.g.a.a.g.g.$...t.e.m.N.N.m.r.t.t.i.i.i.i.$.#.O.@.#.#.$.i.i.                                ",
"                                a.a.g.g.a.a.g.g.i.$.$.s.e.v.v.r.-.X.$.i.p.i.i.$.@.@.#.$.#.#.i.i.                                ",
"                                a.d.d.g.d.d.g.g.p.p.a.i.i.i.t.o...O.#.$.$.$.i.$.@.@.$.$.@.@.$.i.                                ",
"                                g.d.d.d.d.z.z.g.p.i.p.a.t.t.t.t.@.O.@.@.@.#.i.$.@...$.$.#.#.$.i.#.O.                            ",
"                                z.g.d.d.g.z.z.d.i.@.[ [ #.p.i.#.@.@.#.#.#.#.$.$.#.#.$.i.#.#.#.#.@.O.                            ",
"                                    h.h.h.h.d.a.#.` 5 6 | a.$.@.@.#.$.a.$.$.i.$.$.$.i.i.$.#.#.@.O.O.                            ",
"                                    z.z.z.g.a.i.#.8 + + 7 _ _ / 8 _ _ [ @.p.a.i.i.p.i.i.p.$.@.O.O.O.                            ",
"                                                    X X : > > > > > > ,                                                         ",
"                                                    . . . . . . X . . .                                                         ",
"                                                                                                                                ",
"                                                                                                                                ",
"                                                                                                                                ",
"                                                                                                                                "
};
