/* XPM */
static char *satoshi_walk_left21676886652[] = {
/* columns rows colors chars-per-pixel */
"64 64 228 2 ",
"   c #010101",
".  c #06050A",
"X  c #0C0D0D",
"o  c #0E120B",
"O  c #0C0A16",
"+  c #0F1013",
"@  c #121213",
"#  c #161A12",
"$  c #1D2417",
"%  c #2E2902",
"&  c #322D00",
"*  c #383305",
"=  c #3E3A0D",
"-  c #252C1E",
";  c #110624",
":  c #150D26",
">  c #241B33",
",  c #2E3826",
"<  c #403B0D",
"1  c #37452E",
"2  c #5B5206",
"3  c #414D33",
"4  c #465639",
"5  c #4E603E",
"6  c #260D4F",
"7  c #36146F",
"8  c #3A157A",
"9  c #3F2A64",
"0  c #493741",
"q  c #472B79",
"w  c #4C3270",
"e  c #643C76",
"r  c #4C4F4F",
"t  c #545956",
"y  c #4F6244",
"u  c #536543",
"i  c #586A46",
"p  c #576A48",
"a  c #5B6D4A",
"s  c #5D734B",
"d  c #5E784C",
"f  c #5A635B",
"g  c #61754D",
"h  c #617A4E",
"j  c #616F5F",
"k  c #637755",
"l  c #647D52",
"z  c #4F4469",
"x  c #554C70",
"c  c #5E6762",
"v  c #656E69",
"b  c #6C796C",
"n  c #747A79",
"m  c #91772A",
"M  c #9B735D",
"N  c #A37B58",
"B  c #926A6A",
"V  c #926578",
"C  c #668154",
"Z  c #698256",
"A  c #6B865A",
"S  c #6E8B59",
"D  c #738B5D",
"F  c #73905F",
"G  c #788F6A",
"H  c #7B9464",
"J  c #7A9664",
"K  c #7A8778",
"L  c #948500",
"P  c #998A06",
"I  c #A39202",
"U  c #A7960B",
"Y  c #AA990A",
"T  c #BEA90B",
"R  c #A98B2D",
"E  c #B49727",
"W  c #AA8B34",
"Q  c #AB8B34",
"!  c #B99836",
"~  c #CAB400",
"^  c #CEB50B",
"/  c #D3BD02",
"(  c #D0B613",
")  c #C2A328",
"_  c #D8C30C",
"`  c #AD8F40",
"'  c #AF9143",
"]  c #B79842",
"[  c #809A66",
"{  c #819668",
"}  c #849D6A",
"|  c #818F7D",
" . c #869779",
".. c #A3816C",
"X. c #86A26B",
"o. c #89A56D",
"O. c #87AA6D",
"+. c #8BAA6E",
"@. c #8DB06F",
"#. c #8BA671",
"$. c #8DAC72",
"%. c #8AA975",
"&. c #91AF75",
"*. c #92AF78",
"=. c #8EB273",
"-. c #8DB178",
";. c #92B475",
":. c #9CB173",
">. c #94BB76",
",. c #94B579",
"<. c #96BB7A",
"1. c #99BD7D",
"2. c #A3B679",
"3. c #C09F40",
"4. c #C2A144",
"5. c #97C07A",
"6. c #99C27D",
"7. c #A5C57D",
"8. c #3E138A",
"9. c #3E1191",
"0. c #401885",
"q. c #41158D",
"w. c #44198D",
"e. c #461797",
"r. c #461993",
"t. c #4A1B9B",
"y. c #4B2B84",
"u. c #523688",
"i. c #51308D",
"p. c #583597",
"a. c #633D8C",
"s. c #4E1CA2",
"d. c #4E1AAA",
"f. c #511EA5",
"g. c #521EAB",
"h. c #551EB4",
"j. c #581FB7",
"k. c #561DB9",
"l. c #591FBB",
"z. c #5828A7",
"x. c #5520AE",
"c. c #5D34A7",
"v. c #5721B2",
"b. c #5922B6",
"n. c #5D2AB5",
"m. c #5B21BD",
"M. c #743EA4",
"N. c #622AB8",
"B. c #6B38B6",
"V. c #6A4F91",
"C. c #794796",
"Z. c #7D4A9A",
"A. c #6D569F",
"S. c #726B8C",
"D. c #6E49AF",
"F. c #7C47A5",
"G. c #7944B6",
"H. c #7856BB",
"J. c #5A1EC4",
"K. c #591CCA",
"L. c #5D21C3",
"P. c #5E21CA",
"I. c #662DC4",
"U. c #6124CC",
"Y. c #662BC9",
"T. c #652ACA",
"R. c #6D36CA",
"E. c #733ECB",
"W. c #6526D4",
"Q. c #6728D4",
"!. c #692BD6",
"~. c #6625DB",
"^. c #6A2BDA",
"/. c #6E33D5",
"(. c #7238D7",
"). c #6625E1",
"_. c #7745CB",
"`. c #7C59C5",
"'. c #7944D4",
"]. c #7B44DB",
"[. c #7B45E1",
"{. c #814BA7",
"}. c #8657A6",
"|. c #8A5AAC",
" X c #8857BA",
".X c #8676AD",
"XX c #8568B9",
"oX c #8B74BA",
"OX c #825CCA",
"+X c #8450D3",
"@X c #8555D8",
"#X c #8564C6",
"$X c #916FCB",
"%X c #9578C8",
"&X c #8A59E1",
"*X c #7E8A81",
"=X c #828A84",
"-X c #889687",
";X c #8D9794",
":X c #B4939C",
">X c #8EA48B",
",X c #94A48A",
"<X c #9ABD81",
"1X c #97B28D",
"2X c #95A795",
"3X c #96AB94",
"4X c #A4B59A",
"5X c #918DAC",
"6X c #BA94AA",
"7X c #D7BC9C",
"8X c #D5BFA9",
"9X c #9DC582",
"0X c #9EC884",
"qX c #9EC388",
"wX c #A1C686",
"eX c #A0C986",
"rX c #A3C888",
"tX c #A3CC8A",
"yX c #A8D08F",
"uX c #ADC693",
"iX c #A7D091",
"pX c #ABD293",
"aX c #D3CF93",
"sX c #F3E69B",
"dX c #FFF799",
"fX c #DEC1A8",
"gX c #E4CBAE",
"hX c #F7ECA7",
/* pixels */
"o.1.9X$.9X,.o.,.,.#.rX0X5.X.<.eX5.9Xo.$.6.o.$.9X<.<.1.o.;.1.o.<XtX<.%.#.yX6.6.@.O.6.#.#.6.1.*.6.$.#.<X&.$.iX9X1.} tX6.wX,.o.1.,.",
"X.o.>.6.} } $.eXrX&.X.>.>.o.<.5.;.>.X.[ =.o.} ,.1.$.X.} yXwX,.X.>.>.+.>.6.>.@.o.X.-.o.X.=.<.<.} } <XeXwX} ;.1.;.$.6.6.$.;.X.+.+.",
";.} X.=.&.o.9X6.1.1.o.} } } 6.5.X.J %.%.-X3X;X-X-X,X-X3X3X3X3X-X| =X| ,X3X-X=XK %.H -.%. .-X,X .;.6.6.6.;.} } o.#.9X>.{ } $.} +.",
"iXwX#.} } ,.6.,.$.9X1.#.+.o.X.o.#.<XtX4X5X%X%X%X$X$X%X%X%X%XoX%XoXXXoXXXoXXXH.5X4XiX0XuX.XXXH.A.>X6.%.1.9X1.O.#.X.#.o.,.tXtXtXrX",
"9XrX,.o.#.,.<.wXtX6.<.O.+.1.$.o.%.wX1X5X%X&X@X&X&X&X&X&X&X@X'.OX'.+XOX'._._._.H.5X>X1X5X#XE.I.p.-X;.tXwX6.<.#.,.<Xo.#.<XwX9X6.6.",
"9X9X9X+.&.#.&.1.9X1.X.#.0XeXtX;.} >X5X$X&X@X].'.].].].].'.(.E._._._.E._._._.R.E.H.oXoX#X_.m.t.u.K #.6.<X,.o.;.eXpXwX&.#.6.1.1.0X",
"6.1.,.&.iX#.} #.$.} <.rX6.6.9X9XX.*X$X&X&X].R.R.(.(.(./.Y.I.I.I.I.I.Y.I.I.N.I.R._._._.E.m.z.i.V.b H o.o.} rXwX9X9X6.<X} } ,.eX9X",
"1.{ &.eXeXtX,.} } ,.6.5.>.5.9X1.+.-X$X].'.R.I.U.W.^.^.~.T.L.L.I.b.n.N.L.n.n.n.N.B.B.R.L.s.u.v A G G { } wX6.1.1.9X9X<X#.,.6.6.9X",
"$.;.rX9X6.9X9X<.&.$.6.;.6.<.o.}  ..X#X].(.T.U.W.~.~.~.W.P.P.K.l.b.l.L.m.m.v.n.b.N.N.L.b.t.u.v C l D X.;.,.9X;.7.,.} o.o.#.6.1.<X",
"o.<.0X6.;.+.;.} $.o.+.X.H [ +.-X5X#X@X].(.^.~.~.~.~.~.^.~.W.P.J.J.J.L.L.l.J.l.N.m.L.b.h.t.u.f h a l H +.X.O.} { } &.$.rX%.} X.o.",
"O.$.<.>.#.} #.;.+.<.wX;.,.,.+.-X`.OXXX|.|.}.{.{.{.{.{.{.{.{.C.Z.C.M.N.J.l.N.U.l.L.L.b.g.s.i.f a s D X.$.wX9X;.1.,.+.,.6.wXtX,.X.",
"<.} =.} } 9XiXiXwXO.<.6.6.6.1.=X`. XN ] Q Q Q W Q Q Q Q W W ! ) E N M.J.j.j.l.U.L.b.g.f.s.y.t g -.9XwX,.&.9X6.6.6.<.} 6.>.wX,.+.",
"pX1.#.;.=.9X9X9X6.$.o.6.6.@.H =XH.}.! T I L L L L L L L L L P Y ~ ! C.b.k.j.m.m.l.h.s.t.r.y.t G -.0X6.6.} ,.6.6.O.} } o.+.,.X.wX",
"6.6.eX;.O.<.>.6.6.5.X.$.X.X.;.3XOX|.` U 2 = = = < = < = & % & 2 Y ! {.l.m.j.b.v.x.g.s.r.w.y.t l $.5.6.5.<.o.;.} #.<.wX9XX.} ,.5.",
"*.6.9X<.#.#.1.5.6.6.$.X.o.wXrX2XOX|.' P = O O @ @ O X .       & I ! {.l.J.N.h.g.x.t.t.w.q x f g o.6.6.6.1.o.#.#.pXtX9XrX9X$.+.1.",
"&.,.,.o.#.o.1.9X1.6.o.o.;.9X<X2XOXXX' P = O O @ @ X X         & I ! {.h.l.j.l.j.z.r.t.y.x f i l H 9X,.9X6.+.#.<.6.wX9X6.6.6.&.o.",
"} [ } +.,.X.[ X.O.=.X.} X.X.>.;X`.|.' P = + @ @ @ o           & U ! Z.l.h.v.l.b.x.t.r.q t u s C H X.} =.O.X.} o.&.<.>.5.<.5.,.=.",
"<.<X,.eXtX6.X.} X.;.>.rX;.J o.;X`.|.' P = + @ @ @ X .         * Y ! {.k.v.h.l.h.t.r.w.y.t k A J X.} } X.<.9XeX+.} $.6.<.;.o.O.+.",
"<X9X<.<.1.1.,.+.yX6.0X5.0X<.X.-X`.|.' P = + @ @ @ o .         * Y 4.{.b.h.v.k.g.s.w.q z j C S J ,.+.,.0X0X0X6.wX;.} $.X.} $.<Xo.",
"o.;.6.<.,.tX+.X.>.6.6.5.>.6.} =X`.|.' P = @ @ @ # @           * Y 4.F.l.v.v.h.g.t.y.z t d S J ;.9XO.o.1.7.6.6.<.1.X.X.o.$.0X9X,.",
"o.;.6.6.6.<.,.o.} ;.;.<.>.#.%.;X`.|.' P = + @ @ @ X           * Y 4.{.K.k.g.g.s.r.y.f a h S @.5.6.X.X.#.;.>.<.<.X.=.<.,.} +.5.6.",
"X.<.6.#.5.>.X.+.$.} 0X9X5.H <.2X`.F.' P = @ @ + .             * Y 4.Z.J.l.g.g.t.w.q t a l S o.5.+.o.;.#.%.tX6.<.} wX6.9X;.} >.;.",
"X.o.>.<.o.o.o.tXrXO.+.>.>.o.<.>XH.}.' P = + @ + .             * Y 4.Z.J.k.g.t.w.q z t i l J #.#.X.>.pX<.X.,.<.>.X.9X5.;.=.o.;.=.",
"+.X.;.<.,.} 6.0X6.<.} O.o.$.6.;X`.|.' P = + + +               & I ! Z.J.b.s.t.y.z t a h D O.1.#.#.0X9X9X&.o.o.+.,.9X1.#.o.#.} X.",
"rX;.#.} } ,.wX1.,.tX<.X.o.} ;.;XH.|.W P < X X X               & I ! {.k.g.f.t.y.v l A F J #.#.o.9X9X<.9XrX;.o.o.X.<.} #.,.yX9XtX",
"tXtX;.#.*.#.1.1.<X6.<.;.o.$.o.=XH.}.] P < X                   & I ! C.J.k.g.f.u.c A C J <X%.#.#.,.,.<X1.9X1.o.&.;.} #.rXtXqX9X9X",
"wX9XwX#.#.;.,.9X6.wX+.o.<.pXwX-XH.F...m 0 > % & % % & & & & % 2 R N M.J.l.h.f.i.c A F H <X1.o.X.1.,.6.9X1.o.;.wXpX<X#.#.9X9X6.6.",
"<X6.<.#.pX} } &.<.#.#.6.9X6.9X;XH._.G.D.g.u.m P m L P I I I P R B c.N.l.l.j.g.i.c J J >.<.-.,.<Xo.} 1.#.#.1.rX6.qX9X;.o.} ;.tX9X",
"1.X.&.9XtXtX#.} } &.6.wX6.6.9X2X_.!.~.).).G.M E ~ ~ ^ ( ) ! ! N M.K.J.L.J.l.j.c.V.b O.;.#.,.tXtX<Xo.} } 1.wXwX1.wX6.wX#.,.9X9X6.",
"<.o.wX6.9XwXwX&.o.,.6.<.,.6.%.=XD.L.U.~.~.R.B.V R ~ / ) V Z.C.M.N.J.L.L.L.l.l.m.c.V.-XO.,.tX1.wXqXqXo.#.<X9X,.<.1.&.o.o.&.wX9X9X",
"} 1.wX9X,.1.1.&.&.o.,.#.+.} }  .A.D.L.T.~.~.).F.W ~ / ! C.K.K.K.J.J.N.J.L.L.L.L.J.c.n o.tX7.1.1.<.<.%.;.#.1.} #.{ o.&.<X#.#.#.;.",
"&.,.6.1.,.} } &.#.;.,.} X.+.+.*.>XS.B.P.!.^.).F.R ~ / ] Z.K.K.K.J.L.b.j.m.m.U.l.l.p.K #.<.6.1.$.} } $.;.,.&.#.&.&.&.,.9XtX1.o.#.",
"$.o.<.O.[ ,.yXyX>.<.6.eXeX0X>.+.<.| D.Y.!.^.W.C.W ~ ( 3.Z.J.J.L.L.m.j.b.L.L.m.m.b.c.V.G %.>.X.X.9XiXqX=.6.tXeXtXeX,.$.6.<.0X6.o.",
"yX&.} O.+.wXtX6.tX+.@.6.6.>.} } X.K D.R./.^.U.C.R ^ _ 4.Z.K.J.L.L.L.m.L.L.L.L.L.L.b.p.V.K J } >.qX0X9X6.o.1.6.6.;.X.} ;.;.5.o.<.",
"6.9X9X+.#.6.<.6.6.6.X.<.;.X.+.;.;.n D.E./.^.U.M.m / / 3.Z.K.P.L.L.L.L.L.L.L.L.L.L.m.x.p.*X6.=.>.<.>.9X6.<.#.<.$.X.+.<.$.{ X.$.9X",
">.6.6.<.} O.<.5.6.<.O.[ X.<.tXtXrX>XG.R./.^.U.a.Q ~ / ! Z.J.J.L.L.L.L.L.L.L.L.L.L.m.z.u.K 0X-.X.;.6.5.6.>.X.} o.rXeXtXyX<.+.$.5.",
";.<.<.o.=.} 1.6.>.6.+.X.+.6.6.5.6.>XH.E.(.~.W.M.R ~ / ! C.J.J.L.L.J.L.L.L.L.L.L.L.b.g.p.S.H X.#.o.6.<.6.6.} o.;.6.6.6.5.6.<.X.$.",
"[ } X.o.o.X.X.o.<.;.X.[ X.;.5.>.6.>XH.(.(.^.~.{.Q ~ ^ 3.Z.K.K.L.L.L.L.L.L.L.L.L.L.b.v.s.p.a.K o.[ @.o.<.;.} o.#.,.6.>.6.1.6.>.o.",
"$.$.;.1.tX;.X.H { X.+.>.o.[ X.wXrX4XoX_.(.^.~.M.Q ~ _ 3.Z.K.J.L.L.L.L.l.j.j.L.L.L.L.b.v.b.p.-XwX;.} { [ X.,.>.X.} ,.6.6.,.&.O.+.",
"wX0XwX6.9X0X;.o.rXeX0X0XwX+.} 7.aX8X$XE.(.^.~.{.Q / ( 3.Z.K.J.L.L.J.J.j.t.t.l.L.L.L.L.m.b.p.| wX9XO.$.tXtXeXeXwX+.X.6.+.J X.;.+.",
"X.1.6.>.;.1.#.O.<.6.5.5.5.wX$.uXsXgX%X(./.^.~.F.Q ~ _ 3.C.k.J.L.L.L.P.h.q.q.d.k.l.J.L.l.m.z.S. .;.+.=.<.6.6.6.6.1.X.} } ;.9XtX$.",
"+.+.6.6.6.9X<.o.o.>.>.>.5.2.aXsXhXgX$X/.Y.W.~.F.W ~ _ ! e e.k.L.L.L.L.h.q.q.q.q.d.j.l.L.m.m.N.V.-X#.X.;.<.>.5.>.+.o.$.+.} $.5.5.",
"X.,.6.=.6.>.} o.o.} 9X6.>.2.sXhXhXgX$X^.U.U.~.Z.Q ~ ( E e q.d.J.L.L.L.h.q.8 8 0.f.j.L.L.L.m.l.p.K X.o.X.o.eX<.5.} tX9XeX@.} <.>.",
"X.;.>.>.;.+.o.wXwXo.>.6.5.:.sXsXhXgX&X^.W.~.~.F.R / / E z q.h.J.L.L.L.h.q.8 8 q.s.j.m.L.L.m.l.M.n %.yX<.#.6.5.;.} 9X6.<.<.} >.;.",
"X.} ;.6.#.X.1.9XwX>.[ +.$.:.aX7X7X6X+XW.~.~.~.M.M E ^ E e e.d.k.L.L.L.l.t.q.q.e.t.x.l.L.L.l.j.z.S.>X<XeXX.X.;.+.;.6.6.X.o.o.X.X.",
"9Xo.[ X.o.+.6.6.1.6.+.[ X.+.7.,X|.+XR.U.W.W.U.Y.M.V ) E a.d.e.t.l.L.L.L.j.h.h.f.r.r.j.L.L.L.m.m.z.V.*X9X6.o.} o.o.6.+.} o.1.;.<.",
"tXtXo.X.o.;.5.$.@.6.5.;.[ X.{ n G./.Y.Y.W.W.U.J.~.G.N N M.j.q.q.h.L.L.L.L.L.P.h.q.q.h.L.m.L.L.L.m.p.K =.9X6.o.o.} [ X.1.pX6.9X9X",
"9XrX<Xo.o.;.<.wXrX6.>.o.@.yX<X| G.(.Y.Y.Q.W.K.U.~.R.M.M.N.h.q.q.h.L.P.L.J.P.P.h.q.q.h.m.j.b.m.m.b.c.-X0X6.;.#.<XpX,.o.$.eXwX6.6.",
"9X6.1.o.,.#.} 1.9X,.X.;.9X6.eX-XH.(.R.T.!.W.U.U.W.W.P.J.J.h.t.e.d.h.d.h.J.k.k.d.e.t.b.U.b.b.L.m.m.c.S.-X#.$.1.9XrXqX#.X.=.;.9X9X",
"<.;.&.1.iX<.} } $.} 9XrX<.6.9X3X#X[.(.!.Q.^.W.U.U.L.L.J.b.h.h.f.e.9.9.e.k.k.e.e.d.m.U.U.L.m.m.k.L.b.z.V.K yX0X9X6.0XqXX.%.rX9X9X",
"<.} <.rX6.tX9Xo.} ,.6.>.;.<.1X5XOX[.(./.^.~.^.W.P.J.m.m.l.k.U.h.e.w.a.C.G.{.V.a.n.P.W.U.P.L.L.L.L.L.k.p.*X5.>.<.9X>.#.o.$.6.6.6.",
"} 1.9X6.>.<.6.,.&.} >.;.;.-X.X#X&X[.(.^.^.^.~.W.U.N.k.h.l.N.l.J.k.F.:X7X7X7X7X:XG.J.b.m.L.L.L.L.m.k.h.i.n 9X#.>.o.} X.$.X.$.=.>.",
"o.;.<.5.<.} o.X.+.+.X.X.H -X#X&X].].(.Q.!.Q.Q.Q.L.m.v.x.N.J.J.l.J.G.6XgXdXdXdXfX XJ.h.h.b.L.J.m.h.d.s.y.b J X.J +.+.,.tX1.#.} X.",
"o.+.>.,.} o.1.<.+.1.tX1.6.3XOX].'././.Q.P.P.Q.Q.U.m.v.b.J.L.U.m.b.N.B.6XfXdXdX7X XJ.J.k.v.b.b.h.f.e.8.y.b %.%.0XwX#.;.6.<.rX6.o.",
"tXX.O.} X.eXrXtXtXX.>.5.5.3XOX'.R.T.!.~.P.P.Q.T.P.b.l.b.l.m.J.L.g.g.h.B.:X7X7X6XG.l.J.k.b.s.q.8 7 7 9 z t S -.6.>.O.} 1.<.6.o.$.",
"0XeX1.O.;.<.5.6.6.1.X.6.<.-X#X(.R.T.T.Q.T.T.P.P.U.m.v.g.h.h.b.g.f.f.f.z.D.F.F.F.n.h.k.L.b.0.6 ; ; > r v a C -.<.o.X.O.X.} O.o.rX",
">.6.9X1.X.>.>.6.6.<.X.J D n XX]./.T.U.U.P.L.b.v.v.x.x.s.x.t.t.r.e.r.w.r.r.e.s.d.g.x.b.h.r.6 O   o , i h h h H } ,.tXyXyX=.X.,.5.",
"<.6.1.;.o.} 1.6.5.6.+.D a x D.(.!.P.L.v.v.z.s.t.t.t.r.r.0.0.8.8 0.8 0.8.0.w.e.t.d.v.b.e.6 O . o , u h l h s J ;.0XwX6.6.5.$.X.>.",
"X.} $.X.+.X.=.$.<.1.+.Z , > 7 r.r.8.8 8 8 8 q q q w q q q w w 9 w w 9 q q q q y.8 8 8.6 O   o - 4 h s l Z Z H $.<.9X6.6.6.6.$.X.",
"o.X.X.&.9X+.[ } } o.X.Z $ . ; ; ; ; ; O ; : r t t c t t r r t r r y r r f f f r > ; ; O . X 1 y u i 5 g D X.o.o.} ;.<.5.<.>.;.$.",
"wXeXwXeXeXeX+.o.-.9X0XO.3 $ $ $ $ # # # o , i C S A A d i a h S A C a u d h d 4 - # # - $ , i Z Z a g H 1.tXtX<.o.o.6.>.O.} o.+.",
"+.5.5.<.;.<.>.X.0X6.6.;.o.D u 4 4 1 4 y 5 4 d C C d d d s h C h C C C a 5 u u i p u 1 4 5 y d d C g H =.5.6.0X9X1.} o.{ o.1.pXo.",
"X.;.6.6.9XiX,.o.=.5.6.>.>.+.g i i a d d d i i C S F G H h s S H S S A l h h h Z S S d u d C Z A D D J >.9X6.5.1.;.o.o.$.#.<.6.;.",
"o.>.6.6.6.1.+.o.o.#.>.>.,.{ l Z C s i d C d d F H -.-.X.H J X.H O.O.X.[ =.1.o.H H O.C i C d h S o.J o.o.&.<.,.1.o.<XtXwXo.o.6.6."
};
