/* XPM */
static char *satoshi_front11676886650[] = {
/* columns rows colors chars-per-pixel */
"64 64 218 2 ",
"   c #010101",
".  c #06070A",
"X  c #0C0D0D",
"o  c #0A0414",
"O  c #0D0E12",
"+  c #0F1014",
"@  c #111213",
"#  c #171D13",
"$  c #2E2804",
"%  c #322E01",
"&  c #363103",
"*  c #3C370A",
"=  c #231C2E",
"-  c #231F2E",
";  c #423D0D",
":  c #45333B",
">  c #5B5106",
",  c #465539",
"<  c #676437",
"1  c #260F4C",
"2  c #3A1679",
"3  c #3D2765",
"4  c #3F2573",
"5  c #462B76",
"6  c #4C3572",
"7  c #63397E",
"8  c #4C514F",
"9  c #555A58",
"0  c #586A47",
"q  c #5E734B",
"w  c #5A655B",
"e  c #61754E",
"r  c #617A4E",
"t  c #606D5F",
"y  c #657C52",
"u  c #657854",
"i  c #585B64",
"p  c #554D71",
"a  c #5E6665",
"s  c #697767",
"d  c #69716F",
"f  c #826A25",
"g  c #9A7D2C",
"h  c #9B7E31",
"j  c #916C57",
"k  c #A27B57",
"l  c #936579",
"z  c #698255",
"x  c #688455",
"c  c #6B8459",
"v  c #6E8C5A",
"b  c #728D5D",
"n  c #73915D",
"m  c #768B63",
"M  c #7C9465",
"N  c #7C9865",
"B  c #7B8878",
"V  c #7E9278",
"C  c #8F8100",
"Z  c #938300",
"A  c #9D8C01",
"S  c #A39203",
"D  c #A7970C",
"F  c #B09E00",
"G  c #A99910",
"H  c #9E852F",
"J  c #B19329",
"K  c #A78830",
"L  c #AA8A33",
"P  c #BB9A34",
"I  c #B99838",
"U  c #C9B303",
"Y  c #C9B400",
"T  c #D2BC01",
"R  c #D2B817",
"E  c #C4A52D",
"W  c #D8C20C",
"Q  c #BD9C43",
"!  c #819A67",
"~  c #819668",
"^  c #849D6A",
"/  c #868E7E",
"(  c #849878",
")  c #86A26B",
"_  c #89A56D",
"`  c #87A96D",
"'  c #8BAA6E",
"]  c #91A76C",
"[  c #8EB06F",
"{  c #8BA670",
"}  c #8DAC72",
"|  c #8AA578",
" . c #90AF75",
".. c #92AF78",
"X. c #8EB172",
"o. c #8FB47A",
"O. c #92B475",
"+. c #94BB76",
"@. c #94B579",
"#. c #96BB7A",
"$. c #99BD7D",
"%. c #C09F40",
"&. c #C2A243",
"*. c #97C07A",
"=. c #99C27D",
"-. c #A7C27D",
";. c #C0C37E",
":. c #3D1385",
">. c #42188A",
",. c #461994",
"<. c #4A1B9B",
"1. c #4B2C86",
"2. c #5A2F81",
"3. c #4F3188",
"4. c #53338B",
"5. c #4D2593",
"6. c #532D98",
"7. c #563598",
"8. c #683B88",
"9. c #6F3B9C",
"0. c #4E1DA4",
"q. c #4F1BAA",
"w. c #501EA5",
"e. c #521EAB",
"r. c #551FB3",
"t. c #561FB8",
"y. c #581FBA",
"u. c #4D20A0",
"i. c #5626A7",
"p. c #5521AD",
"a. c #5C35A4",
"s. c #5621B2",
"d. c #5923B5",
"f. c #5C27B5",
"g. c #5B22BC",
"h. c #6239A9",
"j. c #743DA6",
"k. c #6129B6",
"l. c #632CBB",
"z. c #6837BB",
"x. c #773EB3",
"c. c #5C4A87",
"v. c #65568B",
"b. c #6A4E94",
"n. c #794696",
"m. c #7D499A",
"M. c #6F688A",
"N. c #7A7888",
"B. c #6A4AA7",
"V. c #7C47A3",
"C. c #7559A6",
"Z. c #6D45B3",
"A. c #7648B7",
"S. c #7957B7",
"D. c #7A66A5",
"F. c #7E66B1",
"G. c #5A1EC5",
"H. c #5719CC",
"J. c #5A1DC9",
"K. c #5D22C3",
"L. c #5E21CB",
"P. c #6026C5",
"I. c #652CC4",
"U. c #6225CC",
"Y. c #642ACA",
"T. c #6A2ECB",
"R. c #6A33C6",
"E. c #6A35C6",
"W. c #713EC7",
"Q. c #733FCB",
"!. c #6426D3",
"~. c #6728D5",
"^. c #6828D7",
"/. c #6524DA",
"(. c #6828D9",
"). c #6D32D5",
"_. c #743CD5",
"`. c #6523E0",
"'. c #7646C9",
"]. c #7B47D7",
"[. c #804E9A",
"{. c #844DA5",
"}. c #9774A6",
"|. c #896FBA",
" X c #8B76BB",
".X c #8253D1",
"XX c #8151D4",
"oX c #8656DA",
"OX c #896BC5",
"+X c #8F76C2",
"@X c #9178C5",
"#X c #8957E0",
"$X c #7E8781",
"%X c #8A9887",
"&X c #88918E",
"*X c #8EA686",
"=X c #93A98E",
"-X c #97B885",
";X c #9ABD81",
":X c #96AA94",
">X c #9DB499",
",X c #B2A287",
"<X c #8B86A8",
"1X c #B995A8",
"2X c #D3BA95",
"3X c #9DC582",
"4X c #9EC884",
"5X c #A0C686",
"6X c #A0C986",
"7X c #A1C689",
"8X c #A3CC8A",
"9X c #A7D08E",
"0X c #A5CA90",
"qX c #A7D091",
"wX c #ABD293",
"eX c #DBD38B",
"rX c #E4CA9E",
"tX c #F9EA97",
/* pixels */
"_ $.3X} $.@._ @.@.{ 6X6X*.^ $.6X=.3X) ' *._  .3X@.#.$._  .;X_ ;X6X=.{ } 8X*.=.X.{ =.{ { 3X#...=.{ { ;X .} qX3X#.) 8X=.5X#._ $.O.",
") _ +.=._ ^  .5X7X .) +.+._ #.*.X.+.) ^ X._ ^ @.=.} ^ ^ 8X5X@._ O.+.' O.=.+.[ ' ^ X.) ) X.#.$.) ^ =.6X4X^ O.#.O.{ 3X*.} O.) _  .",
"O.^ ) X. ._ 3X=.=.$.) ! ^ ^ =.*.) ! _ _ _ #.) ^ ] $.^ $.=.*.3X] ! ! ^ +.*.' M ) } ) @.{ ^ { #.^ O.=.=.3XO.^ ^ ) { 3X+.^ ^  .^ ' ",
"qX7X{ ^ ^ @.=.@. .3X$.{ ' _ ) _ _ 3X8X8X>X>X>X%X&X%X%X:X:X%X:X>X%X%X%X&X%X&X=X>X0X8X4XwXO.) ^ { #.;X} $.3X$.{ ' _ { ^ @.8X8X8X6X",
"3X6X$._ { @.@.5X8X3X#._ ' $. ._ } 6X=.>X<X X+X+X|.|.|.+X X+X X@XOX@X@X@X+XOXOX X-X3X3X=.8X{ { { 3X@.9X3X3X+. . .;X{ ^ 5X5X5X=.=.",
"3X3X3X{  ._  .$.=.$.) ' 6X6X9X| / %X:X&X@XoX.XXX.X.X.X.X.X.X.XoX#X#X#X#X#XXX].].<X=X;X3X3X$.} ) X.{ $.$.O._ O.6XqX5X .^ $.$.$.3X",
"$.$.O. .wX{ ^ {  .^ #.6X=.=.=.:XD.S.|.OX.X.X'.'.Q.Q.Q.'.Q.'.Q.Q._.].].].'._._._.'. X=X3X$. .;X5X{ ^ } | ^ 7X5X5X5X=.;X_ ^ @.6X5X",
"$.^  .6X5X8X@.^ ^ @.=.*.#.=.=.*XC.z.I.E.W.E.z.R.l.R.I.I.I.I.I.I.I.T.).).T.T.).).).'.<X%X^ $.3X7X6X..^ ^ 5X5X#.#.=.5X;X{ @.=.=.=.",
" .O.8X=.=.3X3X$. .{ =.O.=.+._ ^ B M.h.y.g.f.f.f.y.k.K.l.g.f.K.P.K.U.~.~.U.K.I.I.T.E.'.D.=X6X$.3X=.3XO.O.#.3X@.=.@.^ { _ { 3X$.$.",
"_ #.4X=.@.' O.^ } _ ' ) ~ ! _ { 4XV v.a.i.s.f.f.s.y.y.y.t.r.K.G.L.!././.!.L.U.U.Y.~.).'.<X*X$.O.} X.^ ' ^ ] ~ ~ ^  .{ 8X .~ ^ _ ",
"_ { #.#.{ ^ _ O.' #.5XO.O.#.'  .*.[ B v.a.g.P.g.l.y.P.G.G.G.G.L.!./././././././.L.!.(.).z.D.%X_ ) {  ._ 6X3XO.#.@.] #.*.4X8XO._ ",
"#._ X.! ^ 3XqX9X5X' #.=.=.=.=.^ +.[ N d h.I.P.P.K.G.K.l.9.n.n.m.{.{.{.{.{.{.V.V.m.m.V.Z.k.B.d _ 9XwX8X@. .3X5X=.=.#.^ =.#.5X@.' ",
"9X3X{ O.O.3X=.4X=.' _ =.*.[ ! ) ^ ) ' d B.l.l.K.y.y.y.j.k P P P I I I %.P I I L L L K j 7.7.d 5X=.=.=.=.) O.=.=._ ^ ^ ) } +.^ 5X",
"=.*.6X ._ #.#.*.=.=.) ' ) ) O.;X6X_ ^ B B.k.y.k.r.r.y.[.P Y F S S S D S S S A Z Z S F g 8.4.d _ #.*.=.=.#.) O.^  .#.7X3X^ ^ O.*.",
"@.3X3X@.{ { $.=.=.=.' ) _ 6X9X6X6X4X' B h.r.r.r.y.y.J.n.P F > $ % & ; ; > * * * * > A h 8.7.a c _ =.=.=.$._ {  .wX8X3X8X3X .{ =.",
"{ @.O._ { _ $.3X$.=.' _ O.=.=.=.=.=.$.%Xb.h.w.r.y.G.J.[.I S %       . X o O + + O * C H 8.7.i u M 3X@.4X$.{ _ $.$.=.3X=.=.=. ._ ",
"^ ^ ^ ' O.^ ^ ) ' O.) ^ ) ) +.O.*.+.+.o.( M.6.e.g.J.G.m.E G &         . X @ @ @ O * C H 8.6.i y M ) ^ } [ ) ^ _  .#.#.=.#.*.@.X.",
"#.;XO.8X8X3X_ ^ ) O.+.8X[ ! ) *.*.+.) ) } B a.r.y.g.G.m.Q G &         . @ @ @ @ O * C H 8.6.d N ) ) ! { #.=.6X] ^ } =.#.X._ ' ' ",
";X3X*.*.#.$.O.' 9X=.=.=.=.#.) ' ) N ' #.} $Xa.d.s.s.G.[.&.G *           X @ @ @ + * Z H 8.7.a v X.' @.6X6X=.=.6XO.^ X.) ^ } ;X' ",
"_ O.*.#.#.9X_ ) #.=.=.*.*.=.^ ) ) ) =.*.4XB c.a.u.r.G.[.&.G &           X @ @ @ + * f H 8.7.a m @.' _ #.6X=.=.#.#.) ^ { } 4X3XO.",
"_ O.=.*.#.*.O._ ^ O.O.#.+._ _ #.+._ ! +.=.{ B M.6.d.K.[.&.G &             . @ @ + * C h 8.7.a v X.) _ _ O.#.#.#.^ O.@.@.^ _ *.=.",
") #.=.{ *.+.^  .} ^ 6X=.*.^ #.4X*.$.) ' *.) ' %XB.l.K.[.&.D &             . X @ + * f h 8.6.i v N _ @.{ { 8X*.#.^ 8X*.3XO.^ #.+.",
") ' +.#._ _ _ 8X6X_ [ +.+.) #.=.+.#.^ ) #._ ^ V Z.E.T.[.I S %               X + + * Z H 8.1.i y M +.qX#._ O.#.+._ 3X=.@.X.' X.} ",
"{ _  .#.@.^ 3X3X=.#.^ _ ` ' =.3X' ) ) ~ _ { ^ $XB.R.I.[.I S &             . X + + * C H 8.3.a u N 8X=.3X} _ ' { #.=.$.{ ) _ ^ ) ",
"8X ._ ^ ^ @.5X$.@.8X#._ _ ^ O.{ ^ } 4X6X5XqX$.&XB.R.I.[.P S %             . X @ X ; Z h 8.5.i e  .3X@.=.8X ._ _ ) $.^ { @.8X5X8X",
"8X8X@.{  . .#.$.;X=.#. ._ O._ _ @.8X3X=.3X3X8X%XC.l.P.[.P S %               . X X * Z H 8.4.i u { @.3X$.=.=._  ...^ { 8X8X4X3X3X",
"5X5X5X_ _ O.O.5X=.5X' _ $.wX6X} ^ #.=.#.3X3X3X:XS.I.P.m.P S %                 . . ; f g 7 1.i u } #.=.5X$.{  .7XwX;X{ { 3X3X$.3X",
"#.$.$.{ 0X_ ^  .@._  .=.3X=.=.+.^ ^ { 4X3X;X3X%XZ.P.J.n.k g > ; % & % % $ $ $ $ = : f j 7 1.i v M ^ $. .^ $.6X=.4X3XO.^ ^  .8X3X",
"#._ ] 5X9X5X{ ^ ^  .3X3X*.*.3X5X ._ 3X*.=.=.} &XZ.g.g.f.j.d h G G G A A Z f A f 7 6.7.2.5.3.a M } { ^ ( $.3X5X$.5X=.5X] $.3X=.=.",
"@.{ 7X=.3X6X7X ._ @.=.#.@.=.' _ _ _ 3X=.3X$.{ %XD.h.f.K.H.j.k &.&.E R T Y U J k Z.L.t.<.5.p a M @.4X_ _ $.5X@.$.$. ._ { } 5X3X3X",
"^ ;X6X5XO.$.$.{  ._ O.{ _ ^ ^  .@._ _ ' O.{ } 7X=XM.h.L.L.k.V.[.{.l E T U J l j.R.K.s.5.p s u v } #.} } { $.^ { ~ {  .@.)  . .O.",
" .O.=.=.$.^ ^  .{  .@._ _  .' O.=.6X#._ ^  .} $.=.%Xh.I.T.K.J.J.H.n.I Y U L V./.!.K.p.4.w x y u M ^ { O.@..._  . . .$.=.0X-X^ { ",
"} _ +.' ^ O.9X9X#.+.=.6X4X8X#.' +.*.=.8X{ X.) @.[ B B.z.I.P.L.J.H.n.I T U L V.`.!.K.e.3.9 e 0 e o.wX4X} 5X6X6X9X6XO.{ =.*.3X3X_ ",
"qX .^ _ ' 6X8X=.6X' [ *.=.+.^ ) ) X.=.' } qX;X^ ~ N.C.W.R.P.P.G.H.n.I T U K V./.!.g.w.4.i 0 q M @.3X3X3X) #.=.=.O.^ ! O.+.#._ #.",
"=.3X4X' { *.#.=.3X=.) *.X.) ) X.O.^ N ) 4X=.=.-X}.v.A.'.R.P.K.G.J.m.Q T U K n.H.G.t.e.7.a v m } +.*.3X3X#.{ *.{ ) } @. .! )  .=.",
"#.*.=.#.^ ' #.*.*.+.` ^ ) #.9X8X8X=.) _ =.@.o.%XD.S.'.Q.R.P.P.G.J.m.Q W Y H n.G.y.t.r.a.p c ^ ! X.=.*.#.+._ ^ _ 6X8X8X9X$._ } *.",
"O.#.#.' } ) #.=.#.=.' ) ` =.=.*.*.*.*._ { *X}.D.S.'.'.R.P.P.K.G.J.m.Q W Y K n.G.K.g.r.5.4 p m } ) =.#.=.=.^ _ O.=.=.=.=.=.#.) X.",
"! ! ) _ _ ) ) _ #.O.) ^ ) X.=.+.=.*.+.#.| d M.Z.'.W.E.K.l.P.K.G.J.V.Q W Y K n.J.L.g.s.0.:.4 d { N X._ #.O.^ _ { +.=.#.=.#.*.#.) ",
"} } O.$.8X@.) N M ) ' +.) ^ ) 3X*.*.) ( M.C.C.'.W.W.l.f.P.G.P.G.J.m.Q W Y L V.L.L.g.s.<.:.5 $X8XO.^ M ! _ @.O.) ^ O.=.*.O.O.' ' ",
"5X6X3X=.3X6X ._ 6X8X4X3X4X' ^ +.[ ^ N ( v.B.Z.Z.R.f.p.p.y.P.G.G.G.m.Q T U K V.`.L.K.g.u.:.4 a ( -X' X.8X8X6X6X6X_ ) #.} ^ ^ O.' ",
"_ #.*.#.O.$.} _ #.=.*.*.*.=.) ! ! ) 4X*Xv.7.h.z.k.p.,.,.r.G.G.G.J.m.I T Y L {./.J.K.U.r.:.2 2 p V _ X.#.=.=.*.*.=.) ! ^ O.6X6X .",
"' { =.=.=.3X@.' _ #.#.#.*.[ ) ' ' ! ) ( v.6.a.k.f.w.>.>.e.K.P.K.G.n.I T Y L V./.J.L.U.P.<.:.2 3 B } ) O.#.#.*.*.{ _ } ' ! } #.=.",
") O.=.X.*.+.^ _ _ ~ 3X*.+.` +.8X=.$.) V c.5.i.f.r.<.:.:.w.g.g.G.J.n.J T T L {./.L.L.U.U.r.,.2 3 c ^ _ ) { 5X#.#.^ 8X5X6XO.^ #.+.",
") O.#.+.O.} ) 6X4X' O.=.+.! O.*.+.*.^ B c.>.<.0.0.<.,.,.e.r.G.G.J.m.I U J j x./.L.U.U.P.r.>.3 8 t ) 8X#.{ =.*.O.^ 3X*.#.+.^ +.O.",
") ^ O.=.{ ) #.5X4XO.^ [ ' _ =.=.' ' ) d 6 :.:.:.:.>.<.e.y.K.K.G.J.n.P E l V.T.^.!.!.U.l.w.1.i 8 e N #.8X) _ O.' O.*.#._ _ _ ^ _ ",
"4X_ ! ^ ' ' =.*.*.3X' ! ) ) #.O.^ ) X.( p 4.p 7 7 n.V.A.k.G.K.G.K.9.k k A.`.`.(.^.^.!.g.q.5 9 0 r b [ =.=._ ! _ _ 3X' ^ _ #.O.#.",
"0X6X_ ) _ O.*. .} =.=.[ ! ) ! ! X.8X6X3X| %X,X2X2X2X2X1X{.H.K.G.K.l.9.j.T.(.(.(.^.~.!.g.q.1.9 0 z x N +.3X=._ _ ^ ^ ^ =.9X6X5X=.",
"=.6X;X_ _ O.#.5X8X=.O.` X.wX$.X._ =.=.*.-.5XeXtXtXtXrX1X.XJ.G.K.K.G.G.L.U.!.^.(.^.^.!.g.w.1.9 0 x M #.3X=.O.{ ;XwXO.' } 5X=.=.3X",
"3X5X#._ @._ ^ $.3X@.) O.=.5X6XO.^ ) O.#.=.-.eXtXtXrX}.x.l.K.K.K.K.G.G.G.g.K.!.(.~.~.~.f.q.3.9 y m N #.;X{ } ;X4X6X5X{ _ @.@.5X$.",
"#.O. .$.wX#.^ ^ { ^ 3X6X*.*.=.6X' ^ #.5X3X-.;.eX2X1XA.J.G.K.K.K.K.K.K.K.s.d.Y.(.(.~.!.K.e.4.a M ` ^ { ^ } 8X6X=.3X3X5X^ { 5X=.3X",
"$.^ $.7X=.8X=._ ^ O.=.#.O.*.#.O.^ ` *.*.*.$.] / }.A.T.K.K.K.K.K.K.K.K.g.s.d.!.(.(.~.~.K.s.7.a M @.#.^ ) 3X=.+.#.=.#.{ _ O.=.=.=.",
") $.=.#.#.#.=.@. ._ #. .[ ' ^ ) _ ) ' O.#.{ %X&XB.z.I.P.K.G.K.K.G.K.K.g.s.f.Y.(.~.!.L.K.p.7.a v X.=.} } ' =.{ o._ ^ ) } ) ' O.#.",
"' O.#.*.#.! _ ^ ' ' ) ) ^ ) ` [ 4X=.` N N (  XS.Z.z.I.I.P.G.K.K.K.K.G.g.s.g.L.~.L.L.Y.K.q.4.a y m ) ` ' ' _ ^ ^ _ ' #.8X@.{ ^ ^ ",
"_ ' +.O._ _ $.$.' #.9X*.=.6X'  .+.*.3X4X_ %XF.'.'.z.I.P.y.l.K.L.g.K.G.g.d.g.!.~.L.K.Y.g.0.1.9 r ) ;X@.` 8X8X#.6X5X{ O.=.*.6X=._ ",
"6X^ ' ^ ^ 6X6X8X8X) +.*.*.*.' ) X.#.3X} ) :XS.'.W.R.I.l.y.r.k.y.y.t.r.d.s.K.~.(.K.K.K.g.0.1.9 y ;X4X9X#._ *.=.=.#.' ^ #.#.=._ } ",
"6X6X$.' @.#.*.=.=.#.) =.+.' ) ' ) M _ ^ 3X:XS.W.R.I.y.y.r.r.y.y.r.e.e.e.s.s.u.w.s.g.g.p.0.1.9 b ` *.3X3X} X.=.#.) _ { _ ! ' { 6X",
"#.*.3X$.) @.+.=.=.#.) ) ! ' 6X8X9X#.) ' =.%XC.l.P.d.q.i.u.u.e.e.0.<.<.<.w.>.1 1 2 0.0.5.<.3.i u ' *.=.*.+.^ ) ^ O.8X9X9X} ) @.*.",
"#.*.*.O._ ) #.=.#.=.` ) ` =.6X=.=.*.X.) X.=XB.d.e.0.<.>.,.,.<.5.>.>.1.6 2 1 o X 1 2 :.,.5.p w e N =.#.=.*.^ '  .6X6X*.4X*.X.) +.",
"_ ^ ' ) ' ) O.} #.#.' ^ ` #.*.*.*.*.+.+.) $Xa.e.<.,.2 >.2 >.2 2 2 2 p 8 = o     . 1 2 1.p 0 0 z n #. .#.#.) ) } #.=.*.=.*.=.} ) ",
") _ )  .5X' ! ^ _ _ ) ' ) ! ' +.*.*.X.+.` V v.4.5 5 6 3 5 3 3 3 5 8 8 , = # # # @ = 3 p 8 0 u c M ^ ~ _ ) ' ' _ ^ O.#.*.#.#.O.} ",
"5X8X5X6X6X6X' ) @.=.6X8X#.' ` $.#.' ^ ) { @.:X( s t a w 8 9 w w a t 0 < 0 , , , , , 9 t y c z M O.' ) @.6X9X8X+.^ ' =.O.' ! _ ' ",
"' *.#.#.O.#.O._ =.=.*.*.=.=.^ ) N N O.8X#.` #.' b r e e 0 r z z x r z e q q 0 0 x c 0 q z r x n O._ @.*.=.=.=.5X$.^ _ ^ _ $.wX_ ",
") O.=.=.6X9XO._ O.=.=.*.+.+.) ) ' ' o.+.#.' ` ` b x c y 0 0 q x q x r e b n q r r y q 0 r x ' ;X5X .^ +.5X*.=.#.O._ _ ' { +.*.+.",
"' #.=.=.=.$.{ _ _ ] O.#.O.' [ 8X4X' ^ +.3XX.{ #.N v b c e r x x x x y v #.=.v r z v c y v N O.$.#._ _ _  .#.@.=._ ;X0X5X_ _ #.5X"
};
