/* XPM */
static char *satoshi_static_left1676886651[] = {
/* columns rows colors chars-per-pixel */
"64 64 224 2 ",
"   c #010101",
".  c #06070A",
"X  c #0C0D0D",
"o  c #0D0D13",
"O  c #0E051C",
"+  c #0F1014",
"@  c #121213",
"#  c #171D13",
"$  c #2E2804",
"%  c #322E01",
"&  c #383305",
"*  c #3F3A0D",
"=  c #27301F",
"-  c #160E26",
";  c #413C0D",
":  c #47353E",
">  c #5C5207",
",  c #485A3A",
"<  c #4D613E",
"1  c #250D4D",
"2  c #342156",
"3  c #34156A",
"4  c #391575",
"5  c #412A6C",
"6  c #4A3C6A",
"7  c #5D3A63",
"8  c #442D72",
"9  c #472A7C",
"0  c #613B6F",
"q  c #3F4240",
"w  c #404146",
"e  c #545A54",
"r  c #55595A",
"t  c #556645",
"y  c #596B46",
"u  c #5B6D4A",
"i  c #5E734B",
"p  c #5A655B",
"a  c #61774E",
"s  c #617A4E",
"d  c #606B5E",
"f  c #677B53",
"g  c #657C52",
"h  c #564E6E",
"j  c #644C79",
"k  c #5D6561",
"l  c #616B64",
"z  c #6F7970",
"x  c #876E2D",
"c  c #9B7556",
"v  c #A37B5A",
"b  c #936579",
"n  c #678255",
"m  c #6A8256",
"M  c #6B855B",
"N  c #6E8B59",
"B  c #728E5C",
"V  c #73925D",
"C  c #758B65",
"Z  c #789464",
"A  c #7B9464",
"S  c #7B9A65",
"D  c #7A877A",
"F  c #7F9578",
"G  c #968604",
"H  c #9A8A06",
"J  c #A39203",
"K  c #A7960C",
"L  c #B09C0A",
"P  c #A99910",
"I  c #BCA80B",
"U  c #AE9224",
"Y  c #AF922B",
"T  c #A78830",
"R  c #AA8A34",
"E  c #BA9937",
"W  c #C9B400",
"Q  c #C9B304",
"!  c #D3BC01",
"~  c #D2B817",
"^  c #C4A52D",
"/  c #D9C30C",
"(  c #AD8F40",
")  c #AE9142",
"_  c #B59643",
"`  c #809A67",
"'  c #819768",
"]  c #849D6A",
"[  c #838F7E",
"{  c #84957D",
"}  c #A98163",
"|  c #86A26B",
" . c #89A56D",
".. c #8BAA6E",
"X. c #8DB06F",
"o. c #8AA670",
"O. c #8AA775",
"+. c #8DAC72",
"@. c #90AF75",
"#. c #92AF78",
"$. c #8EB273",
"%. c #8DB079",
"&. c #92B475",
"*. c #94BB76",
"=. c #94B579",
"-. c #96BB7A",
";. c #99BD7D",
":. c #C09F40",
">. c #C3A243",
",. c #97C07A",
"<. c #99C27D",
"1. c #3D1288",
"2. c #3F1292",
"3. c #441B85",
"4. c #41158E",
"5. c #43198C",
"6. c #471898",
"7. c #4B1B9C",
"8. c #4B2A85",
"9. c #533B84",
"0. c #52348B",
"q. c #50308C",
"w. c #573596",
"e. c #663B8A",
"r. c #4E1CA3",
"t. c #4D18AB",
"y. c #511EA6",
"u. c #531EAC",
"i. c #551EB3",
"p. c #581FB6",
"a. c #561DB9",
"s. c #591EBB",
"d. c #5520AD",
"f. c #592CA8",
"g. c #5B33A4",
"h. c #5721B2",
"j. c #5922B5",
"k. c #5E2AB5",
"l. c #5B21BD",
"z. c #733DA4",
"x. c #622BB9",
"c. c #6B3AB4",
"v. c #5F4C89",
"b. c #694F8D",
"n. c #794696",
"m. c #7E4A9B",
"M. c #726A8F",
"N. c #7A45A5",
"B. c #714AB3",
"V. c #7845BA",
"C. c #7756B7",
"Z. c #7D66B1",
"A. c #571AC7",
"S. c #5A1EC4",
"D. c #5A1CC9",
"F. c #5D21C3",
"G. c #5E21CB",
"H. c #662DC4",
"J. c #6225CC",
"K. c #6529C8",
"L. c #642ACC",
"P. c #6C37C7",
"I. c #6B33CC",
"U. c #733FCB",
"Y. c #6426D2",
"T. c #6728D7",
"R. c #692BD5",
"E. c #6525D9",
"W. c #6A2AD9",
"Q. c #6E33D5",
"!. c #6F32DA",
"~. c #733AD5",
"^. c #7237D8",
"/. c #6625E1",
"(. c #7744CC",
"). c #7D5AC6",
"_. c #7A45D6",
"`. c #844DA5",
"'. c #8556A4",
"]. c #8A5AAC",
"[. c #8756B8",
"{. c #8F6EA4",
"}. c #867AA6",
"|. c #866DBA",
" X c #8B75B9",
".X c #8152D0",
"XX c #8255D2",
"oX c #8757DC",
"OX c #8463C7",
"+X c #8E6CCF",
"@X c #9379C9",
"#X c #9271D2",
"$X c #8A59E0",
"%X c #7D8481",
"&X c #828C83",
"*X c #818887",
"=X c #859285",
"-X c #8A9888",
";X c #8A839D",
":X c #8D9B92",
">X c #92A58D",
",X c #9ABD81",
"<X c #98B689",
"1X c #94A794",
"2X c #96AE92",
"3X c #A7A09E",
"4X c #928DAD",
"5X c #BB95AC",
"6X c #D3BA93",
"7X c #DCBEA2",
"8X c #9DC582",
"9X c #9EC884",
"0X c #9CC289",
"qX c #A0C686",
"wX c #A0C986",
"eX c #A1C788",
"rX c #A3CC8A",
"tX c #A8D08F",
"yX c #A9CF91",
"uX c #A7D091",
"iX c #ABD293",
"pX c #FEE89C",
"aX c #FFF898",
"sX c #E9CEA1",
/* pixels */
" .;.8X+.<.=. .=.=.o.eXwX,.| -.wX,.8X| ..<...@.qX=.=.;. .@.;.o.;.tX;.@...rX,.qX.. .<.+.+.<.-.&.8Xo.o.,X@.#.yX<.;.] rX<.wX-. .;.&.",
"|  .*.<.] | @.wXeX+.| *.*.| ;.,.$.*.| ` &.| ] =.-.@.| ] rXqX=.] &.*. .&.;.*.X...] $.]  .+.-.-. .] ;.eX9X| X.-.&.o.<.,.+.&.| o...",
"&.] | $.@. .8X<.<.;.] ] ] ] ,.,.| ` | | o.2X:X-X-X>X-X1X2X>X1X-X[ [ [ >X1X-X[ &X=X] =...]  .-.] &.<.<.8X=.] ]  .o.wX*.' ] ..| ..",
"yXqXo.] ] =.<.=.#.8X<.o... .] ....8XrXtX2X4X@X@X@X+X@X@X@X@X X X X|. X|. X|.|.|.4X2XrXiX&. .] o.;.8X+.-.8X;...o. .o.] =.rXrXtXeX",
"8XeX=.o.o.=.=.qXrX<.-.....;.@.| +.wX8X2X3X@X$XoXoXoX$XoXoX.X.X.X.X.X.X.X.X(.(.(.C.;X2X2X2X{ -X&X>X%.yX<.<.-.$.+.,X+. .qXqXqX<.<.",
"8X8X<...@.o.@.;.<.;.| ..wXwXrX&.' &.2X4X#X$XoX_.~..X.X~.~.~.U.U.U.U.U.U.U.U.P.U.(.C.|.OX|.|.Z.C.Z.&X;.<.&. .=.eXyXqX+.] ;.<.;.8X",
"<.;.=.&.iXo.] o.@.] -.eX<.<.<.qX| F 4X#X$X$X_.U.Q.Q.Q.I.H.H.H.H.x.H.H.H.H.x.H.H.P.(.(.U.P.x.k.l.w.M.&...] eXqX<.qX;.,X] ] =.eX<.",
";.' @.wXqXrX=.] ] =.<.,.-.,.<.;.-X4X+XoX_._.I.K.K.T.T.K.F.K.F.x.j.K.K.j.k.h.k.x.x.H.x.j.h.u.r.6.v.%X] ] qXqX;.;.;.qX;.+.=.<.<.qX",
"+.&.rX<.<.8X8X-.@.@.<.&.qX*.] { ;X+XoX_.U.I.L.J.Y.E.E.J.G.S.l.j.p.s.F.j.j.j.j.j.k.F.j.r.7.9.9.v.b.{  .X.=.qX&.<.=.]  .] +.qX;.;.",
" .;.9X<.&...&.] ..] ..` A ' { }.+XoXoX^.Q.R.W.E.E.E.E.E.Y.G.S.l.S.F.F.l.l.s.l.l.l.l.i.7.q.k k l p f f | ] ..] ' ] @.@.rX+.' ] ..",
"..o.-.-.+.] o.&...-.eX*.*.;.-X[.XX|.].'.`.N.'.`.`.`.`.`.`.m.n.n.z.x.S.F.l.F.F.F.j.j.u.7.9 p a y y i f S eXqX=.;.=...=.,.8XrX@.| ",
"-.| $.' ] 8XuXtXeX..,.<.<.<.:XC.C.} _ R R Y R E :.E :.E E E E E v z.S.p.j.F.l.j.d.d.r.7.8.r t y N N A ..X.<.<.<.<.-.| ,.*.qX;...",
"yX8Xo.&.&.8X<.9X8X$. .<.,.X.%XC.].) I K G G H J J L J J H J L W Y `.S.s.j.l.j.i.y.r.6.6.8.r u N V V S *.] =.<.,...| ]  .o.=.` wX",
"<.,.wX@. .-.-.,.<.<.S +.| | :X).].) J > * & ; ; ; ; ; & % % > L E n.S.S.j.j.j.j.u.y.6.1.9 l f A +.X.*.*.-. .&.] o.-.eX<. .] =.,.",
"=.<.8X=.o.o.-.<.<.<...| ..0X1XXX]._ G * o o @ o o o .       % J E n.s.D.s.j.d.j.u.r.5.9 h l n S $.8X,.8X;. .o.@.iXrXqXeXqX@...<.",
"o.=.=. .o.o.;.8X-.<... .$.0X1XOX].) H * o o @ @ X .         % K ^ `.S.S.l.j.u.i.u.7.8.h p i f ' ] 8X%.8X;.o. .;.<.<.<.<.;.,X+...",
"] ] ` ..=.| ` | +.+.| ] | | :X).[._ H * O + @ # @           & K >.n.S.S.l.p.u.u.r.6.9 e t y g S |  .] $...| |  .&.-.*.<.-.-.*.+.",
";.,X=.wXrX<.| ] | $.*.9X$.] *X).].) H * + + @ @ X .         & P >.`.S.p.p.p.u.y.6.4.9 l i g Z 8X%.| ] | -.<.wXo.` @.<.-.&. .....",
";.8X,.,.-.;.=...tX8X9X<.8X-.%X).].) H * o @ @ @ X           & P >.`.S.i.u.j.i.r.5.8.6 d m N S ..8X+.=.9XwXwX<.9X&.] +.| ] +.,X..",
"| =.,.;.*.tX..| *.<.<.*.,.,.*X).].) H * @ @ @ .             & P ^ n.s.p.u.p.u.6.8.h p t N S +.;.8X..| -.<.<.<.-.;.| |  .+.8X8X=.",
"| &.<.,.;.;.&.| ] $.*.*.*. .%X).].) G * o @ o .             & K >.m.A.p.u.u.r.6.9 p i i N X.,.,.<.| | +.$.*.*.;.] &.=.=.|  .,.<.",
"| ;.<.o.,.*.] @.+.] 9X8X,.| :X).'.) H * + @ X               % J E m.S.s.i.r.6.4.8 k u y V o.$.,... .&.o.+.rX,.;.] eX<.9X$.] -.*.",
"| ..*.-.o. ...rX9Xo.X.*.*.| :X).'.( H * @ @ @ .             % J E n.A.a.u.7.4.9 6 p y i B $.=.o.| =.uX;. .&.;.*. .8X,.*.&. .$.+.",
"..| @.-.=.] <.8X8X;.S ..| +.:X).].) H ; o @ @               % J E n.S.i.y.6.8.h e t s V ' +.8Xo.+.9X<.8Xo. .o.o.=.<.;.o.|  .] | ",
"rX#. .] ] =.qX;.-.eX*.|  .| :X).].E H * o o .               % J ^ n.S.u.y.7.8.p M g S <X .S o.] qX<.;.;.rX@.o. .| -.] o.=.rX0XrX",
"rXrX=.o.@.@.;.=.;.qX;.@. .$.%XC.m.R H * O .                 % J ^ n.S.s.u.r.0.l g n V ,XwX+.+.o.=.=.;.;.<.;. .$.#.o.o.rXyX8X8X<.",
"<.qXqX .o.&.=.<.<.qX..| ,XuX1XB.N.c x : - $ % % $ % % & & % > x v z.A.s.i.t.q.l m N S *.9X,X .| ;.=.;.qX;.o.@.eXiX,X .o.<.8X<.8X",
"<.;.=.@.yX] ] @.=...@.<.9X8X:XV.L.N.z.f.0 x G x G H J K P P T b z.x.S.s.i.u.w.r M +.=.,X8X$.=.,X .] ;.@. .;.rX<.8X8X&.|  .@.rX8X",
";. .X.qXrXeXo.] ] @.<.qX,.<.1XZ.H.G././.V.c L Q W ! ~ ^ >.>.} z.A.F.F.l.p.s.f.j z %.;.&...@.eXrX;. .] ] ;.<.eX;.qX<.qXo.=.8X<.<.",
"=.o.eXqX<.eXeX@.o.&.<.=.=.<.o.[ M.P.W.W.Q.V.{.Y W ! ^ b m.`.z.x.D.F.F.l.s.l.F.g.b.[ 9Xo.@.tX;.qXeXqX .o.;.qX=.;.<.@.] +.#.qX<.qX",
"] ,XeX<.=.;.;.+.@.] =.+...] ] @.%XB.R.!././.N.R Q ! E n.A.D.D.S.F.F.F.F.F.F.F.l.g.[ @.] yX8X;.;.;.=.+.@.o.,X] +.]  .@.=.o.o.#.&.",
"@.&.<.;.;.] ] @.@.#.&.| | X.X.@.-XB.I.^.W./.N.R Q W R n.A.D.D.S.l.j.j.l.F.F.F.j.g.z ....;.<.;.@.] ] @.@.=.#.] @.@.@.=.qXrX;.]  .",
"+. .*...` =.tXtX-.*.9X9XwX9X-...=XN.I.Q.W.T.`.T Q ! E n.D.S.F.F.l.j.j.l.F.F.l.a.g.M.D F $.,.] | 0XuXwX+.8XrXwXyXwX&.o.<.,.9X8X| ",
"uX+.|  ...9XrX<.wX .X.<.<.*.| | D C.I.I.J.J.e.T Q / :.n.D.S.F.F.F.F.l.F.F.F.F.l.j.f.b.1X$.S | -.wX8X8X8X| -.,.<.*.` ` &.*.-. .-.",
"<.9X8X..o.<.-.<.<.<.| ,.$.|  .$.-XC.I.I.K.S.n.T Q / :.m.D.F.F.F.F.F.F.F.F.F.F.F.F.a.g.%X9X,...=.-.,.8X<.-...;.+.| ..-.+.] | @.<.",
"*.,.<.-.] ..-.,.,.-...` | -.rXrX1XOX~.K.J.S.e.T Q / :.m.D.D.F.F.F.F.F.F.F.F.F.l.S.i.v.%X-.<.$.S &.,.,.,.-.| ]  .rXeXrXyX-. .+.,.",
"&.-.,...+.| -.<.*.<...|  .<.<.,.1XOXQ.L.J.D.z.T Q / :.e.a.A.A.S.F.F.F.F.F.F.F.l.a.u.0.z $.*.....| <.-.<.<.|  .&.<.<.<.<.<.-.| &.",
"' ' |  . . .|  .-.&.| ` | &.,.,.1XOX^.I.J.Y.`.T Q / :.0 6.a.S.S.F.F.F.F.F.F.F.l.h.u.w.r n A ..o.] X. .;.&.' | o.*.<.;.<.-.,.*.| ",
"+.+.&.;.rX&.] S A | X.*.| ` | 8X1XOX~.I.J.E.N.R ! / E 7 4.a.F.F.S.F.S.p.p.s.F.s.a.h.g.j l ] 9XrX&.` ' '  .*.=.| ` &.<.,.=.&. ...",
"qX9X9X<.8XeX&. .eXrX9X9X9X+.` -.-XOX~.I.K.T.N.R Q ! U 7 4.p.F.F.F.F.a.6.7.p.F.F.F.F.j.k.b.=X<.9X8X..+.rXrXwXwX9X..| ,...' | &...",
" .-.,.;.&.;.+...;.<.,.,.,.<.' [ }.OX^.Q.Y.E.`.R Q ! U 7 4.p.F.G.F.F.i.4.4.u.S.s.l.J.s.s.w.%X<.$.-...+.-.<.<.<.,.,X| ' | &.wXeX+.",
"..o.<.,.<.<.=...| -.,.*.,.X.{  X+XXX.XI.K.E.`.T Q ! U 7 4.a.G.F.F.F.i.4.4.i.K.p.j.l.s.u.w.%X<.9X8X+.| &.-.-.,.-.o. .+...' $.,.,.",
"| =.<.$.,.*.]  .| ` qX,.*.| >X+XoXoX^.I.Y.E.z.c U ! U 7 4.t.D.F.F.F.i.4.4.i.l.j.u.s.p.y.0.z ..-.+.| ..|  .wX-.,.| eX8XwX&.` -.-.",
"| &.-.*.=.+.| qXqX..&.<.*.| -XZ._.~.^.!.T.W.!.c.b ^ L 7 4.a.D.D.S.F.p.4.4.i.l.p.j.p.i.y.0.l B +.| o.rX=.+.<.;.*.] 8X,.;.*.] *.&.",
"| ] &.<...| -.wXwX=.` X.X.| 1XC.U.^.!.W.T.W.W./.V.v c 7 4.i.G.S.F.s.t.4.4.u.F.j.j.p.i.y.q.r C B ..qX8XrX|  .&...&.<.;.|  ...] | ",
"qX| ` | | ..<.<.,.<...` | | :XC.I.!.!.W.T.T.E.E.R.z.e.9 4.u.G.S.a.7.1.4 4.i.S.s.l.s.p.u.w.r f A *.,.,.<.<.| ` |  .<...] ..-.&.=.",
"yXwX .| | &.;.+.+.<.,.&.` | [ N.U.!.!.T.T.T.W.Y.G.D.a.6.6.t.i.i.t.1.1.4.7.s.S.K.F.l.s.u.f.h l A <.-.o.&.8X<. . .| ' ` <.tXwXqX<.",
"<.wX,X . .=.*.wXrX<.&...X.tX:XC.P.!.!.W.T.W.Y.F.a.A.A.a.t.6.4.4.1.4 1.t.a.s.F.F.F.l.l.p.u.f.b.z <.-.9X9X<.@.@.,XiX&...@.wX<.,.qX",
"<.8X;...=.] o.;.,X=.| &.<.qX1XC.~.Q.!.W.W.W.L.j.h.s.H.(.N.n.v.j 9.3.r.h.F.F.F.F.F.F.F.j.j.j.w.%X .] 8X;.o.@.-.qXeXwXo. .=.=.qX;.",
";.&.@.;.iX-.] ] o.o.8XeX,.,.1XOX^.^.W.W.E.W.Y.j.h.s.V.5X7X6X6X6X5XB.a.l.F.F.F.F.F.F.F.l.j.d.w.%X#.] o.] %.rXwX<.<.8X9X .O.8X,.qX",
";.] =.eX<.rX<.| ] =.<.*.*.,.:X[.^.^.W.R.Y.W.Y.j.i.s.[.7XaXaXpXpX5XV.G.A.F.F.F.l.l.l.l.l.a.y.w.D ;.-.] | 8X,.*.-.8X*.o.| @.<.<.<.",
"| ,X<.,.*.;.<.=...| -.&.$...%XC.~.Q.Q.L.J.Y.J.j.i.s.[.7XaXpXsX@XV.x.F.F.F.F.F.j.h.h.a.l.i.r.q.l Z &.+... .8Xo.&. .]  .o. .X.&.*.",
" .&.-.,.-.`  . ..... .| S | [ C.P.Q.R.F.G.Y.L.k.i.S.[.5X7X7X5Xc.S.S.F.F.F.F.l.h.d.j.j.d.u.y.0.r i A | .... .| ] | ..-.rX=.o.' | ",
"| ..-.&.|  .;.-.+.-.tX,.8XeX=XC.I.Q.R.G.F.T.T.F.s.S.H.V.[.[.z.x.i.S.S.F.F.F.F.d.h.j.l.d.u.u.w.r m +.&...rXrX-.eXqX..&.,.;.wX<. .",
"rX| ..] ] qXwXrX9X| *.,.,.,.&XB.K.Y.J.H.G.Y.G.G.F.F.F.S.A.A.s.p.h.j.l.l.l.F.j.h.d.l.l.u.y.u.f.j D %.rX-. .,.<.<.-...] ;.-.<. .+.",
"wXwX-...=.,.,.<.8X;.S 8X*...%XV.G.l.l.F.G.F.G.l.s.l.F.F.A.A.s.p.d.d.y.y.u.h.h.y.r.h.d.r.r.u.d.w.v.F <.9X+.$.<.-.| | .. .' .. .rX",
";.<.8X;.| *.-.,.,.;.| | S ..2XZ.B.h.u.j.j.h.u.y.7.3.6.p.F.l.j.d.y.y.7.7.7.r.7.7.7.7.7.6.7.7.y.7.0.D <.,.*.] | ] =.rXtXtXX.| =.,.",
"-.,.,.&.| ] ;.<.,.<...S ..9X0X<XM.g.y.r.7.2.6.5.4 1 1 6.l.d.d.y.y.7.7.5.3.3.3.3.1.1.5.5.5.3.3.1.9 F ;.,.,.] ..@.wXwX<.<.,.$.| *.",
"| ' ..| ..| $.$.-.-...| ..-.,.,.F v.0.8.8 8 8 8 2 O O 1 4 4 3 3 3 3 3 8 8 8 8 5 8 5 5 5 5 5 5 5 6 C | -.*.| | @.-.<.,.<.,.,.o.| ",
"..| | @.qX..] ' ]  .|  .| S ..$.+.l p p r e e e q @ . O O O O o O O - w p p p e p r e r e e t r e u f '  .....| ] =.;.,.-.-.&.&.",
"qXeXwXwXwXeX.. .=.<.wXrX,.| | ,.$.N y y y n N i u = # # @ # # # # # = , s s i t t u i M n N n n f y s +.rXyXrX*.]  .<.*...' ....",
"..,.,.-.&.*.*.| <.<.,.,.9X8X` | Z Z S Z i u s n i < , < , < , < , < t y t t < i n M y i n i g i g y n ..<.<.<.9X;.] ..'  .;.uX..",
" .&.,.<.qXyX=.| &.,.,.,.,.-.| | ....X.V N n g B V V Z M y t n n n i s y y a s N N V g a N N Z Z Z n n +.<.<.,.;.&. . .+.@.=.,.=.",
"o.*.<.<.<.;... . .+.*.*.&.| &.rX9X+.S ..$.| S %.$.*.S n y y y y n i i u N #.| A S $.o.S X.$.$.$...A ' | @.-.=.;. .,XeXqX . .<.<."
};
