/* XPM */
static char *satoshi_walk_right11676886652[] = {
/* columns rows colors chars-per-pixel */
"64 64 228 2 ",
"   c #010101",
".  c #040409",
"X  c #0C0C0D",
"o  c #0F130C",
"O  c #11160E",
"+  c #0E0E13",
"@  c #0D051C",
"#  c #0F1014",
"$  c #121213",
"%  c #171C13",
"&  c #192015",
"*  c #332E01",
"=  c #393407",
"-  c #3D390B",
";  c #2E2C12",
":  c #110624",
">  c #1D172A",
",  c #261C37",
"<  c #2C3724",
"1  c #47333D",
"2  c #36442C",
"3  c #5B5106",
"4  c #48593A",
"5  c #4B603D",
"6  c #290E56",
"7  c #34146B",
"8  c #3C177D",
"9  c #3F2967",
"0  c #422C6C",
"q  c #502D65",
"w  c #512F6C",
"e  c #442E71",
"r  c #5C3379",
"t  c #643A7F",
"y  c #4C4F4F",
"u  c #545859",
"i  c #7C5D4C",
"p  c #556745",
"a  c #5A6D49",
"s  c #5C734A",
"d  c #5A655B",
"f  c #62774E",
"g  c #627A4F",
"h  c #647651",
"j  c #647C51",
"k  c #575864",
"l  c #674070",
"z  c #5E6566",
"x  c #62686A",
"c  c #6A716F",
"v  c #737976",
"b  c #866C2F",
"n  c #9A7D2D",
"m  c #9C7F31",
"M  c #987646",
"N  c #926C56",
"B  c #A37B5A",
"V  c #855B74",
"C  c #916674",
"Z  c #678254",
"A  c #698355",
"S  c #6C855A",
"D  c #6E8A5A",
"F  c #728D5D",
"G  c #74925E",
"H  c #798F62",
"J  c #799763",
"K  c #7C9463",
"L  c #79847A",
"P  c #8E8101",
"I  c #938400",
"U  c #9A8A01",
"Y  c #A39102",
"T  c #A7920A",
"R  c #A9980D",
"E  c #BAA405",
"W  c #9C822B",
"Q  c #AE8F2A",
"!  c #A78830",
"~  c #AC8B33",
"^  c #B99935",
"/  c #BBA221",
"(  c #CAB400",
")  c #C9B10F",
"_  c #D3BD02",
"`  c #C5A934",
"'  c #D9C30B",
"]  c #BD9C43",
"[  c #819B67",
"{  c #819668",
"}  c #849D6A",
"|  c #85947C",
" . c #A98163",
".. c #81A267",
"X. c #86A26B",
"o. c #89A56D",
"O. c #8BAA6E",
"+. c #8DB06F",
"@. c #8AA571",
"#. c #89A673",
"$. c #8DAC72",
"%. c #90AF75",
"&. c #94AD79",
"*. c #8EB173",
"=. c #92B475",
"-. c #94BA76",
";. c #94B579",
":. c #96BB7A",
">. c #99BD7D",
",. c #C2A243",
"<. c #CFB14C",
"1. c #96C07A",
"2. c #99C27D",
"3. c #EAD455",
"4. c #FDE97F",
"5. c #3E1586",
"6. c #3B0E91",
"7. c #411985",
"8. c #41158E",
"9. c #43198A",
"0. c #461896",
"q. c #49199B",
"w. c #4C2C87",
"e. c #4F2C8E",
"r. c #4E3186",
"t. c #522F95",
"y. c #543394",
"u. c #57359A",
"i. c #683B87",
"p. c #6A3996",
"a. c #713E9A",
"s. c #4E1CA3",
"d. c #4E1AAA",
"f. c #511EA6",
"g. c #521EAA",
"h. c #551EB4",
"j. c #561EB9",
"k. c #591FBC",
"l. c #5826A9",
"z. c #5D34A7",
"x. c #5721B2",
"c. c #5922B5",
"v. c #5E29B5",
"b. c #5B21BD",
"n. c #6A3DAD",
"m. c #733DA5",
"M. c #602DB6",
"N. c #622ABA",
"B. c #6635BB",
"V. c #7C4996",
"C. c #7B4798",
"Z. c #675190",
"A. c #716890",
"S. c #7D47A3",
"D. c #6E45B0",
"F. c #7958B8",
"G. c #7D63B5",
"H. c #5A1EC5",
"J. c #5719CB",
"K. c #5A1DC9",
"L. c #5D22C3",
"P. c #5E21CB",
"I. c #6126C5",
"U. c #652CC5",
"Y. c #6124CC",
"T. c #672DCA",
"R. c #6932C6",
"E. c #6D39C4",
"W. c #6A32C9",
"Q. c #6E38CA",
"!. c #713EC7",
"~. c #723ECB",
"^. c #6425D4",
"/. c #6829D6",
"(. c #6525DB",
"). c #6E33D6",
"_. c #7339D7",
"`. c #7240C7",
"'. c #7542CC",
"]. c #7947CD",
"[. c #7D4DCD",
"{. c #7E52CB",
"}. c #7B45DB",
"|. c #92619E",
" X c #8049A3",
".X c #8350B1",
"XX c #8A7AA9",
"oX c #8568BC",
"OX c #8C76BC",
"+X c #824BCF",
"@X c #8A57C7",
"#X c #8354D4",
"$X c #8767C4",
"%X c #906DC6",
"&X c #9578CA",
"*X c #8957E1",
"=X c #7F8780",
"-X c #838C83",
";X c #889684",
":X c #8B9A8A",
">X c #8C9494",
",X c #92A78D",
"<X c #91A88A",
"1X c #97B686",
"2X c #9ABD81",
"3X c #97A993",
"4X c #8E8BAA",
"5X c #B5A1AF",
"6X c #D3B489",
"7X c #DCBDA8",
"8X c #CBADBD",
"9X c #9DC582",
"0X c #9EC884",
"qX c #9FCA88",
"wX c #A0C686",
"eX c #A1C986",
"rX c #A5C887",
"tX c #A3CC8A",
"yX c #A8D08F",
"uX c #B4CF93",
"iX c #A7D091",
"pX c #ABD293",
"aX c #D0DD96",
"sX c #ECD38F",
"dX c #FFEE93",
"fX c #FFF59A",
"gX c #D6C5AA",
"hX c #B494C1",
/* pixels */
"o.>.9X$.2.;.o.;.;.#.rXeX:.X.:.eX2.2.+.O.2.X.$.9X:.:.2.o.=.>.o.>.tX1.O.#.tX1.2.=.$.9X#.#.9X:.;.2.#.#.2X&.$.pX9X:.} tX2.wX:.o.:.=.",
"X.o.-.2.} X.&.eXrX%.X.-.-.o.-.2.*.1.X...=.X.X.;.:.$.} } tXwX;.X.=.-.O.=.2.-.$.O.J *.X.X.*.:.:.} } >.tX9X} =.-.;.%.2.>.*.=.X.O.O.",
"=.} X.*.%.o.9X2.>.>.X.[ } X.2.:.| L =X;X#.;.} } | ,X;X3X3X3X3X:X| -X-X,X3X:X-X;X>X>X>X>X} O.:.X.=.2.1.2.=.} } X.O.wX;.{ } $.} =.",
"pXwX#.} } ;.2.;.$.9X2.#.O.X.} ;XG.OX$XXX1XpXtX:X4XoXOX%XOXOXOXOXOXoX&X%X&X%X&X&X&X&X&X4X:Xo.} o.>.9X$.>.9X>.O.#.} #.X.;.rXtXrXrX",
"9XwX;.o.#.;.;.wXrX9X:.o.O.>.$.-XF.`.E.F.4X3X1X4X$X#X#X#X+X#X+X#X{.{.#X#X#X*X*X*X*X}.}.{.4X;X#.#.2.;.tXwX9X;.#.=.1X$.#.9XeX9X2.2.",
"9X9X9XO.%.O.%.>.9X>.X.O.0XeXyX-XD.v.U.E.F.OX&X$X@X#X].'.`.`.~.~._.'.}.}.}.}.}.}.'.'._._.'.G.;X} =.#.>.9X=.o.;.eXpX9X$.} >.2.>.9X",
">.>.;.%.pX#.} #.$.} :.eX1.9X9X<XA.u.v.R.`.[.[.[.[.`.E.R.R.R.U.R.R.T.W.T._._._.).T.T.W./.^.D.:XqXo.} $.@.} tXwX9X9X9X2XX.} ;.rX9X",
"2.{ %.eXwXrX;.} } ;.2.1.:.1.9X;.L A.z.B.E.`.`.D.B.B.M.v.b.I.v.c.L.L.L.^./.(././.U.L.P.P.H.B.:XtXrX%.} } 9X9X>.>.2.9X>.#.;.2.9X9X",
"$.=.rX2.2.2.9X:.$.$.2.;.9X;.X.} } v u.B.R.R.B.v.M.v.c.k.L.k.h.k.L.L.P.P./.(.(.(./.P.P.P.K.B.A.:X:.eX%.=.;.wX=.2.;.} o.o.#.2.>.2.",
"O.:.eX2.;.O.=.X.$.X.O...K [ O.O.qXL D.E.R.U.L.b.b.b.b.N.L.H.H.H.L.P.^.(.(.(.(.(.(.(.^.^.(.^.B.Z.L O.} O.} $.} { } %.%.rX#.} } O.",
"o.#.2.-.#.} O.&.O.:.eX=.;.:.O.&.1.:XF.E.U.v.L.L.H.I.b.H.H.v.p.V.V.S.S.S. X X XS.S. XS.S.C.m.v.u.v O.%.X.rX9X;.>.;.O.;.2.eXrX=.o.",
":.o.O.} } 9XyXyXeXO.:.2.2.2.1.X.*.;XF.R.v.x.c.c.k.b.c.j.b.m.B ^ ^ ^ ~ ~ ~ ~ ~ ~ ~ ~ ~ ~ ! N p.t.:XpXyX-.%.2.2.2.9X:.} :.-.wX;.O.",
"yX2X=.$.=.9X2.wX2.+.X.2.:.+.[ X.} -XD.L.c.x.x.c.b.k.c.k.H.V.^ ( E U U U U U U U U I I Y E W i.y.L -.2.9Xo.;.2.:.O.} } o.$.;.X.9X",
"2.2.wX%.o.:.:.1.2.2.X.O.X.X.=.2.eX-XD.k.k.k.b.k.c.c.c.H.H.V.^ E 3 * = - - - - - - - - 3 U W i.y.x K =.:.:.} =.} #.:.wX9X} } ;.:.",
"=.2.9X:.O.#.>.2.2.2.O.X.O.eXyXeXwX,XZ.z.v.k.L.k.x.x.b.K.K.V.^ Y *   . + + + + + + + + ; P W i.y.z D *.2.>.o.O.%.pXtXwXeX9X%.#.2.",
"%.;.;.o.#.o.>.2X>.2.O.X.=.2.2.2.2.2X,XA.z.H.I.c.x.h.L.L.H.V.^ Y *     . + + $ $ $ # + - I W p.y.k G X.0X>.O.#.:.:.wX2.2.2.>.=.O.",
"} { } o.;.X.} X.O.O.o.[ ..X.-.*.1.-.-.L z.L.L.b.x.x.b.H.H.V.^ T *       X $ $ $ $ $ + - n ! i.t.k g H $.O.X.X.X.%.:.:.1.:.:.:.$.",
":.2X-.rXtX2.X.} X.=.-.tX*.} o.1.1.-...v z.b.c.b.b.b.c.k.H.C.,.R =         X o $ $ # + - P W i.u.k f H X.:.2.rXO.[ =.2.:.=.o.O.O.",
"2X9X1.1.:.>.;.O.yX0X2.2.0X:.X.O.o.K o.;XZ.z.c.b.L.b.x.h.k.C.,.R *           $ $ $ $ + - P W i.y.z Z X.qXeXwXeX0X=.} $.X.} $.2XX.",
"X.;.1.:.:.tXO.X.-.2.2.1.-.2.} X...o.2.:.;XZ.z.L.L.b.x.h.H.V.^ Y *         . $ $ $ $ + - P m Z.u.x j K 1.2.2.1.:.:.X.} O.$.0X9X:.",
"O.+.2.:.:.1.=.O.X.*.=.-.-.o.X.:.-.X.J -.1.L z.L.k.b.c.k.H.C.^ Y *         . o $ $ $ # - P W t y.x h J o.=.-.:.:.} =.:.;.} X.1.2.",
"X.:.2.#.1.-.} #.$.} eX9X1.X.:.0X2.1.X.O.1.v z.c.b.b.b.H.H.C.^ Y =         . o $ $ $ # - b n r r k j X.#.$.tX2.-.} tX1.9X=.} :.-.",
"X.O.-.:.o.#.O.tXtXo.O.-.-.X.:.1.-.-.X.X.-.L Z.z.b.b.L.L.K.V.^ T *           X $ $ # # - n n t e.k S 2X>.X.;.1.-.X.9X:.-.=.o.=.O.",
"o.X.&.>.=.} 2.wX2.:.[ O.o.O.2.9XO.X.X.[ X.X.L Z.z.L.v.b.L.V.` R *             . $ # # - n n i.t.k F *.0X#.o.#.O.;.9X>.#.o.O.} X.",
"rX=.#.} o.;.eX>.;.eX:.X.o.} =.$.} =.0XrXwXyX>.v n.U.v.b.L.C.,.R *               X # # - I n i.t.z G O.9XeX&.o.o.X.:.o.o.;.tXwXtX",
"tXtX=.@.#.$.>.>.>.9X:.$.o.*.o.o.-.tX9X2.9XwXtX;XD.R.R.L.K.C.,.R *               + $ + = I W t w.z S %.>.2.>.O.%.;.} o.tXyX9X9X9X",
"2.wXeX@.o.;.:.2.2.eX$.X.>.pXrX$.} -.2.:.9X2.wX>XF.Q.R.L.P.S. .W 3 * * * * * * * = ; , 1 b N y.w.z S *.9X2.@.%.rXpX2X#.#.9X9X>.9X",
"2.>.;.%.tXX.} &.:.o.$.9X9X2.2.-.} } #.0X9X2.2.:XF.Q.W.U.L.N.m.V W Y Y Y U U n I U b t l.p.p.l.y.k s O.&.} >.rX2.9X9X=.} } ;.rX2.",
">.o.O.wXrXrX#.} } &.9XwX1.1.0X9X=.@.9X:.9X2X;X>XG.~.W.I.L.L.J.m.B ^ ^ ` ) ' ( ) Q B m.^.P.c.f.y.z j H | >.wXwX2.2.2.wX$.;.9X2.2.",
";.@.rXwXwXrXeX&.o.=.2.-.;.2.$.o.X.X.9X>.9X<XXX$X{.~.W.U.L.L.H.N.a.C.C.C ` ' ( Q C D.).^.b.g.0.w.z H K O.>.9X&.>.>.%.o.@.&.wX9X9X",
"} >.rX2.;.:.>.$.&.o.=.#.O.} } $.;.O.o.O.=.-XoX[.].Q.W.L.L.b.L.L.L.J.J.S.] ' ( ! D.(.^.L.g.q.w.w d F } $.$.>.} $.} @.%.;.@.#.$.;.",
"%.;.2.>.:.} } $.O.&.;.X.X.%.O.=.2.rX:.o.} :XoX'.'.W.U.L.c.c.L.L.L.K.J.S.] ' ( ! S.(.^.L.f.r.k u p f ..*.;.&.} %.%.%.;.9XyX2X} o.",
"$.o.-.O.} =.yXyX:.-.2.eXtXeX-.$.:.-.:.tX| >X.X].Q.T.I.b.c.c.k.L.L.K.H.C.] _ ( ~ S.^.P.b.s.w.u p j J ;.*.wXwXeXyXeX=.$.2.1.tX2.o.",
"iX$.X.o.#.0XrX9XrXO.+.1.1.-.} X...*.9X| XX%X+X~.W.I.L.L.L.b.L.L.L.H.H.C.^ _ ( ! C.K.^.b.s.w.u j A H ;.9XX.:.1.2.=.} } *.=.>.o.:.",
"2.9X0XO.$.1.:.2.9X2.X.1.=.X.X.=.=.} { ;X$X+X+XQ.R.I.L.L.L.L.L.L.L.K.K.C.^ _ ( ! C.H.P.b.d.r.u s Z J -.9X:.%.1.#.X.$.-.$.} X.$.9X",
"-.1.1.:.} O.:.1.1.-.o.} X.-.tXtXrX9X} ;XoX'.'.W.U.I.L.L.L.L.L.L.L.H.P.C.~ ( ( ! C.P.P.L.s.r.z s J *.1.:.-.X.} O.rXtXrXyX:.o.$.1.",
"=.:.:.o.$...>.2.:.2.O...O.2.2.2.1.2.rX3XoX+XW.U.I.L.L.L.L.L.L.L.H.H.l.C.^ _ ( ! C.K.^.b.f.w.u j J 9X:.2.2.X.X.=.2.2.2.2.2.:.X.*.",
"} } X.o.o.X.X.X.:.=.X.[ X.+.1.-.2.rXaXgX%X~.W.I.I.L.L.L.L.L.H.L.H.j.0.r ^ ' ( ~ S.^.^.b.g.e.u j H *.X.:.=.} o.#.-.2.:.2.:.1.:.X.",
"$.$.=.>.tX;.o.K { ..+.:.X.[ } rXrXaXgX8X%XQ.T.I.L.k.k.c.H.L.L.L.H.h.q.r M / ( ! S.(.^.L.g.r.x J K J J K X.;.;...} =.2.1.-.*.O.O.",
"0X0X0X2.0XrX$.o.rXtX0X9XrX+.} rXaXgXhX&X+XW.I.I.L.h.q.q.j.L.L.L.H.H.j.f.i.i T ~ S.(.^.I.g.u.z K -.+.;.iXtXeXtXeXO.X.:.#.} X.=.o.",
"X.:.1.:.=.:.$.O.:.2.1.1.1.2...&.7X8X%XQ.T.U.I.b.H.h.8.8.h.H.L.L.L.L.L.c.8.q T Q  X(.^.K.b.z.Z.c #.O.*.:.2.2.1.1.>.X.[ } =.tX0X$.",
"O.#.2.2.2.0X=.O.o.:.-.1.-.+.X.:XXXoX].T.U.L.c.b.k.h.8.8.h.L.L.L.k.L.H.h.0.q Q Q  X^.P.L.P.T.B.Z.:X#.X.=.:.:.1.1.#.o.$.O.} $.1.1.",
"X.-.2.$.1.-.} o.X.{ 0X1.-.X.-.3X.XQ.W.U.I.N.x.x.L.h.8.8.h.L.L.L.K.L.K.h.8.q b N m.(.Y.P./.^.K.z.L } O.X.#.0X:.:.X.wXwXtX=.} :.-.",
"X.=.:.-.;.$.X.wX0XO.-.2.1.} -.,XG._.W.U.Y.b.x.x.k.h.8.8.h.L.L.L.L.L.L.h.8.7 q r I.(./././.I.b.p.v $.yX;.#.2.1.-.} 2.1.:.;.} -.=.",
"X.X.=.>.O.X.:.wX0X;.K *.O.| 1X>XoX~.W.I.L.b.c.b.L.h.q.0.d.j.k.L.L.L.L.k.q.6.6.7.a..X/./.^.L.g.w.c :.2.tXX.o.*.O.=.2.:.X.X.O.} o.",
"wXX.[ X.o.O.2.2.:.9X$.K ..| 4X@X[.~.W.I.L.L.b.b.L.L.j.g.0.q.j.L.L.L.L.k.c.d.6.q M B .X(.^.L.g.w.z G -.2.1.o.} o.o.9XO.} O.:.=.:.",
"tXtXO.X.X.=.:.$.$.9X1.=.[ | oX[.'.~.R.N.I.H.L.L.H.L.H.h.8.8.s.h.h.k.L.L.H.g.r N ` <.|.+XW.L.g.e.z D K -.9X2.o.X.X.[ } 2.pX2.wX2.",
"9XrX2Xo.o.;.:.wXrX9X=.#.;.3XoX].~.R.N.c.b.I.H.L.L.L.H.h.8.8 8.8.8.q.j.H.j.p.M ^ 3.sXsXhX+XL.g.y.z D ;.2.9X$.$.2XuX=.O.$.wXwX2.2.",
"2.9X>.o.;.#.} ;.9X=.o.&.1X4X$X'.Q.U.v.c.b.L.L.L.L.L.L.j.q.8.8.8.8.q.f.l.t C ` 3.4.fXfX7X@XK.H.z.Z.z $.2X$.$.>.0XrX0X#.} =.;.wX9X",
":.=.=.>.pX:.o.} @.@.9X3X4X@X{.'.W.U.L.b.L.L.L.L.L.H.L.b.j.h.h.h.h.g.8.r M ` 3.dXdXfXfX7X@XP.^.T.M.Z.L } $.tXeX2.9X0X0Xo.&.>.2.9X",
":.} :.wX2.rX2.X.} ;.2.,XG.[.].Q.T.L.L.L.L.b.b.H.L.L.L.L.L.L.L.L.H.k.q.r M <.6X7X7X7X7X5X+X(././.^.z.v } 9X2.:.:.2.;.#.o.=.2.2.2.",
"} >.0X:.:.:.2.:.%.} -.;XF.!.Q.R.U.L.L.b.c.x.x.v.b.L.H.L.P.L.L.L.H.H.g.l.a. X.X@X@X@X@X+X)././.^.L.z.L $.O.2.#.*.X.} X.$.X.O.*.:.",
"o.=.:.1.:.} #.X.O.#.K | D.T.P.L.L.L.L.b.x.x.x.x.b.L.I.H.L.L.N.k.I.H.N.H.K.H.H.K.^.(.^.(././.Y.L.c.u.c K $.#.X.} X.O.:.tX;.#.} } ",
"O.O.:.=.} o.>.;.$.2XiX:XD.L.b.L.L.b.c.c.c.c.x.x.H.L.H.I.L.c.j.c.H.I.L.H.H.H.H.K.^.^.P.K.^.^.L.b.c.u.z D 9XyX:.eXwXO.=.2.2.eX2.X.",
"rXX.O.} ..qXeXtX0XX.-.<XA.u.9.5.5.0.g.c.L.b.x.x.c.b.b.b.k.b.x.g.k.L.k.k.N.j.b.I.^.^.P.Y./.^.L.c.x.u.v D J 1.2.2.-.#.} :.:.2.o.$.",
"eXqX:.o.;.:.1.2.1.:.X.1X<Xz , : : 6 q.L.L.b.g.l.h.h.g.s.s.g.s.l.h.h.j.j.h.j.j.c.I.Y.Y.^./.P.L.v.c.z.c G J *.2.:.X.O.o.o.} O.o.tX",
":.2.wX>.} -.:.1.9X:.....} Z 2 O . @ 7 0.x.c.x.s.f.f.q.0.0.0.0.w.q.q.f.s.q.s.s.d.g.b.P.^.^.Y.L.b.L.z.u s ..} X.} ;.tXyXyX*.X.;.1.",
":.1.:.=.O.} 1.1.1.2.o.o.O.*.j 2 O   @ 6 0.h.s.0.9.9.7.7.7.7.8 8 8 8 7.7.9.9.9.9.0.d.v.L.L.L.L.L.L.w.6 2 F X.#.*.eXwX2.2.:.*.X.-.",
"X.} $.} $.X.=.%.:.:.O...o.*.J s < o   @ 6 8 7 7 0 e 0 0 0 0 0 0 0 q 0 w e e 0 e e w.9.9.8 8 5.5.5.6 @ % Z o.X.#.-.2.2.2.1.2.#.X.",
"X.X.o.=.>.O.[ } } o.X.o.X.J ..J s 2 o . @ : @ > y d u y u y u y y u y y d d d u d y , : : : : : : @   % a O.O.o.} ;.:.2.:.-.;.+.",
"rXtXwXwXeXeXO.X.;.2.tXtX1.o.X.*.G p ; O % % % < p A S h a a g S S Z a p a g f p p p < & % % & % % % % < F 9XeX;.} O.2.;.O.} X.O.",
"O.1.1.1.=.:.;.X.9X2.1.1.0X2.X.X.J A a p 5 4 2 p s f h g a j g j s Z Z a p p p s A A 2 4 5 4 p 4 p 2 4 p A J :.0X:.} o.{ o.>.pXO.",
"o.=.1.2.wXyX=.X.*.1.2.1.-.-...X.o.J G D A p p Z A S H G Z g F G F D D j f g f A F F Z s j j Z A S s p s Z D O.:.;.X.o.$.=.;.1.;.",
"o.-.2.2.2.2.#.o.o.$.=.-.-.X.=.eXqXO.J J D s a Z Z F J X.J J K X.O.....[ *.2XX.K J *.o.F S j j j g a a a s D o.>.o.9XrXwXo.o.2.2."
};
