/* XPM */
static char *SatoshiBlock_solong1676886650[] = {
/* columns rows colors chars-per-pixel */
"64 64 229 2 ",
"   c #3C163C",
".  c #421C3A",
"X  c #513628",
"o  c #4B233C",
"O  c #51273E",
"+  c #683E3A",
"@  c #6D5B0F",
"#  c #665518",
"$  c #756B11",
"%  c #797713",
"&  c #724F2E",
"*  c #6B4338",
"=  c #5D6634",
"-  c #6B732C",
";  c #6A7536",
":  c #6C7B3B",
">  c #717E39",
",  c #33044C",
"<  c #2C0055",
"1  c #3B0657",
"2  c #3E0A55",
"3  c #34005C",
"4  c #2F0060",
"5  c #360365",
"6  c #481C45",
"7  c #4D1D4B",
"8  c #501E4D",
"9  c #410B58",
"0  c #4F2147",
"q  c #542646",
"w  c #562845",
"e  c #592C44",
"r  c #51214A",
"t  c #582A53",
"y  c #6B2F5E",
"u  c #6B3651",
"i  c #6A385B",
"p  c #4E0F6F",
"a  c #450277",
"s  c #641F6D",
"d  c #652368",
"f  c #712B6D",
"g  c #773564",
"h  c #7E366E",
"j  c #6C2273",
"k  c #742777",
"l  c #752A75",
"z  c #782D74",
"x  c #722479",
"c  c #772C7B",
"v  c #7C3374",
"b  c #7B4E47",
"n  c #764B53",
"m  c #586A46",
"M  c #5F7246",
"N  c #5E724C",
"B  c #677C44",
"V  c #61754D",
"C  c #637B4E",
"Z  c #677A53",
"A  c #657C51",
"S  c #857804",
"D  c #836D12",
"F  c #8E701F",
"G  c #967A19",
"H  c #856525",
"J  c #8A6B22",
"K  c #87662A",
"L  c #93722D",
"P  c #966B34",
"I  c #80376D",
"U  c #823A6B",
"Y  c #843F71",
"T  c #955D4D",
"R  c #995A57",
"E  c #95565A",
"W  c #975958",
"Q  c #89674E",
"!  c #A56B53",
"~  c #894674",
"^  c #874479",
"/  c #A7736E",
"(  c #72823D",
")  c #798D3E",
"_  c #6D8147",
"`  c #768844",
"'  c #698356",
"]  c #6A8356",
"[  c #6E8C5A",
"{  c #718C5C",
"}  c #74935D",
"|  c #758E60",
" . c #759362",
".. c #7D9564",
"X. c #7D9B64",
"o. c #7F9568",
"O. c #7FA268",
"+. c #978E0B",
"@. c #898513",
"#. c #8A8714",
"$. c #9A8115",
"%. c #9E8918",
"&. c #AB960D",
"*. c #A38A12",
"=. c #A38A16",
"-. c #AC8D1B",
";. c #BAAC07",
":. c #A8A614",
">. c #B9AD17",
",. c #929129",
"<. c #A18D22",
"1. c #B6843D",
"2. c #B8863C",
"3. c #BB893B",
"4. c #AD9A34",
"5. c #9DA125",
"6. c #B4B135",
"7. c #C9BA01",
"8. c #CAAF13",
"9. c #D2B218",
"0. c #DAB51F",
"q. c #DEBA1C",
"w. c #E0BC1C",
"e. c #C89C2F",
"r. c #C49632",
"t. c #C69831",
"y. c #D5AE24",
"u. c #D9B221",
"i. c #DAB525",
"p. c #CAB839",
"a. c #DBB836",
"s. c #DAB73A",
"d. c #E0BC21",
"f. c #D2C100",
"g. c #DAC603",
"h. c #DFD71A",
"j. c #E9D506",
"k. c #E6C515",
"l. c #F5E000",
"z. c #FCE203",
"x. c #F9E11D",
"c. c #CFC62F",
"v. c #E6C728",
"b. c #E3D52E",
"n. c #E2DC32",
"m. c #E6E335",
"M. c #E8E438",
"N. c #F8E832",
"B. c #889B52",
"V. c #BA8843",
"C. c #B59544",
"Z. c #92A85C",
"A. c #9CB55D",
"S. c #ADB54C",
"D. c #A6B959",
"F. c #819A66",
"G. c #819668",
"H. c #849D6A",
"J. c #B1857D",
"K. c #86A16B",
"L. c #89A56D",
"P. c #87A86B",
"I. c #8BAA6E",
"U. c #96AC67",
"Y. c #9EB866",
"T. c #8AA670",
"R. c #8DAC72",
"E. c #90AF74",
"W. c #92AF78",
"Q. c #8EB272",
"!. c #92B475",
"~. c #94BA76",
"^. c #9ABC75",
"/. c #94B579",
"(. c #96BB7A",
"). c #99BD7D",
"_. c #A3B966",
"`. c #B7BE63",
"'. c #C89E4B",
"]. c #D8B64C",
"[. c #C69D67",
"{. c #ABC35D",
"}. c #B7C95C",
"|. c #96C07A",
" X c #99C27D",
".X c #ACC667",
"XX c #B3CC67",
"oX c #B5D36A",
"OX c #ABC974",
"+X c #B3D278",
"@X c #CECF50",
"#X c #D7C45C",
"$X c #E4D94C",
"%X c #E2C558",
"&X c #E9E54A",
"*X c #E7E954",
"=X c #D2C964",
"-X c #D6E062",
";X c #480087",
":X c #4D008B",
">X c #54018D",
",X c #5A0788",
"<X c #5E0A8A",
"1X c #4E0096",
"2X c #4D0098",
"3X c #530193",
"4X c #580796",
"5X c #5E149D",
"6X c #610E86",
"7X c #631288",
"8X c #631495",
"9X c #742B8F",
"0X c #621AA0",
"qX c #6824A6",
"wX c #8A498A",
"eX c #955986",
"rX c #9A618B",
"tX c #AF8380",
"yX c #97BB80",
"uX c #9ABD81",
"iX c #9DC582",
"pX c #9FC885",
"aX c #A0C686",
"sX c #A0C987",
"dX c #A5CB89",
"fX c #A3CC8B",
"gX c #A7D08E",
"hX c #A7D091",
"jX c #ABD293",
/* pixels */
"L.).iXR.)./.L./.).H.aXsX|.K.(.aX XiXL.I. XK.R.iX/.(. XL.!.yXT.yXfX XR.R.fX|.iXR.L. XT.T.iX).!.iXT.R.uXE.R.hXiX).H.fX XaX(.L.).!.",
"K.L.~. XL.H.E.aXdXE.K.~.~.P.(. XQ.~.H.K.Q.L.K.!.|.R.H.H.fXiX/.K.!.~.I.!.|.~.Q.P.H.!.K.K.R.~.).H.H.).aXiXK.Q.(.!.R.iX XR.!.K.I.I.",
"E.H.K.Q.R.L.iX X).uXL.o.H.K. X|.H.F.L.L.L.(.K.H.R.(.H.). X XiXE.o.F.F.~. XI.G.P.T.L.!.R.H.I.(.H.!.iXiXiX!.H.F.K.L.iX!.G.H.R.H.R.",
"hXaXT.K.H./.iX/.R.iX).R.P.K.K.L.I.iXfXfXaXgXdXR.H.H.E.iXuXT.iXiXQ.P.I.H.L.K.!.fXfXfXsXjX!.L.H.L.).uXR.(.iXuXT.R.H.R.L./.fXfXsXdX",
"iXsX).H.E././.aXsXiX(.I.I.).!.L.R.aX X X XaXiXaXE.L.T.iX/.fXiXiXI.I././.L.L.iXiXiX XiXiXfXT.R.T. X!.hXiXiX/.R.!.uXT.T.uXaXiXiX X",
"iXiX XR.R.T.E.).iX).K.I.aXsXfXR.H.!. X~. X X).aXE.E.T.!.E.iX)._.Y._.OXfX!.I.P.iX(.iX XiXiX(.R.L.!.T.uXiX!.L./.aXdXaXE.L.). X).iX",
").uX!.E.jXT.H.T.R.H.(.aX X XiXiXK.o.R.aXaX).uX).I.dX/.H.H./.U.@X$X@XS.OXiXE.F.H.aXaX).uX(.E.uXaXT.H.R.H.H.dXiXiXaXiXuXH.H./.sXiX",
" XG.E.sXaXdX/.H.H./. X|.(.(.iX XR.I. X X X XL.L.aXiXdX+X_.U.=X&XM.v.c.}.XX_.Z. X X XiX!.H.).iXsXaXW.H.K.aXiX).).iXiXyXT./. XiXiX",
"R.!.fX X XiXiX(.E.R. X!.iX(.K.H.P.H.(.|. X/.I. XdX).+X-X*X&X&XN.N.x.N.m.n.6.S.U.~.).(.T.iXfX(.iX XiX!.!.(.iX!.iX/.H.L.L.T.iX).iX",
"I.).iX X/.I.!.K.R.K.P.K...F.I.R.pXI.H.o.I.I.R.OXOXXXXX=X%X%X%X%Xs.s.s.s.s.v.c.S.B.P.L.K.sX|. X!.R.Q.H.I.H.I.G.G.H.R.R.sXR.G.H.L.",
"L.R.(.(.R.F.R.R.P.(.aX!.!.(.I.E.|.|.pX XP.L.Y.-X*X*X#XtXrXeXeX^ ^ ^ ^ ^ ! c.j.c.S.K.K.L.!.(.!.L.K.R.E.L.dXiX!.(./.I./. XaXsX!.K.",
"/.K.E.F.H.iXhXhXsXI.). X X X XH.~.|. XOX_.OX`.#X%X%X[.wXqX0X8Xc Y ~ c 8X9XV.8.5.4.S..X_.U.U.G.I.fXjXfX/.R.iXiX XiX(.K.).(.iX).I.",
"hXiXR.R.!.iX XiX XR.P.|.).Q.} L.L.I.OX=X*X*X%XJ.rXeXwX9X8X5Xc V.i.i.2.l ,Xy n u Q p.M.@XS.Z.I.uX XiX X XL.!. X).T.K.H.L.R.!.K.aX",
" X XaXE.I.(.(.|. X XK.Q.K.K.^.OX+X_.`.].%X%X[.wXqX8X5X8X4X4Xl 3.w.w.3.z 3X5 5 5 n C.s.S.4.}._._._. X X|.(.L.!.H.R.(.aXiXH.H.!. X",
"/. XiX(.T.T.(. XiX XR.H.R.pX+X-X*X*X#XtXrXeXwX0X0X4X4X4X>X>X6Xz ~ U z 6X3X>Xa p p n n i Q @Xn.p.S.OX X X XL.T.R.jXdXiXaXiXR.R.).",
"E./.!.L.T.T.(.iX/. XU.U..X+X=X=X%X%X[.wXqXwX^ ^ I 7X>X>X>X3X>X3X>X>X>X>X>X4X>Xa 9 t 8 5 i C.p.4.4._._..X_.L.T.(.).iXiX X XiXR.L.",
"H.G.H.I.!.L.F.L.R.R.A.@X$X&X#XtXrXeXwX9X9XV.d.d.3.z 3X3X3X3X>X3X3X3X>X>X3X>X3X:Xs P K t p i n n n C.6.6.6.B.K.K.R.yX/.|.(.|.(.R.",
"(.uX/.aXfX XL.G.K.R..X&XN.$X[./ wXwX9X8Xz 3.w.w.2.l 6Xl U U z 6X4X>X>X3X<Xj f k g L K 8 5 t t t n ,.4.;.:.A.pXR.X.Q.iX).Q.L.I.I.",
"uXiX|.|.). X!.I.hXiXoXM.s./ / '.d.a.3.c <Xx U U l <Xl 2.w.q.3.z >X>X>X3Xj P -.-.F * 8 1 0 - =.-.L b & $.:.Y.iXpX/.X.Q.K.H.Q.yXP.",
"L.!. X(./.fXI.K.~. XoXm.].wX9Xr.d.d.t.R I I x <X1X3Xl 3.w.w.3.z 3X4X>X>Xs K %.*.F + q e + F *.*.- 7 0 D 5.Z.~.~.yXK.K.L.R.pXiX/.",
"L.Q. X).(.).!.L.H.!.{.m.s.^ 4Xc U U R r.q.0.2.x 1X1X<Xz U U z 6X4X>X>Xa 9 8 q q + J *.*.F * e e 8 1 O D #.` } !.H.!.(./.H.L.|.iX",
"K.(. XR. X~.H.R.R.H.oXM.v.! c <X1X2Xx 2.q.q.r.W U U l <X3X3X3X3X>X>Xa 3 1 7 q q + F *.*.H 8 4 5 3 3 O D @.` [ P.F.sX XiXQ.H.(.!.",
"K.I.(.(.L.P.I.fXaXT.D.m.x.v.2.l 3X2X<Xl U U W r.w.q.2.x 2X1X3X3X>Xa 5 5 7 H *.*.J + w e r 9 3 3 3 3 O D @.> [ L.L.iX X!.Q.L.Q.Q.",
"T.L.R.(.!.H.iXiXiX(.D.m.x.v.C.z <Xl l <X2X2Xx 2.q.q.r.W U U U U g u e e + J *.*.J 7 4 3 3 3 1 3 3 3 O D @.; C G./.iX).T.L.L.H.K.",
"fXW.T.H.H.).iX(.).dX.Xn.v.! 9X6Xz 2.2.x 1X1X,Xl U U W r.q.0.0.0.q.9.8.*.J + e e 8 1 3 3 3 3 3 3 3 3 O D #.: Z ..K.(.H.T./.fXaXfX",
"sXfX/.T.E.R.(.yXyXuXXXm.s.^ 4X1XU q.k.! h h l <X1X1Xl 2.q.u.u.u.k.z.l.g.$.q 4 4 1 8 r 9 3 3 9 r 0 1 O D #.( Z K./.H.T.fXhXiXiXiX",
"iXiXaXL.T.!./.aX XaXD.n.s.~ 4X2XI 0.z.k.q.q.2.x 2X3X6Xl U I I I ! w.l.f.$.w 4 4 8 J J r 3 3 r J H 6 o D #.; ] /.jXuXT.T.iXiX).iX",
").iX/.R.fXL.H.E.(.L.{.m.s.~ 4X3XI u.z.k.0.q.t.R k <X3X3X<Xx x >Xh y.l.f.$.q 1 7 * F J r 3 3 r J H 7 O D @.B  .Q.iXiX!.K.H.W.sXiX",
").H.R.iXdXdXT.G.H.E.oXm.a.~ 4X2XU 0.k.! h h R e.3.l 1X1Xl 2.1.x v y.l.f.G q 8 K F * r 9 3 3 9 q 0 1 O $ #.` | Q. XaXaXT.(.iXiX).",
"/.R.dX XiXaXaXE.L.E.XXm.a.~ 4X3XU 0.0.h 1X1Xl 3.e.R x ,XU q.0.I v y.l.f.$.q 7 J J r 3 3 1 3 3 3 3 3 O D #.` ] R.).E.H.T.E.aXiXiX",
"H.uXaXaX/.(.).E.E.L..Xn.a.~ 4X3XU 0.0.h 1X1X<Xl R t.2.x U w.q.U h y.l.f.G q 1 8 r 9 1 3 3 3 1 3 3 3 O D @.> V G.H.T.E./.L.E.R.!.",
"E.!. X X).G.H.E.E.E..Xb.a.~ 4X3XU 0.0.U 3X3X3X1Xh q.q.U x 2.2.x h y.l.f.$.w 5 3 3 3 3 3 1 3 3 3 3 3 O D #.; Z H.E.E.).iXdXyXH.T.",
"R.L.~.I.H.!.gXgX/.~.oXM.c.~ 4X1XU 0.0.U 3X3X3X2XI w.w.U ,Xk k ,XI y.l.f.$.w 5 3 3 3 3 1 3 3 3 3 3 3 O D #.`  .yXpX!.R. X(.iXiXP.",
"hXR.K.L.I.sXfX XdXP.{.m.s.~ 4X1XU 0.0.U ,Xk U U W r.2.k 3X3X3X3XU u.l.f.$.w 3 3 1 3 3 3 9 r 0 9 3 3 O D @.: } Q.!.H.H.!.!. XK.(.",
" XiXiXR.R.(.(. X X XD.M.s.~ 4X2XU 0.u.h x 2.q.w.r.E x <X3X>X3X3XI u.l.f.G w 3 3 3 3 5 3 q H H r 3 < O D #.; { X.P.R./.R.F.K.W.iX",
"~. X X~.H.I.(.|. X).D.n.s.~ 4X3XU 0.u.h x 2.q.q.r.E x 6X3X3X3X>XU u.l.7.$.e 3 3 9 8 7 1 e *.*.e 3 3 O D #.; V ..sXfXsXgX(.P.R.(.",
"!.(.).I.R.K.(.).~. XD.n.a.~ 4X3XU 0.0.U <Xl U U W t.3.k 3X>X3X3XI i.l.f.$.w 3 5 q J H 7 w *.*.e 3 3 O D #.; Z K. X X X XiX(.K.R.",
"F.F.H.P.L.P.K.P.(.!.D.n.a.~ 4X2XU 0.0.U 3X3X3X1Xk 3.e.R l <X3X3XU y.l.f.$.e 3 3 e *.*.q 8 H J r 3 < O D @.- C F.~. X~. X(. X(.K.",
"R.R.!.).gX!.L...X.K.{.n.s.~ 4X1XU 0.0.U 3X3X3X3X<Xl R t.3.z 3X3XI u.l.f.$.w 4 4 e *.*.e 1 8 r 9 3 < O D @.: [  .H.!. X X/.Q.P.I.",
"aXpXiXiXiXaXR.L.aXfXoXm.s.^ 4X2XU 0.0.U 3X3X>X>X>X1XI w.w.U 1X1XI u.l.f.$.w 3 3 r H H r 3 3 3 3 3 3 O D #._  ./.L.K.).R.F.L.!.P.",
"L.(. X~.!.(.R.I.). XXXm.a.~ 4X2XU 0.q.U 1X>X>X>X3X1Xh q.w.~ 1X3XU i.l.7.$.e 5 3 9 r 8 2 3 3 1 3 3 3 O D #.( [ Q. XK.F.H.Q.sXfXR.",
"I.I. X X XiX(.L.K.(.{.m.v.! c <XU u.k.! l <X3X3X<Xl R t.3.f 3X1XU y.l.f.G w 3 3 3 3 3 3 3 3 9 r 0 1 O D @.( [ I.R.L.R.R.F.R.|. X",
"H.!. XR. X~.H.L.K.H.XXm.x.v.V.k h y.l.k.2.x 1X1Xl 3.e.R k <X3X3XI u.l.f.$.w 3 4 3 3 3 3 3 3 0 J H 6 O D @._ [ Q.H.aXaXsX!.H.(.~.",
"L.!.).~.!.R.L.iXaXR.{.m.x.v.V.x h y.z.k.t.W I I R e.3.k 3X>X3X3XU i.l.f.$.w 1 r q 9 3 3 3 3 r J H 6 o $ @.( [ P.F.iX X(.!.H.~.Q.",
"K.H.!. XR.H.(.aXpX/.D.n.d.! j ,XU i.k.! E r.0.0.r.R l <X3X3X3X3XU u.l.f.G w 7 H J 8 3 3 3 3 2 o 6 , o $ @.; ] o.!. X(.L.I.L.H.L.",
"iXL.F.K.P.I. X X|.iXD.h.q.T s ;Xk r.P x x V.w.w.3.k 3X3X<Xz k <XI u.l.f.G q 7 H F * 8 1 3 1 < < , 2 X S @.; N  .L.iXI.F.I.(.!./.",
"gXaXL.K.P./.(.R.Q. X}.h.g.>.P s a k j ,X,Xz U U l 6X>X:Xz 3.2.x v y.l.g.$.w 1 7 * F H 0 3 3 < ,   # D S S _ A ..K.F.H.).jX XaXiX",
"iXsXyXL.L./.(.iXfX X_.6.>.>.$.T y y j p :X3X>X>X>X>X3X>X~ q.q.U v y.l.7.$.e 5 3 q H H . , . o   X @ % % - ; Z W.jX!.I.!.iXaX X X",
"iXiX(.I./.L.H.(.iX/.L.D.A.B.,.<.*.-.L d ;X:X:X3X>X3X>X3XU q.q.h v y.l.g.G w 3 3 2 .   ,   # @ @ # = ; : M M [ /.pXiXR.H././.aXuX",
"(.!.E.).jX(.H.H.T.T.iXsXI.[ ` 5.:.:.<.b y y f p :X>X>X3Xz 3.2.k I y.l.7.$.q < < , . . . X # % $ - = m m V '  .R.iXpXiXL.T.aX XiX",
").H./.dX XfXuXP.H.!. X~.P.[ ' ( : : ,.%.-.-.L d :X:X:X>X6Xz l ,XI y.l.7.G O < <   # @ @ # ; ( ( _ V m m ' A ' P.iX/.R.K.!. X X X",
"H.(.iX).~.(. X/.R.L.~.E.P.' N N N m B 5.:.:.-.b y y f p :X:X1X1XI y.l.7.+.* . . X # % $ - _ N ' A A N V Z [ [ R.P.H.H.R.K.I.!.(.",
"L.!.|.|.(.F.T.K.I.I.K.K.X...X.K.R.' M ; - ( ) =.-.-.P d ;X;X:X1Xh y.j.7.+.S $ @ # = = ; B ' N N m m N  .F.....F.L.I./.sX/.R.G.H.",
"P.I.(.!.K.L.yX(.R.).fX XiXpXQ.R.~.} }  .C m ; 5.:.:.<.b y y g g T 9.j.;.+.+.S S ( ; m = V C N N ' ' { O.fXfX(.sXiXR.!. X|.sX XL.",
"dXK.I.F.H.pXsXfXsXK.~.|.|.~.I.K.I.Q.!.F.{ ..V : > ; ,.<.-.-.-.-.9.g.7.&.( S $ ( M m ' ' m m N  .uXyXiX/.L.|. X X(.R.H.(.(. XL.R.",
"aXsX).I.!. X). X X).P. X~.P.K.I.P.o.P.F.(.F. . .C M ` 5.:.:.>.f.g.7.7.+.( $ $ = m ' ' [  .Z ' /.yX|.iXiXQ.R. X(.K.K.R.L.F.I.L.fX",
"~.|.iX).K.!.(. X X(.K.K.X.I.iXgXgX(.K.P. XQ.Q.Q.R.V M ` ) ` ,.;.7.7.&.@.$ - _ = m A ' O.Q.~.K.K.~. X X|.~.H.K.H.!.fXgXgXR.K./.|.",
"(. X X!.L.H. X X|. XP.K.P.aXpX|. X|.Q.K.Q. XR. XQ.Z N [ [ A ` 5.&.$.#.% % _ ' ' M N X.R. X|.I.K.L. X(. X XK.I.R.sXaX|.iX XQ.K.~.",
"K.H.I.K.I.L.Q.R.(.(.I.K.P.(. X|.|.|.~.~.K.P.o.R.H.K.X...X.' C : ; ; ; ; = _ N ' [ [ o.G.K.L.I.R.F.~.R.).~.K.L.R.|. X X X X XR.K.",
"L.L.K.E.iXI.F.H.H.P.K.P.P.o.I.~.|.(.Q.~.I.P.L.P.P.iXR.K. .A C A N M m m ' ' ' N ..P.I.R.K.I.yX/.L.H.G.L.K.I.I.L.H.!.(.|.(.(.!.I.",
"aXaXaXaXaXfXI.K.!. XpXgX).P.K. X~.I.F.P.I.uXfX XfXpXfX(.K.O.R.yXQ.[ m m m ' ' ' ..I.!.fX XfXaXsXiXI.K.(.sXfXfX(.L.L.iX!.I.F.I.I.",
"I.|.|.|.!.(.~.K.iX X|.|.iX XH.K.F.F./.fX(.P.(.|.(././.(.K.iX|.iXQ.X.} A N N ' O.aXaXK.!. X|.(.!. XL.!.). X XiXiX(.F.L.G.K.).hXI.",
"K.!. X XaXgX!.K.Q. X X|.~.~.K.K.P.I.!.~.(.I.P.(. XiXsXiXK.K.~.iX|.Q.O.O.} X.} O.). XR.H.(. XiXsXsXR.H.~.iX X|.).!.T.L.R.R.(. X!.",
"L.(. X X X).T.L.L.R.~.~.!.L.Q.dXpXR.H.~.iXE.R.iX XiX)./.K.K.R.Q.|.Q.Q.Q.iXgX~.O.R. X~.L. X XiX).(.L.L.T.E.(./.).L.uXdXaXI.H. XiX"
};
