/* XPM */
static char *f2da0e1a06e94d80bab1541e999fb30dmihdK090FZgcU3tZ[] = {
/* columns rows colors chars-per-pixel */
"64 64 250 2 ",
"   c None",
".  c black",
"X  c #040109",
"o  c #100621",
"O  c #15082D",
"+  c #16082D",
"@  c #170931",
"#  c #180933",
"$  c #1A0A37",
"%  c #280E54",
"&  c #37117B",
"*  c #38117C",
"=  c #38117D",
"-  c #39117E",
";  c #39127F",
":  c #3A127F",
">  c #381080",
",  c #3A1280",
"<  c #3A1282",
"1  c #3C1384",
"2  c #3C1188",
"3  c #3C108A",
"4  c #3E1488",
"5  c #3F1588",
"6  c #3F1589",
"7  c #401787",
"8  c #401589",
"9  c #40158A",
"0  c #41168B",
"q  c #40158C",
"w  c #41158D",
"e  c #41168C",
"r  c #42168E",
"t  c #42168F",
"y  c #401290",
"u  c #411490",
"i  c #431690",
"p  c #431791",
"a  c #441694",
"s  c #461893",
"d  c #481A97",
"f  c #47179D",
"g  c #471898",
"h  c #471899",
"j  c #48189A",
"k  c #4A1B9B",
"l  c #49189C",
"z  c #4C1B9F",
"x  c #4D1D9F",
"c  c #482182",
"v  c #5F3B84",
"b  c #4C1BA0",
"n  c #4D1DA0",
"m  c #4E1DA1",
"M  c #4E1CA2",
"N  c #4F1DA2",
"B  c #4E1CA3",
"V  c #4F1DA3",
"C  c #4D1AA4",
"Z  c #4E1BA7",
"A  c #4E1CA7",
"S  c #4F1BAA",
"D  c #501DA5",
"F  c #501FA6",
"G  c #511DA8",
"H  c #521EA8",
"J  c #521EA9",
"K  c #521EAA",
"L  c #531EAB",
"P  c #511BAF",
"I  c #521DAD",
"U  c #541EB0",
"Y  c #541EB1",
"T  c #551DB3",
"R  c #541EB2",
"E  c #561FB2",
"W  c #561EB5",
"Q  c #571EB6",
"!  c #561EB7",
"~  c #571EB7",
"^  c #581FB8",
"/  c #581DBD",
"(  c #5521AC",
")  c #5621AD",
"_  c #5520AE",
"`  c #5621AE",
"'  c #5621AF",
"]  c #5721B0",
"[  c #5721B1",
"{  c #5722B0",
"}  c #5722B1",
"|  c #5721B2",
" . c #5822B1",
".. c #5821B2",
"X. c #5821B3",
"o. c #5821B4",
"O. c #5821B5",
"+. c #5822B4",
"@. c #5922B4",
"#. c #5922B5",
"$. c #5821B6",
"%. c #5921B6",
"&. c #5820B7",
"*. c #5921B7",
"=. c #5922B6",
"-. c #5A22B7",
";. c #5A23B7",
":. c #5921B8",
">. c #5920B9",
",. c #5A21B8",
"<. c #5A21B9",
"1. c #5A22B8",
"2. c #5A23B8",
"3. c #5A22B9",
"4. c #5B22B9",
"5. c #5B23B9",
"6. c #5921BB",
"7. c #5A21BA",
"8. c #5A20BB",
"9. c #5A21BB",
"0. c #5B21BB",
"q. c #5B22BA",
"w. c #5B23BA",
"e. c #5B21BC",
"r. c #5A20BD",
"t. c #5B21BD",
"y. c #5A20BE",
"u. c #5B20BE",
"i. c #5B21BE",
"p. c #5B21BF",
"a. c #5C23BC",
"s. c #5C21BE",
"d. c #5C21BF",
"f. c #5D23BF",
"g. c #632ABD",
"h. c #662EBE",
"j. c #694684",
"k. c #694685",
"l. c #6F4A8E",
"z. c #7D52A0",
"x. c #7544B0",
"c. c #7A49B1",
"v. c #7742BB",
"b. c #7C47BB",
"n. c #7A44BC",
"m. c #7B46BC",
"M. c #571AC5",
"N. c #5B1FC3",
"B. c #5A1DC4",
"V. c #5A1DC5",
"C. c #5A1EC4",
"Z. c #5B1FC4",
"A. c #5B20C0",
"S. c #5C21C0",
"D. c #5C21C1",
"F. c #5D21C1",
"G. c #5D22C1",
"H. c #5C21C2",
"J. c #5D21C2",
"K. c #5C20C3",
"L. c #5D21C3",
"P. c #5D22C2",
"I. c #5D22C3",
"U. c #5E22C2",
"Y. c #5E24C0",
"T. c #5C20C4",
"R. c #5D21C4",
"E. c #5E21C4",
"W. c #5E21C5",
"Q. c #5D23C4",
"!. c #5E23C4",
"~. c #5E22C5",
"^. c #5F22C5",
"/. c #5E21C6",
"(. c #5E22C6",
"). c #5F22C6",
"_. c #5F22C7",
"`. c #5F22C8",
"'. c #5F23C8",
"]. c #6025C6",
"[. c #6025C7",
"{. c #6125C7",
"}. c #652BC1",
"|. c #6023C8",
" X c #6023C9",
".X c #6023CA",
"XX c #6123CA",
"oX c #6123CB",
"OX c #6124C9",
"+X c #6024CA",
"@X c #6125CA",
"#X c #6124CB",
"$X c #6225CA",
"%X c #6225CB",
"&X c #6223CD",
"*X c #6124CC",
"=X c #6224CC",
"-X c #6224CD",
";X c #6325CD",
":X c #6326CD",
">X c #6324CE",
",X c #6325CE",
"<X c #6325CF",
"1X c #6426CE",
"2X c #6427CF",
"3X c #6425D0",
"4X c #6527D0",
"5X c #6526D1",
"6X c #6527D1",
"7X c #6526D2",
"8X c #6526D3",
"9X c #6626D3",
"0X c #6627D3",
"qX c #6626D4",
"wX c #6627D4",
"eX c #6627D5",
"rX c #6727D5",
"tX c #6727D7",
"yX c #6827D7",
"uX c #6728D5",
"iX c #6728D6",
"pX c #6728D7",
"aX c #6828D7",
"sX c #6827D8",
"dX c #6828D8",
"fX c #6828D9",
"gX c #6928D9",
"hX c #6928DA",
"jX c #6C29DF",
"kX c #8A5FA7",
"lX c #A67CB1",
"zX c #B793A8",
"xX c #BC97AB",
"cX c #BC99A8",
"vX c #C4A992",
"bX c #CFB693",
"nX c #D0B693",
"mX c #D4BA95",
"MX c #DBC09B",
"NX c #E2C89D",
"BX c #F8E19A",
"VX c #FFEE9B",
"CX c #FEE89C",
"ZX c #FFF099",
"AX c #FFF09A",
"SX c #FFF19B",
"DX c #FFF29A",
"FX c #FFF499",
"GX c #E8CDA1",
"HX c #E9CEA0",
/* pixels */
"                                                                                                                                ",
"                                                                                                                                ",
"                                                        dXdXdXdXdXdXdXeX|.H.H.^./ ].].N.].N.N.].                                ",
"                                                        dXuXeXuXdXdXeX3X^.^.H.H.E.]./ N.N.].]./                                 ",
"                                                    dXdXdXeX=X=X8XyXXX|.^.H.^.H.H.H.].].H.H.H.H.].N.].N.                        ",
"                                                    8X8XeX1X^.`.8X8X|.H.N.H.d.d.H.H./ d.d.d.d.H.].H.N.].                        ",
"                                                dX8XXX|.^.`.^.`.8X8X|.N.Z.g.=.^ d.d.^ } X.} } =./ /                             ",
"                                                dXeXXXH.^.`.^.=X8XyX&XXXZ./ =.=.d.H.=.} X.E X.=.d.].                            ",
"                                            H.#XeX8X'.^.=XeXeXuXaXaXeX1X|./ H./ ].B./ / d.d.d.e.                                ",
"                                            H.^.3XeX'.^.eXdXdXdXdXaX8X#X|.H.H.].N.g.N.g.H.H.d.e.                                ",
"                                            H.#XeX8X`.`.eXsXdXdXdX8Xf.5.d.H.^.H.].d.^ ^ d.d.=.X.                                ",
"                                            `.=XeXeX=X=XeXsXdXuX0X{.q.=.H.H.H.H.N.d.%.X./ q.=.X.                                ",
"                                            8XuXuXuXeXeXaXdXdX0Xf.=.e.e.^.K.^.N.N.g./ 5.%.%./ d.                                ",
"                                            dXdXdXdX8XeXaXdXdX=X;.X.e.^.H.K.H.H.N.B.].d.X.X.5.|.                                ",
"                                            dXdXdXuX=X=XyXdXdX1X;.} e.H.^.H.^.^.E.E.N./ X.)                                     ",
"                                            dXdXdX3X`.^.9XdXdX1X;.X.e.^.K.H.H.H.N.E.d.5.=.X.                                    ",
"                                            dXdXsX8X^.`.eXdXdX1X%.X.^ E./ E.].N.H.d.=.=.q.d.                                    ",
"                                            dXdXsXeX`.'.eXdXdX1X%.X.d.N.].]./ E.^./ } X./ |.                                    ",
"                                            dXdXdXeX'.`.8XdXdX1X5.X.d.].E.E.E.F.H.d.X.'                                         ",
"                                            8XeXuXeX^.`.8XsXdX8X5.X.^ F.E.N.N.E.H.d.=.X.                                        ",
"                                            `.=XeX8XXX^.8XdXdX1X5.X.d.H.].N.N.].H.N.d.d.                                        ",
"                                            `.#X8X=XXX#XaXdXdX1X;.) d.H.H.N.]./ H.].d.d.                                        ",
"                                            8X8XXXXX3XuXaXdXdX8Xq.} 5.H.H.|.H.H.H.d.=.E                                         ",
"                                            8X1XXX#XeXdXdXdXdX1X=.} d.^.H.H.H.d.d.q.X.X.                                        ",
"                                            #XXX8XeXaXaXdXdXhX=Xq.} e.^.^.N.$.} E ^ 5.d.                                        ",
"                                            ^.#X8XdXdXdXhXdXhX8Xq.} e.H.e.q.} ' E ~ / |.                                        ",
"                                            8X8XdXdXdXdXdXdXdX1X=.} e.K.q.E L X.5.g.H.N.                                        ",
"                                            dXaX8X1X1X1X1X1X1X{.q.=.K.e.=.} } =./ N.].].                                        ",
"                                                5.;.;.;.;.;.=.q.d.d.H.H./ e.e.K.H.H.                                            ",
"                                                X.X.=.2.;.=.} } d.Z.^.H.^.^.H.H.d.d.                                            ",
"                                                e.H.#X2X2X'.;.} d.H.^.H.H.^.^.e.=.E                                             ",
"                                                ^.^.3XuXuX#X=.' =.d.H.N.^.H.H.H.q.)                                             ",
"                                                ^.H.|.XXXXH.} ' X.=.d.]./ N.E.F.e.R p &                                         ",
"                                                / d.N.H.H.q.^ } X.^ / ].].E.N.E.T.Q l q                                         ",
"                                            ; q H =.d.H.H.d.} } q.d.H.H.E.].]./ ^.N.Q S q ;                                     ",
"                                            ; 0 m X.d.^.|.H.} ' q./ ].N.E./ E.].e.K.^.Q h 6                                     ",
"                                            ; 0 m X.d.|.=X2X;.' E ^ / N.N./ ]./ =.q.K.e.L k 0 ;                                 ",
"                                            ; 0 L 5.d.XX0X0X2.) ( E g.].E.E.|.5.( D Q q.X.m 0 ;                                 ",
"                                        < ; & p q.=X|.|.eX=Xq.( ( ) / |.E.E.E.E g s D ;.X.D 0 ;                                 ",
"                                        > 1 q A XX8XXX|.uX=X;.' X.%.^ ].N.E.N.I 0 5 D  .) m 0 ;                                 ",
"                                        ; q E #XeXeX`.`.8X=X;.} 5.d.].N.N./ %.H 8 8 D ) ) D 0 ;                                 ",
"                                        ; g H.yXdXeX&X=XuX0XY.q./ |.].N.N.B.%.L s w l D C k 5 ;                                 ",
"                                            ^.=XeXuXeXuXuXdX6X=X].E./ ].N.g.d./ S l y 3 3 3 < >                                 ",
"                                            H.'.eXdXdXdXdXdXdXuX^.F.N.E.].N.N.h.c.z.l.j.k.v c >                                 ",
"                                            H.#X8XdXdXdXdXdXdXuX|.E.N.]./ N.B.b.xXmXmXbXnXvX                                    ",
"                                            H.'.8XdXdXdXdXaX8X#X].N.E.E.].N.B.b.xXHXCXDXVXSX                                    ",
"                                            H.'.0XdXdXdXdX0XY.5./ E.E.].E./ ].g.m.lXGXDXDXVX                                    ",
"                                            {.#XuXdXdXdXdX=X=.} s.E.E./ N.E.E.B.M.n.zXNXBXVX                                    ",
"                                            8X8XaXdXdXdXdX1X=.X.^ E.].N./ ].].N.M.g.x.kX                                        ",
"                                            8XuXaXuXeXuXdX1X;.X./ ]./ E.].N.N.N.N.N.U U                                         ",
"                                            XX#X8XeX=X=XeX1X=.X.g.N.].E.E.N.H.].H./ E E / V.                                    ",
"                                            K.'.8XuX`.&XaX0Xd.=./ N./ E.E.F.d.d.H.H.=.=.d.^.                                    ",
"                                            H.`.8XuX&X&XsXeX#XH.].E.E.E.]./ %.=.d.H.d.d.H.H.                                    ",
"                                            #X&X8X^.m d m m d z ^ E.E.N.H.d.X.X.5.d./ ].H.e.                                    ",
"                                            eXeX=Xm % O @ @ O % z |.^.N.]./ =.) ) %.]./ =.X.                                    ",
"                                            dXdX=Xk O . . . . o 7 E.].d./ 5.X.) X./ / g.=.X.                                    ",
"                                                dXk # . . . . X     =.X.X.X.' X.q.K.K.H.d.d.                                    ",
"                                                hX( $ . . . . .     X.' ) ) ) X.e.^.H.H.H.H.                                    ",
"                                                                                                                                ",
"                                                                                                                                ",
"                                                                                                                                ",
"                                                                                                                                ",
"                                                                                                                                ",
"                                                                                                                                "
};
