/* XPM */
static char *vortex1676886652[] = {
/* columns rows colors chars-per-pixel */
"64 64 253 2 ",
"   c #3A0D4E",
".  c #350C4A",
"X  c #3C144D",
"o  c #3C0E51",
"O  c #360E51",
"+  c #3D1152",
"@  c #3D145B",
"#  c #361156",
"$  c #2E0B47",
"%  c #3C1662",
"&  c #450D4E",
"*  c #530F4D",
"=  c #430F52",
"-  c #4B0F51",
";  c #441254",
":  c #4C1354",
">  c #45165B",
",  c #4B1659",
"<  c #44195E",
"1  c #4C1A5C",
"2  c #4B1B54",
"3  c #521456",
"4  c #541659",
"5  c #531A5B",
"6  c #5C1A5C",
"7  c #591657",
"8  c #43154F",
"9  c #631C5D",
"0  c #681C5A",
"q  c #741E5F",
"w  c #6B205F",
"e  c #77235E",
"r  c #451B63",
"t  c #4B1D64",
"y  c #4C1D6A",
"u  c #451867",
"i  c #531C63",
"p  c #541D6B",
"a  c #5A1D6B",
"s  c #591C63",
"d  c #4D1B75",
"f  c #531C74",
"g  c #541B7A",
"h  c #5B1D7D",
"j  c #5B1D71",
"k  c #641D62",
"l  c #681D65",
"z  c #661D78",
"x  c #771E78",
"c  c #701A6D",
"v  c #4D2165",
"b  c #4D226B",
"n  c #472565",
"m  c #532165",
"M  c #53246C",
"N  c #5B236D",
"B  c #58286A",
"V  c #4D2473",
"C  c #4B2577",
"Z  c #542572",
"A  c #5C2473",
"S  c #552974",
"D  c #5C2A73",
"F  c #5C247A",
"G  c #542A7C",
"H  c #5C2C7B",
"J  c #532579",
"K  c #5E317D",
"L  c #5C3578",
"P  c #593A6C",
"I  c #632264",
"U  c #6C2264",
"Y  c #63246D",
"T  c #6A286B",
"R  c #732565",
"E  c #772669",
"W  c #632574",
"Q  c #6B2574",
"!  c #632A75",
"~  c #63257A",
"^  c #642C7B",
"/  c #6B2C7C",
"(  c #6B2778",
")  c #732C7C",
"_  c #772978",
"`  c #64327C",
"'  c #6A327C",
"]  c #683876",
"[  c #77337B",
"{  c #66336B",
"}  c #5C4569",
"|  c #6D4575",
" . c #745777",
".. c #6C5375",
"X. c #756E71",
"o. c #801D79",
"O. c #862B68",
"+. c #832B79",
"@. c #893278",
"#. c #993677",
"$. c #93326E",
"%. c #A63A7A",
"&. c #807A7A",
"*. c #7F8E6F",
"=. c #869276",
"-. c #90AB73",
";. c #5C1E82",
":. c #571A83",
">. c #621E84",
",. c #7F1F80",
"<. c #5D2283",
"1. c #542D84",
"2. c #5C2D83",
"3. c #5E2B89",
"4. c #5D338C",
"5. c #5A3287",
"6. c #5D3491",
"7. c #632284",
"8. c #6C2484",
"9. c #642C83",
"0. c #6A2C83",
"q. c #642389",
"w. c #6A2C8B",
"e. c #69288A",
"r. c #732485",
"t. c #732C82",
"y. c #7D2C8B",
"u. c #782888",
"i. c #643382",
"p. c #6C3482",
"a. c #6E3984",
"s. c #6B338B",
"d. c #68378B",
"f. c #723584",
"g. c #723A85",
"h. c #723C8A",
"j. c #783589",
"k. c #6E2C91",
"l. c #742E92",
"z. c #6D3392",
"x. c #6D3B93",
"c. c #673897",
"v. c #743395",
"b. c #743B95",
"n. c #74369B",
"m. c #753B9C",
"M. c #7C3899",
"N. c #6E3CA0",
"B. c #7A3DA3",
"V. c #783DA5",
"C. c #764588",
"Z. c #6C4196",
"A. c #764699",
"S. c #764D92",
"D. c #7A6888",
"F. c #6D43A5",
"G. c #7C44AB",
"H. c #7845A7",
"J. c #7A49B4",
"K. c #7C51B6",
"L. c #832B8C",
"P. c #852A87",
"I. c #83328C",
"U. c #883586",
"Y. c #95388A",
"T. c #892C92",
"R. c #8C3394",
"E. c #863897",
"W. c #933296",
"Q. c #9C3D95",
"!. c #973899",
"~. c #912B86",
"^. c #A53B89",
"/. c #A33D9D",
"(. c #A33E96",
"). c #B03E8E",
"_. c #843CA2",
"`. c #893BA8",
"'. c #9A3BB5",
"]. c #943EAA",
"[. c #A73CBC",
"{. c #A73EA1",
"}. c #88459B",
"|. c #984298",
" X c #83579A",
".X c #88468A",
"XX c #B64288",
"oX c #AB449C",
"OX c #A54598",
"+X c #B64798",
"@X c #A84D98",
"#X c #86708F",
"$X c #8343AC",
"%X c #8847A9",
"&X c #9746A8",
"*X c #8957A7",
"=X c #9658AB",
"-X c #844BB3",
";X c #8B4BB5",
":X c #8949B6",
">X c #934AB6",
",X c #9C4BBC",
"<X c #9646B8",
"1X c #8852B7",
"2X c #9654B9",
"3X c #AC43A3",
"4X c #A445A5",
"5X c #B74AA7",
"6X c #A547BC",
"7X c #B353BB",
"8X c #A954B0",
"9X c #9A67B8",
"0X c #9461AE",
"qX c #A970BC",
"wX c #C84C98",
"eX c #D35199",
"rX c #D04E93",
"tX c #C453AF",
"yX c #AC3EC2",
"uX c #9B4CC2",
"iX c #944EC1",
"pX c #8B55C4",
"aX c #9957C5",
"sX c #9455C9",
"dX c #A44CC3",
"fX c #A948C5",
"gX c #B24DC8",
"hX c #A354C4",
"jX c #AC53CB",
"kX c #AB5BCD",
"lX c #A658C8",
"zX c #B757CB",
"xX c #A95AD2",
"cX c #B85AD5",
"vX c #B94FD0",
"bX c #9A67C8",
"nX c #9968D1",
"mX c #A865CA",
"MX c #AB65D5",
"NX c #BD63DC",
"BX c #B966D9",
"VX c #BB75D8",
"CX c #AE70CC",
"ZX c #B36CE2",
"AX c #C257CE",
"SX c #C365D9",
"DX c #D06CCF",
"FX c #C56AE3",
"GX c #D076E5",
"HX c #8A8B89",
"JX c #95AF84",
"KX c #B184D8",
"LX c #D38DEE",
/* pixels */
"=.=.&. . .| | [ ] ) Q ! Q ! ! ! H a.B 1 M ` M B : 6 ;   7 k k 3 : 4 6 3 3 : : - 8 X ; ` a.D D i.B ! ] B ! D t S M v v B } } X.*.",
"X.X. . .] ] [ ] ' ) ' ' / ! ! ] C.h.m b L i.S ' 3 U = 3 l 9 U 9 7 l U 3 6 9 3 : 4 : O ' ` ` B S M ! ] B N D v v v < r v b P } X.",
"X. ...| ] ] / ' ' ' | [ W / h.` ! M S L Z.i.5 I U , : 0 : X ; 3 I 5 > ; 6 9 7 , 8 -   K ` M M D K A ! ` m ` A > < v v v t v n } ",
"=. .] { ' / ' ' ( ( .X) Q ! N N m v K x.Z.N 3 U 3 : k ; . ; > 1 ; ; >     8 ; 2 X : : 2 1 v v B K D B ' ! A A D b v r v v r n } ",
" . .] / / / f./ ( ' C.g.p.p.D m B K S t : 3 3 9 7 9 ; . ;   O ;   . .     ; , + X 2 6 - - D b v M M D D Y B ! i.S b S b v t b b ",
" .| ] ! / f.[ ' Q C..X[ g.g.` S M < ` 3 : ; 6 6 4 ; +         + > ; 1 X       2 X : U 6 ( { v S v B A D M N D ! v B B v r t v b ",
" .] ' ' / ' g.( ' [ f.f.p.a.` i.M M A.1 3 ; 5 > > > .     o + 1 1 5 m 1 > + +   ;   ; 6 B [ B b v B M H D N A ! D M t < t y b b ",
"] ! D ' ] / g.~ ' g.f.a.a.p.` S Z i.B : ; > 1 > +   X   , 1 1 5 1 1 1 1 1 1 1   . X + 3 X Y / M v H b B D A ! p p M b b y y V b ",
"D P D ` ` ' / / f.g.g.p.D H i.S S 5   3 ; i +     2 1 > 1 , 6 9 6 6 4 1 1 t m 1 >   2 > . t ( g.` v S v N ! D a i M b M b r r b ",
"B D D D D a.! ' f.g.f.a.A D K i.^ 4 6 ; 1 1 =   > i 1 4 6 6 4 1 1 3 3 1 5 1 5 1 1   + 1 > Z M T g.T n M B D A N A b < < r v b V ",
"D ! D ] ' p.! ' a.g.N ' p.i.x.K 5 U 3 ; 1     + 1 ; 3 9 5 3 6 6 w U R w , + , 1 1 > . ; t v H B [ [ 5 M D A A M D D r < b t y V ",
"L ] D ' a.' ` g.h.` D h.H D t   9 s + , .   . ; 1 , 9 , 7 U w 1 1 5 6 R 9 =   X 1 1     1 ` D t ! f.! S d.D N Z p ~ t v S V b V ",
"L L ] C.C.` ' a.p.D B D M K 1 - I ; 1 8     X 3 1 9 4 3 U w 6 3 7 6 , : 4 R :   ; 1 ; . o B b M L ! s.K M D ` ^ M ^ p M H Z 1.Z ",
"B M ] a.a.D p.' ' L D v H x.N 3 : > , .   . 3 6 6 U 7 { B 6 4 1 5 w 6 4 : 8 E :   1 1 X o , m Z y D g.Z.H M h.` A 9.A F M S G J ",
"D D L S.C.^ ` ^ ^ a.K S H h.s 7 , 1 o .   - U 9 6 9 {  .{ 2 5 5 1 2 6 w 9 , 3 U 8 > 1     , t > D b ' ` H i.h.~ ~ 9.A 9.D Z V V ",
"D B D a.a.g.! ! a.` K K p.' 3 w 5 ; .   = k R 9 , e [ .X6 4 6 0 5 5 7 5 1 6 3 3 4 + 5 > O = 5 > D H ` ^ S 2.^ 9.i.~ F 9.i.G G 2.",
"B S D ! ' g.a.` ! N i.i.Z.N U w >   .   : E k 6 4 9 2 6 w 3   4 9 3 : 9 5 2 6 ; 6 ; t 1 +   1 i < B ' a.^ d.d.0.9.~ F s.G V 1.2.",
"n P ! ` ! a.^ ' / D K ` D 0 E ; , ; ; . 9 R R s 1 5 4 5 3     - 3 o . 8 6 5 1 ; 9 9 ; 1 + O > m > D / ) 0.Z.i.^ 9.9.s.s.S S 1.5.",
"m D D ` ' a.' a.D K K K p.E w X 1 4 : = k U R 6 5 0 , 0 : : 3 e e 0 7 & 8 0 5 , 4 U = 1 >   > 1 M d./ U.[ A.G.b.s.9.z.s.i.5.c.d.",
"L D ! ' h.p./ ! D K H p.' U ; m 5 3 X - U E 9 6 5 3   o : e e e e e O.e 6 6 w 5 1 I 6 > > + > + S A.^ U.f.d.A.M.9.9.x.v.9.4.4.5.",
"D D ^ ! a.^ / / i M D d.Y 7 8 T U 3   : R 6 7 6 4 :   0 e 9 = = :   9 O.O.e 6 6 5 i k 1 t O t ; t Z.0.}.E.d.H i.9.9.d.x.*XZ.C 6.",
"D ` a.p.^ g.g.^ M A H ` T : ; T [ , . 3 6 7 6 1 9 = 7 e 3 = & * * *   7 R w : 9 I < U 6 > + > i 1 r 1 h.2X` x.b.H.z.n.0X*X4.1.5.",
"` a.g.f.^ / p.W i.M H D k 4 > { R 3   : 3 9 N 3 3 ; e &   * * 7 * * * o = ! U 4 I @ _ E o @ > t s O N }.=X/ 2.x.H.-XA.qX0X6.1.G ",
"` a.h.' ^ W W ! D i.^ ; w 4 1 ; 8 5 . ; , 6 4 2 ; 0 0   * 0 e O.O.R 0 3 = ]  ., U 1 I T @ @ < a i O Z.E.b.d.x.m.*X2XK.KXbX6.6.1.",
"` ` h.p.W ^ W ^ H p A 3 w 1 >   3 6 : . 3 5 5 6 , e : & 0 O.0 0 q O.$.q * m +.1 U i i +.> @ > Q < @ A.%XA.4.c.x.1X1X=XKXbX6.Z.Z.",
"L ` g.h.0.0.W N A D   : 6 8 : : 6 9 3 . 6 9 6 9 9 e - * R 7 & * = 7 O.O.7 = E $.U U r @.i # ] U.@ b b b.=X5.i.m.2XG.H.bXCX5.1.Z.",
"L p.' g.h./ A D Y 0.i 9 : > : : 6 k ,   9 R 9 3 0 0 & 7 l - 7 * 0 3 4 +.1 3 I %.a _ r [ a % i ( r b r D %X-X1X*X1X%XH.;XZ.6.6.6.",
"M / p.0.f.0.p ^ Q Q 4 R : > : , U 0 ;   9 I 1 6 w 3 = R 7 * 0 $.$.7 3 O.i > s %.u E t _ N y _ s u S b ! h.aXG.2X1XG.n.H.K.J.Z.F.",
"Z D f./ p.f.a A k ~ , 6 : : 3 3 U E ;   l 6 9 6 R - , O., 7 %.$.%.x # O.Q % s %.N Q M W A y Y.a % G Z S U.2XG.nX2X$Xn.B.J.G.c.F.",
"H D p.^ / / j A ( A & 8 8 > 4 : 3 E , ; U 6 : , R : 6 O.4 q +.@ r $.a E @.y W %.a ) A W A b XXW % S S H %X*XH.*XpX;XG.G.-X-Xc.N.",
"S K ' ( ~ A A ^ 0.; . : . + 4 : ; k : : I 6 , ; l 7 7 E > $._ 4 4 +.#.l #.W t.#.N W A U.( u Y.( u J V x.VX2X1X-XbXbXpX;X:XK.F.6.",
"m ^ W ^ f.0.A A f.t . - . X 6 ; : 6 O 3 m I U > R 3 9 O.% +.O.i 0 _ %.l ^.c s Y.W d Z Y.y.u Y.t.y Z V b.VXVXH.1XKXaXbXaX$XH.F.6.",
"Z ! A ~ / p.~ j ( $ . 3 + ; I 4 ; + o 4 N l > > O.> s $.u T #.W k +.%.c ).Q x Y.~ d d OXu.y |.Y.Y H Z s.&XmX%X2XMXCXVX2XK.F.F.K.",
"Z A ~ f.Q ^ H Q [ 1 . : + 5 w 9 U ; # , N l > > +.s i #.p i ^.@.p +.+.c ).Q @.wXd ) h Y.y.y Q.oXI.9.Z M.+.>XmX1XMXMXiX<XpXZ.F.x.",
"M H ^ 0.0.~ H A f.M.9.+ $ I 6 ; 6 , + # a 1 @ @ U T % Y.+.u p d j ^._ o.XXx ~.+X8.t.~ Y.( f U.5Xy.2.9.j.!.bX-X$XnXMXuXaXaX-XJ.c.",
"p H ~ 0./ A F ^ ) f.~ Z $ U m : + i + + i t r @ Y +.% O.rX_ a p ~.rXx +.).z U.wXoX7.u.(.8.g t.(.( 9.j.z.8X&Xn.>XhXmXhXMXMXG.c.F.",
"y ^ a.0./ Z A ) t./ Z W , R T s s N k + i t s u p %.T k XXrXXXwXwXL.x ~.^.c /.wX/.;.I.5X8.F y.|.I.I.j.3.SX&X$X%XlXhXuXkXlX-Xc.4.",
"t 9.0.0.8.A a z I.^ D A 3 U E M 5 i +.# i r Y y u XX@.j z ) Y.wXP.z o./.^.>./.5XL.g 3X5Xh ~ y.3XI.8.y.u lXlX$X].hXkXcXjXlX1XG.c.",
"H 9.i./ ^ ^ H a _ s.r $ k _ E Y 1 < [ > s % _ p % @.rXh z z j h x o.~.eX~.>.y.5Xq.7.5XW.;.r.8.OXI.j.0.J lX6XaX<X6X6XjXjXdX:XN.c.",
"t ~ 0.~ 9.~ F w._ 9.F t 0 [ T Y k 1 Y < M % ) a y a ).).d z z o.o.u.eX).r.u./.{.7.u.5Xy.<.u.e.|.R.!.8.%XGX,XiXxXzXfXcXcXjX$XV.c.",
"r j ~ 0.z.~ Z ^ j.i.9.M.E @.T N a p k r N r ^ _ y f ( eX^.7.>.r.u.{.wXP.x u.3X!.:.!.5Xy.7.I.7.|.E.I.y.].:X<XiX'.cXjXFXFX<X_.m.J.",
"r D 0.0.g.9.> p I.b.9.t.[ @.Y Y s t a N a W u U.d l z ( +XeXwXwXeXeXL.,.(.e.|.E.;.5X{.r.;.T.k.R.~ !.!.E.u.iX'.<XBXvXSXNXkX>Xm.H.",
"> Z ~ i.w.j > F j. XA.Q U @.! Q t N 1 [ r y % / U.f z c ~.).Q.W.P.Q.3X5X@XE.{.u.T.tXW.8.;.e.R.y.g !.!.P.&XuXiXjXFXvXfXcXNXaX$XG.",
"% Z 9.w.j.p r Z  X9Xa.f W +.M T m a j.D W p U.d P.) d _ o._ z ,.Y.=X@X.XE.OX/.tXtX{.y.>.k.l.W.>.7./.8.h jXxX<XjXFXgXzX<X,X>X-Xm.",
"@ D s.0.w.9.G y  XS.H w.%X' @ ^ T r Y.[ U.T OXj C 4X~ g x o.o.OX@X.Xg.g.I.!.5XtX{.!.u.>.n.T.W.:.!./.8.d <XdXuXuXfXgXzX<X;X>X$XV.",
"r D 0.z.9.w.H Z M h.H 1.G.U.# S [ T _ OXU.W U.t.d }.U.7.z P.+.|.C.h.8.!.3X5X[.{.T.T.q.q.n.T.r.>.OXW.L.<.sXuXxXyX[.fX'.jX>X$XB.H.",
"Z G s.b.9.F 2.2.s./ g.4.1X|.T Z i.U..X@.U.u.z Y.f d F 8.;.y.oXR.Y.W.5X!.5XtXW.W.T.u.>.q._.W.:.q.3XR.f <.ZXuXfXfXgXfXzXjX:Xn.$Xm.",
"S b s.m.9.J J 9.&X}.b.5.H.E.|./ H U.+X/ a Y.F ~ 8.d d h 8.e.3XW.R.{.5X{.tX{.T.T.y.q.>.k.{.r.q.B.5X8.<.sXuX6X'.fXSXyXcXkX>X$Xn.w.",
"J G b.0.w.9.J K f.M.m.F.1X%X2Xs./ U.OXU.n p I.~ Q.j.z.h /.e.y./.{.tX5XtX{.!.!.r.8.>.k.].!.q.k.k.{.8.iXuXxXuX'.fXcXcX<XfXuX:Xz.n.",
"b J 9.7.S.H.3.G M.E.%XZ.F.2XaXG i.U.+XY.F % t.t.x }.*Xd Y.!.L.5XtX{.!./.W.T.y.q.>.e.`.W.B.k.k.I.5XL.:XuX'.,XjXyXyXvXfXdX,XV.z.z.",
"r V 9.e.w.m.G C m.!.%XG F.lX|.[ 9.t.|.+Xt.J ~ ) ~ CXA.g !.R.!././.!.!.W.T.].k.8.:.&X3XE.v.>.q.L.{.q.`.sX`.kXAX7XfX[.jX,X_.$Xn.x.",
"% V 9.9.e.z.z.5.A.&X&XK K.bX.X|.D i.+.5X+Xs.3.t.=XqX=Xg T.).W.T.T.T.~.P.=XLX=X7.!.5XT._.k.;.;.E.zXxXZXuXdXfXtXtXgXgX'.].:X;Xm.N.",
"n V 9.z.z.v.3.4.d.M.R.b.H.2X.X@ % i.) Q.oXOXOXQ.@X0X*Xf z L.L.y.u.y.L.>.CXqX}.W.!.T.l.`.w.:.hXGXGXcX'.'.'.uXDXtXfXdX'.:X,X$XB.s.",
"n b i.Z.z.n.9.1.C b.H.$XJ.9X=X1X1.B u.) Y.Q.OXoXoX8X8XQ.7.h 8.r.r.>.r.q.E.q.!.!.L.T.`.n.h _.LXSXzX6XxXdXxXBXDXtX6XzX'.'.>X$Xz.9.",
"} C L x.n.m.z.1.C x.A.1.4.S.mXVXJ.@ j.j.y.) P.!.+X3X5XI.z g h 7.>.u.>.:.;.&X{.T.T._.l.e.g jXMXzXAX6X'.uXZXxXcX7XfXcXfX`.B.`.w.z.",
"d.C G Z.b.n.x.5.1.c.j.5.C Z.0XVX>Xi J v.9.8._ Q.5XQ.OX&X&Xw.<.h {.{.W.e.3X4Xe.l._.l.;.;.l.jXxXGXgXFXVXZXFXcXcXvXdXvXfX`.`.B.N.*X",
"..G 5.v.m.z.x.4.1.F.c.M.1.c.A.bX8X}.F n.2.f u.u.~.k.8XGXhXkXmX4X!.L.R.5XtX!.W.n.`.k.;.<.hXuXxXvXyXxXZXxXcXyXyXgX'.cX'.M.`.n.B. X",
"..L s.m.B.B.N.n.C F.m.2XA.1.Z.0X9XlXmXK.F pXe.n.w.k.VXkX>XdXhXgX5X!.r.W.T.y.>.k.v.:.h E.xXiXgXAXyXxXxXfXdXFXcX'.6XjX<XB.B.n.b.#X",
"X.} d.m.M.B.n.m.c.5.6.2X&X1XK.A.9XlXmXnX1XpXF.G.c.<.lX:XG.-XiXB.P.W.8.;.e.k.v.l.3.sX8X3X,XuXcXAXjXZXxXuXNXGXFXfXfXjXuX:X%XA.S.D.",
"X.5.b.m.m.n.n.H.*Xc.5.$XkXaXJ.Z. XbXhXaXaXJ.sXK.N.J `.N.N.:XsXnX>Xr.>.q.M.`.l.h q.BXZXR.>.<XGXAXfXjXxXfXFXFXcXvXcXuX<X<X%X%X X#X",
"HXD.S.F.B.B.H.$XG.N.6.J.,XhX1XF.F.pX<XkX,XaXMXB.-X3.-Xz.N.J.:XpXnXn.q.`._.M.7.N.q.kX6X`.,XAXGXGXuXuXdXxXFXFXNXcXcXuX].%X%X*X#X#X",
"*.=.D.S.A.H.B.m.H.J.N.3.F.hX6X>XJ.J.>X,X:X&XkX4XdXsXV.N.dX`.,XaXnX$Xv.w.e.e.$XsX].xXiX7XGXgXGXSXfX`.'.cXFXFXSXgXjX<X].%X}. X#X=.",
"*.-.HXHX*XA.m.B.N.V.V.c.F.pXH.hXsXK.:XiXB.].,XmXVXZXN.`.].&XuXV.pXV.k.k.M.k.BX6X<XsX7XSXAXAXzX6XfXuXuXvXSXcXcXfXdX`.&X X X#XHXJX",
"*.JXJXJXJX#XA.:X-XV.6.N.K.J.6.2XhXH.z.:XJ.V.`.lXlXxX:X<X'.n.pXpXiXn.M.E.l._.BX:XV.>X{.2XSXDX6XfXuXjXNXfXNXvXfXfX<X*X#X#X&.HXJXJX"
};
