/* XPM */
static char *result[] = {
/* columns rows colors chars-per-pixel */
"64 64 256 2 ",
"   c #1C1244",
".  c #190F42",
"X  c #21154A",
"o  c #2C1756",
"O  c #34145B",
"+  c #37165A",
"@  c #39265D",
"#  c #361562",
"$  c #3B1663",
"%  c #3D1964",
"&  c #3E1969",
"*  c #3D1768",
"=  c #3E246C",
"-  c #49175E",
";  c #68175F",
":  c #421A66",
">  c #4A1A66",
",  c #441C6A",
"<  c #4B1D6B",
"1  c #461664",
"2  c #531A66",
"3  c #5B1A64",
"4  c #541E6B",
"5  c #5B1E6B",
"6  c #561661",
"7  c #4B1E70",
"8  c #641A63",
"9  c #6C1B62",
"0  c #641E6B",
"q  c #691B64",
"w  c #711C63",
"e  c #45216D",
"r  c #4B216D",
"t  c #492965",
"y  c #54216D",
"u  c #5B226E",
"i  c #592A69",
"p  c #4D2472",
"a  c #4B2B7B",
"s  c #472976",
"d  c #522673",
"f  c #5C2471",
"g  c #542876",
"h  c #5A2976",
"j  c #552B7B",
"k  c #5B2C7B",
"l  c #572779",
"z  c #56337E",
"x  c #573566",
"c  c #63226E",
"v  c #6C236D",
"b  c #77236B",
"n  c #632572",
"m  c #6B2573",
"M  c #642973",
"N  c #6B2975",
"B  c #632D7C",
"V  c #6C2D7B",
"C  c #712574",
"Z  c #732B75",
"A  c #7C2C75",
"S  c #732C7A",
"D  c #7B2D7B",
"F  c #7C2776",
"G  c #64317D",
"H  c #6C317D",
"J  c #653677",
"K  c #74317C",
"L  c #7D327D",
"P  c #7A3878",
"I  c #6F3E6F",
"U  c #794375",
"Y  c #190F3F",
"T  c #822E7D",
"R  c #842D74",
"E  c #83337C",
"W  c #8B337B",
"Q  c #893679",
"!  c #93367B",
"~  c #9D397E",
"^  c #98357A",
"/  c #89296E",
"(  c #A33B7D",
")  c #AB3D7E",
"_  c #B23F7F",
"`  c #4E2D81",
"'  c #532E84",
"]  c #582E87",
"[  c #56328B",
"{  c #5B348C",
"}  c #593587",
"|  c #5C3692",
" . c #5E3A94",
".. c #4F3181",
"X. c #632E82",
"o. c #6A2C86",
"O. c #742E82",
"+. c #643383",
"@. c #6A3484",
"#. c #62348C",
"$. c #643A8E",
"%. c #6C398B",
"&. c #6C3789",
"*. c #733383",
"=. c #7B3482",
"-. c #763A88",
";. c #633593",
":. c #633B95",
">. c #6A3C94",
",. c #653C9B",
"<. c #6B3D9C",
"1. c #6C3595",
"2. c #72369C",
"3. c #733B9C",
"4. c #793898",
"5. c #6C3EA1",
"6. c #633EA1",
"7. c #753CA2",
"8. c #7A3DA3",
"9. c #7C3EA9",
"0. c #7437A3",
"q. c #654195",
"w. c #6B429B",
"e. c #6A449A",
"r. c #73439D",
"t. c #774699",
"y. c #734B92",
"u. c #6C42A4",
"i. c #6C47A6",
"p. c #7343A4",
"a. c #7B42A4",
"s. c #744BA4",
"d. c #7B4AA5",
"f. c #7345AA",
"g. c #7C43AA",
"h. c #744BAB",
"j. c #7B4BAC",
"k. c #7C54AC",
"l. c #7755A9",
"z. c #7C4CB3",
"x. c #774AB3",
"c. c #7C53B8",
"v. c #843482",
"b. c #8C3584",
"n. c #8B3984",
"m. c #8C3B8A",
"M. c #833A89",
"N. c #923685",
"B. c #933A85",
"V. c #943C8A",
"C. c #9B3D8B",
"Z. c #9A3A87",
"A. c #863C98",
"S. c #8B348F",
"D. c #A13E8C",
"F. c #AA3E81",
"G. c #883AA7",
"H. c #9539AA",
"J. c #993AB2",
"K. c #A23FB9",
"L. c #894688",
"P. c #9B418C",
"I. c #994788",
"U. c #894598",
"Y. c #984798",
"T. c #905397",
"R. c #A3428E",
"E. c #AA4488",
"W. c #B24182",
"Q. c #BA4585",
"!. c #A44392",
"~. c #AB4592",
"^. c #AD4894",
"/. c #B34B95",
"(. c #B74C99",
"). c #AE539B",
"_. c #8442A3",
"`. c #8244AC",
"'. c #834BAB",
"]. c #8A4CAD",
"[. c #8847A6",
"{. c #9647AA",
"}. c #8353AB",
"|. c #8A56AA",
" X c #9653AB",
".X c #8445B2",
"XX c #844BB3",
"oX c #8A4BB4",
"OX c #8B4DBA",
"+X c #8A46B4",
"@X c #9343B3",
"#X c #934CB3",
"$X c #9B4CBC",
"%X c #9948B7",
"&X c #8453B4",
"*X c #8B53B3",
"=X c #8D53BB",
"-X c #8B5ABC",
";X c #8458BA",
":X c #9253B4",
">X c #9B52B2",
",X c #9453BB",
"<X c #9C54BC",
"1X c #945BBC",
"2X c #9A5CBE",
"3X c #935CB6",
"4X c #A54DA9",
"5X c #A449B9",
"6X c #A556B9",
"7X c #B152B0",
"8X c #8A61BA",
"9X c #9866BA",
"0X c #996CAA",
"qX c #AA6CB6",
"wX c #9D609B",
"eX c #C74A87",
"rX c #D4508B",
"tX c #CB67B6",
"yX c #C75FB3",
"uX c #984EC1",
"iX c #8959C4",
"pX c #9353C2",
"aX c #9B54C3",
"sX c #945CC4",
"dX c #9C5CC3",
"fX c #9A59CA",
"gX c #9E5DD2",
"hX c #A54CC2",
"jX c #A758C8",
"kX c #B35BC8",
"lX c #A75CD2",
"zX c #B25CD3",
"xX c #B85DD7",
"cX c #B14CC9",
"vX c #8B63C6",
"bX c #9865C7",
"nX c #9868D3",
"mX c #9971CD",
"MX c #A363CB",
"NX c #A36ACC",
"BX c #A965C9",
"VX c #AB6CD3",
"CX c #A769D5",
"ZX c #B868D9",
"AX c #AA76D7",
"SX c #B475D9",
"DX c #B272CC",
"FX c #A77CE8",
"GX c #B56EE4",
"HX c #9D78E3",
"JX c #C56CD9",
"KX c #C879E8",
"LX c #B58CD8",
"PX c #AE81EA",
"IX c #C791D2",
"UX c #C998EE",
/* pixels */
"  X . g dX*Xt.t.#X5X{.{.>X#X:X|.3XVXd.} r.vXp.s.c v.4 : Z b.C.S 0 C v.m S m 5 c y t g bXmX}.}.vXs.3X9Xy.*X'.$.k.e. . . .x.= Y X ",
"X X   $.|.U.-.oXBXBX>X6X>X:X2X9XAXFXy.w.8XmXj.3XA C.> S D.B.!.b.D P.C.D T b.m n A n # bXbX8Xs.l.s.3X9Xy.d.oXq.q.q.} ,. .i.s s o ",
"X   q.,X[.t.{.bXdXjXDXDX#X3XSXsX3Xy.k.vXPXnX@.U.!.M n C.u r y V m.&.d r b.B.v.M t c % -X8Xl.t.}.;X'.3X9Xy.sXXXd z } q.,.,.a s z ",
"  + 3X:X[.4.{.MX<X{.IX6X{. X[.'.q. .vXHXPXp.m R.S u V.1 # p k G g p g , : e y M t n c k X.:.>.d.vX;Xg.qX|.d.'.c.q. .[ |  .q.[ | ",
"X } [.'.'.>XBXBX5XqXIXDXMXCX|.>.d.;Xx.{ h m V N.D n.y O e , : , % % + % % r k t @ I v.5 u d.e.e.e.s.}.[.|.d.*XbXi.q.i.u.| q. .u.",
"d.:X|. X>XjXVXkX5XSXIXDXVXAX-Xk.y. .vXK m y L E N h e : : : % e p g k % % : , x t u P.v.7X3Xe.s.e.s.'.}.t.d.*X=Xq.l.l. .| [  .[ ",
"'.'.3X9X#XBXSX>X6XDXBXVXMXVXnXvXr.e.PX+.m r *.g } g & : % , e @.&.&.y.k y e & e t # y W t.DXa.e.q.s.r.-X*Xr.].oXd.e.| ..| |  .6.",
"r.].|.bX1XbXDX#X6XVXVXVXVXnXbXl.f.vXk.M y +.+.j 1 % : % g +.@.G G G +.&.@.@.] : % , e n > T.2Xt.q.;Xq.s.].a.&X8.r.e.q.;. .,.u. .",
"t.|.}.9X9XbX6X2XBXVXSXMX&X;XnXx.j.@.+ Z p &.r % : k +.k +.V v.b.n.v.H @.+.@.%.z g + g k % $.>XVX2Xq.k.e.d.&XoXr.2.w.e.w. .[ [ [ ",
"d.}.}.k.}.CX3X6XVXSXBXVX'.k.vXvX-XS v.f ] X.< % k &.+.N T E V V M N N B &.+.&.&.G e , &.j s.e. XSX X .e.p.}.[.8.[.:.a z ' | | ,.",
"d.|.l.9XbXBX:XbXVXCX'.2XCXvXPXiXO.P.K d G % : e +.g N b.*.N b.v.B.Z./.B.h 7 h +.@.p % d $.e.c.U.qXqX&.e.}.'.[.3.d.d.} .. .[ | :.",
"8X8Xl.NXVX9X2XAXSX9X}.FX;Xh. .% b.n.e k % % % y +.h B.B D D.n.H H L M./.Z.4 : , +.+.: + +.vXc.:.:XzX|.h.mX[.3.a.1.`.} } u.,.| | ",
"8X8X9XLXAX9XbXNXNX|.t.c.s.vX+.0 V.y +., + & 1 N B b.Z N C.D.L V E M.B h S ~.n % p &.r % e t.<.e.;X XnX;Xe.d.*X*X2.].1.#.i.,.f.:.",
"l.y.8XLXAX].NXNXbX8Xk. .c.FXA.m n g B % : % m v.L ~.Z wXT.v.H G K B.W L u y (.M & G +., : B >.i.:.}.CXFXk.r.nX-X3.*X3.7.$.q.5.:.",
"k.l.8XLXLX3X1XbX2XNXvXl.;XAX4.R M } , % & 5 P.Z.P I.wXIX|.i H S H h E B.B.n S C., d +.e % k @.g j.q.9X&Xc.;XbXg.g.g.2.`.<.| | | ",
"k.l.l.LXAXVX1X*XVX8XvXiXbXMXS Z.H j + & 1 Z.~.b.G E.tXIXL.S E ~ K K L H B n.n N S , @.r & , +.j j.k.&X|.>.&X'.oXXX9.2.g.j.u. .6.",
"s.l.*X*X2XAXNXbX:X'.nXnXAXU.R.Q } : + : n (.C.v.K n.G L ~ N & D b.N m n.H G v.y L u @.G : & k @.' t.>X=Xj.;X=X].g.7.2.g.w.[ u.6.",
"y.l.*X1X3XCX2X2XbX}.;XvX&Xb.(.y k y r % b./.!.v.G L H K Z & , 5 C : # < K L G p n.b.e ] : : j &.g r.{.>X[.nXz.8.`.8.'..X|  .6.u.",
"y.8X}.9XbXAXMXNX;X;XvXiXAX4X~ e +.Z u > C.D.~.m.@.W m B.u 2 m Q.Q.( R 4 r ! *.g V R.> k g % r k >.;XU.6X{.nXAXpX`.3.XXg.u.u.i.h.",
"8Xl.}.NXSXVX2X].}.;X;XmXsXD.i U.*.N r 5 D.(.W M.H Z 1 , m eXQ.) ) Q.rXW.A W ^ H k V.F d d : r & >.nXU.7X{.z.vX1Xa.7.`.g.3.u.u.6.",
"}.}.,X:XNX,X2XjX>.r.j.CX{.A = ).Y.S % c ~.v.=.=.O.f * ! eX! < 2 5 : ! rXrXF.R E G H L f j * g < g vXU.BX6Xd.w.3.8.8.a.j.mXl.[ u.",
"}.bXVXbX2XVXVX1Xd.j.-XvX Xc e T.tXN O N v.F v.B ! < R Q.n > 3 3 9 8 , A W.U u A E g B.N p : r M y g u [.UX3.j.oXOXg.XXVX9X,.| :.",
"mXNXAXVX:XdXMX#XsXr.iX&XZ.N k 7X).M # u m B.M.K n 4 Q.d 1 9 w b w 9 3 1 e T.I.m v., P.N.& : r h n O X.<XkX4.| g.=XnX;XLXAX6.| [ ",
"bXmXVXMX,X@X#X:X&XsXsX5 Z.J +.e y S # y N v.G H < F.! 1 q / Q.eXQ.Q./ 8 % T.0X4 W d D v.: : , h u O XX:Xg.3.s.'.sXCXnXLXAX .u.| ",
"vX8XSXCXoX,X#X1XOX<.[.m Z.H j > c v.n $ Z *.H L m Q.m 6 / eXQ ^ B.Q.rX! 6 B E.y R f f C.1 , < =.< $ ;X2X'.,.r.g.sXgXdXUXLXu.i.6.",
"8X9XVXSXjXaXoXa.XXz.e v T j k 0 E b.N # T m.L ! T F.2 w _ Z 6 3 1 b F.W.w - ! W.A L , D.y # %.C.% p p U.dX$.:.`.nX&XXXAXAX .[ e.",
";XbXdXAXSXaX`.j._.jX&.W i g h c E b.M $ b.D.E Z ^ W - R ! > 9 9 w 8 0 ) 5 2 N eXm E , N.f : y D > r , B  XiX-X=XsXoXg.iXf.:.q.6.",
"s.bXMXjXVXlX8.OX%X%XO./.n k f v ~.Z.y % b.I.G D ~ 0 > ~ c 3 / eXeXc 6 ! y > c W., D 7 D n < D 5 , k e B A.bXj.sXOX`.8.`.iXXX6.i.",
"d.}.CXaXBXCX3.@XS.hXM T u k Z N P.(.y 1 B.=.W A ~ 2 c _ 5 9 eXQ.eXW 1 / A & 2 W.n N d n n < D.4 % k g j M.dXj.NXsXoX7.8..Xg.5.f.",
";X&XVX#XjX<Xg..X%X'.- i y g V c N ^.M > Z.L u u ( 3 0 F.5 / ~ * < Z.u w W < M ) 5 S f n c , ~.n + g g k U.].s.*X1XoX9.9..X.X .w.",
"k.-XdXaX#X@XXXiXlXg + c + e V u 4 b.u y v.K u < Q 8 0 ! 1 ) E 3 6 T ^ 8 ~ M V ~ 4 f f =.m : Z.n % g r 1.KX>X;X[.sXbXiX+XOXXXu.| ",
"e.sX#X,XVXfX`.G.zX} + i O e L y f L % n *.L Q < W 3 w Z.# ^ Q 6 ; A ) ; ( q 6 W c , < Z.S & B.Z : p r %.SXDXs.*XPXpXbXsXG.f.i.| ",
"f.&X@X@XaXMXOXG.6X+ + Z e y V.N y % % n -.=.y < ( , 0 ~ 1 m ~ f 6 / ^ ; _ 5 q ^ u , , C.F * P.b.y d d @.{.qXa.,XCXVXAX,Xg.<.u.j.",
"f.XX=XCX@XpX=X+XkX] + u % S v.v.B.y $ 4 *.D < , ( u 2 ( 4 2 ( W 1 A A ; _ i W Q.* n 7 b.C * V.P.O.] r -.R ].bXoXMXVXpX%XiX<.u.,.",
"u.;XpXfXjXpXOX`.kXGXiX, O m.L > Z u % % M f : * F m * ( T 1 < : 2 ( b 9 ) 8 R Q.n n u v.n : v.(.S j j @.m.fXd.a.MXMX<XaXfXz.h.,.",
"5.;XuXaXuX.XOX%XjXMXXX3.o n.@.4 : N & % M y < & m E + A rXZ 2 1 W eX8 b ( 2 L Q.D.< M D.u 1 n Z.f g V o.>X_.2.[.<XlXuXMXjXj.{ ,.",
"5.iXlXgXuX9.g.jXkX#X7._.u Z.L.V m K K $ u y f : y W.0 3 F.rXQ.eXeXC 8 / ^ 6 Z.eXN., O.~.5 , N m.S K V j ZXH.g.G.jX$X,XjXfXg.:.] ",
";.sXgXaXuX9.7.G.ZX@Xp.4.c B.P.V u i P.% 5 : m < , Q.W 2 0 n R Q.A 1 ; ( / 3 N.~.C * C.~.1 d N P.S n O.o <X<Xg.A.$XjXzXhXdXXXf.{ ",
"x.pXfXuXOXuX.XA.6XpX' o D R.B.-.u > B.: f : D 4 * R eX2 3 6 1 1 ; ; b eXF 1 n ~.4 , ~.T 1 f u P.S @.u & 6X%XpX@XJ.$XhXjXuX].<.{ ",
" .OXfX%XuXOXf.,X5X.X7.l D R.v.@.N y V : f : K y > < W.F., 4 2 9 9 f eXF.3 y b.R., f ~.m : f d m.=.=.y U.JXoXOXfXcX5XzXzXhX8.<.;.",
"[ 9.OXpXgX.X5..XkXXXf.jXN.~.=.V M u M < n , n Z , 2 n rXB.4 < 5 0 ( F.q ; y I.E # L /.u : S , M.K Z N G._..X.XJ.zXhXZXZX%X4.;.f.",
"` x.pXpXgX+Xa o.6XsXg._.P.^.O.V f y u f u n , E , 2 2 0 W.eXeXeXeXrXC c Q y Q V % ~.Z.5 % N f K < n.b.O.n OXG.@XZXcXxXZXjX+X1.<.",
"` 0.OXpXpX0.7 0.<XLXsXM.L ~.*.S y v > D , < & M Q < 3 3 R F.Q A v Q E.I.L.S D.f n (.S < & 4 D n O v.v.C {.+X.XfXZXcXhXlXZX,Xa.u.",
"` 5.OXpXfXo.a 1.DXUX}.o.O.B.k S y y L.k n 4 D : A v & 8 w q 2 3 U I.L.I I n.S.^.(.C.c 1 d h T < r Z.2 : aXpXG.uXxXhXkXH.@X`.j.>.",
"a 7.pXOXuX.X5.] DX9X} f.dX-.% @.N , P.K v.m R.< e Y.n : 8 w ; Q I.U x x N R D.(.N.b.4 1 j V D + E B.4 O x.uX+XJ.K.5XkXG.g.'.a.:.",
"` u.OXpX9..X5.{ k }.q. .sXY.+ k v.m S ~.n.u v.N & -.D r < q / n.x x r D Z.~.V.C.C C , , j S 4 % n.T N % pX.XfXJ.J.K.H.aX`.a.3.:.",
"6.u.XXfX.X1.5.0.U.4._.6.fX{.b g @.v.P.L W S 5 v.: % 7 y 1 M D.S U F E.v.R.(.S F C 4 * 1 @.=.% r P.S O : gX+X%XJ.cXK.cXaXg.X.p.#.",
"q.| pXgX9.;.| 5.ZX<X_.,.&X{.4X@.k M./.M > N.4 n u * * , y y D.v.A C.~.B.(.Z.S C 5 , & d N.4 , k R.> = oXpXG.H.uXxXJ.jXjX`.a.#.g ",
"u.u.pXg.`.<.{ :.A.#XoXx.iX,XjX&.V b.C.n.% : K f N.M k > Z.u n N.C.^.4XeXC.T T 4 , : p =.L e g d Z.2 j.+XpX%XG.5XzXhXH.%XoXa.] } ",
"` ,.9.0.vXfX7.| oX{.#Xf.x.aXbXj X.b.(.B.d O N M C t.d.O D v.N ~.(.N.v.b.D C c : : < -.L +.y e N ~.n g.`.9.G.uXJ.J.cX%X%XXX1.k ] ",
"a { 0.9.9.pX;.` _.4X>X#.x.nX{.A X.S P.^.N e y n d qXy.O b.D N.b.N.b.v.D m M.e & # M.C.X.j % % n N.< <..X2.aX7X5XJ.J.hX@X1.<.} #.",
"s [ 2.0.0.9.f. .XX%X>X#.c.nXI.Z.d X.=.(./.B d M T.9XT.+ S D.D F C C Z 3 T.IXT.& L D.N +.g + O S 6XgXnX.X+XJ.tX(.5XhXH.2.g.d.+.#.",
"= [ a.9.9..X;.,.<.A.{.4.h.2XV.+ + +.m V.!.!.P.b.T.|.U.# : Z C c c n m 1 qX0XJ L v.m B &.< O =XKXZXkX0.0.G.@XtX/.5X%XG.G.oX>.%.j ",
"a = ;.pX0..X1.[ ` r.a.XXx.9X Xz.a e S m b.V.P.~.D.wXwXb.< : 4 5 < 1 4 e +., P v.0 M &.l O ;.UXcXcX{.pXpXuXCXtX7XH.hXG.3.a.w.} r ",
" ...s g.XX.X9.{ ` 3.4.' } d.BXSXh.O O.S O.n C N.E.!.!.m 1 % * , 1 u * $ $ L.m.Z N +.l e O >XjX5X7X@XA.G.GXuXcX4X@XjX%X2.>.3.p k ",
"=  .s u.8.g.8.| [ ,.A.k s %.0XSX#X- e @.l B m b./.b.C.Y.M.k : + N.C.S < C.V.< h @.p $ O d $XpXKX5XZXCXlXZXlXcXhX@XcXJ.o.>.#.} w.",
"= s | g.OX2.8.:.' f.<.A.' :.y.bX>XA.y #.d - m m D n 4XSX:XdXMXC.b.m D ~.(.v.N j %.p $ % *X.XfX5XH.hXgXfXjXJ.J.%XG.jX3.] 3.j >.:.",
"` s { 2.oXOXg.9.a u.w.#X3.' q.|.9XaXbXc.< ;Xl ;.h B VXjX_.#XoX>X^.v.5 D Z n 1 d k # + V aXx.uX7XuXpXuXpXJ.GXcXG.H.hX3.g +.g z d ",
"= [ a a.].8.0.9.w.' $.<X{.oXh.y.9XqXCXiXx.c.,.u.{ , aX`.5.f.x.1.v D 4 + 4 g k j : x.[.C._.x.zX7XuXgXuXG.lXKXxXJ.uXaX7.>.w.+.} #.",
". [  .7.9.2.3.9.3X:.' 8.jXaXi.>.y.2X<XsXpXi.iXi.| % 5.{ [ f.x.nXg.3 > e +.&.g O e gXVXO.1 G.JXkXJ.uXuXG.KXZXzXuXjX.X1.p.$.e.e :.",
"  ..q.i.`.9.g.`.f.9.[ f.:X<X].<. .c.@X6X].1XMXo.f.p i.[ ] 5.x.j.nX' < %.+.k , ] e aX#X*.'.kXJXZX.X+X@X,XZXxXxXcXjX1.d s.k %.@ o ",
"  a a :.0.9.9.2.r.f.f.[ 5.fX%XoXx.f.XXoX_.G.jX{.>X;X;.{ #X8.'.=XiXu.h p p r ,.iX-.aX'.4XJX7XJXzX%X2.4.lXGXxXlXuXhXX.{ k } ] o . ",
". y.} a g.7.0.8.0.7.9.| 6.c.a.1XsXh.'.OX7.8.#XMXVXAX[ 0.A.A.#X6.i.| d l X.d MXU._.z.4XkX6X7X6X5XH.`.J.uXxXcXjX{.G.j >.g #.e   X ",
"  @ a = 1.+X2.XXXXa.] 1.x.x.[ OXaX2.{ .X6.<.4.aXpXjXg._.A.{ x.x.x.{ @.&.l &.VX8.:._.A.U.JXZXH.#X@XuXzX%XzXK.$X@X3.g r j q.o   X "
};
