/* XPM */
static char *result[] = {
/* columns rows colors chars-per-pixel */
"64 64 162 2 ",
"   c #2D1A1A",
".  c #341E1E",
"X  c #262524",
"o  c #3A2121",
"O  c #302F2D",
"+  c #343331",
"@  c #441D1D",
"#  c #481F1F",
"$  c #45201D",
"%  c #48221F",
"&  c #4B2121",
"*  c #502227",
"=  c #54242C",
"-  c #59232F",
";  c #562532",
":  c #5B2535",
">  c #5E263B",
",  c #5B2A3B",
"<  c #622437",
"1  c #62263D",
"2  c #333E44",
"3  c #5D2C45",
"4  c #593044",
"5  c #612741",
"6  c #622845",
"7  c #692947",
"8  c #642A4B",
"9  c #6A2A4C",
"0  c #73274B",
"q  c #61304D",
"w  c #662B53",
"e  c #6A2B55",
"r  c #662E5B",
"t  c #6B2D5C",
"y  c #772956",
"u  c #752C5B",
"i  c #623153",
"p  c #683255",
"a  c #64335A",
"s  c #5E366D",
"d  c #572E7F",
"f  c #5B2E7D",
"g  c #553576",
"h  c #5B3572",
"j  c #5C3A76",
"k  c #5D307A",
"l  c #543A7B",
"z  c #6C2E63",
"x  c #6D2F6B",
"c  c #712F66",
"v  c #7A2D68",
"b  c #653665",
"n  c #6A3463",
"m  c #6A3864",
"M  c #62376A",
"N  c #6B306D",
"B  c #653A6F",
"V  c #69396B",
"C  c #723267",
"Z  c #72316C",
"A  c #652F75",
"S  c #682F71",
"D  c #622E78",
"F  c #653173",
"G  c #6C3173",
"H  c #623A72",
"J  c #65327D",
"K  c #69327B",
"L  c #723274",
"P  c #7A3275",
"I  c #713379",
"U  c #7D3179",
"Y  c #334047",
"T  c #32434C",
"R  c #2B4B5F",
"E  c #1D577F",
"W  c #4C2F85",
"Q  c #562F82",
"!  c #5B2F82",
"~  c #5B2D8B",
"^  c #4E3086",
"/  c #573487",
"(  c #5A3186",
")  c #543389",
"_  c #5A328A",
"`  c #4F3A9E",
"'  c #543696",
"]  c #5B3391",
"[  c #5E3897",
"{  c #54379E",
"}  c #5C369B",
"|  c #52399E",
" . c #58389D",
".. c #623281",
"X. c #6D3286",
"o. c #63328D",
"O. c #6C3289",
"+. c #743283",
"@. c #7B3485",
"#. c #73358A",
"$. c #623491",
"%. c #6A3690",
"&. c #63359E",
"*. c #6B359C",
"=. c #75339B",
"-. c #7A3498",
";. c #4F36A7",
":. c #4E38A5",
">. c #5336A4",
",. c #5C36A2",
"<. c #5338A3",
"1. c #5838A1",
"2. c #5133A8",
"3. c #6233A0",
"4. c #1B5A84",
"5. c #195C88",
"6. c #5E448F",
"7. c #474796",
"8. c #484598",
"9. c #564591",
"0. c #6A428C",
"q. c #614291",
"w. c #5855AD",
"e. c #5F45BC",
"r. c #5F48BA",
"t. c #6046BB",
"y. c #006DD3",
"u. c #006DDB",
"i. c #006FE3",
"p. c #0065EA",
"a. c #006AEE",
"s. c #0072F5",
"d. c #0076F9",
"f. c #007AFC",
"g. c #912E85",
"h. c #833481",
"j. c #813396",
"k. c #8B3294",
"l. c #813298",
"z. c #7B9CBF",
"x. c #0584FF",
"c. c #0C8CFF",
"v. c #1393FF",
"b. c #1799FF",
"n. c #1A9EFF",
"m. c #1DA1FF",
"M. c #35A4EE",
"N. c #3CA5EA",
"B. c #2CA2F4",
"V. c #23A2FA",
"C. c #45A5E4",
"Z. c #4CA6E0",
"A. c #8EA6BB",
"S. c #8EAABA",
"D. c #94ABBB",
"F. c #99AFBD",
"G. c #9CB2BE",
"H. c #A0B6BF",
"J. c #9EB5C0",
"K. c #A2B7C0",
"L. c #A6BAC2",
"P. c #AABDC3",
/* pixels */
"Z.3 3 ! k ! d d f f f f f f f ! Q Q Q d f f d f f d f f f f L.P.P.P.d f f f f f f f f f f f f f f f f f d d d d Q W ^ ) ) ^ P.Z.",
"3 3 3 :.:.:.:.:.:.<.' ] ' ' ' f f f f ! f ! ! f f ] ' ] f ' ] L.P.f t.t.t.t.f f d f f f f f f f f f f f d :.! ~ :.) ) ^ Q d 3 Z.",
"3 ;.:.:.:.:.:.:.:.' :.:.' ;.{ { :.` ` :.:.:.:.:.' ' ' >.' ] ' P.f t.:.:.:.:.:.:.r.:.:.:.:.:.:.:.:.:.:.d :.:.` :.:.{ ^ d d ! 3 P.",
"3 :.:.:.;.:.:.;.:.:.:.:.;.) :.;.:.:.:.:.:.:.:.:.>.~ :.;.:.~ ' P.f t.:.:.r.:.:.:.:.:.:.>.r.>.` :.;.` :.:.:.:.:.) :.` ^ ) ) ! 3 P.",
"3 >.>.1.1.>.] ;.2.;.;.;.~ :.' ' ' ] :.:.:.;.>.:.;.{ :.:._ ' ~ P.d :.:.:.:.:.:.:.:.:.:.:.;.` ` :.;.` / :.:.:.>.:.:.:.) ) ^ d f L.",
"3 1.>.>.<._ _ ] >.>.] <.~ ] ~ ~ 2.] ' >.>.` ;.{ { { >.>.' f ' P.f :.:.:.:.( 2.:.:.:.` :.` :.;.:.` ;.( 2.:.( 2.2.` :.:.<.) d D L.",
", 1.o.~ ] o._ _ _ o.o.~ ~ ] ] ] ] _ ] _ ~ >.>.{ ` { d _ ~ f ] P.f :.:.! :._ ( :.:.) _ :._ ;.~ / ~ ` ~ / ( / _ ( Q / ~ ( ! >./ J.",
"; ,.o.o.3.o.o.O.o.o.o.o.$.~ D o._ o._ o._ o.] ] ~ _ f f f f f P.D >.>.>.:./ :./ / ~ :.) ~ ! _ _ Q ~ ) ) ( ) ! ~ ( ! ......( ( J.",
"; O.O.O.o.X.S O.O.F o.o.O.A A A A o.o.o.} o.o.D o.o.D D D D d P.k >.! >.( ( <.( ( ( ( o.( ( / / f f f ( _ ........O.....K K J n.",
"= X.X.X.X.#.S S G N S X.X.O.O.S X.F X.O.A A F O.A D A F D F D P.d [ ......! ......o.....,.( O.A S S J S K J X.D K K *.I I I K n.",
"= b +.+.+.I +.+.N G N S X.X...X.N N S x F S F F F S F > F S F P.D } O.A X.S ....J O.J K K K F x x N x x x z z z r P L e Z Z * b.",
"= z +.z z +.z x N c N n n +.N N N N S S N F x N x G N ; ; G ; L.A X.K x S x K x S z I I I P t r r r r r & e e 8 w 9 t 8 u 6 f.b.",
"* z z z +.+.t z z z z n +.z z z = = = b z z z z z z x x x = ; H.x L P r P r r e e w e c C e w 8 8 7 & & 6 & & 3 5 5 3 1 5 9 5 n.",
"= r t +.r r t t r r = * * = = * * = = = * t t r z N N N F ; , L.A x t c 8 c 9 8 8 8 6 5 5 3 5 # 5 # # # > $ @ > > : : : > > % m.",
"A.c.z z n ; = ; ; = ; = = ; ; v.2 Y 2 T , , , o o , ; ; ; = v.y.c.S M N n z r 8 3 8 8 8 w w w w * . . = = = . = r z z r 8 * = x.",
"Z.Z.Z.Z.Z.Z.L.P.P.L.L.P.P.P.L.Z.Z.Z.C.Z.Z.Z.Z.P.P.P.Z.Z.Z.Z.i.i.i.Z.P.L.L.P.Z.Z.Z.Z.Z.L.L.L.P.P.P.P.P.P.P.P.P.P.P.P.P.P.+ + Z.Z.",
"f f d f f 3 + R Z.k ! d f f d f f f d f f f f d k ( k k d :.;.:.d f ( ) f d k Z.f f :.:.f f f f :.:.:.:.d f f d f f k d :.:.f f ",
":.>.>.d f f f + Z.k d r.r.r.:.:.:.<.:.:.:.:.:.>.:.:.:.:.:.:.:.:.<.:.:./ >.) k Z.f :.:.:.:.:.f :.;.:.:.:.:.:.f :.:.2.:.r.:.:.:.:.",
":.:.:.:.:.f f f Z.k ;.;.:.r.:.:.:.:.:.:.:.:.:.:.:.t.:.:.:.:.:.:.:.:.;.r.:./ ( Z.f :.:.e.:.:.f :.:.:.;.:.:.:.:.:.:.:.:.r.t.:.:.:.",
">.>.<.:.2.2.f d Z.( :.t.r.:.:.:.r.r.:.:.) / :.:.:.:.:.:.:.:.:.:.:.:.:.:.r.;./ i.f :.:.r.r.:.:.:.:.' :.:.:.:.:.:.:.:.:.:.:.:.:.:.",
"2.] ] ] <.<.k f P.k >.<.<._ <.;.:.<.<./ / <.:.:.8.] _ / / ) ) / / / :.:.<./ k i.f :.:.:.;.;.r.:.:.:.:.' ] :.:.:.:.2.:.2.;.2.<.<.",
"$.~ o.$.o.1.1.D P.>.<.>./ _ <.<.<.( / ( _ ( ( / ../ _ / / / / / / ) / / _ _ / i.f :.:.:.>.2.;.;.;.2.>.>.>.] >.1.| 2.>.>.>.>.<.<.",
"o.o.o.~ o.$.,.D P.<.1.1.,.1.,.1.1...6.( ../ ( / ../ J / ( ( ( ( / / ( _ / / ( u.k 2.2.2.>.>.2.2.] ] ~ ] ~ ] { { >. . .}  .1.1.$.",
"O.O.O.O.O.o.3.D P.3.3.3...3...,.......J ..X.................O.D J ..3.1.} ,...u.f &.,.o.o.o.O.o.o.o.o.o.o.o.[ [ o.o.o.} &.O.o.o.",
"X.X.X.X.X.X.X.S K.x *.*.K *.K *.K K I B S K L K N G S L G G S S J K J &.J J V u.D *.o.X.X.X.O.O.X.X.X.O.O.O.X.+.#.X.+.X.X.O.x O.",
"+.z +.+.+.+.+.x K.z L =.=.L L =.L I L Z I I I x I C x x K x c c I I I =.L I m y.o.+.+.#.+.+.+.+.+.X.=.+.+.+.+.+.+.+.+.+.@.+.z +.",
"U U U U U U 8 z J.w C C C C C C C C p t e C e e e e e e e e e e C C C C C C w m.F U U U U w U U U U U U U w U U U U w U U U w w ",
"5 v v v v v 6 8 V.u 6 6 6 7 6 6 6 8 6 u 6 8 6 u 8 8 7 6 6 6 8 7 6 6 p u 5 5 3 b.n 5 6 5 6 3 6 5 5 6 6 v 6 6 v v v v v 5 6 6 6 5 ",
"> y u u y u : > O e 1 > 1 @ @ @ < > 1 : < 1 1 : > < 1 7 9 7 : : : : : 7 : > : v.w : : : > : : : > : : > > : > : : : > u y y > < ",
"- 0 0 0 0 0 - - O X : @ @ : @ : ; - @ ; - - - 1 ; ; = = = - - = - - - - = @ @ c.6 - - = = = = @ = @ . - = = = - - = 0 = 0 * = = ",
"8 P +.U 8 3 5 z.y.X X $     : : @ @ ; : > > > 3 > 3 5 6 5 8 e z r n r r r = D.N.B.F A A k 3 1 > z * @ < @ ; > 8 > : ; ; : : : - ",
"L.Z.Z.Z.Z.Z.i.i.i.i.Z.Z.Z.Z.Z.L.P.L.P.L.L.K.L.J.K.L.P.P.L.P.L.P.P.P.P.P.P.P.P.Z.Z.Z.P.P.P.H.p.P.L.P.P.K.P.P.P.P.P.P.P.P.P.P.L.K.",
"f f f d d k d k f d d d k k d ( f f ( k ( ' f P.P.4 4 g g g g g g g g g g g g g l g g g g g g g g g g g g R i.Z.Z.d k ! d f f d ",
":.:.:.:.r.r.r.r.t.:.:.:.:.:.:.:.:.f d ' ' ' f f P.4 g g g g g l 7.7.g g g g 7.g 7.7.w.w.7.7.7.7.7.7.7.g g 4 R Z.f f :.:.f :.:.<.",
":.:.:.:.:.:.:.:.:.:.:.:.:.:.:.:.:.:.;.d ' ' k d P.g g 7.7.7.7.7.7.7.7.7.g 7.7.7.w.7.7.w.w.7.7.7.7.7.7.7.7.7.4 Z.f :.d :.:.:.r.r.",
":.:.:.:.:.:.:.:.:.:.:.;.:.:.:.:.:.f ;.k k ' ' f P.g 7.l 7.7.7.7.7.7.7.7.7.7.7.7.7.7.7.w.7.w.7.7.l l l l 7.7.4 Z.f f >.:.:.:.r.r.",
":.;.:.:.:.:.:.:.:.:.:.:.` ' ' :.:.d :.:.:.:.d d P.g 7.7.7.7.7.7.7.7.7.w.7.7.7.7.7.7.w.7.7.w.7.7.7.7.l l l 7.g Z.k :.:.:.:.r.:.:.",
":.' ;.:.:.:.:.' :.:.' ' ' ' ' :.:.:.:.:.:.:.' d P.g 7.l 7.7.l l 7.7.7.7.7.7.7.7.7.7.7.7.7.7.7.7.7.l l l g g g Z.( ;.;.2.e.>.1.' ",
"' :.:.' :.` ' ` ' ' ' ' ' ' ' ;.:.:.:.:.:.:.` k R g 7.7.l l l 8.7.7.7.7.7.8.l l 7.l l l l l 7.7.7.l l l g h g Z.f 1.>.>.e.<.1.1.",
"' | ' ;.' :.' ' ' / | ' ' | ' ' ' ' ' ' ' :.' + + l 7.l 7.7.8.l l l l 7.7.l l l l l l l l l l l l 7.8.l l g s C.D 1.1.,.1.} [ $.",
"/ ' ' ' ' ' ' ) ' ' / / _ ' ' ' ` ' ' ` ' ` ' R i.l 7.7.l l l l l l 7.l 7.l l l l l h l l l j j j l j j j M s C.A ,.,.3.K K K o.",
"J ( ' ' ' ' ! / ( ' Q ' ' ' / ' ' ' ' ' ' ' ' f i.l l 7.8.l l l l l l l l l j j j j s j s s H j H 9.j H j j s L.S S *.%.K *.K *.",
"J ......' ! ( / ( ( Q ! ~ ( ' ( / ( ' ' ' [ ' f u.l l l l l j l l j l j j H j H j j s j B j B B H H H q.B B M L.x S =.I L I I L ",
"G K K J K ......f f k f f ! ! ' ( [ k J ] ] ' A u.M j j j H j H H H H H H H 6.B m b B m b b b m V B V B V a b L.r =.=.Z C r c c ",
"x L I S I I *.K S S A A S D ..K K o.K K K K $.S y.m m M B B q.B V V B B B V 0.V a V m a a m i a m m a m m i = G.D.l.w c e w z u ",
"u t u u z t c x e = * z z t z r Z L t x Z n r = c.i i i i i q q i 8 i 3 q q q 6 8 4 4 6 % q 6 p 6 4 q 7 6 % & m.5 k.6 5 6 6 e e ",
"7 6 7 7 7 9 7 5 # # # 6 6 6 6 8 8 8 8 6 6 6 & 6 f.% & , 6 , 8 , , , , , , , , 3 , , , , % % , , , , , ; %   d.n.> 1 > > @ 1 7 6 ",
"- = < * = = ; 4.4.5.5.      @ @ # # # @ # # @ a.a.a.% $ % % # % $ $ & $ % $ $ $ $ p.p.p.a.p.$ = = ; ; =     s.m.s.: : @ @ - : : ",
"H.K.H.F.G.m.n.m.b.v.x.x.c.v.b.n.m.G.G.G.G.G.G.b.G.G.G.G.H.K.L.L.P.P.L.L.L.L.L.L.L.C.M.V.V.m.n.n.y.P.y.P.P.C.N.Z.N.N.C.L.M.K.L.L.",
"f f f f ! k 3 3 d :.:.:.:.:.:.d P.3 3 d ! k f f d f f f f d f f f f f d f f f d f f f f d f f i.u.i.+ 4 f f d f f d k k d f d k ",
"| ' ' ' ' ' d :.:.:.:.:.:.:.:.d P.3 3 f :.f :.:.:.:.:.:.:.:.:.d 2.:.:.:.:.:.:.:.:.! f ! ( ! d i.i.+ 4 k d f d k 2.:.:.:.;.2.D ' ",
"' ' ' ' :.' :.' :.:.:.:.r.:.<.f P.3 f :.:.:.:.:.:.:.:.:.:.:.:.:.:.:.:.:.:.:.:.:.:.;.:.:._ / / i.i.( k ;.:.:.:.:.:.2.<.' <.>.<.,.",
":.:.:.:.` :.:.:.:.:.' :.:.:.:.d L.6 k :.:.:.! r.:.:._ :.:.:.:.:.:.:.:.:.:.:.Q :._ ;.:.:.:.:.( i.P.k :.:.:.;.r.<.[ <.<.} ,.,.,.,.",
":.:.;.' :.' :.:.:.' :.` :.:.:.f Z.f d f :.:./ :.:.( :.:.:.:.:.:.:.:.:.:.:./ _ ! ! :.:.:.:.:.( Z.Z.d >.>.<.<.<.[ <.1.$.$.$.,.%.3.",
":.:.:.' :.` ' ' :.' :.' ' ' :.Z.Z.f d d ! ;.( :.! _ ! Q Q ~ / ! ~ ! ( ( ~ :./ ;._ :.:.:.2.2.D f C.d >.1.,.,.,.,.$.$.$.$.%.%.%.*.",
";.:.:.' ' ' / / / ` ' ' ' ' :.f Z.f f :./ ~ ( >.:./ :.~ _ ! Q _ / _ ) ! ! :._ Q ! / >.! >.>.>.D M.F ,.&.,.$.3.%.%.%.%.O.%.*.*.#.",
"<.( ' ' ! ! ' ' ( ' ' ] ' ' ' H i.f D ! ! ! ! ( ..! ! ! ..! ! ! ! ! ! ! o.! >.>.1.........3.3.A V.S 3.3.*.3.%.O.%.L I #.=.#.=.=.",
"..k J J ' J J J ..J ] [ [ ] ] J u.A ........( J ..D ..D ............J J D J K K F K K G F *.*.z v.n P Z P #.x c @.C @.@.n j.l.l.",
"K K K K K K K K o.%.$.K %.$.$.F y.S K K K K K S A S A S S 3.K D S K x G x I I L G L L Z Z -.-.= c.w u n h.t t u t u t e e e u e ",
"G z L G L I L G #.O.%.#.O.#.z n v.= L I I G L z I z z z t z t z z e c r z c w t u t t u u l.8 & f.6 e e 9 9 1 9 9 9 9 9 5 9 9 9 ",
"r e x C =.c C x C C @.@.r e r e c.* r c c r r e e w w w w w 7 8 8 8 7 6 6 e e 9 5 9 9 9 > 1 > > a.> # > : < 7 7 g.7 7 : > > > > ",
"* 9 8 8 8 8 w u h.h.8 w h.9 8 8 x.& & 8 8 7 6 6 6 6 6 6 # 6 3 > 3 > > > > > 1 7 5 : : : : @ @ 5.p.@ : : - < 1 : - - : : : @ @ @ ",
"& # & # & & & &       & & # # d.d.s.# # > > 1 > > > > @ : : : : : - @   @ @ - = = - = @ @ @ @ E E @ @ @ # # # # # # @ @ @ @ @ @ ",
"K.J.K.F.G.D.S.S.D.D.A.D.A.D.D.D.D.F.D.F.F.F.G.G.F.F.F.F.F.F.F.F.F.F.F.F.F.G.G.G.F.D.A.A.A.A.A.D.F.F.F.D.D.D.D.D.D.D.D.F.F.F.D.D."
};
