/* XPM */
static char *_43ab02381014925e938358542c72634rZZ4X44GOXJDJ7hs[] = {
/* columns rows colors chars-per-pixel */
"64 64 149 2 ",
"   c #050302",
".  c #090603",
"X  c #0E0A05",
"o  c #130D04",
"O  c #130E08",
"+  c #1C1304",
"@  c #161009",
"#  c #1D150B",
"$  c #1F180F",
"%  c #251704",
"&  c #261905",
"*  c #2B1C05",
"=  c #20170C",
"-  c #241A0E",
";  c #2B1E0A",
":  c #311E01",
">  c #251C11",
",  c #291E12",
"<  c #2E200B",
"1  c #342203",
"2  c #3A2506",
"3  c #3D2B01",
"4  c #32230D",
"5  c #3D2708",
"6  c #3F2808",
"7  c #272016",
"8  c #2D2215",
"9  c #2D2419",
"0  c #312516",
"q  c #372812",
"w  c #332619",
"e  c #35291A",
"r  c #3A2D1D",
"t  c #3E311F",
"y  c #3C2F20",
"u  c #3E3221",
"i  c #442D02",
"p  c #492F04",
"a  c #412A09",
"s  c #443001",
"d  c #4E3203",
"f  c #513305",
"g  c #513B04",
"h  c #583806",
"j  c #40321F",
"k  c #423523",
"l  c #463925",
"z  c #493B26",
"x  c #453A29",
"c  c #4C3E29",
"v  c #5B4104",
"b  c #644303",
"n  c #6B4302",
"m  c #6C4903",
"M  c #744B03",
"N  c #794F03",
"B  c #775407",
"V  c #7C5204",
"C  c #7F5906",
"Z  c #7F5709",
"A  c #4E412C",
"S  c #51432E",
"D  c #4F4330",
"F  c #544631",
"G  c #564933",
"H  c #594B35",
"J  c #574B39",
"K  c #5C4F39",
"L  c #5E513B",
"P  c #62543D",
"I  c #64583F",
"U  c #635641",
"Y  c #665942",
"T  c #6A5D45",
"R  c #6B5F49",
"E  c #6D6047",
"W  c #6E6149",
"Q  c #72654D",
"!  c #75684F",
"~  c #736750",
"^  c #766951",
"/  c #7A6D55",
"(  c #7B6F59",
")  c #7C7057",
"_  c #7E7159",
"`  c #825604",
"'  c #855A05",
"]  c #8A5D05",
"[  c #875D08",
"{  c #895E08",
"}  c #8E6106",
"|  c #8D6209",
" . c #936406",
".. c #976807",
"X. c #9A6906",
"o. c #926609",
"O. c #966908",
"+. c #9C6D09",
"@. c #9E710C",
"#. c #9F7513",
"$. c #A3740C",
"%. c #A97709",
"&. c #AB7A0B",
"*. c #B17F0B",
"=. c #A17511",
"-. c #A47A14",
";. c #AA7E14",
":. c #A77E18",
">. c #81755C",
",. c #84785F",
"<. c #837761",
"1. c #867A61",
"2. c #897E65",
"3. c #B5820C",
"4. c #B9870D",
"5. c #BF8A0D",
"6. c #AE8115",
"7. c #B98913",
"8. c #C28D0D",
"9. c #C6910E",
"0. c #CA940F",
"q. c #C18F11",
"w. c #C59315",
"e. c #C99514",
"r. c #CB9916",
"t. c #C3951B",
"y. c #CB9B1A",
"u. c #CFA01E",
"i. c #D1A11E",
"p. c #D8A71D",
"a. c #D3A523",
"s. c #DCAE29",
"d. c #DFB22B",
"f. c #8B8067",
"g. c #8E826A",
"h. c #90856D",
"j. c #92886F",
"k. c #928770",
"l. c #958B72",
"z. c #998F76",
"x. c #9A8F78",
"c. c #9B9077",
"v. c #9D927B",
"b. c #A1967E",
"n. c #A19780",
"m. c #A59A83",
"M. c #A89D86",
"N. c #A99F88",
"B. c #ACA28C",
/* pixels */
"' ' | ' B v  .+.+.+.+.$.X.X.+.$.+.+.+.+.+.+.$.$...` V N N N ] ..O.O.X.X.+.-.-.O.M [ +.' ` ' }  .+.+.+.+.+.+.+.+.+.+.m m C  .] V ",
"#.t.a.8.X.g ' }  .} } } } } ] ] ] ] ] ] ] %.p.8.%.N M M n M N V V V V N Z Z Z V V y.y.*.N N N N '  . .X..... . . . .b V 7.y.5.X.",
"+.y.r.8.@.g V ` C V V V V V V N N M N N M ..r.8.&.M M n n n n n n n n n n n b b ` u.9.3.M n n n n M ` ` ` ' ' ` ` ` b V a.y.8.%.",
"#.$.4.3...g V ] ] ' ' ' ` ` ` ` ` V V V V ` %.*.] V V V V N N N M M M M M M M N N O.3. .M M M M M M M ' } }  .} ` ' b N =.q.3.o.",
"-.| V `  .g N V N V V V V N N N V V N N V N m m M N N N N N V N N N N N N N N N M M M n N N M N N N N N N ` N N V B v C ' V '  .",
"-.=.` ] [ 1 * * : : * * : : : : * : : : * : : 1 : 1 1 : 1 1 4 4 2 : 2 q 2 2 5 : 2 4 : : : : 5 a a a 5 a 5 2 5 a 5 6 1 C ] V ' ..",
"-.%.] } C o             . . . X X X X O X o X . X @ # # > > $ $ > , > > 9 , , , = > = # # = , , 8 8 0 0 , > , w 8 , % C ] V ] ..",
"-.-. . .V + O @ $ 8 9 7 , > > , 7 7 8 9 = # 7 $ # , u x u u y y u c J U R Y P x 0 , 0 0 , , 0 q 0 0 w e j c c k r 8 ; ' } V '  .",
"=.%... .C - > 8 u K L L L J J L L L L A u x u t w D U U Y T T E ~ ( _ _ _ ( >.^ c c c F c k k c S S F P ^ ! ! L r w ; C ] V ]  .",
"$.%... .V < 9 e J ~ W ~ ~ ~ ^ ^ ! Q L D D D A l w Y ) ~ Q ^ / / ( _ <.<.>.>./ _ P F K G H S z z A G G G ~ E L A 8 , < C } V ]  .",
"$.%.....` 4 w t W _ ( ) ( ( ( ^ Y G S A S S A t w ^ / E Q W ^ / ( _ _ _ _ / / / K F P P G G S S l z S F T H S l , > ; '  .V `  .",
"#.%.X. .C 4 w r P _ ( ^ ^ R L D A A S F S S u t u ( ) T W Q ^ ! / ( ( _ >.>.^ I Y Q P T P H S S A l l S U F S l , > ; '  .' V ] ",
"@.%.o.] V 4 e e F ^ I A A x x l l A A A A l l A u ( _ W W W Q _ ~ Q ! / _ / I I Q ( / T E I S S F S z A F S S j 8 w < ] } ' ' ` ",
"$.%.X.+.m < , - < j j A x A A l z z z l A F A z x ^ _ ! W Q E W / ~ R T T Y T ! ^ ^ / Q T Q H S S F S A l z A t w k 4 ]  .` ] V ",
"@.%.X.} b < $ - 7 t A j A A A l l A L Y L H A z A ~ _ _ Q Q Q Q W ^ _ / ! ^ ^ ^ ^ ^ ^ >./ ^ P S S S S S A l A u e l 4 ]  .' ' ` ",
"$.%... .m & 7 < e G G K L I L G l L _ ,.S A A x A / _ 1.Q Q Q ! ^ ~ ^ ( / ^ / ^ Q ^ ^ ^ / >.Y S S S S S A A z u 7 e 1 ] X.] ' ` ",
"@.%...X.N ; 8 e A I T E T T E I A I ! ,.H A A A A 2.f.<.~ ^ ! ! ^ / / / / / Q Q >.h.2.2.>./ Q F S S S S F A c t 8 x 4 ' +.} ] ] ",
"@.%...X.V ; 8 e A T T T E E E P A E ! >.Y A z A A 2.x.g.^ / ^ ^ ^ / >.>./ ^ Q >.j.x.h.2.2.1.1.T S S S S G L A r A x 4 V X. . ...",
"@.%.&.%.N ; , e A I T E E I W G H ! ! E E G A A c ^ v.v.>./ / ^ ! ! / / / Q / h.x.n.h.h.2.1.>./ H A S G U W c x U x 4 C %.&.+.X.",
"@.w.s.q.} ; , e A I T I L H T G ! ! ! I E I F G z Y z.m.k.2._ / ! Q ! Q Q ! h.l.b.M.l.h.1.Q T T L H T W ~ W k U ~ u 4 ' i.e.8.&.",
"@.t.a.8. .; , e z I E L F L L L ^ ! Y I E H A A c H 2.b.2.2.,._ / ! ! Q Q >.l.x.b.M.x.>.T T Y Y T W L S G P u _ ( k 4 ` i.q.e.;.",
"-.+.&.&.N ; , w z I L F G L G E Q E I I L A A A c S ^ c.g.2.>._ >./ / ^ >.2.h.b.m.2.Q T E Y T E W G z z H z x k./ k 4 N X.*.%.;.",
":.$.` ` M ; 9 e z H H H L L A L H G A A A A z A c c Y 2.c.2.,.>.>.>.>.,.<.2.2.l.<.E E Q W E E E A z c A H k U x.~ y 4 ` V M | ;.",
"-.;.X.X.N ; 0 0 r G H H H F A A A c A A A l A A c l G W z.g.1.>.,.,.2.>.,.h.2.>.Q E Q Q W E E H z z c S A A 1.x.U r 4 ' C M | ;.",
"=.X.....N ; 8 , r F F F F F S l A A A A A A A l l l z L T ,.1.>.>.! >.>.,.>.^ ^ E ! Q Q E E T c c c c c c ( x.k.c 0 : O.[ M { :.",
"' `  ...N ; > , r S S S S S S A l A A A A A l l l l j S H G G G S G Q 1./ / / / >.! ! Q W T E c c x J J ( 2.x.1.y , 4 ..` n { ;.",
"` } ....N ; , , e A A S S S S A l l z z l D H H G A z l A A z A K P Q 1.>.>.>.>.! ! ! Q E E T c z c c J <.l.v.>.0 8 : ] ` n { ;.",
"`  . . .N % > , 8 k z c A S S S l t t l U ) _ ,.>.) Y l l z z G P T / 1.,.,.,.,.>.>.! E E E W c l c x U 2.x.v.^ w 8 4 [ N n { ;.",
"` `  .} N % # > 8 l Y J D c z l l u L ( _ 1.<.f.,.>.! I F l A H Y T / >.>.,.,.>.>.>.>.>.^ T ! H l c k >.z.x.2.W w 8 ; ' V n { :.",
"` V } ] N % # 0 R c.g.^ W R T R U U _ _ 1.f.f.f.f.,./ E I F l L T Y Q >./ >./ >.>.,.,.1.>.W ^ G l c c 2.z.l.U Y r 8 ; ` N n [ ;.",
"` M ` ] N & e F v.B.x.f._ ^ ^ ^ Y ) 1.f.g.g.1._ >.,.f.) I G l F T T Q >./ ^ / >.,.2.h.j.j.1./ F c l J k.v.>.H U k , ; ` N n ` =.",
"] N N ` N 4 z G 1.g.( _ f.l.k.2.2.k.k.g.g.2.) ( ) ) ) ,.! H A A I Y E / / >.>./ ,.g.j.z.v.b.1.c c l H 1.c.Y H U c , ; ` V n ` $.",
" .` M ` N 0 c c >.Q E >.>.>.2.2.2.b.2.x.>.>.>.>.>.>.( ( >.P S k K I Y W 1.,._ ,.f.l.b.b.b.b.,.c c c P >.>.c P I z ; ; ' ` n ` X.",
" .` n ` N j x c Q >.Q E Q >.2.2.2.2.2.2.2.>.>.W >.>.~ [ >.>.F z c P U Y _ 1.2.f.j.b.b.b.b.B.>.z c c I / T H P P j , ; ] ` n ` +.",
" .` n ] ` 0 j x Q >.Q >.>.>.<.<.2.2.2.2.2.1.>.>.~ >.>.>.>.H H z t G L K P Q 1.l.z.b.M.b.b.l.I c c l T / P H P P j , * ' ` n ` +.",
" .] n ` ` q e k R E Q Q Q >.>.<.2.2.2.2.1.>.>.>.>.~ P >.>.P P c k S S P K P T / >.>.! I P F c S z k P Q H H K L 0 - * ' N n ` =.",
" .' n ` ` 4 e j P >.T Q U Q <.>.1.1.1.>.>.Q >.>.~ ~ >.R >.H P F c j k H P P P K G S S S S c c c z l S Q G H L H 0 > % { N n ` ..",
" .] n N ` 4 e j G >.R U R R >.Q >.>.>.>.Q >.W Q ~ ~ W U I P P H c l r j H P P P F S S S F F c z z l z P H G K G 8 = ; ` ` n ` ..",
" .' M ` ` 4 e r c K U >.Q >.>.>.>.>.Q >.>.E Q Q Q E U U P P P P S c j j A P I P F F F S S c x l j z z c G F H c 8 = % { ` n ` ..",
" .+.7.&.` 4 e j l G >.>.>.Q >.>.>.E >.>.E >.E E U U U U P P P P H c c j j G P H F S S c l k z z c c z z c c G z 0 = ; { ;.*.$.o.",
" .q.s.8. .4 y y x >.~ ~ >.>.>.>.>.>.2.>.>.E I P S H K H H P P P K c S c j e k c c z k c P ^ 1.2.,.>.~ W U J c k 0 = & ] p.y.0.%.",
" .=.w.q.] 4 w 0 L >.>.>.>.>.>.<.2.2.b.2.2.2.2.>.>.>.>.P Y P P H K S c S c j r j l l ~ x.b.x.x.z.l.h.2.2.1.2.2.R e 8 = N *.0.8.=.",
"X.' ] } N ; , y R >.>.~ ~ ~ >.2.m.b.c.b.b.v.b.2.>.>.>.>.>.I P P G S c S c c y r y R m.n.b.z.x.l.k.h.2.2.1.2.m.m.c > % ` ' } | $.",
"$.| M ` [ 8 0 x >.~ >.>.>.>.>.>.2.M.b.m.v.>.>.>.R R Y Q T >.>.I G S c S c z j e y 2.M.n.v.z.l.x.l.k.l.2.2.2.2.x.R 9 % ` M n ` =.",
"$.} M ] ` ; e x >.>.>.>.>.>.>.>.2.b.b.b.>.>.I >.R ~ Q W I >.H >.K c S S S c j a R n.B.n.x.x.v.x.c.z.k.l.2.k.k.2.c y % N M n ` $.",
":.o.M ] ' 4 e e c >.~ >.>.>.>.,.,.2.b.2.>.T >.I >.R R Q >.I P >.P c S F S c j P n.M.N.N.n.k.2.h.k.h.2.2.<.<.2.>.j y ; M M n ` $.",
"-.| M ] ] w w w c U [ >.>.>.>.,.,.2.b.>.P >.>.P R ~ ~ R P I I >.F F c c c j c 2.M.n.n.l.<.( ( <.,.>.>.>.>.>.1.~ e > ; M M n ` $.",
":.| M ] [ : w e L U L P P >.>.,.,.2.2.I >.>.I >.~ ~ R [ P >.>.H c c c c j z 2.M.M.n.2.( ( ( >.<.>./ >.>.>.>.<.~ y > % M M n ` $.",
"#.} M ] ` ; w e U U P L I E ! >.>.2.2.>.T >.>.T >.>.P P T P A c c c c k j ^ b.m.c.>.! >.>.>.>.>./ >./ >./ >.>./ j > & M M n ` +.",
"@.| M ] [ ; 0 r P U P P L K K P U >.1.>.>.T U >.H P P P F c c S c c l j R x.b.l.>./ >.>.Q W W / ! ! ! Q / / / ~ y > & N N n ' =.",
"$.| M ] ' % > e P U P L L H H G F H H U K P K H H H H S A c c c c c k U x.v.2.>.>.>./ ! P T W Q ! ! ! ! ^ Q ^ ^ j > % M N n ' +.",
"$.o.N ] [ % = , c Y U P H H H H H H H F S S F F S S S S S c c c c c J 2.v.k.>.>.>.! >.E T E W W Q ! Q Q Q Q E E y > % M N n ' =.",
"@.| N ] ' & # % q l F K L H H H H H H F G G F F F F F S c c c c k z <.k.l.1.>.>.! ! ! T E E W Q ! ! Q Q Q Q T T r > = m N n ` =.",
"$.o.N } ' 4 , - 0 j j k c H L H H H G G F G F F F S S S S S c k c >.2.k.1.^ ^ ^ ! >.Q I W W Q Q Q Q Q Q / E Y I k - + m N M ` $.",
"@.o.N } ' 4 y y r k j j j k z c c S c c c c c c c c c c c z k j R <.2.2.^ >.>.~ W T I L U U U Y I I E ! T P P K y > + m V n ' $.",
"$.o.` ] ' 4 y k k l k k r e ; ; 8 0 w 0 0 0 0 0 5 q q 0 0 8 8 r c c c T T L c c k j j j j j k k z z l l j r r r 0 > + m ` M ' =.",
"$. .V } ' < e r j j j y y r r > > > > , - , , 8 8 8 , - > > 8 k k k j j j e y w e e w 8 w j k k u r r r w 0 q 0 0 > + m ` m ] $.",
"@. .V } C - , 8 0 0 0 , 0 9 0 > = = - , , , > - = = = = = = w w r r e 0 w w w w 8 8 8 8 w w w w w w 9 8 8 8 8 8 > # o m ' N ' ..",
"$.o.V  .' 1 i f f p f f f f f f f h h h h f f f d d p d d f f f f d f p d p p f f f f f f f f f f d f d f d f d d p : m ' N ' ..",
"@.&.7.&.C 3 V ` ` ` ` ` ` ` ` ` ` ` N ` N ` X.X.` N ` N ` ` ` ` ` ` ` ` ` ` ` ` `  .+.} ` ` ` ` ` ` ` ` ` ' ` V ` N i M *.3.$. .",
"+.t.a.5.[ 3 C ] ] ' ' ` ` N N M N N M n M o.s.e.%.n M n M M M n N M n n n M M ` ' i.y.3.` ` ` V ` ` ` ` ' ` ] ] ] B s B d.y.9.O.",
"+.6.w.5.' 3 V ` ` V N M M n M n n n n n n | a.e.%.n n n n n n n n n n n n n M n ` t.w.*.` M M N N N V V V V V V V V s m t.9.5. .",
"@.} } } M 3  . .` N V ` ` N V ` ` ` ` ` ` ` X.%.] ] ` ` ` ' ' ' ` { ] ] ' ` ' ] ]  .&. .] } ] }  . . . . ... ...+.} d b ' O.] ] ",
"V V m M b 3 | ' N V N ` ` ` ] ] ] ] | ] | ` n n `  . .} } } } } } }  .] ' ` ] ] ] M b N  . . . .} }  . .}  . .} } ] s b M n M N "
};
